<svg width="512" height="512" viewBox="0 0 512 512" fill="none" xmlns="http://www.w3.org/2000/svg">
<path d="M11 181.185L72.7517 61H437.815L501 181.19L311.335 450.865L310.497 451H203.296L11 181.185Z" stroke="#FE520A" stroke-width="18" stroke-linejoin="round"/>
<path fill-rule="evenodd" clip-rule="evenodd" d="M179.856 134.272C200.173 111.698 227.728 99.0156 256.461 99.0156C285.193 99.0156 312.748 111.698 333.065 134.272C353.381 156.847 364.795 187.465 364.795 219.39C364.795 259.267 354.522 275.53 305.381 353.316C294.714 370.201 282.216 389.984 267.595 413.537C266.347 415.536 264.683 417.169 262.744 418.297C260.805 419.425 258.649 420.014 256.461 420.014C254.272 420.014 252.116 419.425 250.177 418.297C248.238 417.169 246.574 415.536 245.326 413.537C230.705 389.984 218.207 370.201 207.54 353.316C158.399 275.53 148.126 259.267 148.126 219.39C148.126 187.465 159.54 156.847 179.856 134.272ZM229.364 160.446C237.486 155.361 246.651 152.692 255.973 152.696C270.334 152.714 284.102 159.061 294.257 170.345C304.412 181.628 310.124 196.926 310.14 212.883C310.165 225.126 306.799 237.08 300.499 247.124C295.196 255.642 288.004 262.496 279.619 267.022C271.234 271.547 261.939 273.592 252.635 272.958C243.33 272.323 234.33 269.032 226.506 263.401C218.682 257.77 212.298 249.991 207.971 240.816C203.645 231.641 201.523 221.381 201.81 211.028C202.098 200.675 204.785 190.58 209.612 181.718C214.439 172.857 221.242 165.53 229.364 160.446Z" fill="#FE520A"/>
</svg>
