<svg width="96" height="96" viewBox="0 0 96 96" fill="none" xmlns="http://www.w3.org/2000/svg">
<circle cx="48" cy="48" r="46.72" fill="white" stroke="#D8D8D8" stroke-width="2.56"/>
<circle cx="47.9985" cy="48.0024" r="37.8462" fill="#7CBC39"/>
<mask id="path-3-inside-1_5118_2303" fill="white">
<path fill-rule="evenodd" clip-rule="evenodd" d="M46.6089 31.1382V36.1967C46.6089 36.3462 46.5795 36.4942 46.5223 36.6323C46.4651 36.7704 46.3812 36.8958 46.2755 37.0015C46.1698 37.1072 46.0444 37.1911 45.9063 37.2483C45.7682 37.3055 45.6202 37.3349 45.4707 37.3349H31.1382C30.8363 37.3349 30.5468 37.215 30.3334 37.0015C30.1199 36.7881 30 36.4986 30 36.1967V31.1382C30 30.5092 30.5092 30 31.1382 30H45.4707C46.0997 30 46.6089 30.5092 46.6089 31.1382ZM46.6089 41.2553V54.7447C46.6089 54.8942 46.5795 55.0422 46.5223 55.1803C46.4651 55.3184 46.3812 55.4439 46.2755 55.5495C46.1698 55.6552 46.0444 55.7391 45.9063 55.7963C45.7682 55.8535 45.6202 55.8829 45.4707 55.8829H31.1382C30.8363 55.8829 30.5468 55.763 30.3334 55.5495C30.1199 55.3361 30 55.0466 30 54.7447V41.2553C30 40.6263 30.5092 40.1171 31.1382 40.1171H45.4707C46.0997 40.1171 46.6089 40.6263 46.6089 41.2553ZM66 31.1382V54.7447C66 54.8942 65.9706 55.0422 65.9134 55.1803C65.8562 55.3184 65.7723 55.4439 65.6666 55.5495C65.5609 55.6552 65.4355 55.7391 65.2974 55.7963C65.1593 55.8535 65.0113 55.8829 64.8618 55.8829H50.5293C50.2274 55.8829 49.9379 55.763 49.7245 55.5495C49.511 55.3361 49.3911 55.0466 49.3911 54.7447V31.1382C49.3911 30.5092 49.9003 30 50.5293 30H64.8618C65.4908 30 66 30.5092 66 31.1382ZM66 59.8033V64.8618C66 65.0113 65.9706 65.1593 65.9134 65.2974C65.8562 65.4355 65.7723 65.5609 65.6666 65.6666C65.5609 65.7723 65.4355 65.8562 65.2974 65.9134C65.1593 65.9706 65.0113 66 64.8618 66H50.5293C50.3798 66 50.2318 65.9706 50.0937 65.9134C49.9556 65.8562 49.8302 65.7723 49.7245 65.6666C49.6188 65.5609 49.5349 65.4355 49.4777 65.2974C49.4205 65.1593 49.3911 65.0113 49.3911 64.8618V59.8033C49.3911 59.1743 49.9003 58.6651 50.5293 58.6651H64.8618C65.4908 58.6651 66 59.1743 66 59.8033ZM46.6089 59.8033V64.8618C46.6089 65.0113 46.5795 65.1593 46.5223 65.2974C46.4651 65.4355 46.3812 65.5609 46.2755 65.6666C46.1698 65.7723 46.0444 65.8562 45.9063 65.9134C45.7682 65.9706 45.6202 66 45.4707 66H31.1382C30.9887 66 30.8407 65.9706 30.7026 65.9134C30.5645 65.8562 30.4391 65.7723 30.3334 65.6666C30.2277 65.5609 30.1438 65.4355 30.0866 65.2974C30.0294 65.1593 30 65.0113 30 64.8618V59.8033C30 59.1743 30.5092 58.6651 31.1382 58.6651H45.4707C46.0997 58.6651 46.6089 59.1743 46.6089 59.8033Z"/>
</mask>
<path fill-rule="evenodd" clip-rule="evenodd" d="M46.6089 31.1382V36.1967C46.6089 36.3462 46.5795 36.4942 46.5223 36.6323C46.4651 36.7704 46.3812 36.8958 46.2755 37.0015C46.1698 37.1072 46.0444 37.1911 45.9063 37.2483C45.7682 37.3055 45.6202 37.3349 45.4707 37.3349H31.1382C30.8363 37.3349 30.5468 37.215 30.3334 37.0015C30.1199 36.7881 30 36.4986 30 36.1967V31.1382C30 30.5092 30.5092 30 31.1382 30H45.4707C46.0997 30 46.6089 30.5092 46.6089 31.1382ZM46.6089 41.2553V54.7447C46.6089 54.8942 46.5795 55.0422 46.5223 55.1803C46.4651 55.3184 46.3812 55.4439 46.2755 55.5495C46.1698 55.6552 46.0444 55.7391 45.9063 55.7963C45.7682 55.8535 45.6202 55.8829 45.4707 55.8829H31.1382C30.8363 55.8829 30.5468 55.763 30.3334 55.5495C30.1199 55.3361 30 55.0466 30 54.7447V41.2553C30 40.6263 30.5092 40.1171 31.1382 40.1171H45.4707C46.0997 40.1171 46.6089 40.6263 46.6089 41.2553ZM66 31.1382V54.7447C66 54.8942 65.9706 55.0422 65.9134 55.1803C65.8562 55.3184 65.7723 55.4439 65.6666 55.5495C65.5609 55.6552 65.4355 55.7391 65.2974 55.7963C65.1593 55.8535 65.0113 55.8829 64.8618 55.8829H50.5293C50.2274 55.8829 49.9379 55.763 49.7245 55.5495C49.511 55.3361 49.3911 55.0466 49.3911 54.7447V31.1382C49.3911 30.5092 49.9003 30 50.5293 30H64.8618C65.4908 30 66 30.5092 66 31.1382ZM66 59.8033V64.8618C66 65.0113 65.9706 65.1593 65.9134 65.2974C65.8562 65.4355 65.7723 65.5609 65.6666 65.6666C65.5609 65.7723 65.4355 65.8562 65.2974 65.9134C65.1593 65.9706 65.0113 66 64.8618 66H50.5293C50.3798 66 50.2318 65.9706 50.0937 65.9134C49.9556 65.8562 49.8302 65.7723 49.7245 65.6666C49.6188 65.5609 49.5349 65.4355 49.4777 65.2974C49.4205 65.1593 49.3911 65.0113 49.3911 64.8618V59.8033C49.3911 59.1743 49.9003 58.6651 50.5293 58.6651H64.8618C65.4908 58.6651 66 59.1743 66 59.8033ZM46.6089 59.8033V64.8618C46.6089 65.0113 46.5795 65.1593 46.5223 65.2974C46.4651 65.4355 46.3812 65.5609 46.2755 65.6666C46.1698 65.7723 46.0444 65.8562 45.9063 65.9134C45.7682 65.9706 45.6202 66 45.4707 66H31.1382C30.9887 66 30.8407 65.9706 30.7026 65.9134C30.5645 65.8562 30.4391 65.7723 30.3334 65.6666C30.2277 65.5609 30.1438 65.4355 30.0866 65.2974C30.0294 65.1593 30 65.0113 30 64.8618V59.8033C30 59.1743 30.5092 58.6651 31.1382 58.6651H45.4707C46.0997 58.6651 46.6089 59.1743 46.6089 59.8033Z" fill="white"/>
<path d="M46.6089 36.1967H21.1377H46.6089ZM30 36.1967H55.4712H30ZM46.6089 54.7447H21.1377H46.6089ZM45.4707 55.8829V81.3541V55.8829ZM31.1382 55.8829V81.3541V55.8829ZM30 54.7447H55.4712H30ZM64.8618 55.8829V30.4117V55.8829ZM50.5293 55.8829V81.3541V55.8829ZM49.3911 54.7447H74.8623H49.3911ZM66 64.8618H40.5288H66ZM64.8618 66V40.5288V66ZM46.6089 64.8618H21.1377H46.6089ZM45.4707 66V91.4712V66ZM30 64.8618H55.4712H30ZM21.1377 31.1382V36.1967H72.0801V31.1382H21.1377ZM21.1377 36.1967C21.1377 33.0013 21.7671 29.8371 22.99 26.8849L70.0546 46.3797C71.3918 43.1512 72.0801 39.6911 72.0801 36.1967H21.1377ZM22.99 26.8849C24.2129 23.9326 26.0052 21.2502 28.2647 18.9907L64.2864 55.0124C66.7572 52.5415 68.7173 49.6082 70.0546 46.3797L22.99 26.8849ZM28.2647 18.9907C30.5243 16.7312 33.2067 14.9388 36.1589 13.716L55.6537 60.7805C58.882 59.4433 61.8154 57.4833 64.2864 55.0124L28.2647 18.9907ZM36.1589 13.716C39.111 12.4932 42.2751 11.8637 45.4707 11.8637V62.8061C48.9653 62.8061 52.4254 62.1177 55.6537 60.7805L36.1589 13.716ZM45.4707 11.8637H31.1382V62.8061H45.4707V11.8637ZM31.1382 11.8637C37.5917 11.8637 43.7809 14.4274 48.3442 18.9907L12.3225 55.0124C17.3127 60.0026 24.0809 62.8061 31.1382 62.8061V11.8637ZM48.3442 18.9907C52.9075 23.554 55.4712 29.7432 55.4712 36.1967H4.52884C4.52884 43.254 7.33231 50.0221 12.3225 55.0124L48.3442 18.9907ZM55.4712 36.1967V31.1382H4.52884V36.1967H55.4712ZM55.4712 31.1382C55.4712 44.5766 44.5766 55.4712 31.1382 55.4712V4.52884C16.4419 4.52884 4.52884 16.4419 4.52884 31.1382H55.4712ZM31.1382 55.4712H45.4707V4.52884H31.1382V55.4712ZM45.4707 55.4712C32.0323 55.4712 21.1377 44.5766 21.1377 31.1382H72.0801C72.0801 16.4419 60.167 4.52884 45.4707 4.52884V55.4712ZM21.1377 41.2553V54.7447H72.0801V41.2553H21.1377ZM21.1377 54.7447C21.1377 51.5494 21.7671 48.3852 22.99 45.4329L70.0546 64.9277C71.3918 61.6992 72.0801 58.239 72.0801 54.7447H21.1377ZM22.99 45.4329C24.2129 42.4805 26.0053 39.7981 28.2647 37.5387L64.2864 73.5604C66.7571 71.0896 68.7172 68.1563 70.0546 64.9277L22.99 45.4329ZM28.2647 37.5387C30.5241 35.2793 33.2066 33.4869 36.1589 32.264L55.6537 79.3286C58.8822 77.9913 61.8156 76.0312 64.2864 73.5604L28.2647 37.5387ZM36.1589 32.264C39.1113 31.041 42.2755 30.4117 45.4707 30.4117V81.3541C48.9649 81.3541 52.4251 80.6659 55.6537 79.3286L36.1589 32.264ZM45.4707 30.4117H31.1382V81.3541H45.4707V30.4117ZM31.1382 30.4117C37.5916 30.4117 43.7808 32.9754 48.3442 37.5387L12.3225 73.5604C17.3128 78.5506 24.081 81.3541 31.1382 81.3541V30.4117ZM48.3442 37.5387C52.9075 42.102 55.4712 48.2912 55.4712 54.7447H4.52884C4.52884 61.802 7.33232 68.5702 12.3225 73.5604L48.3442 37.5387ZM55.4712 54.7447V41.2553H4.52884V54.7447H55.4712ZM55.4712 41.2553C55.4712 54.6936 44.5766 65.5883 31.1382 65.5883V14.6459C16.4419 14.6459 4.52884 26.559 4.52884 41.2553H55.4712ZM31.1382 65.5883H45.4707V14.6459H31.1382V65.5883ZM45.4707 65.5883C32.0323 65.5883 21.1377 54.6937 21.1377 41.2553H72.0801C72.0801 26.559 60.167 14.6459 45.4707 14.6459V65.5883ZM40.5288 31.1382V54.7447H91.4712V31.1382H40.5288ZM40.5288 54.7447C40.5288 51.5495 41.1581 48.3854 42.3811 45.4329L89.4456 64.9277C90.783 61.6991 91.4712 58.2389 91.4712 54.7447H40.5288ZM42.3811 45.4329C43.604 42.4805 45.3964 39.7981 47.6558 37.5387L83.6775 73.5604C86.1482 71.0896 88.1083 68.1563 89.4456 64.9277L42.3811 45.4329ZM47.6558 37.5387C49.9152 35.2793 52.5976 33.4869 55.55 32.264L75.0448 79.3286C78.2734 77.9912 81.2067 76.0311 83.6775 73.5604L47.6558 37.5387ZM55.55 32.264C58.5024 31.041 61.6666 30.4117 64.8618 30.4117V81.3541C68.356 81.3541 71.8162 80.6659 75.0448 79.3286L55.55 32.264ZM64.8618 30.4117H50.5293V81.3541H64.8618V30.4117ZM50.5293 30.4117C56.9827 30.4117 63.172 32.9754 67.7353 37.5387L31.7136 73.5604C36.7039 78.5506 43.4721 81.3541 50.5293 81.3541V30.4117ZM67.7353 37.5387C72.2986 42.102 74.8623 48.2912 74.8623 54.7447H23.9199C23.9199 61.802 26.7235 68.5702 31.7136 73.5604L67.7353 37.5387ZM74.8623 54.7447V31.1382H23.9199V54.7447H74.8623ZM74.8623 31.1382C74.8623 44.5766 63.9677 55.4712 50.5293 55.4712V4.52884C35.833 4.52884 23.9199 16.4419 23.9199 31.1382H74.8623ZM50.5293 55.4712H64.8618V4.52884H50.5293V55.4712ZM64.8618 55.4712C51.4234 55.4712 40.5288 44.5765 40.5288 31.1382H91.4712C91.4712 16.4419 79.5581 4.52884 64.8618 4.52884V55.4712ZM40.5288 59.8033V64.8618H91.4712V59.8033H40.5288ZM40.5288 64.8618C40.5288 61.6666 41.1581 58.5024 42.3811 55.55L89.4456 75.0448C90.783 71.8162 91.4712 68.356 91.4712 64.8618H40.5288ZM42.3811 55.55C43.604 52.5976 45.3964 49.9152 47.6558 47.6558L83.6775 83.6775C86.1482 81.2067 88.1083 78.2734 89.4456 75.0448L42.3811 55.55ZM47.6558 47.6558C49.9152 45.3964 52.5976 43.604 55.55 42.3811L75.0448 89.4456C78.2734 88.1083 81.2067 86.1482 83.6775 83.6775L47.6558 47.6558ZM55.55 42.3811C58.5024 41.1581 61.6666 40.5288 64.8618 40.5288V91.4712C68.356 91.4712 71.8162 90.783 75.0448 89.4456L55.55 42.3811ZM64.8618 40.5288H50.5293V91.4712H64.8618V40.5288ZM50.5293 40.5288C53.7245 40.5288 56.8887 41.1581 59.8411 42.3811L40.3463 89.4456C43.5749 90.783 47.0351 91.4712 50.5293 91.4712V40.5288ZM59.8411 42.3811C62.7934 43.604 65.4759 45.3964 67.7353 47.6558L31.7136 83.6775C34.1844 86.1483 37.1178 88.1084 40.3463 89.4456L59.8411 42.3811ZM67.7353 47.6558C69.9947 49.9152 71.7871 52.5976 73.01 55.55L25.9455 75.0448C27.2828 78.2734 29.2429 81.2067 31.7136 83.6775L67.7353 47.6558ZM73.01 55.55C74.2329 58.5023 74.8623 61.6664 74.8623 64.8618H23.9199C23.9199 68.3561 24.6082 71.8163 25.9455 75.0448L73.01 55.55ZM74.8623 64.8618V59.8033H23.9199V64.8618H74.8623ZM74.8623 59.8033C74.8623 73.2417 63.9676 84.1363 50.5293 84.1363V33.1939C35.833 33.1939 23.9199 45.1069 23.9199 59.8033H74.8623ZM50.5293 84.1363H64.8618V33.1939H50.5293V84.1363ZM64.8618 84.1363C51.4234 84.1363 40.5288 73.2417 40.5288 59.8033H91.4712C91.4712 45.107 79.5581 33.1939 64.8618 33.1939V84.1363ZM21.1377 59.8033V64.8618H72.0801V59.8033H21.1377ZM21.1377 64.8618C21.1377 61.6664 21.7671 58.5023 22.99 55.55L70.0546 75.0448C71.3918 71.8163 72.0801 68.3561 72.0801 64.8618H21.1377ZM22.99 55.55C24.2129 52.5976 26.0053 49.9152 28.2647 47.6558L64.2864 83.6775C66.7571 81.2067 68.7172 78.2734 70.0546 75.0448L22.99 55.55ZM28.2647 47.6558C30.5241 45.3964 33.2066 43.604 36.1589 42.3811L55.6537 89.4456C58.8822 88.1084 61.8156 86.1483 64.2864 83.6775L28.2647 47.6558ZM36.1589 42.3811C39.1113 41.1581 42.2755 40.5288 45.4707 40.5288V91.4712C48.9649 91.4712 52.4251 90.783 55.6537 89.4456L36.1589 42.3811ZM45.4707 40.5288H31.1382V91.4712H45.4707V40.5288ZM31.1382 40.5288C34.3334 40.5288 37.4976 41.1581 40.45 42.3811L20.9552 89.4456C24.1838 90.783 27.644 91.4712 31.1382 91.4712V40.5288ZM40.45 42.3811C43.4023 43.604 46.0847 45.3963 48.3442 47.6558L12.3225 83.6775C14.7934 86.1483 17.7267 88.1084 20.9552 89.4456L40.45 42.3811ZM48.3442 47.6558C50.6036 49.9152 52.396 52.5977 53.6189 55.55L6.55435 75.0448C7.89165 78.2733 9.85172 81.2067 12.3225 83.6775L48.3442 47.6558ZM53.6189 55.55C54.8418 58.5023 55.4712 61.6664 55.4712 64.8618H4.52884C4.52884 68.3562 5.21709 71.8163 6.55435 75.0448L53.6189 55.55ZM55.4712 64.8618V59.8033H4.52884V64.8618H55.4712ZM55.4712 59.8033C55.4712 73.2417 44.5765 84.1363 31.1382 84.1363V33.1939C16.4419 33.1939 4.52884 45.107 4.52884 59.8033H55.4712ZM31.1382 84.1363H45.4707V33.1939H31.1382V84.1363ZM45.4707 84.1363C32.0324 84.1363 21.1377 73.2417 21.1377 59.8033H72.0801C72.0801 45.1069 60.167 33.1939 45.4707 33.1939V84.1363Z" fill="white" mask="url(#path-3-inside-1_5118_2303)"/>
</svg>
