<svg width="96" height="96" viewBox="0 0 96 96" fill="none" xmlns="http://www.w3.org/2000/svg">
<circle cx="48" cy="48" r="46.72" fill="white" stroke="#D8D8D8" stroke-width="2.56"/>
<circle cx="47.9985" cy="48.0024" r="37.8462" fill="#FE5717"/>
<path d="M47.7218 48.7061L47.6364 48.3644L47.2958 48.275L43.1864 47.1963L63.3526 32.6472L48.7465 52.8051L47.7218 48.7061ZM35.467 40.3409L56.1466 33.761L40.3448 45.1613L35.467 40.3409ZM62.2646 39.795L55.666 60.5334L50.7789 55.6463L62.2646 39.795ZM37.6225 59.0374L36.9625 58.3774L43.0209 52.319L43.6808 52.979L37.6225 59.0374ZM30.8412 58.129L37.7133 51.257L38.3733 51.9169L31.5011 58.789L30.8412 58.129ZM37.2096 64.4988L44.0817 57.6267L44.7417 58.2867L37.8696 65.1588L37.2096 64.4988Z" fill="white" stroke="white" stroke-width="1.18959"/>
</svg>
