<svg width="96" height="96" viewBox="0 0 96 96" fill="none" xmlns="http://www.w3.org/2000/svg">
<circle cx="48" cy="48" r="46.72" fill="white" stroke="#D8D8D8" stroke-width="2.56"/>
<circle cx="47.9946" cy="47.9926" r="37.8461" fill="#FE5717"/>
<mask id="path-3-inside-1_5118_2094" fill="white">
<path d="M53.4341 31.2161C51.1347 30.2177 48.5626 30.1285 46.1865 30.9645C43.8103 31.8167 41.9197 33.4887 40.8721 35.6883C39.1177 39.3489 40.1397 43.7237 43.3675 46.3291C44.0147 46.8485 44.7472 47.3031 45.5477 47.6602H45.5563C46.7827 48.1959 48.1283 48.4719 49.4995 48.4719C49.789 48.4719 50.0786 48.4556 50.3682 48.4313C53.7407 48.131 56.7045 46.1262 58.1098 43.1961C60.2815 38.6589 58.1779 33.2858 53.4341 31.2161ZM57.7265 43.0256C56.3809 45.8259 53.5449 47.7414 50.3341 48.0336C48.7415 48.1634 47.1489 47.9118 45.7351 47.2868C44.9601 46.9459 44.2617 46.5158 43.64 46.0207C40.5655 43.5289 39.5776 39.3489 41.2554 35.8587C42.2603 33.7566 44.0658 32.1576 46.3398 31.3459C48.6052 30.5424 51.058 30.6236 53.2553 31.5813C57.7861 33.5618 59.7961 38.6995 57.7265 43.0256ZM53.4341 31.2161C51.1347 30.2177 48.5626 30.1285 46.1865 30.9645C43.8103 31.8167 41.9197 33.4887 40.8721 35.6883C39.1177 39.3489 40.1397 43.7237 43.3675 46.3291C44.0147 46.8485 44.7472 47.3031 45.5477 47.6602H45.5563C46.7827 48.1959 48.1283 48.4719 49.4995 48.4719C49.789 48.4719 50.0786 48.4556 50.3682 48.4313C53.7407 48.131 56.7045 46.1262 58.1098 43.1961C60.2815 38.6589 58.1779 33.2858 53.4341 31.2161ZM57.7265 43.0256C56.3809 45.8259 53.5449 47.7414 50.3341 48.0336C48.7415 48.1634 47.1489 47.9118 45.7351 47.2868C44.9601 46.9459 44.2617 46.5158 43.64 46.0207C40.5655 43.5289 39.5776 39.3489 41.2554 35.8587C42.2603 33.7566 44.0658 32.1576 46.3398 31.3459C48.6052 30.5424 51.058 30.6236 53.2553 31.5813C57.7861 33.5618 59.7961 38.6995 57.7265 43.0256ZM61.7208 35.0958C61.1076 33.5374 60.2049 32.1414 59.0466 30.9645C57.8969 29.7794 56.4916 28.8217 54.9075 28.1237C51.7393 26.752 48.1964 26.6302 44.9345 27.7909C41.6641 28.9516 39.0751 31.2567 37.6273 34.276C34.9871 39.7709 36.8437 46.2073 42.0389 49.6487L40.3185 53.1632L40.1397 53.5285L45.8884 56.0689L46.0673 55.7037L47.9665 51.7915C53.613 52.4327 58.9785 49.5513 61.3631 44.6084C62.811 41.5809 62.9387 38.2044 61.7208 35.0958ZM60.9714 44.4379C58.6548 49.2673 53.383 52.0512 47.8728 51.3695L47.711 51.3532L45.684 55.5332L40.7103 53.3337L42.5754 49.5108L42.4307 49.4134C37.2951 46.1099 35.4385 39.8115 38.019 34.4383C39.4158 31.5245 41.9196 29.2925 45.0793 28.1724C46.5186 27.661 48.009 27.4013 49.4995 27.4013C51.2879 27.4013 53.0679 27.7747 54.7372 28.497C57.8032 29.8363 60.1452 32.2225 61.3205 35.2338C62.5044 38.245 62.3766 41.5079 60.9714 44.4379Z"/>
</mask>
<path d="M53.4341 31.2161C51.1347 30.2177 48.5626 30.1285 46.1865 30.9645C43.8103 31.8167 41.9197 33.4887 40.8721 35.6883C39.1177 39.3489 40.1397 43.7237 43.3675 46.3291C44.0147 46.8485 44.7472 47.3031 45.5477 47.6602H45.5563C46.7827 48.1959 48.1283 48.4719 49.4995 48.4719C49.789 48.4719 50.0786 48.4556 50.3682 48.4313C53.7407 48.131 56.7045 46.1262 58.1098 43.1961C60.2815 38.6589 58.1779 33.2858 53.4341 31.2161ZM57.7265 43.0256C56.3809 45.8259 53.5449 47.7414 50.3341 48.0336C48.7415 48.1634 47.1489 47.9118 45.7351 47.2868C44.9601 46.9459 44.2617 46.5158 43.64 46.0207C40.5655 43.5289 39.5776 39.3489 41.2554 35.8587C42.2603 33.7566 44.0658 32.1576 46.3398 31.3459C48.6052 30.5424 51.058 30.6236 53.2553 31.5813C57.7861 33.5618 59.7961 38.6995 57.7265 43.0256ZM53.4341 31.2161C51.1347 30.2177 48.5626 30.1285 46.1865 30.9645C43.8103 31.8167 41.9197 33.4887 40.8721 35.6883C39.1177 39.3489 40.1397 43.7237 43.3675 46.3291C44.0147 46.8485 44.7472 47.3031 45.5477 47.6602H45.5563C46.7827 48.1959 48.1283 48.4719 49.4995 48.4719C49.789 48.4719 50.0786 48.4556 50.3682 48.4313C53.7407 48.131 56.7045 46.1262 58.1098 43.1961C60.2815 38.6589 58.1779 33.2858 53.4341 31.2161ZM57.7265 43.0256C56.3809 45.8259 53.5449 47.7414 50.3341 48.0336C48.7415 48.1634 47.1489 47.9118 45.7351 47.2868C44.9601 46.9459 44.2617 46.5158 43.64 46.0207C40.5655 43.5289 39.5776 39.3489 41.2554 35.8587C42.2603 33.7566 44.0658 32.1576 46.3398 31.3459C48.6052 30.5424 51.058 30.6236 53.2553 31.5813C57.7861 33.5618 59.7961 38.6995 57.7265 43.0256ZM61.7208 35.0958C61.1076 33.5374 60.2049 32.1414 59.0466 30.9645C57.8969 29.7794 56.4916 28.8217 54.9075 28.1237C51.7393 26.752 48.1964 26.6302 44.9345 27.7909C41.6641 28.9516 39.0751 31.2567 37.6273 34.276C34.9871 39.7709 36.8437 46.2073 42.0389 49.6487L40.3185 53.1632L40.1397 53.5285L45.8884 56.0689L46.0673 55.7037L47.9665 51.7915C53.613 52.4327 58.9785 49.5513 61.3631 44.6084C62.811 41.5809 62.9387 38.2044 61.7208 35.0958ZM60.9714 44.4379C58.6548 49.2673 53.383 52.0512 47.8728 51.3695L47.711 51.3532L45.684 55.5332L40.7103 53.3337L42.5754 49.5108L42.4307 49.4134C37.2951 46.1099 35.4385 39.8115 38.019 34.4383C39.4158 31.5245 41.9196 29.2925 45.0793 28.1724C46.5186 27.661 48.009 27.4013 49.4995 27.4013C51.2879 27.4013 53.0679 27.7747 54.7372 28.497C57.8032 29.8363 60.1452 32.2225 61.3205 35.2338C62.5044 38.245 62.3766 41.5079 60.9714 44.4379Z" fill="white"/>
<path d="M53.4341 31.2161L53.7224 30.5554L53.7212 30.5549L53.4341 31.2161ZM46.1865 30.9645L45.9473 30.2845L45.9431 30.286L46.1865 30.9645ZM40.8721 35.6883L41.5221 35.9998L41.5229 35.9982L40.8721 35.6883ZM43.3675 46.3291L42.9148 46.8899L42.9163 46.8912L43.3675 46.3291ZM45.5477 47.6602L45.2541 48.3184L45.3943 48.381H45.5477V47.6602ZM45.5563 47.6602L45.8448 46.9997L45.7068 46.9394H45.5563V47.6602ZM50.3682 48.4313L50.4286 49.1495L50.4321 49.1492L50.3682 48.4313ZM58.1098 43.1961L58.7597 43.5078L58.7599 43.5073L58.1098 43.1961ZM57.7265 43.0256L58.3762 43.3378L58.3767 43.3367L57.7265 43.0256ZM50.3341 48.0336L50.3927 48.752L50.3994 48.7514L50.3341 48.0336ZM45.7351 47.2868L46.0265 46.6276L46.0253 46.6271L45.7351 47.2868ZM43.64 46.0207L43.1862 46.5806L43.191 46.5845L43.64 46.0207ZM41.2554 35.8587L41.905 36.171L41.9056 36.1696L41.2554 35.8587ZM46.3398 31.3459L46.0988 30.6666L46.0975 30.6671L46.3398 31.3459ZM53.2553 31.5813L53.544 30.9209L53.5433 30.9206L53.2553 31.5813ZM53.7212 30.5549C51.254 29.4838 48.494 29.3885 45.9473 30.2845L46.4257 31.6444C48.6313 30.8684 51.0153 30.9517 53.1471 31.8772L53.7212 30.5549ZM45.9431 30.286C43.3972 31.1992 41.3549 32.9983 40.2214 35.3784L41.5229 35.9982C42.4844 33.9791 44.2235 32.4342 46.4298 31.6429L45.9431 30.286ZM40.2221 35.3768C38.3192 39.3472 39.4343 44.0806 42.9148 46.8899L43.8202 45.7682C40.845 43.3667 39.9162 39.3505 41.5221 35.9998L40.2221 35.3768ZM42.9163 46.8912C43.6102 47.4481 44.3954 47.9354 45.2541 48.3184L45.8414 47.0019C45.099 46.6708 44.4193 46.249 43.8186 45.7669L42.9163 46.8912ZM45.5477 48.381H45.5563V46.9394H45.5477V48.381ZM45.2677 48.3207C46.5879 48.8974 48.032 49.1926 49.4995 49.1926V47.7511C48.2245 47.7511 46.9774 47.4944 45.8448 46.9997L45.2677 48.3207ZM49.4995 49.1926C49.8154 49.1926 50.1262 49.1749 50.4285 49.1495L50.3078 47.713C50.0309 47.7363 49.7626 47.7511 49.4995 47.7511V49.1926ZM50.4321 49.1492C54.0451 48.8275 57.239 46.6786 58.7597 43.5078L57.4599 42.8844C56.1701 45.5738 53.4364 47.4344 50.3042 47.7133L50.4321 49.1492ZM58.7599 43.5073C61.1172 38.5824 58.8197 32.7794 53.7224 30.5554L53.1459 31.8767C57.5361 33.7922 59.4458 38.7355 57.4596 42.8849L58.7599 43.5073ZM57.0769 42.7135C55.8467 45.2735 53.24 47.0453 50.2688 47.3157L50.3994 48.7514C53.8497 48.4374 56.9151 46.3782 58.3762 43.3378L57.0769 42.7135ZM50.2755 47.3152C48.7951 47.4359 47.3236 47.201 46.0265 46.6276L45.4437 47.9461C46.9741 48.6226 48.6879 48.891 50.3927 48.7519L50.2755 47.3152ZM46.0253 46.6271C45.3092 46.3121 44.6639 45.9146 44.089 45.4568L43.191 46.5845C43.8595 47.1169 44.611 47.5798 45.4449 47.9466L46.0253 46.6271ZM44.0938 45.4607C41.2691 43.1713 40.3772 39.349 41.905 36.171L40.6057 35.5465C38.7779 39.3487 39.862 43.8864 43.1862 46.5806L44.0938 45.4607ZM41.9056 36.1696C42.8249 34.2468 44.4792 32.7753 46.5821 32.0248L46.0975 30.6671C43.6524 31.5398 41.6958 33.2663 40.6051 35.5479L41.9056 36.1696ZM46.5807 32.0252C48.6752 31.2824 50.9388 31.3579 52.9673 32.2421L53.5433 30.9206C51.1772 29.8892 48.5353 29.8024 46.0988 30.6666L46.5807 32.0252ZM52.9666 32.2418C57.1447 34.068 58.9602 38.7765 57.0763 42.7146L58.3767 43.3367C60.6319 38.6226 58.4275 33.0555 53.544 30.9209L52.9666 32.2418ZM61.7208 35.0958L63.063 34.5699L63.0623 34.5679L61.7208 35.0958ZM59.0466 30.9645L58.012 31.9683L58.0192 31.9756L59.0466 30.9645ZM54.9075 28.1237L55.4888 26.8045L55.4803 26.8008L54.9075 28.1237ZM44.9345 27.7909L45.4167 29.1494L45.4178 29.149L44.9345 27.7909ZM37.6273 34.276L38.9266 34.9003L38.9271 34.8993L37.6273 34.276ZM42.0389 49.6487L43.3336 50.2825L43.89 49.1459L42.835 48.447L42.0389 49.6487ZM40.3185 53.1632L41.6132 53.7972L41.6133 53.797L40.3185 53.1632ZM40.1397 53.5285L38.845 52.8945L38.1857 54.241L39.557 54.847L40.1397 53.5285ZM45.8884 56.0689L45.3057 57.3875L46.5735 57.9477L47.1831 56.7029L45.8884 56.0689ZM46.0673 55.7037L47.3619 56.3376L47.3641 56.3332L46.0673 55.7037ZM47.9665 51.7915L48.1291 50.3592L47.1153 50.244L46.6697 51.162L47.9665 51.7915ZM61.3631 44.6084L62.6615 45.2347L62.6636 45.2303L61.3631 44.6084ZM60.9714 44.4379L62.2711 45.0614L62.2712 45.0613L60.9714 44.4379ZM47.8728 51.3695L48.0498 49.9388L48.0333 49.9368L48.0167 49.9351L47.8728 51.3695ZM47.711 51.3532L47.8549 49.9189L46.8532 49.8184L46.4139 50.7242L47.711 51.3532ZM45.684 55.5332L45.101 56.8516L46.3738 57.4145L46.9811 56.1622L45.684 55.5332ZM40.7103 53.3337L39.4147 52.7016L38.7584 54.0467L40.1273 54.652L40.7103 53.3337ZM42.5754 49.5108L43.871 50.1429L44.4212 49.0151L43.3801 48.3147L42.5754 49.5108ZM42.4307 49.4134L43.2353 48.2173L43.223 48.209L43.2105 48.201L42.4307 49.4134ZM38.019 34.4383L39.3185 35.0624L39.319 35.0615L38.019 34.4383ZM45.0793 28.1724L45.561 29.5311L45.5619 29.5307L45.0793 28.1724ZM54.7372 28.497L55.3142 27.176L55.3097 27.174L54.7372 28.497ZM61.3205 35.2338L59.9777 35.7579L59.9789 35.7612L61.3205 35.2338ZM63.0623 34.5679C62.3793 32.8322 61.3709 31.271 60.074 29.9533L58.0192 31.9756C59.0389 33.0117 59.836 34.2426 60.3794 35.6236L63.0623 34.5679ZM60.0812 29.9606C58.7926 28.6325 57.2299 27.5717 55.4888 26.8045L54.3262 29.4428C55.7533 30.0716 57.0011 30.9264 58.012 31.9683L60.0812 29.9606ZM55.4803 26.8008C51.9777 25.2843 48.0574 25.1496 44.4513 26.4328L45.4178 29.149C48.3354 28.1109 51.501 28.2196 54.3348 29.4466L55.4803 26.8008ZM44.4524 26.4324C40.835 27.7162 37.9454 30.2786 36.3274 33.6527L38.9271 34.8993C40.2048 32.2348 42.4933 30.1869 45.4167 29.1494L44.4524 26.4324ZM36.3279 33.6517C33.3639 39.8206 35.4708 47.027 41.2428 50.8505L42.835 48.447C38.2166 45.3876 36.6103 39.7212 38.9266 34.9003L36.3279 33.6517ZM40.7441 49.015L39.0238 52.5294L41.6133 53.797L43.3336 50.2825L40.7441 49.015ZM39.0238 52.5293L38.845 52.8945L41.4344 54.1624L41.6132 53.7972L39.0238 52.5293ZM39.557 54.847L45.3057 57.3875L46.4711 54.7504L40.7224 52.2099L39.557 54.847ZM47.1831 56.7029L47.3619 56.3376L44.7726 55.0697L44.5937 55.435L47.1831 56.7029ZM47.3641 56.3332L49.2633 52.4211L46.6697 51.162L44.7704 55.0741L47.3641 56.3332ZM47.8038 53.2239C54.0314 53.931 59.9987 50.7543 62.6615 45.2347L60.0648 43.982C57.9583 48.3484 53.1946 50.9344 48.1291 50.3592L47.8038 53.2239ZM62.6636 45.2303C64.2826 41.845 64.4276 38.053 63.063 34.5699L60.3786 35.6216C61.4498 38.3559 61.3393 41.3168 60.0626 43.9864L62.6636 45.2303ZM59.6716 43.8145C57.6368 48.0565 52.9781 50.5486 48.0498 49.9388L47.6958 52.8001C53.788 53.5539 59.6728 50.4781 62.2711 45.0614L59.6716 43.8145ZM48.0167 49.9351L47.8549 49.9189L47.567 52.7876L47.7289 52.8038L48.0167 49.9351ZM46.4139 50.7242L44.3869 54.9043L46.9811 56.1622L49.0081 51.9822L46.4139 50.7242ZM46.267 54.2149L41.2933 52.0153L40.1273 54.652L45.101 56.8516L46.267 54.2149ZM42.0059 53.9658L43.871 50.1429L41.2799 48.8787L39.4147 52.7016L42.0059 53.9658ZM43.3801 48.3147L43.2353 48.2173L41.626 50.6094L41.7708 50.7068L43.3801 48.3147ZM43.2105 48.201C38.6632 45.2759 37.0647 39.7551 39.3185 35.0624L36.7196 33.8143C33.8122 39.8679 35.9271 46.944 41.6508 50.6258L43.2105 48.201ZM39.319 35.0615C40.5457 32.5022 42.7491 30.5279 45.561 29.5311L44.5977 26.8137C41.0902 28.0571 38.2858 30.5469 36.7191 33.8152L39.319 35.0615ZM45.5619 29.5307C46.8499 29.0731 48.1773 28.8428 49.4995 28.8428V25.9597C47.8408 25.9597 46.1873 26.2489 44.5967 26.814L45.5619 29.5307ZM49.4995 28.8428C51.0868 28.8428 52.6722 29.1742 54.1647 29.82L55.3097 27.174C53.4636 26.3751 51.4891 25.9597 49.4995 25.9597V28.8428ZM54.1602 29.8181C56.8923 31.0115 58.9483 33.1206 59.9777 35.7579L62.6634 34.7096C61.3422 31.3245 58.7141 28.6611 55.3142 27.176L54.1602 29.8181ZM59.9789 35.7612C61.0147 38.3959 60.9054 41.242 59.6716 43.8146L62.2712 45.0613C63.8478 41.7737 63.994 38.0941 62.6621 34.7063L59.9789 35.7612Z" fill="white" mask="url(#path-3-inside-1_5118_2094)"/>
<path d="M60.3059 44.1136C58.1303 48.6492 53.165 51.2873 47.9457 50.6415L47.9375 50.6405L47.9292 50.6397L47.7674 50.6234L47.2665 50.5732L47.0469 51.0261L45.3235 54.58L41.6707 52.9645L43.2077 49.8142L43.4828 49.2503L42.9622 48.9001L42.8174 48.8027L42.8113 48.7986L42.805 48.7945C37.9636 45.6803 36.2361 39.7707 38.6532 34.7378L38.6534 34.7373C39.9652 32.0007 42.3188 29.8975 45.3046 28.8391L45.305 28.8389C46.6687 28.3545 48.0776 28.1094 49.4839 28.1094C51.1714 28.1094 52.8537 28.4616 54.4342 29.1454C57.3327 30.4118 59.5313 32.6593 60.6335 35.4832L60.6342 35.4848C61.744 38.3078 61.6254 41.3622 60.3059 44.1136ZM60.3059 44.1136L60.9558 44.4253M60.3059 44.1136L60.9558 44.4253M60.9558 44.4253C62.361 41.4952 62.4888 38.2324 61.305 35.2211C60.1297 32.2099 57.7876 29.8236 54.7216 28.4844L45.6684 55.5206L47.6954 51.3406L47.8572 51.3568C53.3675 52.0386 58.6393 49.2546 60.9558 44.4253ZM58.7441 43.4952L58.7443 43.4947C61.1017 38.5698 58.8041 32.7668 53.7068 30.5428L53.7056 30.5423C51.2385 29.4712 48.4784 29.3759 45.9317 30.2719L45.9317 30.2719L45.9276 30.2734C43.3819 31.1864 41.3398 32.9852 40.2062 35.3649C38.3038 39.3352 39.419 44.0682 42.8992 46.8773L42.9008 46.8786C43.5947 47.4355 44.3798 47.9227 45.2385 48.3058L45.3787 48.3683H45.393C46.6747 48.9053 48.0685 49.18 49.4839 49.18C49.7998 49.18 50.1107 49.1623 50.413 49.1369L50.4165 49.1366C54.0295 48.8148 57.2234 46.666 58.7441 43.4952Z" fill="white" stroke="white" stroke-width="1.44155"/>
<mask id="path-6-inside-2_5118_2094" fill="white">
<path d="M46.056 55.7194L45.6728 55.549L40.699 53.3494L40.3073 53.1789L39.1831 52.6838L33 65.3862L40.929 68.8195L47.095 56.1739L46.056 55.7194ZM40.7246 68.2838L33.5621 65.1914L39.3875 53.2195L40.1284 53.5442L45.8772 56.0847L46.5244 56.3687L40.7246 68.2838Z"/>
</mask>
<path d="M46.056 55.7194L45.6728 55.549L40.699 53.3494L40.3073 53.1789L39.1831 52.6838L33 65.3862L40.929 68.8195L47.095 56.1739L46.056 55.7194ZM40.7246 68.2838L33.5621 65.1914L39.3875 53.2195L40.1284 53.5442L45.8772 56.0847L46.5244 56.3687L40.7246 68.2838Z" fill="white"/>
<path d="M46.056 55.7194L45.4702 57.0366L45.4783 57.0401L46.056 55.7194ZM45.6728 55.549L46.2586 54.2318L46.2558 54.2306L45.6728 55.549ZM40.699 53.3494L41.2821 52.031L41.2741 52.0275L40.699 53.3494ZM40.3073 53.1789L39.7262 54.4982L39.7322 54.5008L40.3073 53.1789ZM39.1831 52.6838L39.7641 51.3646L38.4942 50.8053L37.8869 52.0529L39.1831 52.6838ZM33 65.3862L31.7038 64.7553L31.0443 66.1103L32.4272 66.7091L33 65.3862ZM40.929 68.8195L40.3562 70.1424L41.6208 70.6899L42.2247 69.4513L40.929 68.8195ZM47.095 56.1739L48.3908 56.8057L49.0492 55.4554L47.6728 54.8532L47.095 56.1739ZM40.7246 68.2838L40.1532 69.6073L41.4179 70.1533L42.0207 68.9147L40.7246 68.2838ZM33.5621 65.1914L32.2659 64.5607L31.6059 65.917L32.9907 66.5149L33.5621 65.1914ZM39.3875 53.2195L39.966 51.8992L38.6973 51.3433L38.0912 52.5888L39.3875 53.2195ZM40.1284 53.5442L40.7111 52.2256L40.707 52.2238L40.1284 53.5442ZM45.8772 56.0847L45.2945 57.4032L45.2978 57.4047L45.8772 56.0847ZM46.5244 56.3687L47.8206 56.9997L48.4769 55.6514L47.1038 55.0487L46.5244 56.3687ZM46.6418 54.4023L46.2586 54.2318L45.087 56.8661L45.4702 57.0366L46.6418 54.4023ZM46.2558 54.2306L41.2821 52.031L40.116 54.6678L45.0897 56.8674L46.2558 54.2306ZM41.2741 52.0275L40.8824 51.8571L39.7322 54.5008L40.1239 54.6713L41.2741 52.0275ZM40.8883 51.8597L39.7641 51.3646L38.6021 54.0031L39.7262 54.4982L40.8883 51.8597ZM37.8869 52.0529L31.7038 64.7553L34.2962 66.0171L40.4792 53.3148L37.8869 52.0529ZM32.4272 66.7091L40.3562 70.1424L41.5018 67.4967L33.5728 64.0634L32.4272 66.7091ZM42.2247 69.4513L48.3908 56.8057L45.7993 55.5421L39.6333 68.1877L42.2247 69.4513ZM47.6728 54.8532L46.6337 54.3987L45.4783 57.0401L46.5173 57.4947L47.6728 54.8532ZM41.296 66.9604L34.1335 63.868L32.9907 66.5149L40.1532 69.6073L41.296 66.9604ZM34.8583 65.8222L40.6837 53.8503L38.0912 52.5888L32.2659 64.5607L34.8583 65.8222ZM38.8089 54.5399L39.5499 54.8646L40.707 52.2238L39.966 51.8992L38.8089 54.5399ZM39.5457 54.8627L45.2945 57.4032L46.4598 54.7661L40.7111 52.2257L39.5457 54.8627ZM45.2978 57.4047L45.9451 57.6888L47.1038 55.0487L46.4565 54.7647L45.2978 57.4047ZM45.2283 55.7378L39.4284 67.6529L42.0207 68.9147L47.8206 56.9997L45.2283 55.7378Z" fill="white" mask="url(#path-6-inside-2_5118_2094)"/>
</svg>
