<svg width="96" height="96" viewBox="0 0 96 96" fill="none" xmlns="http://www.w3.org/2000/svg">
<circle cx="48" cy="48" r="46.72" fill="white" stroke="#D8D8D8" stroke-width="2.56"/>
<circle cx="47.9985" cy="48.0024" r="37.8462" fill="#9BE3F9"/>
<path d="M39.0358 52.2353L42.7028 49.2901C43.4134 48.7195 43.5277 47.6803 42.9602 46.9681L42.9602 46.9681C42.3915 46.2545 41.3525 46.138 40.6408 46.7099L35.3675 50.945C34.5435 51.6067 34.5441 52.8643 35.3676 53.5254L40.6408 57.7606C41.3527 58.3325 42.3917 58.2159 42.9602 57.5024C43.5277 56.7901 43.4134 55.751 42.7028 55.1804L39.0358 52.2353ZM46.3519 60.2975L46.3519 60.2975L52.68 45.474C52.68 45.474 52.68 45.474 52.68 45.474C53.0376 44.6365 52.652 43.6648 51.8144 43.3044C50.9756 42.9435 50.0062 43.3346 49.6481 44.173L49.6481 44.1731L43.32 58.9966C43.32 58.9966 43.32 58.9966 43.32 58.9966C42.9624 59.834 43.348 60.8058 44.1856 61.1662C45.0248 61.5273 45.994 61.1358 46.3519 60.2975ZM56.9642 52.2353L53.2973 55.1804C53.2972 55.1805 53.2972 55.1805 53.2972 55.1805C52.5866 55.7511 52.4723 56.7903 53.0398 57.5024L53.0398 57.5025C53.6094 58.2171 54.6485 58.3316 55.3591 57.7607C55.3591 57.7607 55.3591 57.7607 55.3592 57.7607L60.6325 53.5255C61.4565 52.8638 61.4559 51.6064 60.6325 50.9452C60.6325 50.9452 60.6325 50.9452 60.6324 50.9452L55.3591 46.71C54.6473 46.1382 53.6084 46.2546 53.0398 46.9682C52.4723 47.6804 52.5866 48.7196 53.2972 49.2902L56.9642 52.2353ZM65.4057 33.1765V37.8763H30.5943V33.1765C30.5943 31.751 31.7498 30.5943 33.1641 30.5943H62.8359C64.2502 30.5943 65.4057 31.751 65.4057 33.1765ZM60.6562 33.641H54.3281C53.4153 33.641 52.6792 34.3833 52.6792 35.2941C52.6792 36.2049 53.4153 36.9472 54.3281 36.9472H60.6562C61.5691 36.9472 62.3052 36.2049 62.3052 35.2941C62.3052 34.3833 61.5691 33.641 60.6562 33.641ZM45.4302 35.2941C45.4302 34.3833 44.6941 33.641 43.7812 33.641C42.8684 33.641 42.1323 34.3833 42.1323 35.2941C42.1323 36.2049 42.8684 36.9472 43.7812 36.9472C44.6941 36.9472 45.4302 36.2049 45.4302 35.2941ZM41.2115 35.2941C41.2115 34.3833 40.4754 33.641 39.5625 33.641C38.6496 33.641 37.9135 34.3833 37.9135 35.2941C37.9135 36.2049 38.6496 36.9472 39.5625 36.9472C40.4754 36.9472 41.2115 36.2049 41.2115 35.2941ZM36.9927 35.2941C36.9927 34.3833 36.2566 33.641 35.3438 33.641C34.4309 33.641 33.6948 34.3833 33.6948 35.2941C33.6948 36.2049 34.4309 36.9472 35.3438 36.9472C36.2566 36.9472 36.9927 36.2049 36.9927 35.2941ZM30.5943 62.8235V41.1825H65.4057V62.8235C65.4057 64.249 64.2502 65.4057 62.8359 65.4057H33.1641C31.7498 65.4057 30.5943 64.249 30.5943 62.8235Z" fill="white" stroke="white" stroke-width="1.18857"/>
</svg>
