<svg width="96" height="96" viewBox="0 0 96 96" fill="none" xmlns="http://www.w3.org/2000/svg">
<circle cx="48" cy="48" r="46.72" fill="white" stroke="#D8D8D8" stroke-width="2.56"/>
<circle cx="47.9985" cy="47.9965" r="37.8462" fill="#7CBC39"/>
<path d="M50.0626 47.487L50.0627 47.487C50.6387 46.8968 51.5773 46.8965 52.1534 47.4871L53.859 49.235L54.8262 48.2437L51.5841 44.921C51.0138 44.3367 51.0139 43.3937 51.584 42.8094C52.16 42.2191 53.0986 42.2188 53.6748 42.8094C53.6748 42.8094 53.6748 42.8094 53.6748 42.8094L56.9017 46.1166L57.8689 45.1254L56.1481 43.3619C56.1481 43.3618 56.1481 43.3618 56.1481 43.3618C55.5779 42.7775 55.578 41.8346 56.1481 41.2503L56.1481 41.2502C56.7241 40.66 57.6627 40.6597 58.2388 41.2503C58.2388 41.2503 58.2389 41.2503 58.2389 41.2503L59.9444 42.9982L60.9116 42.007L57.6695 38.6841C57.0993 38.0998 57.0993 37.1568 57.6695 36.5725L57.9872 36.8825L57.6695 36.5725C58.2456 35.9821 59.1842 35.9821 59.7603 36.5726L62.9869 39.8795L64.1249 38.7113L64.1252 38.7111C64.4824 38.345 64.68 37.8582 64.68 37.3358C64.68 36.8135 64.4823 36.3267 64.1252 35.9605C64.1251 35.9605 64.1251 35.9605 64.1251 35.9605L59.2928 31.0081L59.2928 31.0081C58.9359 30.6423 58.466 30.4439 57.9662 30.4439C57.4664 30.4439 56.9964 30.6423 56.6395 31.0081L30.9988 57.2888L30.9988 57.2889C30.6416 57.6549 30.4439 58.1417 30.4439 58.664C30.4439 59.1864 30.6416 59.6731 30.9988 60.0393L35.8312 64.9918L35.5135 65.3018L35.8312 64.9918C36.1881 65.3576 36.658 65.556 37.1578 65.556C37.6577 65.556 38.1276 65.3576 38.4844 64.9919L38.4844 64.9918L39.64 63.8077L37.9192 62.0441M50.0626 47.487L37.9192 62.0441M50.0626 47.487C49.4925 48.0714 49.4924 49.0143 50.0627 49.5986L51.7835 51.3622L50.8438 52.3252L47.6169 49.0181C47.6169 49.018 47.6169 49.018 47.6168 49.018C47.0408 48.4276 46.1022 48.4277 45.5261 49.018C44.9559 49.6023 44.9559 50.5453 45.526 51.1296C45.526 51.1296 45.526 51.1296 45.526 51.1296L48.7682 54.4524L47.801 55.4437M50.0626 47.487L47.801 55.4437M37.9192 62.0441C37.3491 61.4598 37.3491 60.5168 37.9192 59.9325L37.9192 59.9325C38.4953 59.3422 39.4339 59.3422 40.0099 59.9325L40.01 59.9325L41.7155 61.6805M37.9192 62.0441L41.7155 61.6805M41.7155 61.6805L42.6827 60.6892L39.4405 57.3665C38.8704 56.7822 38.8704 55.8392 39.4405 55.2549L39.4405 55.2549C40.0166 54.6646 40.9552 54.6646 41.5312 55.2549L41.5313 55.2549L44.7582 58.5621M41.7155 61.6805L44.7582 58.5621M44.7582 58.5621L45.7254 57.5708L44.0046 55.8073C43.4344 55.223 43.4345 54.2801 44.0045 53.6957L44.0046 53.6956C44.5807 53.1054 45.5193 53.1051 46.0954 53.6957L47.801 55.4437M44.7582 58.5621L47.801 55.4437M39.4869 33.7943L39.4888 33.7961L39.9989 34.3123L34.2141 40.241L33.7174 39.7385C33.717 39.7381 33.7167 39.7378 33.7164 39.7375C32.8805 38.88 32.2852 37.8059 31.9946 36.6283C31.9946 36.6283 31.9946 36.6283 31.9946 36.6282L30.4786 30.4825L36.4597 32.0322C36.4597 32.0323 36.4598 32.0323 36.4598 32.0323C37.604 32.329 38.6501 32.9373 39.487 33.7943L39.4869 33.7943ZM36.303 42.3545L42.0876 36.426L44.5796 38.9479L38.7954 44.876L36.303 42.3545ZM59.6101 54.4238L53.8269 60.3511L50.6088 57.0528L56.392 51.1254L59.6101 54.4238ZM55.9074 62.4804L61.6921 56.5518L63.4824 58.3865C65.0794 60.0238 65.0795 62.6933 63.4825 64.3307C62.7093 65.1226 61.6858 65.5561 60.5976 65.5561C59.5094 65.5561 58.4859 65.1226 57.7127 64.3307L55.9074 62.4804Z" fill="white" stroke="white" stroke-width="0.887806"/>
</svg>
