<svg width="97" height="97" viewBox="0 0 97 97" fill="none" xmlns="http://www.w3.org/2000/svg">
<circle cx="48.5" cy="48.5" r="46.72" fill="white" stroke="#D8D8D8" stroke-width="2.56"/>
<circle cx="48.5024" cy="48.4946" r="37.8461" fill="#86D8F1"/>
<mask id="path-3-inside-1_5118_2200" fill="white">
<path fill-rule="evenodd" clip-rule="evenodd" d="M62.36 35.6047C62.36 34.384 61.8791 33.2119 61.0252 32.3479C60.1692 31.4852 59.0094 31.0005 57.8 31H39.56C38.3512 31 37.1905 31.4856 36.3348 32.3479C35.4805 33.2123 35.0005 34.3834 35 35.6047V62.3953C35 63.616 35.4809 64.7881 36.3348 65.6521C37.1908 66.5148 38.3506 66.9995 39.56 67H57.8C59.0088 67 60.1695 66.5144 61.0252 65.6521C61.8795 64.7877 62.3595 63.6166 62.36 62.3953V35.6047ZM39.5103 59.934L41.1684 61.6084C41.2838 61.725 41.4208 61.8176 41.5716 61.8807C41.7224 61.9438 41.884 61.9763 42.0473 61.9763C42.2105 61.9763 42.3722 61.9438 42.523 61.8807C42.6738 61.8176 42.8108 61.725 42.9261 61.6084L46.2425 58.2595C46.3579 58.143 46.4494 58.0046 46.5119 57.8524C46.5744 57.7001 46.6065 57.5369 46.6065 57.3721C46.6065 57.2073 46.5744 57.0441 46.5119 56.8918C46.4494 56.7395 46.3579 56.6012 46.2425 56.4846C46.1271 56.3681 45.9901 56.2757 45.8393 56.2126C45.6885 56.1495 45.5269 56.1171 45.3636 56.1171C45.2004 56.1171 45.0388 56.1495 44.888 56.2126C44.7372 56.2757 44.6002 56.3681 44.4848 56.4846L42.0473 58.9444L41.2679 58.1591C41.0348 57.9237 40.7187 57.7915 40.3891 57.7915C40.0595 57.7915 39.7433 57.9237 39.5103 58.1591C39.2772 58.3944 39.1462 58.7137 39.1462 59.0465C39.1462 59.3794 39.2772 59.6986 39.5103 59.934ZM50.3382 60.3023H56.1418C56.4717 60.3023 56.788 60.17 57.0212 59.9345C57.2544 59.699 57.3855 59.3796 57.3855 59.0465C57.3855 58.7134 57.2544 58.394 57.0212 58.1585C56.788 57.923 56.4717 57.7907 56.1418 57.7907H50.3382C50.0084 57.7907 49.692 57.923 49.4588 58.1585C49.2256 58.394 49.0945 58.7134 49.0945 59.0465C49.0945 59.3796 49.2256 59.699 49.4588 59.9345C49.692 60.17 50.0084 60.3023 50.3382 60.3023ZM44.6357 49L45.4134 48.213C45.5288 48.0965 45.6203 47.9581 45.6828 47.8059C45.7453 47.6536 45.7774 47.4904 45.7774 47.3256C45.7774 47.1608 45.7453 46.9976 45.6828 46.8453C45.6203 46.693 45.5288 46.5547 45.4134 46.4381C45.298 46.3216 45.161 46.2292 45.0102 46.1661C44.8594 46.103 44.6978 46.0705 44.5345 46.0705C44.3713 46.0705 44.2097 46.103 44.0589 46.1661C43.9081 46.2292 43.7711 46.3216 43.6557 46.4381L42.8764 47.2234L42.097 46.4381C41.9816 46.3216 41.8446 46.2292 41.6938 46.1661C41.543 46.103 41.3814 46.0705 41.2182 46.0705C41.055 46.0705 40.8934 46.103 40.7426 46.1661C40.5918 46.2292 40.4548 46.3216 40.3393 46.4381C40.2239 46.5547 40.1324 46.693 40.0699 46.8453C40.0075 46.9976 39.9753 47.1608 39.9753 47.3256C39.9753 47.4904 40.0075 47.6536 40.0699 47.8059C40.1324 47.9581 40.2239 48.0965 40.3393 48.213L41.117 49L40.3393 49.787C40.1063 50.0223 39.9753 50.3416 39.9753 50.6744C39.9753 51.0073 40.1063 51.3265 40.3393 51.5619C40.5724 51.7972 40.8886 51.9295 41.2182 51.9295C41.5478 51.9295 41.8639 51.7972 42.097 51.5619L42.8764 50.7766L43.6557 51.5619C43.8888 51.7972 44.2049 51.9295 44.5345 51.9295C44.8642 51.9295 45.1803 51.7972 45.4134 51.5619C45.6465 51.3265 45.7774 51.0073 45.7774 50.6744C45.7774 50.3416 45.6465 50.0223 45.4134 49.787L44.6357 49ZM50.3382 50.2558H56.1418C56.4717 50.2558 56.788 50.1235 57.0212 49.888C57.2544 49.6525 57.3855 49.3331 57.3855 49C57.3855 48.6669 57.2544 48.3475 57.0212 48.112C56.788 47.8765 56.4717 47.7442 56.1418 47.7442H50.3382C50.0084 47.7442 49.692 47.8765 49.4588 48.112C49.2256 48.3475 49.0945 48.6669 49.0945 49C49.0945 49.3331 49.2256 49.6525 49.4588 49.888C49.692 50.1235 50.0084 50.2558 50.3382 50.2558ZM39.5103 39.8409L41.1684 41.5153C41.2838 41.632 41.4208 41.7245 41.5716 41.7877C41.7224 41.8508 41.884 41.8833 42.0473 41.8833C42.2105 41.8833 42.3722 41.8508 42.523 41.7877C42.6738 41.7245 42.8108 41.632 42.9261 41.5153L46.2425 38.1665C46.3579 38.05 46.4494 37.9116 46.5119 37.7593C46.5744 37.6071 46.6065 37.4439 46.6065 37.2791C46.6065 37.1143 46.5744 36.9511 46.5119 36.7988C46.4494 36.6465 46.3579 36.5082 46.2425 36.3916C46.1271 36.2751 45.9901 36.1826 45.8393 36.1196C45.6885 36.0565 45.5269 36.024 45.3636 36.024C45.2004 36.024 45.0388 36.0565 44.888 36.1196C44.7372 36.1826 44.6002 36.2751 44.4848 36.3916L42.0473 38.8513L41.2679 38.066C41.1525 37.9495 41.0155 37.8571 40.8647 37.794C40.7139 37.7309 40.5523 37.6985 40.3891 37.6985C40.0595 37.6985 39.7433 37.8307 39.5103 38.066C39.3948 38.1826 39.3033 38.3209 39.2408 38.4732C39.1784 38.6255 39.1462 38.7887 39.1462 38.9535C39.1462 39.2863 39.2772 39.6056 39.5103 39.8409ZM50.3382 40.2093H56.1418C56.4717 40.2093 56.788 40.077 57.0212 39.8415C57.2544 39.606 57.3855 39.2866 57.3855 38.9535C57.3855 38.6204 57.2544 38.301 57.0212 38.0655C56.788 37.83 56.4717 37.6977 56.1418 37.6977H50.3382C50.0084 37.6977 49.692 37.83 49.4588 38.0655C49.2256 38.301 49.0945 38.6204 49.0945 38.9535C49.0945 39.2866 49.2256 39.606 49.4588 39.8415C49.692 40.077 50.0084 40.2093 50.3382 40.2093Z"/>
</mask>
<path fill-rule="evenodd" clip-rule="evenodd" d="M62.36 35.6047C62.36 34.384 61.8791 33.2119 61.0252 32.3479C60.1692 31.4852 59.0094 31.0005 57.8 31H39.56C38.3512 31 37.1905 31.4856 36.3348 32.3479C35.4805 33.2123 35.0005 34.3834 35 35.6047V62.3953C35 63.616 35.4809 64.7881 36.3348 65.6521C37.1908 66.5148 38.3506 66.9995 39.56 67H57.8C59.0088 67 60.1695 66.5144 61.0252 65.6521C61.8795 64.7877 62.3595 63.6166 62.36 62.3953V35.6047ZM39.5103 59.934L41.1684 61.6084C41.2838 61.725 41.4208 61.8176 41.5716 61.8807C41.7224 61.9438 41.884 61.9763 42.0473 61.9763C42.2105 61.9763 42.3722 61.9438 42.523 61.8807C42.6738 61.8176 42.8108 61.725 42.9261 61.6084L46.2425 58.2595C46.3579 58.143 46.4494 58.0046 46.5119 57.8524C46.5744 57.7001 46.6065 57.5369 46.6065 57.3721C46.6065 57.2073 46.5744 57.0441 46.5119 56.8918C46.4494 56.7395 46.3579 56.6012 46.2425 56.4846C46.1271 56.3681 45.9901 56.2757 45.8393 56.2126C45.6885 56.1495 45.5269 56.1171 45.3636 56.1171C45.2004 56.1171 45.0388 56.1495 44.888 56.2126C44.7372 56.2757 44.6002 56.3681 44.4848 56.4846L42.0473 58.9444L41.2679 58.1591C41.0348 57.9237 40.7187 57.7915 40.3891 57.7915C40.0595 57.7915 39.7433 57.9237 39.5103 58.1591C39.2772 58.3944 39.1462 58.7137 39.1462 59.0465C39.1462 59.3794 39.2772 59.6986 39.5103 59.934ZM50.3382 60.3023H56.1418C56.4717 60.3023 56.788 60.17 57.0212 59.9345C57.2544 59.699 57.3855 59.3796 57.3855 59.0465C57.3855 58.7134 57.2544 58.394 57.0212 58.1585C56.788 57.923 56.4717 57.7907 56.1418 57.7907H50.3382C50.0084 57.7907 49.692 57.923 49.4588 58.1585C49.2256 58.394 49.0945 58.7134 49.0945 59.0465C49.0945 59.3796 49.2256 59.699 49.4588 59.9345C49.692 60.17 50.0084 60.3023 50.3382 60.3023ZM44.6357 49L45.4134 48.213C45.5288 48.0965 45.6203 47.9581 45.6828 47.8059C45.7453 47.6536 45.7774 47.4904 45.7774 47.3256C45.7774 47.1608 45.7453 46.9976 45.6828 46.8453C45.6203 46.693 45.5288 46.5547 45.4134 46.4381C45.298 46.3216 45.161 46.2292 45.0102 46.1661C44.8594 46.103 44.6978 46.0705 44.5345 46.0705C44.3713 46.0705 44.2097 46.103 44.0589 46.1661C43.9081 46.2292 43.7711 46.3216 43.6557 46.4381L42.8764 47.2234L42.097 46.4381C41.9816 46.3216 41.8446 46.2292 41.6938 46.1661C41.543 46.103 41.3814 46.0705 41.2182 46.0705C41.055 46.0705 40.8934 46.103 40.7426 46.1661C40.5918 46.2292 40.4548 46.3216 40.3393 46.4381C40.2239 46.5547 40.1324 46.693 40.0699 46.8453C40.0075 46.9976 39.9753 47.1608 39.9753 47.3256C39.9753 47.4904 40.0075 47.6536 40.0699 47.8059C40.1324 47.9581 40.2239 48.0965 40.3393 48.213L41.117 49L40.3393 49.787C40.1063 50.0223 39.9753 50.3416 39.9753 50.6744C39.9753 51.0073 40.1063 51.3265 40.3393 51.5619C40.5724 51.7972 40.8886 51.9295 41.2182 51.9295C41.5478 51.9295 41.8639 51.7972 42.097 51.5619L42.8764 50.7766L43.6557 51.5619C43.8888 51.7972 44.2049 51.9295 44.5345 51.9295C44.8642 51.9295 45.1803 51.7972 45.4134 51.5619C45.6465 51.3265 45.7774 51.0073 45.7774 50.6744C45.7774 50.3416 45.6465 50.0223 45.4134 49.787L44.6357 49ZM50.3382 50.2558H56.1418C56.4717 50.2558 56.788 50.1235 57.0212 49.888C57.2544 49.6525 57.3855 49.3331 57.3855 49C57.3855 48.6669 57.2544 48.3475 57.0212 48.112C56.788 47.8765 56.4717 47.7442 56.1418 47.7442H50.3382C50.0084 47.7442 49.692 47.8765 49.4588 48.112C49.2256 48.3475 49.0945 48.6669 49.0945 49C49.0945 49.3331 49.2256 49.6525 49.4588 49.888C49.692 50.1235 50.0084 50.2558 50.3382 50.2558ZM39.5103 39.8409L41.1684 41.5153C41.2838 41.632 41.4208 41.7245 41.5716 41.7877C41.7224 41.8508 41.884 41.8833 42.0473 41.8833C42.2105 41.8833 42.3722 41.8508 42.523 41.7877C42.6738 41.7245 42.8108 41.632 42.9261 41.5153L46.2425 38.1665C46.3579 38.05 46.4494 37.9116 46.5119 37.7593C46.5744 37.6071 46.6065 37.4439 46.6065 37.2791C46.6065 37.1143 46.5744 36.9511 46.5119 36.7988C46.4494 36.6465 46.3579 36.5082 46.2425 36.3916C46.1271 36.2751 45.9901 36.1826 45.8393 36.1196C45.6885 36.0565 45.5269 36.024 45.3636 36.024C45.2004 36.024 45.0388 36.0565 44.888 36.1196C44.7372 36.1826 44.6002 36.2751 44.4848 36.3916L42.0473 38.8513L41.2679 38.066C41.1525 37.9495 41.0155 37.8571 40.8647 37.794C40.7139 37.7309 40.5523 37.6985 40.3891 37.6985C40.0595 37.6985 39.7433 37.8307 39.5103 38.066C39.3948 38.1826 39.3033 38.3209 39.2408 38.4732C39.1784 38.6255 39.1462 38.7887 39.1462 38.9535C39.1462 39.2863 39.2772 39.6056 39.5103 39.8409ZM50.3382 40.2093H56.1418C56.4717 40.2093 56.788 40.077 57.0212 39.8415C57.2544 39.606 57.3855 39.2866 57.3855 38.9535C57.3855 38.6204 57.2544 38.301 57.0212 38.0655C56.788 37.83 56.4717 37.6977 56.1418 37.6977H50.3382C50.0084 37.6977 49.692 37.83 49.4588 38.0655C49.2256 38.301 49.0945 38.6204 49.0945 38.9535C49.0945 39.2866 49.2256 39.606 49.4588 39.8415C49.692 40.077 50.0084 40.2093 50.3382 40.2093Z" fill="white" stroke="white" stroke-width="45.0651" mask="url(#path-3-inside-1_5118_2200)"/>
</svg>
