<svg width="97" height="97" viewBox="0 0 97 97" fill="none" xmlns="http://www.w3.org/2000/svg">
<circle cx="48.5" cy="48.5" r="46.72" fill="white" stroke="#D8D8D8" stroke-width="2.56"/>
<circle cx="48.4985" cy="48.5005" r="37.8462" fill="#FE5717"/>
<mask id="path-3-inside-1_5118_2166" fill="white">
<path d="M55.3319 61.1289H43.6832C44.869 67.6218 54.1386 67.6256 55.3319 61.1289ZM41.9824 54.7967H57.0308C58.1486 53.7435 59.0321 52.4668 59.6239 51.0496C60.2156 49.6323 60.5022 48.1064 60.4652 46.571C60.4134 43.6774 59.2192 40.9216 57.143 38.9053C55.0668 36.8889 52.2773 35.7757 49.3834 35.8086C46.4894 35.8415 43.7259 37.0178 41.6961 39.0808C39.6663 41.1438 38.5349 43.9259 38.549 46.82C38.5474 48.3135 38.8512 49.7915 39.4418 51.1633C40.0325 52.535 40.8964 53.7715 41.9824 54.7967ZM49.5071 39.2137C51.5253 39.2136 53.461 40.0147 54.8889 41.4409C56.3169 42.8671 57.1204 44.8018 57.1229 46.82C57.1229 47.0649 57.0256 47.2997 56.8525 47.4728C56.6793 47.646 56.4445 47.7432 56.1997 47.7432C55.9548 47.7432 55.72 47.646 55.5469 47.4728C55.3737 47.2997 55.2765 47.0649 55.2765 46.82C55.2722 45.2921 54.6627 43.828 53.5814 42.7485C52.5001 41.6689 51.035 41.0618 49.5071 41.06C49.2622 41.06 49.0274 40.9628 48.8543 40.7896C48.6811 40.6165 48.5839 40.3817 48.5839 40.1368C48.5839 39.892 48.6811 39.6572 48.8543 39.484C49.0274 39.3109 49.2622 39.2137 49.5071 39.2137ZM43.4238 56.6431C43.5994 57.5115 43.655 58.3999 43.5892 59.2834H55.424C55.3594 58.3994 55.4185 57.5107 55.5997 56.6431H43.4238ZM49.5052 34.615C49.7498 34.6148 49.9844 34.5175 50.1574 34.3445C50.3304 34.1715 50.4277 33.937 50.4279 33.6923V30.9232C50.4279 30.6784 50.3306 30.4435 50.1575 30.2704C49.9844 30.0973 49.7496 30 49.5047 30C49.2599 30 49.025 30.0973 48.8519 30.2704C48.6788 30.4435 48.5815 30.6784 48.5815 30.9232V33.6933C48.5818 33.9381 48.6792 34.1728 48.8524 34.3458C49.0256 34.5188 49.2604 34.615 49.5052 34.615ZM39.0648 38.399C39.1506 38.4847 39.2524 38.5526 39.3644 38.599C39.4764 38.6454 39.5965 38.6692 39.7177 38.6692C39.839 38.6691 39.959 38.6452 40.071 38.5987C40.183 38.5523 40.2848 38.4843 40.3705 38.3985C40.4562 38.3128 40.5241 38.211 40.5705 38.0989C40.6168 37.9869 40.6407 37.8668 40.6406 37.7456C40.6406 37.6244 40.6167 37.5043 40.5702 37.3923C40.5238 37.2803 40.4558 37.1786 40.37 37.0929L38.4127 35.1356C38.2395 34.9624 38.0046 34.8651 37.7597 34.8651C37.5147 34.8651 37.2798 34.9624 37.1066 35.1356C36.9334 35.3088 36.8361 35.5437 36.8361 35.7887C36.8361 36.0336 36.9334 36.2685 37.1066 36.4417L39.0648 38.399ZM32.8942 48.4569H35.6633C35.9031 48.4493 36.1305 48.3486 36.2973 48.1763C36.4642 48.004 36.5575 47.7736 36.5575 47.5337C36.5575 47.2938 36.4642 47.0634 36.2973 46.8911C36.1305 46.7188 35.9031 46.6182 35.6633 46.6105H32.8942C32.6545 46.6182 32.4271 46.7188 32.2602 46.8911C32.0933 47.0634 32 47.2938 32 47.5337C32 47.7736 32.0933 48.004 32.2602 48.1763C32.4271 48.3486 32.6545 48.4493 32.8942 48.4569Z"/>
</mask>
<path d="M55.3319 61.1289H43.6832C44.869 67.6218 54.1386 67.6256 55.3319 61.1289ZM41.9824 54.7967H57.0308C58.1486 53.7435 59.0321 52.4668 59.6239 51.0496C60.2156 49.6323 60.5022 48.1064 60.4652 46.571C60.4134 43.6774 59.2192 40.9216 57.143 38.9053C55.0668 36.8889 52.2773 35.7757 49.3834 35.8086C46.4894 35.8415 43.7259 37.0178 41.6961 39.0808C39.6663 41.1438 38.5349 43.9259 38.549 46.82C38.5474 48.3135 38.8512 49.7915 39.4418 51.1633C40.0325 52.535 40.8964 53.7715 41.9824 54.7967ZM49.5071 39.2137C51.5253 39.2136 53.461 40.0147 54.8889 41.4409C56.3169 42.8671 57.1204 44.8018 57.1229 46.82C57.1229 47.0649 57.0256 47.2997 56.8525 47.4728C56.6793 47.646 56.4445 47.7432 56.1997 47.7432C55.9548 47.7432 55.72 47.646 55.5469 47.4728C55.3737 47.2997 55.2765 47.0649 55.2765 46.82C55.2722 45.2921 54.6627 43.828 53.5814 42.7485C52.5001 41.6689 51.035 41.0618 49.5071 41.06C49.2622 41.06 49.0274 40.9628 48.8543 40.7896C48.6811 40.6165 48.5839 40.3817 48.5839 40.1368C48.5839 39.892 48.6811 39.6572 48.8543 39.484C49.0274 39.3109 49.2622 39.2137 49.5071 39.2137ZM43.4238 56.6431C43.5994 57.5115 43.655 58.3999 43.5892 59.2834H55.424C55.3594 58.3994 55.4185 57.5107 55.5997 56.6431H43.4238ZM49.5052 34.615C49.7498 34.6148 49.9844 34.5175 50.1574 34.3445C50.3304 34.1715 50.4277 33.937 50.4279 33.6923V30.9232C50.4279 30.6784 50.3306 30.4435 50.1575 30.2704C49.9844 30.0973 49.7496 30 49.5047 30C49.2599 30 49.025 30.0973 48.8519 30.2704C48.6788 30.4435 48.5815 30.6784 48.5815 30.9232V33.6933C48.5818 33.9381 48.6792 34.1728 48.8524 34.3458C49.0256 34.5188 49.2604 34.615 49.5052 34.615ZM39.0648 38.399C39.1506 38.4847 39.2524 38.5526 39.3644 38.599C39.4764 38.6454 39.5965 38.6692 39.7177 38.6692C39.839 38.6691 39.959 38.6452 40.071 38.5987C40.183 38.5523 40.2848 38.4843 40.3705 38.3985C40.4562 38.3128 40.5241 38.211 40.5705 38.0989C40.6168 37.9869 40.6407 37.8668 40.6406 37.7456C40.6406 37.6244 40.6167 37.5043 40.5702 37.3923C40.5238 37.2803 40.4558 37.1786 40.37 37.0929L38.4127 35.1356C38.2395 34.9624 38.0046 34.8651 37.7597 34.8651C37.5147 34.8651 37.2798 34.9624 37.1066 35.1356C36.9334 35.3088 36.8361 35.5437 36.8361 35.7887C36.8361 36.0336 36.9334 36.2685 37.1066 36.4417L39.0648 38.399ZM32.8942 48.4569H35.6633C35.9031 48.4493 36.1305 48.3486 36.2973 48.1763C36.4642 48.004 36.5575 47.7736 36.5575 47.5337C36.5575 47.2938 36.4642 47.0634 36.2973 46.8911C36.1305 46.7188 35.9031 46.6182 35.6633 46.6105H32.8942C32.6545 46.6182 32.4271 46.7188 32.2602 46.8911C32.0933 47.0634 32 47.2938 32 47.5337C32 47.7736 32.0933 48.004 32.2602 48.1763C32.4271 48.3486 32.6545 48.4493 32.8942 48.4569Z" fill="white"/>
<path d="M55.3319 61.1289L67.5474 63.3727L70.2409 48.709H55.3319V61.1289ZM43.6832 61.1289V48.709H28.7896L31.4654 63.3603L43.6832 61.1289ZM41.9824 54.7967L33.4567 63.8281L37.0462 67.2165H41.9824V54.7967ZM57.0308 54.7967V67.2165H61.9598L65.5475 63.8365L57.0308 54.7967ZM60.4652 46.571L48.0473 46.793L48.048 46.832L48.0489 46.8709L60.4652 46.571ZM38.549 46.82L50.9688 46.8332L50.9689 46.7965L50.9687 46.7598L38.549 46.82ZM49.5071 39.2137V51.6335H49.5071L49.5071 39.2137ZM57.1229 46.82H69.5427V46.8124L69.5427 46.8047L57.1229 46.82ZM55.2765 46.82H67.6963V46.8029L67.6963 46.7857L55.2765 46.82ZM49.5071 41.06L49.5212 28.6402H49.5071V41.06ZM43.4238 56.6431V44.2232H28.2419L31.2502 59.104L43.4238 56.6431ZM43.5892 59.2834L31.2037 58.3607L30.2096 71.7033H43.5892V59.2834ZM55.424 59.2834V71.7033H68.7846L67.8108 58.3782L55.424 59.2834ZM55.5997 56.6431L67.7574 59.1817L70.8808 44.2232H55.5997V56.6431ZM49.5052 34.615L49.5052 47.0349L49.5178 47.0349L49.5052 34.615ZM50.4279 33.6923L62.8478 33.7049V33.6923H50.4279ZM49.5047 30V42.4199V30ZM48.5815 33.6933H36.1616L36.1616 33.7059L48.5815 33.6933ZM39.0648 38.399L30.2848 47.1833L30.2858 47.1843L39.0648 38.399ZM40.071 38.5987L35.314 27.126L40.071 38.5987ZM40.37 37.0929L31.5878 45.8751L31.591 45.8782L40.37 37.0929ZM37.7597 34.8651V22.4452V34.8651ZM36.8361 35.7887H49.256H36.8361ZM37.1066 36.4417L28.3244 45.2239L28.3265 45.226L37.1066 36.4417ZM32.8942 48.4569L32.4981 60.8705L32.6961 60.8768H32.8942V48.4569ZM35.6633 48.4569V60.8768H35.8614L36.0594 60.8705L35.6633 48.4569ZM35.6633 46.6105L36.0594 34.1969L35.8614 34.1906H35.6633V46.6105ZM32.8942 46.6105V34.1906H32.6961L32.4981 34.1969L32.8942 46.6105ZM55.3319 48.709H43.6832V73.5488H55.3319V48.709ZM31.4654 63.3603C35.1364 83.4606 63.866 83.4148 67.5474 63.3727L43.1164 58.8851C44.4111 51.8364 54.6016 51.7831 55.901 58.8975L31.4654 63.3603ZM41.9824 67.2165H57.0308V42.3768H41.9824V67.2165ZM65.5475 63.8365C67.9345 61.5876 69.8213 58.8612 71.0849 55.8348L48.1628 46.2643C48.243 46.0724 48.3627 45.8994 48.5141 45.7568L65.5475 63.8365ZM71.0849 55.8348C72.3485 52.8084 72.9606 49.5498 72.8814 46.2712L48.0489 46.8709C48.0439 46.6629 48.0827 46.4563 48.1628 46.2643L71.0849 55.8348ZM72.8831 46.3491C72.7727 40.176 70.225 34.2971 65.7959 29.9956L48.4901 47.8149C48.2134 47.5461 48.0542 47.1787 48.0473 46.793L72.8831 46.3491ZM65.7959 29.9956C61.3668 25.6942 55.416 23.3194 49.2423 23.3895L49.5245 48.2277C49.1387 48.232 48.7669 48.0836 48.4901 47.8149L65.7959 29.9956ZM49.2423 23.3895C43.0686 23.4596 37.1733 25.9691 32.843 30.37L50.5492 47.7915C50.2786 48.0665 49.9102 48.2233 49.5245 48.2277L49.2423 23.3895ZM32.843 30.37C28.5128 34.771 26.0993 40.7062 26.1292 46.8803L50.9687 46.7598C50.9706 47.1456 50.8198 47.5165 50.5492 47.7915L32.843 30.37ZM26.1291 46.8069C26.1257 49.9938 26.7741 53.1477 28.0344 56.0748L50.8493 46.2517C50.9284 46.4354 50.9691 46.6332 50.9688 46.8332L26.1291 46.8069ZM28.0344 56.0748C29.293 58.9979 31.1361 61.6374 33.4567 63.8281L50.5081 45.7653C50.6567 45.9055 50.772 46.0721 50.8493 46.2517L28.0344 56.0748ZM49.5071 51.6335C48.234 51.6335 47.0129 51.1282 46.1122 50.2285L63.6657 32.6533C59.909 28.9013 54.8166 26.7938 49.5071 26.7938L49.5071 51.6335ZM46.1122 50.2285C45.2114 49.3289 44.7046 48.1085 44.703 46.8354L69.5427 46.8047C69.5362 41.4952 67.4224 36.4054 63.6657 32.6533L46.1122 50.2285ZM44.703 46.82C44.703 43.7709 45.9143 40.8467 48.0703 38.6907L65.6346 56.255C68.1369 53.7528 69.5427 50.3589 69.5427 46.82H44.703ZM48.0703 38.6907C50.2263 36.5346 53.1506 35.3234 56.1997 35.3234V60.1631C59.7385 60.1631 63.1323 58.7573 65.6346 56.255L48.0703 38.6907ZM56.1997 35.3234C59.2488 35.3234 62.173 36.5346 64.329 38.6907L46.7647 56.255C49.267 58.7573 52.6609 60.1631 56.1997 60.1631V35.3234ZM64.329 38.6907C66.4851 40.8468 67.6963 43.771 67.6963 46.82H42.8566C42.8566 50.3588 44.2623 53.7527 46.7647 56.255L64.329 38.6907ZM67.6963 46.7857C67.683 41.9722 65.7629 37.36 62.3564 33.9591L44.8064 51.5378C43.5626 50.296 42.8615 48.612 42.8566 46.8544L67.6963 46.7857ZM62.3564 33.9591C58.95 30.5582 54.3347 28.6456 49.5212 28.6402L49.493 53.4799C47.7354 53.4779 46.0502 52.7796 44.8064 51.5378L62.3564 33.9591ZM49.5071 28.6402C52.5562 28.6402 55.4805 29.8515 57.6364 32.0075L40.0721 49.5718C42.5743 52.0741 45.9682 53.4799 49.5071 53.4799V28.6402ZM57.6364 32.0075C59.7924 34.1635 61.0037 37.0877 61.0037 40.1368H36.164C36.164 43.6757 37.5698 47.0696 40.0721 49.5718L57.6364 32.0075ZM61.0037 40.1368C61.0037 43.186 59.7925 46.1102 57.6364 48.2662L40.0721 30.7019C37.5698 33.2041 36.164 36.598 36.164 40.1368H61.0037ZM57.6364 48.2662C55.4804 50.4222 52.5562 51.6335 49.5071 51.6335V26.7938C45.9682 26.7938 42.5744 28.1996 40.0721 30.7019L57.6364 48.2662ZM31.2502 59.104C31.2008 58.8596 31.1851 58.6094 31.2037 58.3607L55.9748 60.2062C56.1249 58.1903 55.998 56.1634 55.5974 54.1821L31.2502 59.104ZM43.5892 71.7033H55.424V46.8636H43.5892V71.7033ZM67.8108 58.3782C67.8305 58.6472 67.8125 58.9176 67.7574 59.1817L43.442 54.1044C43.0246 56.1038 42.8883 58.1516 43.0371 60.1887L67.8108 58.3782ZM55.5997 44.2232H43.4238V69.0629H55.5997V44.2232ZM49.5178 47.0349C53.052 47.0313 56.4405 45.6258 58.9396 43.1267L41.3752 25.5623C43.5283 23.4092 46.4477 22.1983 49.4926 22.1952L49.5178 47.0349ZM58.9396 43.1267C61.4386 40.6276 62.8442 37.2392 62.8478 33.7049L38.008 33.6797C38.0111 30.6347 39.2221 27.7154 41.3752 25.5623L58.9396 43.1267ZM62.8478 33.6923V30.9232H38.008V33.6923H62.8478ZM62.8478 30.9232C62.8478 27.3843 61.442 23.9905 58.9397 21.4882L41.3753 39.0526C39.2193 36.8966 38.008 33.9724 38.008 30.9232H62.8478ZM58.9397 21.4882C56.4374 18.9859 53.0435 17.5801 49.5047 17.5801V42.4199C46.4556 42.4199 43.5314 41.2086 41.3753 39.0526L58.9397 21.4882ZM49.5047 17.5801C45.9659 17.5801 42.572 18.9859 40.0697 21.4882L57.6341 39.0526C55.4781 41.2086 52.5538 42.4199 49.5047 42.4199V17.5801ZM40.0697 21.4882C37.5674 23.9906 36.1616 27.3845 36.1616 30.9232H61.0014C61.0014 33.9722 59.7902 36.8965 57.6341 39.0526L40.0697 21.4882ZM36.1616 30.9232V33.6933H61.0014V30.9232H36.1616ZM36.1616 33.7059C36.1652 37.2424 37.5726 40.6329 40.0747 43.1324L57.6301 25.5591C59.7858 27.7126 60.9983 30.6337 61.0014 33.6806L36.1616 33.7059ZM40.0747 43.1324C42.5996 45.6547 46.0011 47.0349 49.5052 47.0349L49.5052 22.1952C52.5197 22.1952 55.4516 23.3829 57.6301 25.5591L40.0747 43.1324ZM30.2858 47.1843C31.5253 48.4229 32.9965 49.4052 34.6157 50.0752L44.1132 27.1228C45.5083 27.7001 46.7759 28.5465 47.8439 29.6136L30.2858 47.1843ZM34.6157 50.0752C36.2348 50.7452 37.97 51.0897 39.7222 51.089L39.7133 26.2493C41.223 26.2487 42.7181 26.5455 44.1132 27.1228L34.6157 50.0752ZM39.7222 51.089C41.4745 51.0884 43.2094 50.7426 44.828 50.0715L35.314 27.126C36.7086 26.5477 38.2035 26.2498 39.7133 26.2493L39.7222 51.089ZM44.828 50.0715C46.4466 49.4004 47.9172 48.417 49.1558 47.1775L31.5851 29.6195C32.6523 28.5515 33.9194 27.7042 35.314 27.126L44.828 50.0715ZM49.1558 47.1775C50.3944 45.9381 51.3767 44.4668 52.0467 42.8477L29.0943 33.3502C29.6716 31.9551 30.5179 30.6874 31.5851 29.6195L49.1558 47.1775ZM52.0467 42.8477C52.7167 41.2285 53.0611 39.4933 53.0605 37.7411L28.2208 37.7501C28.2202 36.2404 28.517 34.7453 29.0943 33.3502L52.0467 42.8477ZM53.0605 37.7411C53.0599 35.989 52.7142 34.254 52.043 32.6353L29.0975 42.1493C28.5192 40.7546 28.2213 39.2598 28.2208 37.7501L53.0605 37.7411ZM52.043 32.6353C51.3718 31.0166 50.3884 29.5461 49.149 28.3075L31.591 45.8782C30.5231 44.8111 29.6758 43.544 29.0975 42.1493L52.043 32.6353ZM49.1522 28.3107L47.1949 26.3534L29.6305 43.9178L31.5878 45.8751L49.1522 28.3107ZM47.1949 26.3534C44.6925 23.8511 41.2986 22.4452 37.7597 22.4452V47.285C34.7106 47.285 31.7865 46.0738 29.6305 43.9178L47.1949 26.3534ZM37.7597 22.4452C34.2208 22.4452 30.8268 23.8511 28.3244 26.3534L45.8888 43.9178C43.7328 46.0738 40.8087 47.285 37.7597 47.285V22.4452ZM28.3244 26.3534C25.8221 28.8558 24.4162 32.2498 24.4162 35.7887H49.256C49.256 38.8377 48.0448 41.7618 45.8888 43.9178L28.3244 26.3534ZM24.4162 35.7887C24.4162 39.3275 25.8221 42.7215 28.3244 45.2239L45.8888 27.6595C48.0448 29.8155 49.256 32.7397 49.256 35.7887H24.4162ZM28.3265 45.226L30.2848 47.1833L47.8449 29.6147L45.8867 27.6574L28.3265 45.226ZM32.8942 60.8768H35.6633V36.037H32.8942V60.8768ZM36.0594 60.8705C39.5229 60.76 42.8076 59.3064 45.2185 56.8173L27.3762 39.5353C29.4534 37.3909 32.2833 36.1385 35.2673 36.0433L36.0594 60.8705ZM45.2185 56.8173C47.6294 54.3283 48.9774 50.9989 48.9774 47.5337H24.1377C24.1377 44.5482 25.2991 41.6798 27.3762 39.5353L45.2185 56.8173ZM48.9774 47.5337C48.9774 44.0685 47.6294 40.7391 45.2185 38.2501L27.3762 55.5321C25.2991 53.3876 24.1377 50.5192 24.1377 47.5337H48.9774ZM45.2185 38.2501C42.8076 35.761 39.5229 34.3075 36.0594 34.1969L35.2673 59.0241C32.2833 58.9289 29.4534 57.6765 27.3762 55.5321L45.2185 38.2501ZM35.6633 34.1906H32.8942V59.0304H35.6633V34.1906ZM32.4981 34.1969C29.0346 34.3075 25.75 35.761 23.3391 38.2501L41.1813 55.5321C39.1042 57.6765 36.2743 58.9289 33.2903 59.0241L32.4981 34.1969ZM23.3391 38.2501C20.9282 40.7391 19.5801 44.0684 19.5801 47.5337H44.4199C44.4199 50.5192 43.2584 53.3876 41.1813 55.5321L23.3391 38.2501ZM19.5801 47.5337C19.5801 50.999 20.9282 54.3283 23.3391 56.8173L41.1813 39.5353C43.2584 41.6798 44.4199 44.5482 44.4199 47.5337H19.5801ZM23.3391 56.8173C25.75 59.3064 29.0346 60.76 32.4981 60.8705L33.2903 36.0433C36.2743 36.1386 39.1042 37.3909 41.1813 39.5353L23.3391 56.8173Z" fill="white" mask="url(#path-3-inside-1_5118_2166)"/>
</svg>
