<?xml version="1.0" standalone="no"?>
<!DOCTYPE svg PUBLIC "-//W3C//DTD SVG 1.1//EN" "http://www.w3.org/Graphics/SVG/1.1/DTD/svg11.dtd" >
<svg xmlns="http://www.w3.org/2000/svg" xmlns:xlink="http://www.w3.org/1999/xlink" version="1.1">
<metadata>
Created by FontForge 20201107 at Sat Jul 17 11:37:52 2021
 By 
Copyright 2017-2021 Indian Type Foundry. All rights reserved.
</metadata>
<defs>
<font id="false" horiz-adv-x="660" >
  <font-face 
    font-family="Satoshi Light"
    font-weight="300"
    font-stretch="normal"
    units-per-em="1000"
    panose-1="0 0 0 0 0 0 0 0 0 0"
    ascent="800"
    descent="-200"
    x-height="480"
    cap-height="710"
    bbox="-203 -215 1629 998"
    underline-thickness="80"
    underline-position="-235"
    unicode-range="U+0020-FB04"
  />
<missing-glyph horiz-adv-x="500" 
d="M50 -203v1063h400v-1063h-400zM100 -153h300v963h-300v-963z" />
    <glyph glyph-name="f_f" unicode="ff" horiz-adv-x="568" 
d="M20 480h75v108q0 69 32.5 101.5t82.5 32.5q28 0 49 -3v-41h-41q-44 0 -60.5 -21t-16.5 -69v-108h243v108q0 69 32.5 101.5t82.5 32.5q28 0 49 -3v-41h-41q-44 0 -60.5 -21t-16.5 -69v-108h113v-40h-113v-440h-46v440h-243v-440h-46v440h-75v40z" />
    <glyph glyph-name="fi" unicode="fi" horiz-adv-x="501" 
d="M384 0v440h-243v-440h-46v440h-75v40h75v108q0 69 32.5 101.5t82.5 32.5q28 0 49 -3v-41h-41q-44 0 -60.5 -21t-16.5 -69v-108h289v-480h-46zM406 634q-16 0 -26.5 10t-10.5 27t10.5 28t26.5 11t27 -11t11 -28q0 -16 -10.5 -26.5t-27.5 -10.5z" />
    <glyph glyph-name="fl" unicode="fl" horiz-adv-x="495" 
d="M415 0h-46v440h-228v-440h-46v440h-75v40h75v108q0 69 32.5 101.5t82.5 32.5q28 0 49 -3v-41h-41q-44 0 -60.5 -21t-16.5 -69v-108h228v242h46v-722z" />
    <glyph glyph-name="f_f_i" unicode="ffi" horiz-adv-x="790" 
d="M20 480h75v108q0 69 32.5 101.5t82.5 32.5q28 0 49 -3v-41h-41q-44 0 -60.5 -21t-16.5 -69v-108h243v108q0 69 32.5 101.5t82.5 32.5q28 0 49 -3v-41h-41q-44 0 -60.5 -21t-16.5 -69v-108h289v-480h-46v440h-243v-440h-46v440h-243v-440h-46v440h-75v40zM695 646
q-17 0 -27 10t-10 27t10.5 28t26.5 11t27 -11t11 -28q0 -16 -10.5 -26.5t-27.5 -10.5z" />
    <glyph glyph-name="f_f_l" unicode="ffl" horiz-adv-x="784" 
d="M20 480h75v108q0 69 32.5 101.5t82.5 32.5q28 0 49 -3v-41h-41q-44 0 -60.5 -21t-16.5 -69v-108h243v108q0 69 32.5 101.5t82.5 32.5q28 0 49 -3v-41h-41q-44 0 -60.5 -21t-16.5 -69v-108h228v242h46v-722h-46v440h-228v-440h-46v440h-243v-440h-46v440h-75v40z" />
    <glyph glyph-name="f_t" unicode="ft" horiz-adv-x="569" 
d="M452 0h-46v440h-265v-440h-46v440h-75v40h75v108q0 69 32.5 101.5t82.5 32.5q28 0 49 -3v-41h-41q-44 0 -60.5 -21t-16.5 -69v-108h265v152h46v-152h97v-40h-97v-440z" />
    <glyph glyph-name=".notdef" horiz-adv-x="500" 
d="M50 -203v1063h400v-1063h-400zM100 -153h300v963h-300v-963z" />
    <glyph glyph-name=".null" horiz-adv-x="0" 
 />
    <glyph glyph-name="nonmarkingreturn" horiz-adv-x="333" 
 />
    <glyph glyph-name="space" unicode=" " horiz-adv-x="280" 
 />
    <glyph glyph-name="exclam" unicode="!" horiz-adv-x="250" 
d="M140 213h-30q-8 109 -8 327v170h46v-170q0 -218 -8 -327zM126 -14q-23 0 -39.5 16t-16.5 39t16.5 39t39.5 16q22 0 38 -16.5t16 -38.5t-16 -38.5t-38 -16.5z" />
    <glyph glyph-name="quotedbl" unicode="&#x22;" horiz-adv-x="267" 
d="M107 671l-15 -191h-36l-16 191q-1 19 9.5 29t24.5 10t24 -10t9 -29zM227 671l-15 -191h-36l-16 191q-1 19 9.5 29t24.5 10t24 -10t9 -29z" />
    <glyph glyph-name="numbersign" unicode="#" horiz-adv-x="656" 
d="M58 264h109l35 182h-127l8 44h128l43 220h46l-43 -220h197l43 220h46l-43 -220h106l-8 -44h-107l-36 -182h110l-8 -44h-111l-43 -220h-46l43 220h-196l-43 -220h-46l43 220h-108zM213 264h196l36 182h-197z" />
    <glyph glyph-name="dollar" unicode="$" horiz-adv-x="551" 
d="M252 -100v89q-92 5 -149.5 52.5t-64.5 126.5h51q3 -57 47.5 -93t115.5 -41v306l-42 11q-164 41 -164 180q0 82 55.5 133t150.5 57v89h42v-88q84 -5 137 -53t63 -129h-50q-7 62 -46 97.5t-104 39.5v-300l48 -12q80 -20 122 -67t42 -115q0 -84 -57.5 -136.5t-154.5 -57.5
v-89h-42zM216 397l36 -9v289q-72 -6 -115 -45.5t-43 -100.5q0 -102 122 -134zM333 320l-39 10v-296q75 5 119.5 45t44.5 103q0 107 -125 138z" />
    <glyph glyph-name="percent" unicode="%" horiz-adv-x="888" 
d="M392 552q0 -74 -48 -122.5t-121 -48.5t-121 48.5t-48 122.5t48 122.5t121 48.5t121 -48.5t48 -122.5zM739 710l-539 -710h-52l538 710h53zM348 552q0 57 -35 93t-90 36t-90 -36t-35 -93t35 -93t90 -36t90 36t35 93zM834 158q0 -74 -48 -122.5t-121 -48.5t-121 48.5
t-48 122.5t48 122.5t121 48.5t121 -48.5t48 -122.5zM790 158q0 57 -35 93t-90 36t-90 -36t-35 -93t35 -93t90 -36t90 36t35 93z" />
    <glyph glyph-name="ampersand" unicode="&#x26;" horiz-adv-x="658" 
d="M589 0l-72 83q-85 -96 -229 -96q-111 0 -176.5 51.5t-65.5 138.5q0 68 43 122t145 112q-53 62 -74.5 99.5t-21.5 73.5q0 62 41.5 99.5t109.5 37.5q65 0 105 -36t40 -95q0 -53 -31 -96.5t-102 -91.5l215 -250q36 66 36 166h45q0 -116 -53 -200l102 -118h-57zM270 438l4 -5
q114 71 114 157q0 41 -27 65.5t-73 24.5q-48 0 -76 -26t-28 -70q0 -27 17.5 -56.5t68.5 -89.5zM92 177q0 -70 52 -109.5t143 -39.5q135 0 204 86l-230 266q-94 -52 -131.5 -97.5t-37.5 -105.5z" />
    <glyph glyph-name="quotesingle" unicode="'" horiz-adv-x="147" 
d="M107 671l-15 -191h-36l-16 191q-1 19 9.5 29t24.5 10t24 -10t9 -29z" />
    <glyph glyph-name="parenleft" unicode="(" horiz-adv-x="231" 
d="M231 -143h-48q-59 89 -93.5 207.5t-34.5 238.5q0 118 34.5 236.5t93.5 206.5h48q-58 -82 -93 -199.5t-35 -243.5q0 -128 35 -246t93 -200z" />
    <glyph glyph-name="parenright" unicode=")" horiz-adv-x="231" 
d="M48 -143h-48q58 82 93 200t35 246q0 126 -35 243.5t-93 199.5h48q59 -88 93.5 -206.5t34.5 -236.5q0 -120 -34.5 -238.5t-93.5 -207.5z" />
    <glyph glyph-name="asterisk" unicode="*" horiz-adv-x="396" 
d="M93 570l-61 22l14 36l59 -20q50 -17 82 -38q-9 39 -9 89v64h39v-64q0 -49 -8 -89q37 22 80 38l59 21l16 -37l-62 -22q-43 -15 -85 -22q25 -24 56 -68l36 -52l-32 -23l-37 52q-28 39 -43 78q-14 -38 -42 -78l-37 -52l-33 23l36 52q24 35 57 68q-43 7 -85 22z" />
    <glyph glyph-name="plus" unicode="+" 
d="M80 359h228v228h44v-228h228v-44h-228v-229h-44v229h-228v44z" />
    <glyph glyph-name="comma" unicode="," horiz-adv-x="250" 
d="M180 29q0 -40 -28 -71.5t-68 -38.5v32q23 4 39 20.5t16 35.5q-9 -7 -26 -7q-18 0 -30.5 12.5t-12.5 34.5t14.5 36.5t37.5 14.5t40.5 -18.5t17.5 -50.5z" />
    <glyph glyph-name="hyphen" unicode="-" horiz-adv-x="406" 
d="M65 240v42h276v-42h-276z" />
    <glyph glyph-name="period" unicode="." horiz-adv-x="250" 
d="M125 -11q-22 0 -38.5 16t-16.5 38q0 23 16 39t39 16t39 -16t16 -39q0 -22 -16.5 -38t-38.5 -16z" />
    <glyph glyph-name="slash" unicode="/" horiz-adv-x="324" 
d="M46 0h-46l277 710h47z" />
    <glyph glyph-name="zero" unicode="0" horiz-adv-x="674" 
d="M60 355q0 167 74 267.5t203 100.5t203 -100.5t74 -267.5t-74 -267.5t-203 -100.5t-203 100.5t-74 267.5zM107 355q0 -147 61 -235t169 -88t169 88t61 235t-61 235t-169 88t-169 -88t-61 -235z" />
    <glyph glyph-name="one" unicode="1" horiz-adv-x="307" 
d="M175 666h-140v44h187v-710h-47v666z" />
    <glyph glyph-name="two" unicode="2" horiz-adv-x="551" 
d="M501 0h-456v40l225 199q110 97 145 150t35 121q0 77 -45 122t-122 45q-79 0 -129 -54t-53 -143h-48q4 110 67.5 176t164.5 66q94 0 153.5 -58.5t59.5 -150.5q0 -79 -41 -142t-159 -167l-181 -160h384v-44z" />
    <glyph glyph-name="three" unicode="3" horiz-adv-x="567" 
d="M251 394h-44v35l232 237h-357v44h422v-40l-231 -235q109 0 176.5 -59.5t67.5 -156.5q0 -103 -67 -167t-175 -64q-105 0 -166.5 60.5t-61.5 163.5h48q0 -83 48.5 -131t131.5 -48q88 0 141 51t53 137q0 82 -57.5 127.5t-160.5 45.5z" />
    <glyph glyph-name="four" unicode="4" horiz-adv-x="619" 
d="M99 201h324v461zM554 157h-83v-157h-48v157h-378v44l359 509h67v-509h83v-44z" />
    <glyph glyph-name="five" unicode="5" horiz-adv-x="575" 
d="M288 -12q-105 0 -166.5 60.5t-61.5 163.5h48q0 -83 48.5 -131t131.5 -48q88 0 141 53.5t53 139.5q0 83 -52.5 138.5t-142.5 55.5q-103 0 -179 -76l-32 15l84 351h331v-44h-296l-61 -254q69 53 156 53q109 0 174.5 -69.5t65.5 -170.5q0 -104 -67.5 -170.5t-174.5 -66.5z
" />
    <glyph glyph-name="six" unicode="6" horiz-adv-x="596" 
d="M132 457l188 253h57l-198 -262q59 36 121 36q109 0 177.5 -71t68.5 -176q0 -106 -71.5 -177.5t-175.5 -71.5t-176.5 72t-72.5 177q0 61 18 109.5t64 110.5zM98 237q0 -89 56.5 -146.5t144.5 -57.5q87 0 143 57.5t56 146.5q0 88 -56 145t-143 57q-88 0 -144.5 -57
t-56.5 -145z" />
    <glyph glyph-name="seven" unicode="7" horiz-adv-x="490" 
d="M10 710h470v-44l-288 -666h-50l290 666h-422v44z" />
    <glyph glyph-name="eight" unicode="8" horiz-adv-x="599" 
d="M55 190q0 66 38 115.5t104 71.5q-56 22 -86.5 65.5t-30.5 99.5q0 80 61 130t159 50q97 0 157.5 -50t60.5 -130q0 -58 -30.5 -101t-85.5 -64q65 -19 103.5 -69.5t38.5 -118.5q0 -89 -68 -145t-176 -56q-109 0 -177 56.5t-68 145.5zM127 544q0 -65 47.5 -105t125.5 -40
t124.5 39t46.5 104q0 62 -46.5 99t-124.5 37t-125.5 -36.5t-47.5 -97.5zM102 195q0 -73 55 -118t144 -45q87 0 141.5 45t54.5 117t-54 115.5t-144 43.5q-89 0 -143 -43.5t-54 -114.5z" />
    <glyph glyph-name="nine" unicode="9" horiz-adv-x="596" 
d="M464 253l-188 -253h-57l198 262q-59 -36 -121 -36q-109 0 -177.5 71t-68.5 176q0 106 71.5 177.5t175.5 71.5t176.5 -72t72.5 -177q0 -61 -18 -109.5t-64 -110.5zM498 473q0 89 -56.5 146.5t-144.5 57.5q-87 0 -143 -57.5t-56 -146.5q0 -88 56 -145t143 -57
q88 0 144.5 57t56.5 145z" />
    <glyph glyph-name="colon" unicode=":" horiz-adv-x="270" 
d="M135 381q-22 0 -38.5 16t-16.5 38q0 23 16 39t39 16t39 -16t16 -39q0 -22 -16.5 -38t-38.5 -16zM135 -11q-22 0 -38.5 16t-16.5 38q0 23 16 39t39 16t39 -16t16 -39q0 -22 -16.5 -38t-38.5 -16z" />
    <glyph glyph-name="semicolon" unicode=";" horiz-adv-x="270" 
d="M135 381q-22 0 -38.5 16t-16.5 38q0 23 16 39t39 16t39 -16t16 -39q0 -22 -16.5 -38t-38.5 -16zM190 29q0 -40 -28 -71.5t-68 -38.5v32q23 4 39 20.5t16 35.5q-9 -7 -26 -7q-18 0 -30.5 12.5t-12.5 34.5t14.5 36.5t37.5 14.5t40.5 -18.5t17.5 -50.5z" />
    <glyph glyph-name="less" unicode="&#x3c;" 
d="M580 87v-47l-500 180v46l500 180v-47l-442 -156z" />
    <glyph glyph-name="equal" unicode="=" 
d="M80 417h500v-44h-500v44zM80 215h500v-44h-500v44z" />
    <glyph glyph-name="greater" unicode="&#x3e;" 
d="M580 220l-500 -180v47l442 156l-442 156v47l500 -180v-46z" />
    <glyph glyph-name="question" unicode="?" horiz-adv-x="499" 
d="M247 154h-45v28q0 52 27.5 87.5t80.5 75.5q35 27 54 44.5t36.5 50.5t17.5 70q0 71 -46.5 119t-121.5 48q-70 0 -119.5 -49t-49.5 -118h-46q0 88 63 150t152 62q96 0 155 -61t59 -151q0 -48 -21 -88t-43 -60t-61 -50q-48 -36 -70 -64t-22 -66v-28zM229 -14q-23 0 -39.5 16
t-16.5 39t16.5 39t39.5 16q22 0 38 -16.5t16 -38.5t-16 -38.5t-38 -16.5z" />
    <glyph glyph-name="at" unicode="@" horiz-adv-x="891" 
d="M253 218q0 59 45 97t123 44l153 12v17q0 127 -130 127q-61 0 -95.5 -27t-34.5 -75h-45q0 64 48.5 103t127.5 39q82 0 127.5 -42.5t45.5 -118.5v-206q0 -62 67 -62q56 0 90 55.5t34 145.5q0 156 -102.5 256.5t-261.5 100.5q-152 0 -257.5 -106.5t-105.5 -260.5
q0 -156 104.5 -263t258.5 -107q136 0 235 84l24 -29q-110 -93 -259 -93q-172 0 -288.5 117.5t-116.5 290.5q0 171 117 288t288 117q178 0 292 -111t114 -284q0 -101 -47.5 -169t-118.5 -68q-106 0 -111 94q-49 -94 -170 -94q-69 0 -110 35t-41 93zM297 218q0 -42 29.5 -65
t84.5 -23q76 0 119.5 48.5t43.5 133.5v22l-149 -12q-128 -11 -128 -104z" />
    <glyph glyph-name="A" unicode="A" horiz-adv-x="630" 
d="M63 0h-48l263 710h71l266 -710h-49l-75 199h-354zM307 659l-154 -416h322l-156 416q-1 2 -2.5 6t-2.5 7t-1 5q-2 -8 -6 -18z" />
    <glyph glyph-name="B" unicode="B" horiz-adv-x="619" 
d="M358 0h-268v710h250q101 0 159.5 -48t58.5 -132q0 -126 -113 -171q129 -43 129 -175q0 -83 -59 -133.5t-157 -50.5zM343 666h-205v-288h216q73 0 114 39t41 109q0 66 -43.5 103t-122.5 37zM361 334h-223v-290h223q77 0 120.5 39t43.5 107q0 67 -44 105.5t-120 38.5z" />
    <glyph glyph-name="C" unicode="C" horiz-adv-x="716" 
d="M374 -11q-146 0 -237.5 102t-91.5 264q0 163 92.5 265t240.5 102q109 0 190 -62t104 -163h-53q-24 83 -90 131t-154 48q-125 0 -203 -89t-78 -232t78 -231.5t203 -88.5q88 0 155.5 45.5t92.5 122.5h53q-25 -96 -108.5 -155t-193.5 -59z" />
    <glyph glyph-name="D" unicode="D" horiz-adv-x="692" 
d="M289 0h-199v710h199q161 0 259.5 -97.5t98.5 -257.5t-98.5 -257.5t-259.5 -97.5zM289 666h-151v-622h151q140 0 224.5 84.5t84.5 226.5q0 143 -83.5 227t-225.5 84z" />
    <glyph glyph-name="E" unicode="E" horiz-adv-x="568" 
d="M508 0h-418v710h417v-44h-369v-288h336v-44h-336v-290h370v-44z" />
    <glyph glyph-name="F" unicode="F" horiz-adv-x="533" 
d="M440 322h-302v-322h-48v710h408v-44h-360v-300h302v-44z" />
    <glyph glyph-name="G" unicode="G" horiz-adv-x="736" 
d="M381 676q-129 0 -208 -89t-79 -234q0 -146 79.5 -232.5t210.5 -86.5q47 0 88.5 12t79.5 38t60.5 77t22.5 121v51h-276v44h322v-378h-36l-6 128q-29 -61 -96.5 -100t-156.5 -39q-153 0 -247 100t-94 264t93.5 267t242.5 103q108 0 186 -55.5t101 -147.5h-53
q-24 76 -86 116.5t-148 40.5z" />
    <glyph glyph-name="H" unicode="H" horiz-adv-x="689" 
d="M138 0h-48v710h48v-327h413v327h48v-710h-48v339h-413v-339z" />
    <glyph glyph-name="I" unicode="I" horiz-adv-x="228" 
d="M138 710v-710h-48v710h48z" />
    <glyph glyph-name="J" unicode="J" horiz-adv-x="492" 
d="M20 193v22h47v-22q0 -74 38 -116.5t108 -42.5q72 0 109 42.5t37 116.5v517h48v-517q0 -96 -54 -150.5t-141 -54.5q-89 0 -140.5 56t-51.5 149z" />
    <glyph glyph-name="K" unicode="K" horiz-adv-x="591" 
d="M138 710v-452l365 452h58l-243 -300l248 -410h-56l-224 371l-148 -183v-188h-48v710h48z" />
    <glyph glyph-name="L" unicode="L" horiz-adv-x="496" 
d="M138 710v-666h338v-44h-386v710h48z" />
    <glyph glyph-name="M" unicode="M" horiz-adv-x="820" 
d="M138 0h-48v710h48l272 -652l271 652h49v-710h-48v389q0 145 5 223l-253 -612h-48l-253 609q5 -50 5 -220v-389z" />
    <glyph glyph-name="N" unicode="N" horiz-adv-x="693" 
d="M138 0h-48v710h49l416 -629v629h48v-710h-48l-417 631v-631z" />
    <glyph glyph-name="O" unicode="O" horiz-adv-x="761" 
d="M716 355q0 -161 -94 -264t-242 -103t-241.5 103t-93.5 264t94 264t241 103q148 0 242 -103t94 -264zM667 355q0 142 -80 231.5t-207 89.5q-126 0 -206 -89.5t-80 -231.5t80 -231.5t206 -89.5q127 0 207 89.5t80 231.5z" />
    <glyph glyph-name="P" unicode="P" horiz-adv-x="603" 
d="M355 267h-217v-267h-48v710h265q101 0 159.5 -60t58.5 -160q0 -96 -60 -159.5t-158 -63.5zM353 666h-215v-355h209q82 0 129.5 50t47.5 131q0 80 -46.5 127t-124.5 47z" />
    <glyph glyph-name="Q" unicode="Q" horiz-adv-x="761" 
d="M651 -35l-75 84q-84 -61 -196 -61q-148 0 -241.5 103t-93.5 264t94 264t241 103q148 0 242 -103t94 -264q0 -169 -104 -275l73 -82zM667 355q0 142 -80 231.5t-207 89.5q-126 0 -206 -89.5t-80 -231.5t80 -231.5t206 -89.5q94 0 164 51l-91 102l34 33l93 -104
q87 90 87 239z" />
    <glyph glyph-name="R" unicode="R" horiz-adv-x="627" 
d="M138 0h-48v710h262q101 0 160.5 -54t59.5 -145q0 -78 -41 -130.5t-112 -67.5l159 -313h-54l-155 307h-231v-307zM138 666v-315h216q80 0 124.5 42t44.5 116q0 75 -46 116t-125 41h-214z" />
    <glyph glyph-name="S" unicode="S" horiz-adv-x="551" 
d="M46 531q0 87 63 139t168 52q91 0 148.5 -48t68.5 -134h-50q-8 66 -51 102t-116 36q-83 0 -133 -40t-50 -107q0 -102 122 -134l126 -32q80 -20 122 -67t42 -115q0 -89 -63.5 -142t-170.5 -53q-100 0 -163 48.5t-71 131.5h51q3 -61 53.5 -98t129.5 -37q85 0 135.5 40.5
t50.5 108.5q0 107 -125 138l-123 31q-164 41 -164 180z" />
    <glyph glyph-name="T" unicode="T" horiz-adv-x="514" 
d="M10 666v44h494v-44h-223v-666h-48v666h-223z" />
    <glyph glyph-name="U" unicode="U" horiz-adv-x="677" 
d="M85 241v469h48v-468q0 -100 53.5 -153.5t153.5 -53.5q98 0 151 53.5t53 153.5v468h48v-469q0 -119 -67 -186t-185 -67q-120 0 -187.5 67t-67.5 186z" />
    <glyph glyph-name="V" unicode="V" horiz-adv-x="616" 
d="M283 0l-273 710h51l205 -531q26 -66 44 -121q21 66 43 122l204 530h49l-272 -710h-51z" />
    <glyph glyph-name="W" unicode="W" horiz-adv-x="955" 
d="M225 0l-210 710h50l158 -538q11 -41 26 -107q11 43 31 107l173 538h48l174 -538q12 -37 30 -106q13 62 26 106l160 538h49l-212 -710h-44l-207 640l-206 -640h-46z" />
    <glyph glyph-name="X" unicode="X" horiz-adv-x="583" 
d="M264 354l-254 356h57l152 -212q46 -64 71 -110l224 322h54l-249 -354l254 -356h-57l-160 223q-38 51 -64 94l-222 -317h-56z" />
    <glyph glyph-name="Y" unicode="Y" horiz-adv-x="546" 
d="M251 304l-241 406h55l190 -328q11 -19 20 -38q11 21 20 38l188 328h53l-237 -406v-304h-48v304z" />
    <glyph glyph-name="Z" unicode="Z" horiz-adv-x="576" 
d="M531 0h-486v43l434 623h-432v44h489v-43l-434 -623h429v-44z" />
    <glyph glyph-name="bracketleft" unicode="[" horiz-adv-x="233" 
d="M88 -5h140v-40h-183v800h183v-40h-140v-720z" />
    <glyph glyph-name="backslash" unicode="\" horiz-adv-x="324" 
d="M47 710l277 -710h-46l-278 710h47z" />
    <glyph glyph-name="bracketright" unicode="]" horiz-adv-x="233" 
d="M5 -45v40h140v720h-140v40h183v-800h-183z" />
    <glyph glyph-name="asciicircum" unicode="^" horiz-adv-x="472" 
d="M126 400h-46l133 310h46l133 -310h-46l-110 258z" />
    <glyph glyph-name="underscore" unicode="_" horiz-adv-x="506" 
d="M60 -66v46h386v-46h-386z" />
    <glyph glyph-name="grave" unicode="`" horiz-adv-x="193" 
d="M147 765h-42l-65 107h55z" />
    <glyph glyph-name="a" unicode="a" horiz-adv-x="511" 
d="M212 -12q-76 0 -119 38t-43 101q0 66 48 106t132 47l165 13v18q0 139 -140 139q-67 0 -104.5 -29.5t-37.5 -82.5h-46q0 70 52 112t137 42q83 0 134 -43t51 -131v-318h-37l-9 90q-25 -49 -73 -75.5t-110 -26.5zM218 29q83 0 130 55t47 145v26l-161 -13q-70 -6 -104 -36.5
t-34 -77.5q0 -48 33 -73.5t89 -25.5z" />
    <glyph glyph-name="b" unicode="b" horiz-adv-x="569" 
d="M113 0h-37v722h46v-346q52 116 186 116q103 0 162 -71t59 -181t-59 -181t-162 -71q-135 0 -188 120zM123 240q0 -94 48 -152t132 -58t131.5 58t47.5 152q0 93 -47.5 151.5t-131.5 58.5t-132 -58.5t-48 -151.5z" />
    <glyph glyph-name="c" unicode="c" horiz-adv-x="507" 
d="M40 238q0 114 62.5 184t165.5 70q77 0 131 -41.5t71 -110.5h-47q-15 52 -57.5 81.5t-97.5 29.5q-81 0 -132 -58t-51 -154q0 -93 48.5 -151t128.5 -58q57 0 101.5 30t61.5 79h47q-20 -68 -77 -109.5t-133 -41.5q-99 0 -160.5 69t-61.5 181z" />
    <glyph glyph-name="d" unicode="d" horiz-adv-x="569" 
d="M261 -12q-103 0 -162 71t-59 181t59 181t162 71q134 0 186 -116v346h46v-722h-37l-7 108q-53 -120 -188 -120zM266 30q84 0 132 58t48 152q0 93 -48 151.5t-132 58.5t-131.5 -58.5t-47.5 -151.5q0 -94 47.5 -152t131.5 -58z" />
    <glyph glyph-name="e" unicode="e" horiz-adv-x="516" 
d="M271 -12q-104 0 -167.5 69t-63.5 182t62.5 183t162.5 70q94 0 152.5 -61.5t58.5 -159.5v-32h-390q3 -98 51.5 -153.5t133.5 -55.5q129 0 158 108h47q-42 -150 -205 -150zM265 450q-73 0 -121.5 -47t-56.5 -126h342q0 78 -45 125.5t-119 47.5z" />
    <glyph glyph-name="f" unicode="f" horiz-adv-x="279" 
d="M20 480h75v108q0 69 32.5 101.5t82.5 32.5q28 0 49 -3v-40h-41q-43 0 -60 -21.5t-17 -69.5v-108h113v-40h-113v-440h-46v440h-75v40z" />
    <glyph glyph-name="g" unicode="g" horiz-adv-x="571" 
d="M40 255q0 100 60.5 168.5t163.5 68.5q138 0 188 -124l6 112h37v-470q0 -101 -61.5 -162.5t-161.5 -61.5q-87 0 -145.5 46.5t-73.5 128.5h45q13 -63 59.5 -98t115.5 -35q80 0 128.5 50t48.5 132v130q-25 -58 -75.5 -90t-115.5 -32q-100 0 -159.5 69t-59.5 168zM87 255
q0 -83 47 -139t128 -56q84 0 132 54.5t48 141.5q0 86 -47 140t-131 54q-82 0 -129.5 -56t-47.5 -139z" />
    <glyph glyph-name="h" unicode="h" horiz-adv-x="550" 
d="M122 1h-46v721h46v-335q24 48 69 76.5t107 28.5q93 0 137.5 -53t44.5 -147v-292h-46v283q0 90 -36.5 128.5t-102.5 38.5q-82 0 -127.5 -54.5t-45.5 -134.5v-260z" />
    <glyph glyph-name="i" unicode="i" horiz-adv-x="198" 
d="M99 627q-17 0 -29.5 12t-12.5 29t12.5 30t29.5 13t29.5 -13t12.5 -30q0 -16 -12.5 -28.5t-29.5 -12.5zM76 0v480h46v-480h-46z" />
    <glyph glyph-name="j" unicode="j" horiz-adv-x="198" 
d="M99 627q-17 0 -29.5 12t-12.5 29t12.5 30t29.5 13t29.5 -13t12.5 -30q0 -16 -12.5 -28.5t-29.5 -12.5zM-58 -204l10 44q29 -7 50 -7q74 0 74 93v554h46v-554q0 -65 -31 -101.5t-87 -36.5q-33 0 -62 8z" />
    <glyph glyph-name="k" unicode="k" horiz-adv-x="458" 
d="M126 0h-46v722h46v-511l261 269h59l-186 -192l188 -288h-53l-166 257l-103 -107v-150z" />
    <glyph glyph-name="l" unicode="l" horiz-adv-x="206" 
d="M126 0h-46v722h46v-722z" />
    <glyph glyph-name="m" unicode="m" horiz-adv-x="823" 
d="M122 0h-46v480h37l7 -74q19 41 57.5 63.5t89.5 22.5q57 0 99 -29t58 -79q16 50 58 79t101 29q76 0 123 -47.5t47 -130.5v-314h-44v308q0 66 -35 104t-95 38q-65 0 -103 -42.5t-38 -100.5v-307h-45v309q0 66 -35 103.5t-95 37.5q-65 0 -103 -42t-38 -100v-308z" />
    <glyph glyph-name="n" unicode="n" horiz-adv-x="550" 
d="M122 0h-46v480h37l10 -93q24 50 69.5 77.5t100.5 27.5q187 0 187 -200v-292h-46v283q0 91 -36.5 129t-105.5 38q-80 0 -125 -55t-45 -147v-248z" />
    <glyph glyph-name="o" unicode="o" horiz-adv-x="556" 
d="M40 240q0 109 67.5 180.5t170.5 71.5t170.5 -71.5t67.5 -180.5t-67.5 -180.5t-170.5 -71.5t-170.5 71.5t-67.5 180.5zM87 240q0 -92 53.5 -151t137.5 -59t137.5 59t53.5 151t-53.5 151t-137.5 59t-137.5 -59t-53.5 -151z" />
    <glyph glyph-name="p" unicode="p" horiz-adv-x="569" 
d="M76 -203v683h37l7 -108q53 120 188 120q103 0 162 -71t59 -181t-59 -181t-162 -71q-134 0 -186 116v-307h-46zM123 240q0 -93 48 -151.5t132 -58.5t131.5 58.5t47.5 151.5q0 94 -47.5 152t-131.5 58t-132 -58t-48 -152z" />
    <glyph glyph-name="q" unicode="q" horiz-adv-x="569" 
d="M40 240q0 110 59 181t162 71q135 0 188 -120l7 108h37v-683h-46v307q-52 -116 -186 -116q-103 0 -162 71t-59 181zM87 240q0 -93 47.5 -151.5t131.5 -58.5t132 58.5t48 151.5q0 94 -48 152t-132 58t-131.5 -58t-47.5 -152z" />
    <glyph glyph-name="r" unicode="r" horiz-adv-x="325" 
d="M305 487v-40h-36q-66 0 -106.5 -43.5t-40.5 -111.5v-292h-46v480h43l4 -77q14 41 51.5 65t88.5 24q22 0 42 -5z" />
    <glyph glyph-name="s" unicode="s" horiz-adv-x="422" 
d="M33 130h45q0 -46 32 -73t88 -27q61 0 96 25.5t35 69.5q0 35 -19.5 55t-65.5 32l-81 21q-121 31 -121 126q0 60 45.5 96.5t119.5 36.5t118 -37.5t46 -102.5h-45q-2 46 -33.5 72t-85.5 26q-58 0 -88.5 -23.5t-30.5 -67.5q0 -63 86 -85l80 -21q63 -17 92 -47.5t29 -80.5
q0 -62 -48 -99.5t-127 -37.5q-77 0 -122 38.5t-45 103.5z" />
    <glyph glyph-name="t" unicode="t" horiz-adv-x="280" 
d="M163 0h-46v440h-97v40h97v152h46v-152h97v-40h-97v-440z" />
    <glyph glyph-name="u" unicode="u" horiz-adv-x="540" 
d="M418 480h46v-480h-37l-9 89q-20 -45 -67 -73t-107 -28q-84 0 -129 53t-45 143v297h47v-285q0 -166 138 -166q76 0 119.5 51t43.5 143v256z" />
    <glyph glyph-name="v" unicode="v" horiz-adv-x="465" 
d="M209 0l-199 480h49l143 -349q20 -50 31 -84q8 28 31 84l143 349h48l-199 -480h-47z" />
    <glyph glyph-name="w" unicode="w" horiz-adv-x="718" 
d="M175 0l-160 480h47l108 -326q15 -45 29 -95q16 70 28 95l108 326h47l108 -326q17 -48 29 -94q13 47 28 94l109 326h47l-161 -480h-47l-114 343q-14 40 -22 77q-10 -39 -23 -77l-114 -343h-47z" />
    <glyph glyph-name="x" unicode="x" horiz-adv-x="430" 
d="M66 0h-56l174 242l-173 238h56l149 -206l149 206h55l-174 -240l174 -240h-56l-150 207z" />
    <glyph glyph-name="y" unicode="y" horiz-adv-x="446" 
d="M24 -203v37h45q20 0 31.5 1.5t29 7t30 20.5t21.5 39l24 65l-195 513h48l169 -450l162 450h47l-213 -591q-36 -98 -134 -98q-35 0 -65 6z" />
    <glyph glyph-name="z" unicode="z" horiz-adv-x="430" 
d="M390 0h-350v36l295 404h-295v40h350v-37l-294 -403h294v-40z" />
    <glyph glyph-name="braceleft" unicode="{" horiz-adv-x="267" 
d="M45 334v43q80 0 80 61v234q0 37 23 60t64 23h50v-40h-51q-20 0 -31.5 -12t-11.5 -31v-234q0 -65 -55 -82q55 -18 55 -83v-235q0 -19 11.5 -31t31.5 -12h51v-40h-50q-41 0 -64 23t-23 60v235q0 61 -80 61z" />
    <glyph glyph-name="bar" unicode="|" horiz-adv-x="300" 
d="M130 -84v878h40v-878h-40z" />
    <glyph glyph-name="braceright" unicode="}" horiz-adv-x="267" 
d="M55 -45h-50v40h51q20 0 31.5 12t11.5 31v235q0 65 55 83q-55 17 -55 82v234q0 19 -11.5 31t-31.5 12h-51v40h50q41 0 64 -23t23 -60v-234q0 -61 80 -61v-43q-80 0 -80 -61v-235q0 -37 -23 -60t-64 -23z" />
    <glyph glyph-name="asciitilde" unicode="~" 
d="M537 357h43q0 -65 -32 -103.5t-86 -38.5q-42 0 -92 26.5t-95.5 52.5t-77.5 26q-37 0 -54.5 -21.5t-19.5 -73.5h-43q0 64 32 101.5t85 37.5q46 0 135 -52.5t131 -52.5q36 0 54 23t20 75z" />
    <glyph glyph-name="exclamdown" unicode="&#xa1;" horiz-adv-x="250" 
d="M126 724q22 0 38 -16.5t16 -38.5t-16 -38.5t-38 -16.5q-23 0 -39.5 16t-16.5 39t16.5 39t39.5 16zM110 497h30q8 -109 8 -327v-170h-46v170q0 218 8 327z" />
    <glyph glyph-name="cent" unicode="&#xa2;" horiz-adv-x="539" 
d="M262 -1v107q-92 8 -152 75.5t-60 170.5q0 107 58 176t154 75v107h44v-107q73 -7 122 -47.5t64 -104.5h-48q-15 53 -58.5 81.5t-105.5 28.5q-81 0 -132 -57t-51 -151q0 -90 53 -147t134 -57q126 0 162 107h48q-18 -65 -66.5 -105t-121.5 -45v-107h-44z" />
    <glyph glyph-name="sterling" unicode="&#xa3;" horiz-adv-x="591" 
d="M348 0h-314v44q57 12 93.5 62.5t36.5 110.5q0 50 -24 120h-100v44h84q-34 94 -34 146q0 88 58.5 141.5t153.5 53.5q91 0 148.5 -48t68.5 -134h-50q-8 66 -51 102t-116 36q-77 0 -120.5 -40.5t-43.5 -111.5q0 -11 1 -21t3.5 -22t4 -19.5t6.5 -21.5t6.5 -19t8 -22t7.5 -20
h258v-44h-242q21 -63 21 -121q0 -57 -29 -105.5t-75 -66.5h240q81 0 117 40t36 130h46q0 -109 -49 -161.5t-150 -52.5z" />
    <glyph glyph-name="currency" unicode="&#xa4;" horiz-adv-x="592" 
d="M509 106l-78 78q-59 -48 -136 -48q-74 0 -134 47l-78 -77l-33 33l79 77q-47 58 -47 133t47 135l-79 77l33 33l78 -77q60 47 134 47q77 0 136 -48l78 78l33 -33l-79 -77q47 -58 47 -135t-47 -133l79 -77zM465 349q0 70 -50 120t-120 50q-69 0 -118.5 -50t-49.5 -120
q0 -69 50 -118.5t118 -49.5q70 0 120 49.5t50 118.5z" />
    <glyph glyph-name="yen" unicode="&#xa5;" horiz-adv-x="565" 
d="M245 332l-225 378h53l212 -367l208 367h52l-221 -378h168v-42h-184v-80h184v-42h-184v-168h-46v168h-185v42h185v80h-185v42h168z" />
    <glyph glyph-name="brokenbar" unicode="&#xa6;" horiz-adv-x="300" 
d="M170 794v-364h-40v364h40zM130 -84v364h40v-364h-40z" />
    <glyph glyph-name="section" unicode="&#xa7;" horiz-adv-x="458" 
d="M416 356q0 -41 -29 -73t-80 -44q88 -33 88 -117q0 -60 -45.5 -96.5t-119.5 -36.5t-118 37.5t-46 102.5h45q2 -46 33.5 -72t85.5 -26q58 0 88.5 23.5t30.5 67.5q0 67 -86 85l-100 21q-121 26 -121 128q0 41 29 73t80 44q-88 33 -88 117q0 60 45.5 96.5t119.5 36.5
t118 -37.5t46 -102.5h-45q-2 46 -33.5 72t-85.5 26q-58 0 -88.5 -23.5t-30.5 -67.5q0 -67 86 -85l100 -21q121 -25 121 -128zM370 356q0 45 -36.5 69.5t-104.5 24.5t-104.5 -24.5t-36.5 -69.5t36.5 -69.5t104.5 -24.5t104.5 24.5t36.5 69.5z" />
    <glyph glyph-name="dieresis" unicode="&#xa8;" horiz-adv-x="344" 
d="M106 788q-17 0 -29.5 12t-12.5 29t12.5 30t29.5 13t29.5 -13t12.5 -30q0 -16 -12.5 -28.5t-29.5 -12.5zM238 788q-17 0 -29.5 12t-12.5 29t12.5 30t29.5 13t29.5 -13t12.5 -30q0 -16 -12.5 -28.5t-29.5 -12.5z" />
    <glyph glyph-name="copyright" unicode="&#xa9;" horiz-adv-x="815" 
d="M407 -14q-156 0 -261.5 106t-105.5 263q0 155 106 261t261 106q156 0 262 -105.5t106 -261.5q0 -157 -105.5 -263t-262.5 -106zM407 24q140 0 233 94.5t93 236.5q0 141 -93 235t-233 94q-139 0 -232 -94.5t-93 -234.5q0 -142 93 -236.5t232 -94.5zM226 352q0 91 53 148
t138 57q61 0 105 -33.5t58 -89.5h-47q-23 82 -116 82q-65 0 -106 -45.5t-41 -117.5q0 -71 39.5 -116t102.5 -45q95 0 123 81h46q-16 -55 -62 -88.5t-107 -33.5q-82 0 -134 56.5t-52 144.5z" />
    <glyph glyph-name="guillemotleft" unicode="&#xab;" horiz-adv-x="539" 
d="M250 0l-210 240l210 240h49l-210 -240l210 -240h-49zM450 0l-210 240l210 240h49l-210 -240l210 -240h-49z" />
    <glyph glyph-name="logicalnot" unicode="&#xac;" 
d="M538 320v-244h-46v200h-412v44h458z" />
    <glyph glyph-name="registered" unicode="&#xae;" horiz-adv-x="469" 
d="M235 336q-83 0 -139 55.5t-56 138.5q0 82 56 137.5t139 55.5t138.5 -55.5t55.5 -137.5q0 -83 -55.5 -138.5t-138.5 -55.5zM235 364q71 0 118 47.5t47 118.5q0 70 -47 117.5t-118 47.5t-118 -47.5t-47 -117.5q0 -71 47 -118.5t118 -47.5zM194 424h-31v216h78
q35 0 56 -17.5t21 -48.5q0 -46 -45 -61l49 -89h-35l-44 82h-49v-82zM285 573q0 38 -45 38h-46v-76h46q45 0 45 38z" />
    <glyph glyph-name="macron" unicode="&#xaf;" horiz-adv-x="336" 
d="M60 827v42h216v-42h-216z" />
    <glyph glyph-name="degree" unicode="&#xb0;" horiz-adv-x="242" 
d="M232 611q0 -48 -32 -79.5t-79 -31.5t-79 31.5t-32 79.5t32 79.5t79 31.5t79 -31.5t32 -79.5zM192 611q0 32 -20 52.5t-51 20.5t-51 -20.5t-20 -52.5t20 -52.5t51 -20.5t51 20.5t20 52.5z" />
    <glyph glyph-name="plusminus" unicode="&#xb1;" 
d="M80 389h228v198h44v-198h228v-44h-228v-198h-44v198h-228v44zM80 0v44h500v-44h-500z" />
    <glyph glyph-name="twosuperior" unicode="&#xb2;" horiz-adv-x="337" 
d="M310 330h-283v37l152 123q83 68 83 138q0 98 -94 98q-46 0 -71.5 -28.5t-25.5 -79.5h-42q0 68 38 108.5t102 40.5q63 0 99.5 -37t36.5 -101q0 -89 -101 -169l-111 -89h217v-41z" />
    <glyph glyph-name="threesuperior" unicode="&#xb3;" horiz-adv-x="341" 
d="M142 559h-25v31l138 129h-211v41h261v-45l-126 -117q58 -4 96.5 -41.5t38.5 -95.5q0 -62 -42.5 -100t-106.5 -38t-103 38.5t-39 99.5h42q0 -45 27 -71.5t73 -26.5t75.5 27t29.5 72q0 38 -23 63t-65 32q-12 2 -40 2z" />
    <glyph glyph-name="acute" unicode="&#xb4;" horiz-adv-x="195" 
d="M155 871l-67 -106h-42l54 106h55z" />
    <glyph glyph-name="micro" unicode="&#xb5;" horiz-adv-x="540" 
d="M116 -203h-46v684h47v-285q0 -166 138 -166q76 0 119.5 51t43.5 143v256h46v-480h-37l-9 89q-20 -45 -67 -73t-107 -28q-83 0 -128 55v-246z" />
    <glyph glyph-name="paragraph" unicode="&#xb6;" horiz-adv-x="559" 
d="M30 510q0 92 53.5 146t133.5 54h106v-768h-46v365h-60q-80 0 -133.5 54.5t-53.5 148.5zM449 -60h-46v770h46v-770z" />
    <glyph glyph-name="periodcentered" unicode="&#xb7;" horiz-adv-x="250" 
d="M125 170q-32 0 -55 23t-23 54q0 32 23 55t55 23t55 -23t23 -55q0 -31 -23 -54t-55 -23z" />
    <glyph glyph-name="cedilla" unicode="&#xb8;" horiz-adv-x="216" 
d="M40 -156v36q26 -15 52 -15q19 0 31.5 8t12.5 24q0 32 -39 32q-20 0 -49 -13l-8 22l41 88h23v-26l-20 -44q17 5 28 5q28 0 46 -17t18 -45q0 -33 -23 -51t-56 -18q-37 0 -57 14z" />
    <glyph glyph-name="onesuperior" unicode="&#xb9;" horiz-adv-x="203" 
d="M111 719h-90v41h133v-430h-43v389z" />
    <glyph glyph-name="guillemotright" unicode="&#xbb;" horiz-adv-x="539" 
d="M89 0h-49l210 240l-210 240h49l210 -240zM289 0h-49l210 240l-210 240h49l210 -240z" />
    <glyph glyph-name="onequarter" unicode="&#xbc;" horiz-adv-x="558" 
d="M96 673h-74v37h114v-325h-40v288zM520 710l-455 -710h-48l454 710h49zM453 67h-170v37l161 221h48v-221h40v-37h-40v-67h-39v67zM327 104h126v173z" />
    <glyph glyph-name="onehalf" unicode="&#xbd;" horiz-adv-x="588" 
d="M96 673h-74v37h114v-325h-40v288zM520 710l-455 -710h-48l454 710h49zM566 0h-222v28l105 86q38 32 53.5 56.5t15.5 52.5q0 32 -18.5 51t-50.5 19q-31 0 -50 -18.5t-19 -50.5h-41q0 47 31 76.5t80 29.5q50 0 80 -29t30 -77q0 -37 -19 -67t-67 -70l-61 -50h153v-37z" />
    <glyph glyph-name="threequarters" unicode="&#xbe;" horiz-adv-x="605" 
d="M22 486h41q0 -32 19 -50.5t52 -18.5t51.5 17t18.5 46q0 74 -92 74h-20v28l95 90h-149v38h200v-39l-91 -85q44 -3 71 -31t27 -70q0 -49 -30 -77.5t-82 -28.5q-49 0 -80 30t-31 77zM567 710l-455 -710h-48l454 710h49zM500 67h-170v37l161 221h48v-221h40v-37h-40v-67h-39
v67zM374 104h126v173z" />
    <glyph glyph-name="questiondown" unicode="&#xbf;" horiz-adv-x="499" 
d="M270 723q23 0 39.5 -16t16.5 -39t-16.5 -39t-39.5 -16q-22 0 -38 16.5t-16 38.5t16 38.5t38 16.5zM252 555h45v-28q0 -52 -27.5 -87.5t-80.5 -75.5q-35 -27 -54 -44.5t-36.5 -50.5t-17.5 -70q0 -71 46.5 -119t121.5 -48q70 0 119.5 49t49.5 118h46q0 -88 -63 -150
t-152 -62q-96 0 -155 61t-59 151q0 48 21 88t43 60t61 50q48 36 70 64t22 66v28z" />
    <glyph glyph-name="Agrave" unicode="&#xc0;" horiz-adv-x="630" 
d="M331 765h-42l-65 107h55zM63 0h-48l263 710h71l266 -710h-49l-75 199h-354zM307 659l-154 -416h322l-156 416q-1 2 -2.5 6t-2.5 7t-1 5q-2 -8 -6 -18z" />
    <glyph glyph-name="Aacute" unicode="&#xc1;" horiz-adv-x="630" 
d="M404 871l-67 -106h-42l54 106h55zM63 0h-48l263 710h71l266 -710h-49l-75 199h-354zM307 659l-154 -416h322l-156 416q-1 2 -2.5 6t-2.5 7t-1 5q-2 -8 -6 -18z" />
    <glyph glyph-name="Acircumflex" unicode="&#xc2;" horiz-adv-x="630" 
d="M255 765h-48l70 107h71l70 -107h-48l-57 84zM63 0h-48l263 710h71l266 -710h-49l-75 199h-354zM307 659l-154 -416h322l-156 416q-1 2 -2.5 6t-2.5 7t-1 5q-2 -8 -6 -18z" />
    <glyph glyph-name="Atilde" unicode="&#xc3;" horiz-adv-x="630" 
d="M227 785h-40q-1 43 16 67.5t49 24.5q26 0 60 -26t53 -26q33 0 33 52h40q0 -92 -72 -92q-29 0 -61.5 26t-46.5 26q-31 0 -31 -52zM63 0h-48l263 710h71l266 -710h-49l-75 199h-354zM307 659l-154 -416h322l-156 416q-1 2 -2.5 6t-2.5 7t-1 5q-2 -8 -6 -18z" />
    <glyph glyph-name="Adieresis" unicode="&#xc4;" horiz-adv-x="630" 
d="M247 788q-17 0 -29.5 12t-12.5 29t12.5 30t29.5 13t29.5 -13t12.5 -30q0 -16 -12.5 -28.5t-29.5 -12.5zM379 788q-17 0 -29.5 12t-12.5 29t12.5 30t29.5 13t29.5 -13t12.5 -30q0 -16 -12.5 -28.5t-29.5 -12.5zM63 0h-48l263 710h71l266 -710h-49l-75 199h-354zM307 659
l-154 -416h322l-156 416q-1 2 -2.5 6t-2.5 7t-1 5q-2 -8 -6 -18z" />
    <glyph glyph-name="Aring" unicode="&#xc5;" horiz-adv-x="630" 
d="M313 766q-43 0 -71 28t-28 72q0 43 28.5 71t70.5 28t70.5 -28.5t28.5 -70.5t-28.5 -71t-70.5 -29zM313 805q25 0 41 17t16 44q0 26 -16 43.5t-41 17.5t-41 -17t-16 -44t16 -44t41 -17zM63 0h-48l263 710h71l266 -710h-49l-75 199h-354zM307 659l-154 -416h322l-156 416
q-1 2 -2.5 6t-2.5 7t-1 5q-2 -8 -6 -18z" />
    <glyph glyph-name="AE" unicode="&#xc6;" horiz-adv-x="878" 
d="M10 0l283 710h525v-44h-367v-288h334v-44h-334v-290h367v-44h-415v217h-259l-86 -217h-48zM162 261h241v405h-80z" />
    <glyph glyph-name="Ccedilla" unicode="&#xc7;" horiz-adv-x="716" 
d="M323 -156v36q25 -15 52 -15q19 0 31.5 8t12.5 24q0 32 -39 32q-20 0 -49 -13l-8 22l24 52q-135 10 -218.5 110.5t-83.5 254.5q0 163 92.5 265t240.5 102q109 0 190 -62t104 -163h-53q-24 83 -90 131t-154 48q-125 0 -203 -89t-78 -232t78 -231.5t203 -88.5
q88 0 155.5 45.5t92.5 122.5h53q-25 -94 -106 -153t-188 -61l-15 -33q17 5 28 5q28 0 46 -17t18 -45q0 -33 -23 -51t-56 -18q-37 0 -57 14z" />
    <glyph glyph-name="Egrave" unicode="&#xc8;" horiz-adv-x="568" 
d="M310 765h-42l-65 107h55zM508 0h-418v710h417v-44h-369v-288h336v-44h-336v-290h370v-44z" />
    <glyph glyph-name="Eacute" unicode="&#xc9;" horiz-adv-x="568" 
d="M383 871l-67 -106h-42l54 106h55zM508 0h-418v710h417v-44h-369v-288h336v-44h-336v-290h370v-44z" />
    <glyph glyph-name="Ecircumflex" unicode="&#xca;" horiz-adv-x="568" 
d="M234 765h-48l70 107h71l70 -107h-48l-57 84zM508 0h-418v710h417v-44h-369v-288h336v-44h-336v-290h370v-44z" />
    <glyph glyph-name="Edieresis" unicode="&#xcb;" horiz-adv-x="568" 
d="M226 788q-17 0 -29.5 12t-12.5 29t12.5 30t29.5 13t29.5 -13t12.5 -30q0 -16 -12.5 -28.5t-29.5 -12.5zM358 788q-17 0 -29.5 12t-12.5 29t12.5 30t29.5 13t29.5 -13t12.5 -30q0 -16 -12.5 -28.5t-29.5 -12.5zM508 0h-418v710h417v-44h-369v-288h336v-44h-336v-290h370
v-44z" />
    <glyph glyph-name="Igrave" unicode="&#xcc;" horiz-adv-x="228" 
d="M132 765h-42l-65 107h55zM138 710v-710h-48v710h48z" />
    <glyph glyph-name="Iacute" unicode="&#xcd;" horiz-adv-x="228" 
d="M205 871l-67 -106h-42l54 106h55zM138 710v-710h-48v710h48z" />
    <glyph glyph-name="Icircumflex" unicode="&#xce;" horiz-adv-x="228" 
d="M56 765h-48l70 107h71l70 -107h-48l-57 84zM138 710v-710h-48v710h48z" />
    <glyph glyph-name="Idieresis" unicode="&#xcf;" horiz-adv-x="228" 
d="M48 788q-17 0 -29.5 12t-12.5 29t12.5 30t29.5 13t29.5 -13t12.5 -30q0 -16 -12.5 -28.5t-29.5 -12.5zM180 788q-17 0 -29.5 12t-12.5 29t12.5 30t29.5 13t29.5 -13t12.5 -30q0 -16 -12.5 -28.5t-29.5 -12.5zM138 710v-710h-48v710h48z" />
    <glyph glyph-name="Eth" unicode="&#xd0;" horiz-adv-x="692" 
d="M289 0h-199v333h-70v44h70v333h199q161 0 259.5 -97.5t98.5 -257.5t-98.5 -257.5t-259.5 -97.5zM294 333h-156v-289h151q140 0 224.5 84.5t84.5 226.5q0 143 -83.5 227t-225.5 84h-151v-289h156v-44z" />
    <glyph glyph-name="Ntilde" unicode="&#xd1;" horiz-adv-x="693" 
d="M261 785h-40q-1 43 16 67.5t49 24.5q26 0 60 -26t53 -26q33 0 33 52h40q0 -92 -72 -92q-29 0 -61.5 26t-46.5 26q-31 0 -31 -52zM138 0h-48v710h49l416 -629v629h48v-710h-48l-417 631v-631z" />
    <glyph glyph-name="Ograve" unicode="&#xd2;" horiz-adv-x="761" 
d="M398 765h-42l-65 107h55zM716 355q0 -161 -94 -264t-242 -103t-241.5 103t-93.5 264t94 264t241 103q148 0 242 -103t94 -264zM667 355q0 142 -80 231.5t-207 89.5q-126 0 -206 -89.5t-80 -231.5t80 -231.5t206 -89.5q127 0 207 89.5t80 231.5z" />
    <glyph glyph-name="Oacute" unicode="&#xd3;" horiz-adv-x="761" 
d="M471 871l-67 -106h-42l54 106h55zM716 355q0 -161 -94 -264t-242 -103t-241.5 103t-93.5 264t94 264t241 103q148 0 242 -103t94 -264zM667 355q0 142 -80 231.5t-207 89.5q-126 0 -206 -89.5t-80 -231.5t80 -231.5t206 -89.5q127 0 207 89.5t80 231.5z" />
    <glyph glyph-name="Ocircumflex" unicode="&#xd4;" horiz-adv-x="761" 
d="M322 765h-48l70 107h71l70 -107h-48l-57 84zM716 355q0 -161 -94 -264t-242 -103t-241.5 103t-93.5 264t94 264t241 103q148 0 242 -103t94 -264zM667 355q0 142 -80 231.5t-207 89.5q-126 0 -206 -89.5t-80 -231.5t80 -231.5t206 -89.5q127 0 207 89.5t80 231.5z" />
    <glyph glyph-name="Otilde" unicode="&#xd5;" horiz-adv-x="761" 
d="M294 785h-40q-1 43 16 67.5t49 24.5q26 0 60 -26t53 -26q33 0 33 52h40q0 -92 -72 -92q-29 0 -61.5 26t-46.5 26q-31 0 -31 -52zM716 355q0 -161 -94 -264t-242 -103t-241.5 103t-93.5 264t94 264t241 103q148 0 242 -103t94 -264zM667 355q0 142 -80 231.5t-207 89.5
q-126 0 -206 -89.5t-80 -231.5t80 -231.5t206 -89.5q127 0 207 89.5t80 231.5z" />
    <glyph glyph-name="Odieresis" unicode="&#xd6;" horiz-adv-x="761" 
d="M314 788q-17 0 -29.5 12t-12.5 29t12.5 30t29.5 13t29.5 -13t12.5 -30q0 -16 -12.5 -28.5t-29.5 -12.5zM446 788q-17 0 -29.5 12t-12.5 29t12.5 30t29.5 13t29.5 -13t12.5 -30q0 -16 -12.5 -28.5t-29.5 -12.5zM716 355q0 -161 -94 -264t-242 -103t-241.5 103t-93.5 264
t94 264t241 103q148 0 242 -103t94 -264zM667 355q0 142 -80 231.5t-207 89.5q-126 0 -206 -89.5t-80 -231.5t80 -231.5t206 -89.5q127 0 207 89.5t80 231.5z" />
    <glyph glyph-name="multiply" unicode="&#xd7;" 
d="M141 557l189 -189l190 189l31 -31l-190 -189l190 -190l-31 -31l-190 190l-190 -190l-31 31l190 190l-189 189z" />
    <glyph glyph-name="Oslash" unicode="&#xd8;" horiz-adv-x="761" 
d="M716 355q0 -161 -94 -264t-242 -103q-117 0 -204 68l-43 -56h-50l63 83q-101 104 -101 272q0 161 94 264t241 103q116 0 205 -68l43 56h51l-64 -83q101 -106 101 -272zM94 355q0 -144 82 -234l380 495q-74 60 -176 60q-126 0 -206 -89.5t-80 -231.5zM667 355
q0 143 -82 233l-380 -494q74 -60 175 -60q127 0 207 89.5t80 231.5z" />
    <glyph glyph-name="Ugrave" unicode="&#xd9;" horiz-adv-x="677" 
d="M357 765h-42l-65 107h55zM85 241v469h48v-468q0 -100 53.5 -153.5t153.5 -53.5q98 0 151 53.5t53 153.5v468h48v-469q0 -119 -67 -186t-185 -67q-120 0 -187.5 67t-67.5 186z" />
    <glyph glyph-name="Uacute" unicode="&#xda;" horiz-adv-x="677" 
d="M430 871l-67 -106h-42l54 106h55zM85 241v469h48v-468q0 -100 53.5 -153.5t153.5 -53.5q98 0 151 53.5t53 153.5v468h48v-469q0 -119 -67 -186t-185 -67q-120 0 -187.5 67t-67.5 186z" />
    <glyph glyph-name="Ucircumflex" unicode="&#xdb;" horiz-adv-x="677" 
d="M281 765h-48l70 107h71l70 -107h-48l-57 84zM85 241v469h48v-468q0 -100 53.5 -153.5t153.5 -53.5q98 0 151 53.5t53 153.5v468h48v-469q0 -119 -67 -186t-185 -67q-120 0 -187.5 67t-67.5 186z" />
    <glyph glyph-name="Udieresis" unicode="&#xdc;" horiz-adv-x="677" 
d="M273 788q-17 0 -29.5 12t-12.5 29t12.5 30t29.5 13t29.5 -13t12.5 -30q0 -16 -12.5 -28.5t-29.5 -12.5zM405 788q-17 0 -29.5 12t-12.5 29t12.5 30t29.5 13t29.5 -13t12.5 -30q0 -16 -12.5 -28.5t-29.5 -12.5zM85 241v469h48v-468q0 -100 53.5 -153.5t153.5 -53.5
q98 0 151 53.5t53 153.5v468h48v-469q0 -119 -67 -186t-185 -67q-120 0 -187.5 67t-67.5 186z" />
    <glyph glyph-name="Yacute" unicode="&#xdd;" horiz-adv-x="546" 
d="M365 871l-67 -106h-42l54 106h55zM251 304l-241 406h55l190 -328q11 -19 20 -38q11 21 20 38l188 328h53l-237 -406v-304h-48v304z" />
    <glyph glyph-name="Thorn" unicode="&#xde;" horiz-adv-x="603" 
d="M355 147h-217v-147h-48v710h48v-140h217q100 0 159 -58.5t59 -151.5q0 -89 -60 -151t-158 -62zM353 526h-215v-335h209q81 0 129 48.5t48 122.5q0 73 -47 118.5t-124 45.5z" />
    <glyph glyph-name="germandbls" unicode="&#xdf;" horiz-adv-x="549" 
d="M122 0h-46v517q0 95 56.5 150t146.5 55q80 0 129.5 -47t49.5 -123q0 -51 -28.5 -91.5t-78.5 -55.5q74 -13 118.5 -65t44.5 -125q0 -92 -64 -153.5t-176 -61.5q-63 0 -93 6v37h96q89 0 139.5 49.5t50.5 122.5q0 77 -50 120.5t-144 43.5h-52v43h52q63 0 100.5 35.5
t37.5 94.5q0 55 -35 91.5t-96 36.5q-70 0 -114 -43.5t-44 -119.5v-517z" />
    <glyph glyph-name="agrave" unicode="&#xe0;" horiz-adv-x="511" 
d="M277 535h-42l-65 107h55zM212 -12q-76 0 -119 38t-43 101q0 66 48 106t132 47l165 13v18q0 139 -140 139q-67 0 -104.5 -29.5t-37.5 -82.5h-46q0 70 52 112t137 42q83 0 134 -43t51 -131v-318h-37l-9 90q-25 -49 -73 -75.5t-110 -26.5zM218 29q83 0 130 55t47 145v26
l-161 -13q-70 -6 -104 -36.5t-34 -77.5q0 -48 33 -73.5t89 -25.5z" />
    <glyph glyph-name="aacute" unicode="&#xe1;" horiz-adv-x="511" 
d="M350 641l-67 -106h-42l54 106h55zM212 -12q-76 0 -119 38t-43 101q0 66 48 106t132 47l165 13v18q0 139 -140 139q-67 0 -104.5 -29.5t-37.5 -82.5h-46q0 70 52 112t137 42q83 0 134 -43t51 -131v-318h-37l-9 90q-25 -49 -73 -75.5t-110 -26.5zM218 29q83 0 130 55
t47 145v26l-161 -13q-70 -6 -104 -36.5t-34 -77.5q0 -48 33 -73.5t89 -25.5z" />
    <glyph glyph-name="acircumflex" unicode="&#xe2;" horiz-adv-x="511" 
d="M201 535h-48l70 107h71l70 -107h-48l-57 84zM212 -12q-76 0 -119 38t-43 101q0 66 48 106t132 47l165 13v18q0 139 -140 139q-67 0 -104.5 -29.5t-37.5 -82.5h-46q0 70 52 112t137 42q83 0 134 -43t51 -131v-318h-37l-9 90q-25 -49 -73 -75.5t-110 -26.5zM218 29
q83 0 130 55t47 145v26l-161 -13q-70 -6 -104 -36.5t-34 -77.5q0 -48 33 -73.5t89 -25.5z" />
    <glyph glyph-name="atilde" unicode="&#xe3;" horiz-adv-x="511" 
d="M173 555h-40q-1 43 16 67.5t49 24.5q26 0 60 -26t53 -26q33 0 33 52h40q0 -92 -72 -92q-29 0 -61.5 26t-46.5 26q-31 0 -31 -52zM212 -12q-76 0 -119 38t-43 101q0 66 48 106t132 47l165 13v18q0 139 -140 139q-67 0 -104.5 -29.5t-37.5 -82.5h-46q0 70 52 112t137 42
q83 0 134 -43t51 -131v-318h-37l-9 90q-25 -49 -73 -75.5t-110 -26.5zM218 29q83 0 130 55t47 145v26l-161 -13q-70 -6 -104 -36.5t-34 -77.5q0 -48 33 -73.5t89 -25.5z" />
    <glyph glyph-name="adieresis" unicode="&#xe4;" horiz-adv-x="511" 
d="M193 558q-17 0 -29.5 12t-12.5 29t12.5 30t29.5 13t29.5 -13t12.5 -30q0 -16 -12.5 -28.5t-29.5 -12.5zM325 558q-17 0 -29.5 12t-12.5 29t12.5 30t29.5 13t29.5 -13t12.5 -30q0 -16 -12.5 -28.5t-29.5 -12.5zM212 -12q-76 0 -119 38t-43 101q0 66 48 106t132 47l165 13
v18q0 139 -140 139q-67 0 -104.5 -29.5t-37.5 -82.5h-46q0 70 52 112t137 42q83 0 134 -43t51 -131v-318h-37l-9 90q-25 -49 -73 -75.5t-110 -26.5zM218 29q83 0 130 55t47 145v26l-161 -13q-70 -6 -104 -36.5t-34 -77.5q0 -48 33 -73.5t89 -25.5z" />
    <glyph glyph-name="aring" unicode="&#xe5;" horiz-adv-x="511" 
d="M259 536q-43 0 -71 28t-28 72q0 43 28.5 71t70.5 28t70.5 -28.5t28.5 -70.5t-28.5 -71t-70.5 -29zM259 575q25 0 41 17t16 44q0 26 -16 43.5t-41 17.5t-41 -17t-16 -44t16 -44t41 -17zM212 -12q-76 0 -119 38t-43 101q0 66 48 106t132 47l165 13v18q0 139 -140 139
q-67 0 -104.5 -29.5t-37.5 -82.5h-46q0 70 52 112t137 42q83 0 134 -43t51 -131v-318h-37l-9 90q-25 -49 -73 -75.5t-110 -26.5zM218 29q83 0 130 55t47 145v26l-161 -13q-70 -6 -104 -36.5t-34 -77.5q0 -48 33 -73.5t89 -25.5z" />
    <glyph glyph-name="ae" unicode="&#xe6;" horiz-adv-x="870" 
d="M50 130q0 68 46.5 103t127.5 37l171 4v37q0 66 -38 102.5t-102 36.5q-67 0 -104.5 -29.5t-37.5 -82.5h-46q0 70 52 112t137 42q63 0 110 -31.5t61 -82.5q28 54 78 84t114 30q94 0 152.5 -61.5t58.5 -159.5v-32h-391q3 -97 52 -153t134 -56q129 0 158 108h47
q-42 -150 -205 -150q-73 0 -126.5 35t-80.5 98q-20 -59 -75 -96t-129 -37q-77 0 -120.5 38.5t-43.5 103.5zM619 450q-72 0 -121.5 -47.5t-57.5 -125.5h343q0 78 -45 125.5t-119 47.5zM96 133q0 -52 34 -78t94 -26q77 0 124 47.5t47 124.5v35l-171 -4q-128 -3 -128 -99z" />
    <glyph glyph-name="ccedilla" unicode="&#xe7;" horiz-adv-x="507" 
d="M40 238q0 114 62.5 184t165.5 70q77 0 131 -41.5t71 -110.5h-47q-15 52 -57.5 81.5t-97.5 29.5q-81 0 -132 -58t-51 -154q0 -93 48.5 -151t128.5 -58q57 0 101.5 30t61.5 79h47q-19 -65 -71 -105.5t-122 -44.5l-15 -33q17 5 28 5q28 0 46 -17t18 -45q0 -33 -23 -51
t-56 -18q-37 0 -57 14v36q26 -15 52 -15q19 0 31.5 8t12.5 24q0 32 -39 32q-20 0 -49 -13l-8 22l24 51q-92 7 -148 74.5t-56 174.5z" />
    <glyph glyph-name="egrave" unicode="&#xe8;" horiz-adv-x="516" 
d="M283 535h-42l-65 107h55zM271 -12q-104 0 -167.5 69t-63.5 182t62.5 183t162.5 70q94 0 152.5 -61.5t58.5 -159.5v-32h-390q3 -98 51.5 -153.5t133.5 -55.5q129 0 158 108h47q-42 -150 -205 -150zM265 450q-73 0 -121.5 -47t-56.5 -126h342q0 78 -45 125.5t-119 47.5z
" />
    <glyph glyph-name="eacute" unicode="&#xe9;" horiz-adv-x="516" 
d="M356 641l-67 -106h-42l54 106h55zM271 -12q-104 0 -167.5 69t-63.5 182t62.5 183t162.5 70q94 0 152.5 -61.5t58.5 -159.5v-32h-390q3 -98 51.5 -153.5t133.5 -55.5q129 0 158 108h47q-42 -150 -205 -150zM265 450q-73 0 -121.5 -47t-56.5 -126h342q0 78 -45 125.5
t-119 47.5z" />
    <glyph glyph-name="ecircumflex" unicode="&#xea;" horiz-adv-x="516" 
d="M207 535h-48l70 107h71l70 -107h-48l-57 84zM271 -12q-104 0 -167.5 69t-63.5 182t62.5 183t162.5 70q94 0 152.5 -61.5t58.5 -159.5v-32h-390q3 -98 51.5 -153.5t133.5 -55.5q129 0 158 108h47q-42 -150 -205 -150zM265 450q-73 0 -121.5 -47t-56.5 -126h342
q0 78 -45 125.5t-119 47.5z" />
    <glyph glyph-name="edieresis" unicode="&#xeb;" horiz-adv-x="516" 
d="M199 558q-17 0 -29.5 12t-12.5 29t12.5 30t29.5 13t29.5 -13t12.5 -30q0 -16 -12.5 -28.5t-29.5 -12.5zM331 558q-17 0 -29.5 12t-12.5 29t12.5 30t29.5 13t29.5 -13t12.5 -30q0 -16 -12.5 -28.5t-29.5 -12.5zM271 -12q-104 0 -167.5 69t-63.5 182t62.5 183t162.5 70
q94 0 152.5 -61.5t58.5 -159.5v-32h-390q3 -98 51.5 -153.5t133.5 -55.5q129 0 158 108h47q-42 -150 -205 -150zM265 450q-73 0 -121.5 -47t-56.5 -126h342q0 78 -45 125.5t-119 47.5z" />
    <glyph glyph-name="igrave" unicode="&#xec;" horiz-adv-x="198" 
d="M117 535h-42l-65 107h55zM76 0v480h46v-480h-46z" />
    <glyph glyph-name="iacute" unicode="&#xed;" horiz-adv-x="198" 
d="M190 641l-67 -106h-42l54 106h55zM76 0v480h46v-480h-46z" />
    <glyph glyph-name="icircumflex" unicode="&#xee;" horiz-adv-x="198" 
d="M41 535h-48l70 107h71l70 -107h-48l-57 84zM76 0v480h46v-480h-46z" />
    <glyph glyph-name="idieresis" unicode="&#xef;" horiz-adv-x="198" 
d="M33 558q-17 0 -29.5 12t-12.5 29t12.5 30t29.5 13t29.5 -13t12.5 -30q0 -16 -12.5 -28.5t-29.5 -12.5zM165 558q-17 0 -29.5 12t-12.5 29t12.5 30t29.5 13t29.5 -13t12.5 -30q0 -16 -12.5 -28.5t-29.5 -12.5zM76 0v480h46v-480h-46z" />
    <glyph glyph-name="eth" unicode="&#xf0;" horiz-adv-x="572" 
d="M40 240q0 104 72 177t174 73q58 0 108.5 -27.5t82.5 -75.5q-22 71 -57.5 123.5t-97.5 114.5l-92 -58l-19 33l82 52q-31 29 -78 70h60q26 -20 54 -47l81 52l20 -34l-72 -45q94 -94 134 -182t40 -201q0 -124 -69 -200.5t-181 -76.5q-103 0 -172.5 72.5t-69.5 179.5zM87 239
q0 -92 55.5 -150.5t141.5 -58.5q88 0 144.5 60t56.5 154q0 89 -55 146t-140 57q-88 0 -145.5 -59t-57.5 -149z" />
    <glyph glyph-name="ntilde" unicode="&#xf1;" horiz-adv-x="550" 
d="M188 555h-40q-1 43 16 67.5t49 24.5q26 0 60 -26t53 -26q33 0 33 52h40q0 -92 -72 -92q-29 0 -61.5 26t-46.5 26q-31 0 -31 -52zM122 0h-46v480h37l10 -93q24 50 69.5 77.5t100.5 27.5q187 0 187 -200v-292h-46v283q0 91 -36.5 129t-105.5 38q-80 0 -125 -55t-45 -147
v-248z" />
    <glyph glyph-name="ograve" unicode="&#xf2;" horiz-adv-x="556" 
d="M296 535h-42l-65 107h55zM40 240q0 109 67.5 180.5t170.5 71.5t170.5 -71.5t67.5 -180.5t-67.5 -180.5t-170.5 -71.5t-170.5 71.5t-67.5 180.5zM87 240q0 -92 53.5 -151t137.5 -59t137.5 59t53.5 151t-53.5 151t-137.5 59t-137.5 -59t-53.5 -151z" />
    <glyph glyph-name="oacute" unicode="&#xf3;" horiz-adv-x="556" 
d="M369 641l-67 -106h-42l54 106h55zM40 240q0 109 67.5 180.5t170.5 71.5t170.5 -71.5t67.5 -180.5t-67.5 -180.5t-170.5 -71.5t-170.5 71.5t-67.5 180.5zM87 240q0 -92 53.5 -151t137.5 -59t137.5 59t53.5 151t-53.5 151t-137.5 59t-137.5 -59t-53.5 -151z" />
    <glyph glyph-name="ocircumflex" unicode="&#xf4;" horiz-adv-x="556" 
d="M220 535h-48l70 107h71l70 -107h-48l-57 84zM40 240q0 109 67.5 180.5t170.5 71.5t170.5 -71.5t67.5 -180.5t-67.5 -180.5t-170.5 -71.5t-170.5 71.5t-67.5 180.5zM87 240q0 -92 53.5 -151t137.5 -59t137.5 59t53.5 151t-53.5 151t-137.5 59t-137.5 -59t-53.5 -151z" />
    <glyph glyph-name="otilde" unicode="&#xf5;" horiz-adv-x="556" 
d="M192 555h-40q-1 43 16 67.5t49 24.5q26 0 60 -26t53 -26q33 0 33 52h40q0 -92 -72 -92q-29 0 -61.5 26t-46.5 26q-31 0 -31 -52zM40 240q0 109 67.5 180.5t170.5 71.5t170.5 -71.5t67.5 -180.5t-67.5 -180.5t-170.5 -71.5t-170.5 71.5t-67.5 180.5zM87 240
q0 -92 53.5 -151t137.5 -59t137.5 59t53.5 151t-53.5 151t-137.5 59t-137.5 -59t-53.5 -151z" />
    <glyph glyph-name="odieresis" unicode="&#xf6;" horiz-adv-x="556" 
d="M212 558q-17 0 -29.5 12t-12.5 29t12.5 30t29.5 13t29.5 -13t12.5 -30q0 -16 -12.5 -28.5t-29.5 -12.5zM344 558q-17 0 -29.5 12t-12.5 29t12.5 30t29.5 13t29.5 -13t12.5 -30q0 -16 -12.5 -28.5t-29.5 -12.5zM40 240q0 109 67.5 180.5t170.5 71.5t170.5 -71.5
t67.5 -180.5t-67.5 -180.5t-170.5 -71.5t-170.5 71.5t-67.5 180.5zM87 240q0 -92 53.5 -151t137.5 -59t137.5 59t53.5 151t-53.5 151t-137.5 59t-137.5 -59t-53.5 -151z" />
    <glyph glyph-name="divide" unicode="&#xf7;" 
d="M330 443q-22 0 -38.5 16t-16.5 38q0 23 16.5 39t38.5 16t38.5 -16t16.5 -39q0 -22 -16.5 -38t-38.5 -16zM80 323h500v-44h-500v44zM330 49q-22 0 -38.5 16t-16.5 38q0 23 16.5 39t38.5 16t38.5 -16t16.5 -39q0 -22 -16.5 -38t-38.5 -16z" />
    <glyph glyph-name="oslash" unicode="&#xf8;" horiz-adv-x="556" 
d="M40 240q0 109 67.5 180.5t170.5 71.5q63 0 117 -30l34 56h45l-48 -77q90 -72 90 -201q0 -109 -67.5 -180.5t-170.5 -71.5q-63 0 -114 28l-42 -67h-44l54 88q-92 73 -92 203zM87 240q0 -104 68 -166l217 352q-43 24 -94 24q-84 0 -137.5 -59t-53.5 -151zM469 240
q0 103 -66 163l-217 -350q41 -23 92 -23q84 0 137.5 59t53.5 151z" />
    <glyph glyph-name="ugrave" unicode="&#xf9;" horiz-adv-x="540" 
d="M282 535h-42l-65 107h55zM418 480h46v-480h-37l-9 89q-20 -45 -67 -73t-107 -28q-84 0 -129 53t-45 143v297h47v-285q0 -166 138 -166q76 0 119.5 51t43.5 143v256z" />
    <glyph glyph-name="uacute" unicode="&#xfa;" horiz-adv-x="540" 
d="M355 641l-67 -106h-42l54 106h55zM418 480h46v-480h-37l-9 89q-20 -45 -67 -73t-107 -28q-84 0 -129 53t-45 143v297h47v-285q0 -166 138 -166q76 0 119.5 51t43.5 143v256z" />
    <glyph glyph-name="ucircumflex" unicode="&#xfb;" horiz-adv-x="540" 
d="M206 535h-48l70 107h71l70 -107h-48l-57 84zM418 480h46v-480h-37l-9 89q-20 -45 -67 -73t-107 -28q-84 0 -129 53t-45 143v297h47v-285q0 -166 138 -166q76 0 119.5 51t43.5 143v256z" />
    <glyph glyph-name="udieresis" unicode="&#xfc;" horiz-adv-x="540" 
d="M198 558q-17 0 -29.5 12t-12.5 29t12.5 30t29.5 13t29.5 -13t12.5 -30q0 -16 -12.5 -28.5t-29.5 -12.5zM330 558q-17 0 -29.5 12t-12.5 29t12.5 30t29.5 13t29.5 -13t12.5 -30q0 -16 -12.5 -28.5t-29.5 -12.5zM418 480h46v-480h-37l-9 89q-20 -45 -67 -73t-107 -28
q-84 0 -129 53t-45 143v297h47v-285q0 -166 138 -166q76 0 119.5 51t43.5 143v256z" />
    <glyph glyph-name="yacute" unicode="&#xfd;" horiz-adv-x="446" 
d="M311 641l-67 -106h-42l54 106h55zM24 -203v37h45q20 0 31.5 1.5t29 7t30 20.5t21.5 39l24 65l-195 513h48l169 -450l162 450h47l-213 -591q-36 -98 -134 -98q-35 0 -65 6z" />
    <glyph glyph-name="thorn" unicode="&#xfe;" horiz-adv-x="569" 
d="M529 240q0 -110 -59 -181t-162 -71q-134 0 -186 116v-307h-46v925h46v-346q52 116 186 116q103 0 162 -71t59 -181zM482 240q0 93 -47.5 151.5t-131.5 58.5t-132 -58.5t-48 -151.5t48 -151.5t132 -58.5t131.5 58.5t47.5 151.5z" />
    <glyph glyph-name="ydieresis" unicode="&#xff;" horiz-adv-x="446" 
d="M154 558q-17 0 -29.5 12t-12.5 29t12.5 30t29.5 13t29.5 -13t12.5 -30q0 -16 -12.5 -28.5t-29.5 -12.5zM286 558q-17 0 -29.5 12t-12.5 29t12.5 30t29.5 13t29.5 -13t12.5 -30q0 -16 -12.5 -28.5t-29.5 -12.5zM24 -203v37h45q20 0 31.5 1.5t29 7t30 20.5t21.5 39l24 65
l-195 513h48l169 -450l162 450h47l-213 -591q-36 -98 -134 -98q-35 0 -65 6z" />
    <glyph glyph-name="Amacron" unicode="&#x100;" horiz-adv-x="630" 
d="M205 828v42h216v-42h-216zM63 0h-48l263 710h71l266 -710h-49l-75 199h-354zM307 659l-154 -416h322l-156 416q-1 2 -2.5 6t-2.5 7t-1 5q-2 -8 -6 -18z" />
    <glyph glyph-name="amacron" unicode="&#x101;" horiz-adv-x="511" 
d="M151 598v42h216v-42h-216zM212 -12q-76 0 -119 38t-43 101q0 66 48 106t132 47l165 13v18q0 139 -140 139q-67 0 -104.5 -29.5t-37.5 -82.5h-46q0 70 52 112t137 42q83 0 134 -43t51 -131v-318h-37l-9 90q-25 -49 -73 -75.5t-110 -26.5zM218 29q83 0 130 55t47 145v26
l-161 -13q-70 -6 -104 -36.5t-34 -77.5q0 -48 33 -73.5t89 -25.5z" />
    <glyph glyph-name="Abreve" unicode="&#x102;" horiz-adv-x="630" 
d="M379 872h42q0 -51 -29 -80.5t-79 -29.5t-79 29.5t-29 80.5h42q0 -68 66 -68t66 68zM63 0h-48l263 710h71l266 -710h-49l-75 199h-354zM307 659l-154 -416h322l-156 416q-1 2 -2.5 6t-2.5 7t-1 5q-2 -8 -6 -18z" />
    <glyph glyph-name="abreve" unicode="&#x103;" horiz-adv-x="511" 
d="M325 642h42q0 -51 -29 -80.5t-79 -29.5t-79 29.5t-29 80.5h42q0 -68 66 -68t66 68zM212 -12q-76 0 -119 38t-43 101q0 66 48 106t132 47l165 13v18q0 139 -140 139q-67 0 -104.5 -29.5t-37.5 -82.5h-46q0 70 52 112t137 42q83 0 134 -43t51 -131v-318h-37l-9 90
q-25 -49 -73 -75.5t-110 -26.5zM218 29q83 0 130 55t47 145v26l-161 -13q-70 -6 -104 -36.5t-34 -77.5q0 -48 33 -73.5t89 -25.5z" />
    <glyph glyph-name="Aogonek" unicode="&#x104;" horiz-adv-x="630" 
d="M63 0h-48l263 710h71l266 -710q-51 -23 -51 -62q0 -29 33 -29q7 0 18 3v-41q-12 -4 -30 -4q-28 0 -45 16.5t-17 42.5q0 46 55 74h-12l-75 199h-354zM307 659l-154 -416h322l-156 416q-1 2 -2.5 6t-2.5 7t-1 5q-2 -8 -6 -18z" />
    <glyph glyph-name="aogonek" unicode="&#x105;" horiz-adv-x="511" 
d="M212 -12q-76 0 -119 38t-43 101q0 66 48 106t132 47l165 13v18q0 139 -140 139q-67 0 -104.5 -29.5t-37.5 -82.5h-46q0 70 52 112t137 42q83 0 134 -43t51 -131v-318q-51 -23 -51 -62q0 -29 33 -29q7 0 18 3v-41q-12 -4 -30 -4q-28 0 -45 16.5t-17 42.5q0 46 55 74l-9 90
q-25 -49 -73 -75.5t-110 -26.5zM218 29q83 0 130 55t47 145v26l-161 -13q-70 -6 -104 -36.5t-34 -77.5q0 -48 33 -73.5t89 -25.5z" />
    <glyph glyph-name="Cacute" unicode="&#x106;" horiz-adv-x="716" 
d="M468 871l-67 -106h-42l54 106h55zM374 -11q-146 0 -237.5 102t-91.5 264q0 163 92.5 265t240.5 102q109 0 190 -62t104 -163h-53q-24 83 -90 131t-154 48q-125 0 -203 -89t-78 -232t78 -231.5t203 -88.5q88 0 155.5 45.5t92.5 122.5h53q-25 -96 -108.5 -155t-193.5 -59z
" />
    <glyph glyph-name="cacute" unicode="&#x107;" horiz-adv-x="507" 
d="M348 641l-67 -106h-42l54 106h55zM40 238q0 114 62.5 184t165.5 70q77 0 131 -41.5t71 -110.5h-47q-15 52 -57.5 81.5t-97.5 29.5q-81 0 -132 -58t-51 -154q0 -93 48.5 -151t128.5 -58q57 0 101.5 30t61.5 79h47q-20 -68 -77 -109.5t-133 -41.5q-99 0 -160.5 69
t-61.5 181z" />
    <glyph glyph-name="Ccircumflex" unicode="&#x108;" horiz-adv-x="716" 
d="M319 765h-48l70 107h71l70 -107h-48l-57 84zM374 -11q-146 0 -237.5 102t-91.5 264q0 163 92.5 265t240.5 102q109 0 190 -62t104 -163h-53q-24 83 -90 131t-154 48q-125 0 -203 -89t-78 -232t78 -231.5t203 -88.5q88 0 155.5 45.5t92.5 122.5h53q-25 -96 -108.5 -155
t-193.5 -59z" />
    <glyph glyph-name="ccircumflex" unicode="&#x109;" horiz-adv-x="507" 
d="M199 535h-48l70 107h71l70 -107h-48l-57 84zM40 238q0 114 62.5 184t165.5 70q77 0 131 -41.5t71 -110.5h-47q-15 52 -57.5 81.5t-97.5 29.5q-81 0 -132 -58t-51 -154q0 -93 48.5 -151t128.5 -58q57 0 101.5 30t61.5 79h47q-20 -68 -77 -109.5t-133 -41.5
q-99 0 -160.5 69t-61.5 181z" />
    <glyph glyph-name="Cdotaccent" unicode="&#x10a;" horiz-adv-x="716" 
d="M377 788q-17 0 -29.5 12t-12.5 29t12.5 30t29.5 13t29.5 -13t12.5 -30q0 -16 -12.5 -28.5t-29.5 -12.5zM374 -11q-146 0 -237.5 102t-91.5 264q0 163 92.5 265t240.5 102q109 0 190 -62t104 -163h-53q-24 83 -90 131t-154 48q-125 0 -203 -89t-78 -232t78 -231.5
t203 -88.5q88 0 155.5 45.5t92.5 122.5h53q-25 -96 -108.5 -155t-193.5 -59z" />
    <glyph glyph-name="cdotaccent" unicode="&#x10b;" horiz-adv-x="507" 
d="M257 558q-17 0 -29.5 12t-12.5 29t12.5 30t29.5 13t29.5 -13t12.5 -30q0 -16 -12.5 -28.5t-29.5 -12.5zM40 238q0 114 62.5 184t165.5 70q77 0 131 -41.5t71 -110.5h-47q-15 52 -57.5 81.5t-97.5 29.5q-81 0 -132 -58t-51 -154q0 -93 48.5 -151t128.5 -58q57 0 101.5 30
t61.5 79h47q-20 -68 -77 -109.5t-133 -41.5q-99 0 -160.5 69t-61.5 181z" />
    <glyph glyph-name="Ccaron" unicode="&#x10c;" horiz-adv-x="716" 
d="M341 765l-70 107h48l58 -84l57 84h48l-70 -107h-71zM374 -11q-146 0 -237.5 102t-91.5 264q0 163 92.5 265t240.5 102q109 0 190 -62t104 -163h-53q-24 83 -90 131t-154 48q-125 0 -203 -89t-78 -232t78 -231.5t203 -88.5q88 0 155.5 45.5t92.5 122.5h53
q-25 -96 -108.5 -155t-193.5 -59z" />
    <glyph glyph-name="ccaron" unicode="&#x10d;" horiz-adv-x="507" 
d="M221 535l-70 107h48l58 -84l57 84h48l-70 -107h-71zM40 238q0 114 62.5 184t165.5 70q77 0 131 -41.5t71 -110.5h-47q-15 52 -57.5 81.5t-97.5 29.5q-81 0 -132 -58t-51 -154q0 -93 48.5 -151t128.5 -58q57 0 101.5 30t61.5 79h47q-20 -68 -77 -109.5t-133 -41.5
q-99 0 -160.5 69t-61.5 181z" />
    <glyph glyph-name="Dcaron" unicode="&#x10e;" horiz-adv-x="692" 
d="M255 764l-70 107h48l58 -84l57 84h48l-70 -107h-71zM289 0h-199v710h199q161 0 259.5 -97.5t98.5 -257.5t-98.5 -257.5t-259.5 -97.5zM289 666h-151v-622h151q140 0 224.5 84.5t84.5 226.5q0 143 -83.5 227t-225.5 84z" />
    <glyph glyph-name="dcaron" unicode="&#x10f;" horiz-adv-x="569" 
d="M261 -12q-103 0 -162 71t-59 181t59 181t162 71q134 0 186 -116v346h46v-722h-37l-7 108q-53 -120 -188 -120zM550 577v145h49l-13 -145h-36zM266 30q84 0 132 58t48 152q0 93 -48 151.5t-132 58.5t-131.5 -58.5t-47.5 -151.5q0 -94 47.5 -152t131.5 -58z" />
    <glyph glyph-name="Dcroat" unicode="&#x110;" horiz-adv-x="692" 
d="M289 0h-199v333h-70v44h70v333h199q161 0 259.5 -97.5t98.5 -257.5t-98.5 -257.5t-259.5 -97.5zM294 333h-156v-289h151q140 0 224.5 84.5t84.5 226.5q0 143 -83.5 227t-225.5 84h-151v-289h156v-44z" />
    <glyph glyph-name="dcroat" unicode="&#x111;" horiz-adv-x="569" 
d="M261 -12q-103 0 -162 71t-59 181t59 181t162 71q134 0 186 -116v201h-162v38h162v107h46v-107h59v-38h-59v-577h-37l-7 108q-53 -120 -188 -120zM266 30q84 0 132 58t48 152q0 93 -48 151.5t-132 58.5t-131.5 -58.5t-47.5 -151.5q0 -94 47.5 -152t131.5 -58z" />
    <glyph glyph-name="Emacron" unicode="&#x112;" horiz-adv-x="568" 
d="M184 828v42h216v-42h-216zM508 0h-418v710h417v-44h-369v-288h336v-44h-336v-290h370v-44z" />
    <glyph glyph-name="emacron" unicode="&#x113;" horiz-adv-x="516" 
d="M157 598v42h216v-42h-216zM271 -12q-104 0 -167.5 69t-63.5 182t62.5 183t162.5 70q94 0 152.5 -61.5t58.5 -159.5v-32h-390q3 -98 51.5 -153.5t133.5 -55.5q129 0 158 108h47q-42 -150 -205 -150zM265 450q-73 0 -121.5 -47t-56.5 -126h342q0 78 -45 125.5t-119 47.5z
" />
    <glyph glyph-name="Ebreve" unicode="&#x114;" horiz-adv-x="568" 
d="M358 872h42q0 -51 -29 -80.5t-79 -29.5t-79 29.5t-29 80.5h42q0 -68 66 -68t66 68zM508 0h-418v710h417v-44h-369v-288h336v-44h-336v-290h370v-44z" />
    <glyph glyph-name="ebreve" unicode="&#x115;" horiz-adv-x="516" 
d="M331 642h42q0 -51 -29 -80.5t-79 -29.5t-79 29.5t-29 80.5h42q0 -68 66 -68t66 68zM271 -12q-104 0 -167.5 69t-63.5 182t62.5 183t162.5 70q94 0 152.5 -61.5t58.5 -159.5v-32h-390q3 -98 51.5 -153.5t133.5 -55.5q129 0 158 108h47q-42 -150 -205 -150zM265 450
q-73 0 -121.5 -47t-56.5 -126h342q0 78 -45 125.5t-119 47.5z" />
    <glyph glyph-name="Edotaccent" unicode="&#x116;" horiz-adv-x="568" 
d="M292 788q-17 0 -29.5 12t-12.5 29t12.5 30t29.5 13t29.5 -13t12.5 -30q0 -16 -12.5 -28.5t-29.5 -12.5zM508 0h-418v710h417v-44h-369v-288h336v-44h-336v-290h370v-44z" />
    <glyph glyph-name="edotaccent" unicode="&#x117;" horiz-adv-x="516" 
d="M265 558q-17 0 -29.5 12t-12.5 29t12.5 30t29.5 13t29.5 -13t12.5 -30q0 -16 -12.5 -28.5t-29.5 -12.5zM271 -12q-104 0 -167.5 69t-63.5 182t62.5 183t162.5 70q94 0 152.5 -61.5t58.5 -159.5v-32h-390q3 -98 51.5 -153.5t133.5 -55.5q129 0 158 108h47
q-42 -150 -205 -150zM265 450q-73 0 -121.5 -47t-56.5 -126h342q0 78 -45 125.5t-119 47.5z" />
    <glyph glyph-name="Eogonek" unicode="&#x118;" horiz-adv-x="568" 
d="M471 0h-381v710h417v-44h-369v-288h336v-44h-336v-290h370v-44q-51 -23 -51 -62q0 -29 33 -29q8 0 18 3v-41q-12 -4 -30 -4q-28 0 -45 16.5t-17 42.5q0 46 55 74z" />
    <glyph glyph-name="eogonek" unicode="&#x119;" horiz-adv-x="516" 
d="M271 -12q-104 0 -167.5 69t-63.5 182t62.5 183t162.5 70q94 0 152.5 -61.5t58.5 -159.5v-32h-390q3 -98 51.5 -153.5t133.5 -55.5q129 0 158 108h47q-30 -109 -125 -139q-50 -24 -50 -61q0 -29 33 -29q8 0 18 3v-41q-12 -4 -30 -4q-28 0 -45 16.5t-17 42.5q0 37 37 63
q-8 -1 -26 -1zM265 450q-73 0 -121.5 -47t-56.5 -126h342q0 78 -45 125.5t-119 47.5z" />
    <glyph glyph-name="Ecaron" unicode="&#x11a;" horiz-adv-x="568" 
d="M256 765l-70 107h48l58 -84l57 84h48l-70 -107h-71zM508 0h-418v710h417v-44h-369v-288h336v-44h-336v-290h370v-44z" />
    <glyph glyph-name="ecaron" unicode="&#x11b;" horiz-adv-x="516" 
d="M229 535l-70 107h48l58 -84l57 84h48l-70 -107h-71zM271 -12q-104 0 -167.5 69t-63.5 182t62.5 183t162.5 70q94 0 152.5 -61.5t58.5 -159.5v-32h-390q3 -98 51.5 -153.5t133.5 -55.5q129 0 158 108h47q-42 -150 -205 -150zM265 450q-73 0 -121.5 -47t-56.5 -126h342
q0 78 -45 125.5t-119 47.5z" />
    <glyph glyph-name="Gcircumflex" unicode="&#x11c;" horiz-adv-x="736" 
d="M323 766h-48l70 107h71l70 -107h-48l-57 84zM381 676q-129 0 -208 -89t-79 -234q0 -146 79.5 -232.5t210.5 -86.5q47 0 88.5 12t79.5 38t60.5 77t22.5 121v51h-276v44h322v-378h-36l-6 128q-29 -61 -96.5 -100t-156.5 -39q-153 0 -247 100t-94 264t93.5 267t242.5 103
q108 0 186 -55.5t101 -147.5h-53q-24 76 -86 116.5t-148 40.5z" />
    <glyph glyph-name="gcircumflex" unicode="&#x11d;" horiz-adv-x="571" 
d="M219 547h-48l70 107h71l70 -107h-48l-57 84zM40 255q0 100 60.5 168.5t163.5 68.5q138 0 188 -124l6 112h37v-470q0 -101 -61.5 -162.5t-161.5 -61.5q-87 0 -145.5 46.5t-73.5 128.5h45q13 -63 59.5 -98t115.5 -35q80 0 128.5 50t48.5 132v130q-25 -58 -75.5 -90
t-115.5 -32q-100 0 -159.5 69t-59.5 168zM87 255q0 -83 47 -139t128 -56q84 0 132 54.5t48 141.5q0 86 -47 140t-131 54q-82 0 -129.5 -56t-47.5 -139z" />
    <glyph glyph-name="Gbreve" unicode="&#x11e;" horiz-adv-x="736" 
d="M447 873h42q0 -51 -29 -80.5t-79 -29.5t-79 29.5t-29 80.5h42q0 -68 66 -68t66 68zM381 676q-129 0 -208 -89t-79 -234q0 -146 79.5 -232.5t210.5 -86.5q47 0 88.5 12t79.5 38t60.5 77t22.5 121v51h-276v44h322v-378h-36l-6 128q-29 -61 -96.5 -100t-156.5 -39
q-153 0 -247 100t-94 264t93.5 267t242.5 103q108 0 186 -55.5t101 -147.5h-53q-24 76 -86 116.5t-148 40.5z" />
    <glyph glyph-name="gbreve" unicode="&#x11f;" horiz-adv-x="571" 
d="M343 654h42q0 -51 -29 -80.5t-79 -29.5t-79 29.5t-29 80.5h42q0 -68 66 -68t66 68zM40 255q0 100 60.5 168.5t163.5 68.5q138 0 188 -124l6 112h37v-470q0 -101 -61.5 -162.5t-161.5 -61.5q-87 0 -145.5 46.5t-73.5 128.5h45q13 -63 59.5 -98t115.5 -35q80 0 128.5 50
t48.5 132v130q-25 -58 -75.5 -90t-115.5 -32q-100 0 -159.5 69t-59.5 168zM87 255q0 -83 47 -139t128 -56q84 0 132 54.5t48 141.5q0 86 -47 140t-131 54q-82 0 -129.5 -56t-47.5 -139z" />
    <glyph glyph-name="Gdotaccent" unicode="&#x120;" horiz-adv-x="736" 
d="M381 789q-17 0 -29.5 12t-12.5 29t12.5 30t29.5 13t29.5 -13t12.5 -30q0 -16 -12.5 -28.5t-29.5 -12.5zM381 676q-129 0 -208 -89t-79 -234q0 -146 79.5 -232.5t210.5 -86.5q47 0 88.5 12t79.5 38t60.5 77t22.5 121v51h-276v44h322v-378h-36l-6 128q-29 -61 -96.5 -100
t-156.5 -39q-153 0 -247 100t-94 264t93.5 267t242.5 103q108 0 186 -55.5t101 -147.5h-53q-24 76 -86 116.5t-148 40.5z" />
    <glyph glyph-name="gdotaccent" unicode="&#x121;" horiz-adv-x="571" 
d="M277 570q-17 0 -29.5 12t-12.5 29t12.5 30t29.5 13t29.5 -13t12.5 -30q0 -16 -12.5 -28.5t-29.5 -12.5zM40 255q0 100 60.5 168.5t163.5 68.5q138 0 188 -124l6 112h37v-470q0 -101 -61.5 -162.5t-161.5 -61.5q-87 0 -145.5 46.5t-73.5 128.5h45q13 -63 59.5 -98
t115.5 -35q80 0 128.5 50t48.5 132v130q-25 -58 -75.5 -90t-115.5 -32q-100 0 -159.5 69t-59.5 168zM87 255q0 -83 47 -139t128 -56q84 0 132 54.5t48 141.5q0 86 -47 140t-131 54q-82 0 -129.5 -56t-47.5 -139z" />
    <glyph glyph-name="Gcommaaccent" unicode="&#x122;" horiz-adv-x="736" 
d="M381 676q-129 0 -208 -89t-79 -234q0 -146 79.5 -232.5t210.5 -86.5q47 0 88.5 12t79.5 38t60.5 77t22.5 121v51h-276v44h322v-378h-36l-6 128q-29 -61 -96.5 -100t-156.5 -39q-153 0 -247 100t-94 264t93.5 267t242.5 103q108 0 186 -55.5t101 -147.5h-53
q-24 76 -86 116.5t-148 40.5zM425 -93q0 -41 -23.5 -64.5t-49.5 -24.5v25q18 1 29 13t11 28q-4 -2 -12 -2q-16 0 -28 11t-12 27q0 18 11.5 30.5t28.5 12.5q45 0 45 -56z" />
    <glyph glyph-name="gcommaaccent" unicode="&#x123;" horiz-adv-x="571" 
d="M317 576q0 -18 -11.5 -30.5t-28.5 -12.5q-45 0 -45 56q0 41 23.5 64.5t49.5 24.5v-25q-18 -1 -29 -13t-11 -28q4 2 12 2q16 0 28 -11t12 -27zM40 255q0 100 60.5 168.5t163.5 68.5q138 0 188 -124l6 112h37v-470q0 -101 -61.5 -162.5t-161.5 -61.5q-87 0 -145.5 46.5
t-73.5 128.5h45q13 -63 59.5 -98t115.5 -35q80 0 128.5 50t48.5 132v130q-25 -58 -75.5 -90t-115.5 -32q-100 0 -159.5 69t-59.5 168zM87 255q0 -83 47 -139t128 -56q84 0 132 54.5t48 141.5q0 86 -47 140t-131 54q-82 0 -129.5 -56t-47.5 -139z" />
    <glyph glyph-name="Hbar" unicode="&#x126;" horiz-adv-x="689" 
d="M138 0h-48v549h-86v44h86v117h48v-117h413v117h48v-117h88v-44h-88v-549h-48v339h-413v-339zM138 383h413v166h-413v-166z" />
    <glyph glyph-name="hbar" unicode="&#x127;" horiz-adv-x="550" 
d="M122 1h-46v576h-60v38h60v107h46v-107h161v-38h-161v-190q24 48 69 76.5t107 28.5q93 0 137.5 -53t44.5 -147v-292h-46v283q0 90 -36.5 128.5t-102.5 38.5q-82 0 -127.5 -54.5t-45.5 -134.5v-260z" />
    <glyph glyph-name="Itilde" unicode="&#x128;" horiz-adv-x="228" 
d="M28 785h-40q-1 43 16 67.5t49 24.5q26 0 60 -26t53 -26q33 0 33 52h40q0 -92 -72 -92q-29 0 -61.5 26t-46.5 26q-31 0 -31 -52zM138 710v-710h-48v710h48z" />
    <glyph glyph-name="itilde" unicode="&#x129;" horiz-adv-x="198" 
d="M13 555h-40q-1 43 16 67.5t49 24.5q26 0 60 -26t53 -26q33 0 33 52h40q0 -92 -72 -92q-29 0 -61.5 26t-46.5 26q-31 0 -31 -52zM76 0v480h46v-480h-46z" />
    <glyph glyph-name="Imacron" unicode="&#x12a;" horiz-adv-x="228" 
d="M6 828v42h216v-42h-216zM138 710v-710h-48v710h48z" />
    <glyph glyph-name="imacron" unicode="&#x12b;" horiz-adv-x="198" 
d="M-9 598v42h216v-42h-216zM76 0v480h46v-480h-46z" />
    <glyph glyph-name="Iogonek" unicode="&#x12e;" horiz-adv-x="228" 
d="M101 0h-11v710h48v-710q-51 -23 -51 -62q0 -29 33 -29q8 0 18 3v-41q-12 -4 -30 -4q-28 0 -45 16.5t-17 42.5q0 46 55 74z" />
    <glyph glyph-name="iogonek" unicode="&#x12f;" horiz-adv-x="198" 
d="M99 627q-17 0 -29.5 12t-12.5 29t12.5 30t29.5 13t29.5 -13t12.5 -30q0 -16 -12.5 -28.5t-29.5 -12.5zM76 0v480h46v-480q-51 -23 -51 -62q0 -29 33 -29q8 0 18 3v-41q-12 -4 -30 -4q-28 0 -45 16.5t-17 42.5q0 46 55 74h-9z" />
    <glyph glyph-name="Idotaccent" unicode="&#x130;" horiz-adv-x="228" 
d="M114 788q-17 0 -29.5 12t-12.5 29t12.5 30t29.5 13t29.5 -13t12.5 -30q0 -16 -12.5 -28.5t-29.5 -12.5zM138 710v-710h-48v710h48z" />
    <glyph glyph-name="dotlessi" unicode="&#x131;" horiz-adv-x="198" 
d="M76 0v480h46v-480h-46z" />
    <glyph glyph-name="Jcircumflex" unicode="&#x134;" horiz-adv-x="492" 
d="M325 766h-48l70 107h71l70 -107h-48l-57 84zM20 193v22h47v-22q0 -74 38 -116.5t108 -42.5q72 0 109 42.5t37 116.5v517h48v-517q0 -96 -54 -150.5t-141 -54.5q-89 0 -140.5 56t-51.5 149z" />
    <glyph glyph-name="jcircumflex" unicode="&#x135;" horiz-adv-x="198" 
d="M41 535h-48l70 107h71l70 -107h-48l-57 84zM-58 -204l10 44q29 -7 50 -7q74 0 74 93v554h46v-554q0 -65 -31 -101.5t-87 -36.5q-33 0 -62 8z" />
    <glyph glyph-name="Kcommaaccent" unicode="&#x136;" horiz-adv-x="591" 
d="M138 710v-452l365 452h58l-243 -300l248 -410h-56l-224 371l-148 -183v-188h-48v710h48zM366 -93q0 -41 -23.5 -64.5t-49.5 -24.5v25q18 1 29 13t11 28q-4 -2 -12 -2q-16 0 -28 11t-12 27q0 18 11.5 30.5t28.5 12.5q45 0 45 -56z" />
    <glyph glyph-name="kcommaaccent" unicode="&#x137;" horiz-adv-x="458" 
d="M126 0h-46v722h46v-511l261 269h59l-186 -192l188 -288h-53l-166 257l-103 -107v-150zM282 -93q0 -41 -23.5 -64.5t-49.5 -24.5v25q18 1 29 13t11 28q-4 -2 -12 -2q-16 0 -28 11t-12 27q0 18 11.5 30.5t28.5 12.5q45 0 45 -56z" />
    <glyph glyph-name="Lacute" unicode="&#x139;" horiz-adv-x="496" 
d="M205 871l-67 -106h-42l54 106h55zM138 710v-666h338v-44h-386v710h48z" />
    <glyph glyph-name="lacute" unicode="&#x13a;" horiz-adv-x="206" 
d="M194 872l-67 -106h-42l54 106h55zM126 0h-46v722h46v-722z" />
    <glyph glyph-name="Lcommaaccent" unicode="&#x13b;" horiz-adv-x="496" 
d="M138 710v-666h338v-44h-386v710h48zM308 -93q0 -41 -23.5 -64.5t-49.5 -24.5v25q18 1 29 13t11 28q-4 -2 -12 -2q-16 0 -28 11t-12 27q0 18 11.5 30.5t28.5 12.5q45 0 45 -56z" />
    <glyph glyph-name="lcommaaccent" unicode="&#x13c;" horiz-adv-x="206" 
d="M126 0h-46v722h46v-722zM144 -93q0 -41 -23.5 -64.5t-49.5 -24.5v25q18 1 29 13t11 28q-4 -2 -12 -2q-16 0 -28 11t-12 27q0 18 11.5 30.5t28.5 12.5q45 0 45 -56z" />
    <glyph glyph-name="Lcaron" unicode="&#x13d;" horiz-adv-x="496" 
d="M138 710v-666h338v-44h-386v710h48zM195 565v145h49l-13 -145h-36z" />
    <glyph glyph-name="lcaron" unicode="&#x13e;" horiz-adv-x="206" 
d="M126 0h-46v722h46v-722zM183 577v145h49l-13 -145h-36z" />
    <glyph glyph-name="Ldot" unicode="&#x13f;" horiz-adv-x="496" 
d="M138 710v-666h338v-44h-386v710h48zM287 328q-15 0 -26 11t-11 26q0 16 10.5 27t26.5 11q15 0 26 -11t11 -27q0 -15 -11 -26t-26 -11z" />
    <glyph glyph-name="ldot" unicode="&#x140;" horiz-adv-x="307" 
d="M126 0h-46v722h46v-722zM257 322q-17 0 -29 12t-12 28q0 17 12 28.5t29 11.5t28.5 -12t11.5 -28t-12 -28t-28 -12z" />
    <glyph glyph-name="Lslash" unicode="&#x141;" horiz-adv-x="496" 
d="M16 268v49l74 35v358h48v-335l215 103v-49l-215 -103v-282h338v-44h-386v303z" />
    <glyph glyph-name="lslash" unicode="&#x142;" horiz-adv-x="206" 
d="M126 0h-46v350l-66 -32v42l66 32v330h46v-308l65 31v-42l-65 -31v-372z" />
    <glyph glyph-name="Nacute" unicode="&#x143;" horiz-adv-x="693" 
d="M438 871l-67 -106h-42l54 106h55zM138 0h-48v710h49l416 -629v629h48v-710h-48l-417 631v-631z" />
    <glyph glyph-name="nacute" unicode="&#x144;" horiz-adv-x="550" 
d="M365 641l-67 -106h-42l54 106h55zM122 0h-46v480h37l10 -93q24 50 69.5 77.5t100.5 27.5q187 0 187 -200v-292h-46v283q0 91 -36.5 129t-105.5 38q-80 0 -125 -55t-45 -147v-248z" />
    <glyph glyph-name="Ncommaaccent" unicode="&#x145;" horiz-adv-x="693" 
d="M138 0h-48v710h49l416 -629v629h48v-710h-48l-417 631v-631zM393 -93q0 -41 -23.5 -64.5t-49.5 -24.5v25q18 1 29 13t11 28q-4 -2 -12 -2q-16 0 -28 11t-12 27q0 18 11.5 30.5t28.5 12.5q45 0 45 -56z" />
    <glyph glyph-name="ncommaaccent" unicode="&#x146;" horiz-adv-x="550" 
d="M122 0h-46v480h37l10 -93q24 50 69.5 77.5t100.5 27.5q187 0 187 -200v-292h-46v283q0 91 -36.5 129t-105.5 38q-80 0 -125 -55t-45 -147v-248zM315 -93q0 -41 -23.5 -64.5t-49.5 -24.5v25q18 1 29 13t11 28q-4 -2 -12 -2q-16 0 -28 11t-12 27q0 18 11.5 30.5t28.5 12.5
q45 0 45 -56z" />
    <glyph glyph-name="Ncaron" unicode="&#x147;" horiz-adv-x="693" 
d="M311 765l-70 107h48l58 -84l57 84h48l-70 -107h-71zM138 0h-48v710h49l416 -629v629h48v-710h-48l-417 631v-631z" />
    <glyph glyph-name="ncaron" unicode="&#x148;" horiz-adv-x="550" 
d="M238 535l-70 107h48l58 -84l57 84h48l-70 -107h-71zM122 0h-46v480h37l10 -93q24 50 69.5 77.5t100.5 27.5q187 0 187 -200v-292h-46v283q0 91 -36.5 129t-105.5 38q-80 0 -125 -55t-45 -147v-248z" />
    <glyph glyph-name="Eng" unicode="&#x14a;" horiz-adv-x="693" 
d="M485 -212q-36 0 -72 11l10 44q38 -10 60 -10q74 0 74 93v71l-419 634v-631h-48v710h49l416 -629v629h48v-784q0 -65 -31 -101.5t-87 -36.5z" />
    <glyph glyph-name="eng" unicode="&#x14b;" horiz-adv-x="550" 
d="M122 0h-46v480h37l10 -93q24 50 69.5 77.5t100.5 27.5q187 0 187 -200v-366q0 -65 -31 -101.5t-87 -36.5q-33 0 -62 8l10 44q29 -7 50 -7q74 0 74 93v357q0 91 -36.5 129t-105.5 38q-80 0 -125 -55t-45 -147v-248z" />
    <glyph glyph-name="Omacron" unicode="&#x14c;" horiz-adv-x="761" 
d="M272 828v42h216v-42h-216zM716 355q0 -161 -94 -264t-242 -103t-241.5 103t-93.5 264t94 264t241 103q148 0 242 -103t94 -264zM667 355q0 142 -80 231.5t-207 89.5q-126 0 -206 -89.5t-80 -231.5t80 -231.5t206 -89.5q127 0 207 89.5t80 231.5z" />
    <glyph glyph-name="omacron" unicode="&#x14d;" horiz-adv-x="556" 
d="M170 598v42h216v-42h-216zM40 240q0 109 67.5 180.5t170.5 71.5t170.5 -71.5t67.5 -180.5t-67.5 -180.5t-170.5 -71.5t-170.5 71.5t-67.5 180.5zM87 240q0 -92 53.5 -151t137.5 -59t137.5 59t53.5 151t-53.5 151t-137.5 59t-137.5 -59t-53.5 -151z" />
    <glyph glyph-name="Ohungarumlaut" unicode="&#x150;" horiz-adv-x="761" 
d="M422 871l-65 -106h-40l52 106h53zM525 871l-82 -106h-42l67 106h57zM716 355q0 -161 -94 -264t-242 -103t-241.5 103t-93.5 264t94 264t241 103q148 0 242 -103t94 -264zM667 355q0 142 -80 231.5t-207 89.5q-126 0 -206 -89.5t-80 -231.5t80 -231.5t206 -89.5
q127 0 207 89.5t80 231.5z" />
    <glyph glyph-name="ohungarumlaut" unicode="&#x151;" horiz-adv-x="556" 
d="M320 641l-65 -106h-40l52 106h53zM423 641l-82 -106h-42l67 106h57zM40 240q0 109 67.5 180.5t170.5 71.5t170.5 -71.5t67.5 -180.5t-67.5 -180.5t-170.5 -71.5t-170.5 71.5t-67.5 180.5zM87 240q0 -92 53.5 -151t137.5 -59t137.5 59t53.5 151t-53.5 151t-137.5 59
t-137.5 -59t-53.5 -151z" />
    <glyph glyph-name="OE" unicode="&#x152;" horiz-adv-x="1163" 
d="M45 357q0 158 96.5 262t244.5 104q100 0 183 -48.5t118 -128.5v164h416v-44h-368v-288h335v-44h-335v-290h368v-44h-416v165q-37 -82 -116.5 -129.5t-179.5 -47.5q-150 0 -248 104.5t-98 264.5zM94 358q0 -141 84 -232.5t214 -91.5t212.5 90.5t82.5 231.5t-83.5 231
t-213.5 90t-213 -89.5t-83 -229.5z" />
    <glyph glyph-name="oe" unicode="&#x153;" horiz-adv-x="946" 
d="M40 240q0 109 67.5 180.5t170.5 71.5q72 0 128.5 -37t85.5 -100q26 64 79 100.5t124 36.5q94 0 152.5 -61.5t58.5 -159.5v-32h-390q3 -98 51.5 -153.5t133.5 -55.5q129 0 158 108h47q-42 -150 -205 -150q-74 0 -128.5 36t-80.5 100q-29 -62 -85.5 -99t-128.5 -37
q-103 0 -170.5 71.5t-67.5 180.5zM87 240q0 -92 53.5 -151t137.5 -59t137.5 59t53.5 151t-53.5 151t-137.5 59t-137.5 -59t-53.5 -151zM695 450q-73 0 -121.5 -47t-56.5 -126h342q0 78 -45 125.5t-119 47.5z" />
    <glyph glyph-name="Racute" unicode="&#x154;" horiz-adv-x="627" 
d="M394 872l-67 -106h-42l54 106h55zM138 0h-48v710h262q101 0 160.5 -54t59.5 -145q0 -78 -41 -130.5t-112 -67.5l159 -313h-54l-155 307h-231v-307zM138 666v-315h216q80 0 124.5 42t44.5 116q0 75 -46 116t-125 41h-214z" />
    <glyph glyph-name="racute" unicode="&#x155;" horiz-adv-x="325" 
d="M259 648l-67 -106h-42l54 106h55zM305 487v-40h-36q-66 0 -106.5 -43.5t-40.5 -111.5v-292h-46v480h43l4 -77q14 41 51.5 65t88.5 24q22 0 42 -5z" />
    <glyph glyph-name="Rcommaaccent" unicode="&#x156;" horiz-adv-x="627" 
d="M138 0h-48v710h262q101 0 160.5 -54t59.5 -145q0 -78 -41 -130.5t-112 -67.5l159 -313h-54l-155 307h-231v-307zM138 666v-315h216q80 0 124.5 42t44.5 116q0 75 -46 116t-125 41h-214zM372 -93q0 -41 -23.5 -64.5t-49.5 -24.5v25q18 1 29 13t11 28q-4 -2 -12 -2
q-16 0 -28 11t-12 27q0 18 11.5 30.5t28.5 12.5q45 0 45 -56z" />
    <glyph glyph-name="rcommaaccent" unicode="&#x157;" horiz-adv-x="325" 
d="M305 487v-40h-36q-66 0 -106.5 -43.5t-40.5 -111.5v-292h-46v480h43l4 -77q14 41 51.5 65t88.5 24q22 0 42 -5zM140 -93q0 -41 -23.5 -64.5t-49.5 -24.5v25q18 1 29 13t11 28q-4 -2 -12 -2q-16 0 -28 11t-12 27q0 18 11.5 30.5t28.5 12.5q45 0 45 -56z" />
    <glyph glyph-name="Rcaron" unicode="&#x158;" horiz-adv-x="627" 
d="M267 766l-70 107h48l58 -84l57 84h48l-70 -107h-71zM138 0h-48v710h262q101 0 160.5 -54t59.5 -145q0 -78 -41 -130.5t-112 -67.5l159 -313h-54l-155 307h-231v-307zM138 666v-315h216q80 0 124.5 42t44.5 116q0 75 -46 116t-125 41h-214z" />
    <glyph glyph-name="rcaron" unicode="&#x159;" horiz-adv-x="325" 
d="M132 542l-70 107h48l58 -84l57 84h48l-70 -107h-71zM305 487v-40h-36q-66 0 -106.5 -43.5t-40.5 -111.5v-292h-46v480h43l4 -77q14 41 51.5 65t88.5 24q22 0 42 -5z" />
    <glyph glyph-name="Sacute" unicode="&#x15a;" horiz-adv-x="551" 
d="M365 871l-67 -106h-42l54 106h55zM46 531q0 87 63 139t168 52q91 0 148.5 -48t68.5 -134h-50q-8 66 -51 102t-116 36q-83 0 -133 -40t-50 -107q0 -102 122 -134l126 -32q80 -20 122 -67t42 -115q0 -89 -63.5 -142t-170.5 -53q-100 0 -163 48.5t-71 131.5h51
q3 -61 53.5 -98t129.5 -37q85 0 135.5 40.5t50.5 108.5q0 107 -125 138l-123 31q-164 41 -164 180z" />
    <glyph glyph-name="sacute" unicode="&#x15b;" horiz-adv-x="422" 
d="M297 671l-67 -106h-42l54 106h55zM33 130h45q0 -46 32 -73t88 -27q61 0 96 25.5t35 69.5q0 35 -19.5 55t-65.5 32l-81 21q-121 31 -121 126q0 60 45.5 96.5t119.5 36.5t118 -37.5t46 -102.5h-45q-2 46 -33.5 72t-85.5 26q-58 0 -88.5 -23.5t-30.5 -67.5q0 -63 86 -85
l80 -21q63 -17 92 -47.5t29 -80.5q0 -62 -48 -99.5t-127 -37.5q-77 0 -122 38.5t-45 103.5z" />
    <glyph glyph-name="Scircumflex" unicode="&#x15c;" horiz-adv-x="551" 
d="M216 765h-48l70 107h71l70 -107h-48l-57 84zM46 531q0 87 63 139t168 52q91 0 148.5 -48t68.5 -134h-50q-8 66 -51 102t-116 36q-83 0 -133 -40t-50 -107q0 -102 122 -134l126 -32q80 -20 122 -67t42 -115q0 -89 -63.5 -142t-170.5 -53q-100 0 -163 48.5t-71 131.5h51
q3 -61 53.5 -98t129.5 -37q85 0 135.5 40.5t50.5 108.5q0 107 -125 138l-123 31q-164 41 -164 180z" />
    <glyph glyph-name="scircumflex" unicode="&#x15d;" horiz-adv-x="422" 
d="M148 565h-48l70 107h71l70 -107h-48l-57 84zM33 130h45q0 -46 32 -73t88 -27q61 0 96 25.5t35 69.5q0 35 -19.5 55t-65.5 32l-81 21q-121 31 -121 126q0 60 45.5 96.5t119.5 36.5t118 -37.5t46 -102.5h-45q-2 46 -33.5 72t-85.5 26q-58 0 -88.5 -23.5t-30.5 -67.5
q0 -63 86 -85l80 -21q63 -17 92 -47.5t29 -80.5q0 -62 -48 -99.5t-127 -37.5q-77 0 -122 38.5t-45 103.5z" />
    <glyph glyph-name="Scedilla" unicode="&#x15e;" horiz-adv-x="551" 
d="M223 -156v36q26 -15 52 -15q19 0 31.5 8t12.5 24q0 32 -39 32q-20 0 -49 -13l-8 22l24 51q-90 6 -146 53.5t-63 125.5h51q3 -61 53.5 -98t129.5 -37q85 0 135.5 40.5t50.5 108.5q0 107 -125 138l-123 31q-164 41 -164 180q0 87 63 139t168 52q91 0 148.5 -48t68.5 -134
h-50q-8 66 -51 102t-116 36q-83 0 -133 -40t-50 -107q0 -102 122 -134l126 -32q80 -20 122 -67t42 -115q0 -87 -61 -140t-163 -55l-15 -32q17 5 28 5q28 0 46 -17t18 -45q0 -33 -23 -51t-56 -18q-37 0 -57 14z" />
    <glyph glyph-name="scedilla" unicode="&#x15f;" horiz-adv-x="422" 
d="M33 130h45q0 -46 32 -73t88 -27q61 0 96 25.5t35 69.5q0 35 -19.5 55t-65.5 32l-81 21q-121 31 -121 126q0 60 45.5 96.5t119.5 36.5t118 -37.5t46 -102.5h-45q-2 46 -33.5 72t-85.5 26q-58 0 -88.5 -23.5t-30.5 -67.5q0 -63 86 -85l80 -21q63 -17 92 -47.5t29 -80.5
q0 -59 -44 -96t-118 -41l-15 -32q17 5 28 5q28 0 46 -17t18 -45q0 -33 -23 -51t-56 -18q-37 0 -57 14v36q26 -15 52 -15q19 0 31.5 8t12.5 24q0 32 -39 32q-20 0 -49 -13l-8 22l24 51q-67 5 -106 43t-39 98z" />
    <glyph glyph-name="Scaron" unicode="&#x160;" horiz-adv-x="551" 
d="M238 765l-70 107h48l58 -84l57 84h48l-70 -107h-71zM46 531q0 87 63 139t168 52q91 0 148.5 -48t68.5 -134h-50q-8 66 -51 102t-116 36q-83 0 -133 -40t-50 -107q0 -102 122 -134l126 -32q80 -20 122 -67t42 -115q0 -89 -63.5 -142t-170.5 -53q-100 0 -163 48.5
t-71 131.5h51q3 -61 53.5 -98t129.5 -37q85 0 135.5 40.5t50.5 108.5q0 107 -125 138l-123 31q-164 41 -164 180z" />
    <glyph glyph-name="scaron" unicode="&#x161;" horiz-adv-x="422" 
d="M170 565l-70 107h48l58 -84l57 84h48l-70 -107h-71zM33 130h45q0 -46 32 -73t88 -27q61 0 96 25.5t35 69.5q0 35 -19.5 55t-65.5 32l-81 21q-121 31 -121 126q0 60 45.5 96.5t119.5 36.5t118 -37.5t46 -102.5h-45q-2 46 -33.5 72t-85.5 26q-58 0 -88.5 -23.5t-30.5 -67.5
q0 -63 86 -85l80 -21q63 -17 92 -47.5t29 -80.5q0 -62 -48 -99.5t-127 -37.5q-77 0 -122 38.5t-45 103.5z" />
    <glyph glyph-name="Tcedilla" unicode="&#x162;" horiz-adv-x="514" 
d="M210 -156v36q26 -15 52 -15q19 0 31.5 8t12.5 24q0 32 -39 32q-20 0 -49 -13l-8 22l29 62h-6v666h-223v44h494v-44h-223v-666h-7l-20 -44q17 5 28 5q28 0 46 -17t18 -45q0 -33 -23 -51t-56 -18q-37 0 -57 14z" />
    <glyph glyph-name="tcedilla" unicode="&#x163;" horiz-adv-x="280" 
d="M163 0h-8l-20 -44q17 5 28 5q28 0 46 -17t18 -45q0 -33 -23 -51t-56 -18q-37 0 -57 14v36q26 -15 52 -15q19 0 31.5 8t12.5 24q0 32 -39 32q-20 0 -49 -13l-8 22l29 62h-3v440h-97v40h97v152h46v-152h97v-40h-97v-440z" />
    <glyph glyph-name="Tcaron" unicode="&#x164;" horiz-adv-x="514" 
d="M221 765l-70 107h48l58 -84l57 84h48l-70 -107h-71zM10 666v44h494v-44h-223v-666h-48v666h-223z" />
    <glyph glyph-name="tcaron" unicode="&#x165;" horiz-adv-x="280" 
d="M220 567v145h49l-13 -145h-36zM163 0h-46v440h-97v40h97v152h46v-152h97v-40h-97v-440z" />
    <glyph glyph-name="Tbar" unicode="&#x166;" horiz-adv-x="514" 
d="M120 390v44h113v232h-223v44h494v-44h-223v-232h113v-44h-113v-390h-48v390h-113z" />
    <glyph glyph-name="tbar" unicode="&#x167;" horiz-adv-x="280" 
d="M163 0h-46v257h-70v38h70v145h-97v40h97v152h46v-152h97v-40h-97v-145h70v-38h-70v-257z" />
    <glyph glyph-name="Utilde" unicode="&#x168;" horiz-adv-x="677" 
d="M253 785h-40q-1 43 16 67.5t49 24.5q26 0 60 -26t53 -26q33 0 33 52h40q0 -92 -72 -92q-29 0 -61.5 26t-46.5 26q-31 0 -31 -52zM85 241v469h48v-468q0 -100 53.5 -153.5t153.5 -53.5q98 0 151 53.5t53 153.5v468h48v-469q0 -119 -67 -186t-185 -67q-120 0 -187.5 67
t-67.5 186z" />
    <glyph glyph-name="utilde" unicode="&#x169;" horiz-adv-x="540" 
d="M178 555h-40q-1 43 16 67.5t49 24.5q26 0 60 -26t53 -26q33 0 33 52h40q0 -92 -72 -92q-29 0 -61.5 26t-46.5 26q-31 0 -31 -52zM418 480h46v-480h-37l-9 89q-20 -45 -67 -73t-107 -28q-84 0 -129 53t-45 143v297h47v-285q0 -166 138 -166q76 0 119.5 51t43.5 143v256z
" />
    <glyph glyph-name="Umacron" unicode="&#x16a;" horiz-adv-x="677" 
d="M231 828v42h216v-42h-216zM85 241v469h48v-468q0 -100 53.5 -153.5t153.5 -53.5q98 0 151 53.5t53 153.5v468h48v-469q0 -119 -67 -186t-185 -67q-120 0 -187.5 67t-67.5 186z" />
    <glyph glyph-name="umacron" unicode="&#x16b;" horiz-adv-x="540" 
d="M156 598v42h216v-42h-216zM418 480h46v-480h-37l-9 89q-20 -45 -67 -73t-107 -28q-84 0 -129 53t-45 143v297h47v-285q0 -166 138 -166q76 0 119.5 51t43.5 143v256z" />
    <glyph glyph-name="Uring" unicode="&#x16e;" horiz-adv-x="677" 
d="M339 766q-43 0 -71 28t-28 72q0 43 28.5 71t70.5 28t70.5 -28.5t28.5 -70.5t-28.5 -71t-70.5 -29zM339 805q25 0 41 17t16 44q0 26 -16 43.5t-41 17.5t-41 -17t-16 -44t16 -44t41 -17zM85 241v469h48v-468q0 -100 53.5 -153.5t153.5 -53.5q98 0 151 53.5t53 153.5v468h48
v-469q0 -119 -67 -186t-185 -67q-120 0 -187.5 67t-67.5 186z" />
    <glyph glyph-name="uring" unicode="&#x16f;" horiz-adv-x="540" 
d="M264 536q-43 0 -71 28t-28 72q0 43 28.5 71t70.5 28t70.5 -28.5t28.5 -70.5t-28.5 -71t-70.5 -29zM264 575q25 0 41 17t16 44q0 26 -16 43.5t-41 17.5t-41 -17t-16 -44t16 -44t41 -17zM418 480h46v-480h-37l-9 89q-20 -45 -67 -73t-107 -28q-84 0 -129 53t-45 143v297h47
v-285q0 -166 138 -166q76 0 119.5 51t43.5 143v256z" />
    <glyph glyph-name="Uhungarumlaut" unicode="&#x170;" horiz-adv-x="677" 
d="M381 871l-65 -106h-40l52 106h53zM484 871l-82 -106h-42l67 106h57zM85 241v469h48v-468q0 -100 53.5 -153.5t153.5 -53.5q98 0 151 53.5t53 153.5v468h48v-469q0 -119 -67 -186t-185 -67q-120 0 -187.5 67t-67.5 186z" />
    <glyph glyph-name="uhungarumlaut" unicode="&#x171;" horiz-adv-x="540" 
d="M306 641l-65 -106h-40l52 106h53zM409 641l-82 -106h-42l67 106h57zM418 480h46v-480h-37l-9 89q-20 -45 -67 -73t-107 -28q-84 0 -129 53t-45 143v297h47v-285q0 -166 138 -166q76 0 119.5 51t43.5 143v256z" />
    <glyph glyph-name="Uogonek" unicode="&#x172;" horiz-adv-x="677" 
d="M85 241v469h48v-468q0 -100 53.5 -153.5t153.5 -53.5q98 0 151 53.5t53 153.5v468h48v-469q0 -95 -43.5 -157.5t-123.5 -84.5q-48 -23 -48 -61q0 -29 33 -29q8 0 18 3v-41q-12 -4 -30 -4q-28 0 -45 16.5t-17 42.5q0 36 38 64q-22 -2 -34 -2q-120 0 -187.5 67t-67.5 186z
" />
    <glyph glyph-name="uogonek" unicode="&#x173;" horiz-adv-x="540" 
d="M427 0l-9 89q-20 -45 -67 -73t-107 -28q-84 0 -129 53t-45 143v297h47v-285q0 -166 138 -166q76 0 119.5 51t43.5 143v256h46v-480q-51 -23 -51 -62q0 -29 33 -29q8 0 18 3v-41q-12 -4 -30 -4q-28 0 -45 16.5t-17 42.5q0 46 55 74z" />
    <glyph glyph-name="Wcircumflex" unicode="&#x174;" horiz-adv-x="955" 
d="M419 765h-48l70 107h71l70 -107h-48l-57 84zM225 0l-210 710h50l158 -538q11 -41 26 -107q11 43 31 107l173 538h48l174 -538q12 -37 30 -106q13 62 26 106l160 538h49l-212 -710h-44l-207 640l-206 -640h-46z" />
    <glyph glyph-name="wcircumflex" unicode="&#x175;" horiz-adv-x="718" 
d="M301 535h-48l70 107h71l70 -107h-48l-57 84zM175 0l-160 480h47l108 -326q15 -45 29 -95q16 70 28 95l108 326h47l108 -326q17 -48 29 -94q13 47 28 94l109 326h47l-161 -480h-47l-114 343q-14 40 -22 77q-10 -39 -23 -77l-114 -343h-47z" />
    <glyph glyph-name="Ycircumflex" unicode="&#x176;" horiz-adv-x="546" 
d="M216 765h-48l70 107h71l70 -107h-48l-57 84zM251 304l-241 406h55l190 -328q11 -19 20 -38q11 21 20 38l188 328h53l-237 -406v-304h-48v304z" />
    <glyph glyph-name="ycircumflex" unicode="&#x177;" horiz-adv-x="446" 
d="M162 535h-48l70 107h71l70 -107h-48l-57 84zM24 -203v37h45q20 0 31.5 1.5t29 7t30 20.5t21.5 39l24 65l-195 513h48l169 -450l162 450h47l-213 -591q-36 -98 -134 -98q-35 0 -65 6z" />
    <glyph glyph-name="Ydieresis" unicode="&#x178;" horiz-adv-x="546" 
d="M208 788q-17 0 -29.5 12t-12.5 29t12.5 30t29.5 13t29.5 -13t12.5 -30q0 -16 -12.5 -28.5t-29.5 -12.5zM340 788q-17 0 -29.5 12t-12.5 29t12.5 30t29.5 13t29.5 -13t12.5 -30q0 -16 -12.5 -28.5t-29.5 -12.5zM251 304l-241 406h55l190 -328q11 -19 20 -38q11 21 20 38
l188 328h53l-237 -406v-304h-48v304z" />
    <glyph glyph-name="Zacute" unicode="&#x179;" horiz-adv-x="576" 
d="M373 871l-67 -106h-42l54 106h55zM531 0h-486v43l434 623h-432v44h489v-43l-434 -623h429v-44z" />
    <glyph glyph-name="zacute" unicode="&#x17a;" horiz-adv-x="430" 
d="M306 641l-67 -106h-42l54 106h55zM390 0h-350v36l295 404h-295v40h350v-37l-294 -403h294v-40z" />
    <glyph glyph-name="Zdotaccent" unicode="&#x17b;" horiz-adv-x="576" 
d="M282 788q-17 0 -29.5 12t-12.5 29t12.5 30t29.5 13t29.5 -13t12.5 -30q0 -16 -12.5 -28.5t-29.5 -12.5zM531 0h-486v43l434 623h-432v44h489v-43l-434 -623h429v-44z" />
    <glyph glyph-name="zdotaccent" unicode="&#x17c;" horiz-adv-x="430" 
d="M215 558q-17 0 -29.5 12t-12.5 29t12.5 30t29.5 13t29.5 -13t12.5 -30q0 -16 -12.5 -28.5t-29.5 -12.5zM390 0h-350v36l295 404h-295v40h350v-37l-294 -403h294v-40z" />
    <glyph glyph-name="Zcaron" unicode="&#x17d;" horiz-adv-x="576" 
d="M246 765l-70 107h48l58 -84l57 84h48l-70 -107h-71zM531 0h-486v43l434 623h-432v44h489v-43l-434 -623h429v-44z" />
    <glyph glyph-name="zcaron" unicode="&#x17e;" horiz-adv-x="430" 
d="M179 535l-70 107h48l58 -84l57 84h48l-70 -107h-71zM390 0h-350v36l295 404h-295v40h350v-37l-294 -403h294v-40z" />
    <glyph glyph-name="florin" unicode="&#x192;" horiz-adv-x="528" 
d="M73 400h178l32 220q14 90 103 90h81v-44h-88q-44 0 -50 -46l-32 -220h171v-44h-178l-54 -368q-6 -44 -33 -67t-63 -23h-100v44h100q19 0 33 12.5t17 33.5l54 368h-171v44z" />
    <glyph glyph-name="Aringacute" unicode="&#x1fa;" horiz-adv-x="630" 
d="M403 998l-67 -106h-42l54 106h55zM63 0h-48l254 685q-56 25 -56 91q0 43 28.5 71t70.5 28t70.5 -28.5t28.5 -70.5q0 -62 -53 -89l257 -687h-49l-75 199h-354zM312 715q25 0 41 17t16 44q0 26 -16 43.5t-41 17.5t-41 -17t-16 -44t16 -44t41 -17zM307 659l-154 -416h322
l-156 416q-1 2 -3 8.5t-3 8.5q-1 -5 -6 -17z" />
    <glyph glyph-name="aringacute" unicode="&#x1fb;" horiz-adv-x="511" 
d="M342 774l-67 -106h-42l54 106h55zM212 -12q-76 0 -119 38t-43 101q0 66 48 106t132 47l165 13v18q0 139 -140 139q-67 0 -104.5 -29.5t-37.5 -82.5h-46q0 53 31 91t86 54q-27 27 -27 70t28.5 71t70.5 28t70.5 -28.5t28.5 -70.5q0 -40 -28 -70q114 -34 114 -165v-318h-37
l-9 90q-25 -49 -73 -75.5t-110 -26.5zM256 492q25 0 41 17t16 44q0 26 -16 43.5t-41 17.5t-41 -17t-16 -44t16 -44t41 -17zM218 29q83 0 130 55t47 145v26l-161 -13q-70 -6 -104 -36.5t-34 -77.5q0 -48 33 -73.5t89 -25.5z" />
    <glyph glyph-name="AEacute" unicode="&#x1fc;" horiz-adv-x="878" 
d="M647 871l-67 -106h-42l54 106h55zM10 0l283 710h525v-44h-367v-288h334v-44h-334v-290h367v-44h-415v217h-259l-86 -217h-48zM162 261h241v405h-80z" />
    <glyph glyph-name="aeacute" unicode="&#x1fd;" horiz-adv-x="870" 
d="M518 641l-67 -106h-42l54 106h55zM50 130q0 68 46.5 103t127.5 37l171 4v37q0 66 -38 102.5t-102 36.5q-67 0 -104.5 -29.5t-37.5 -82.5h-46q0 70 52 112t137 42q63 0 110 -31.5t61 -82.5q28 54 78 84t114 30q94 0 152.5 -61.5t58.5 -159.5v-32h-391q3 -97 52 -153
t134 -56q129 0 158 108h47q-42 -150 -205 -150q-73 0 -126.5 35t-80.5 98q-20 -59 -75 -96t-129 -37q-77 0 -120.5 38.5t-43.5 103.5zM619 450q-72 0 -121.5 -47.5t-57.5 -125.5h343q0 78 -45 125.5t-119 47.5zM96 133q0 -52 34 -78t94 -26q77 0 124 47.5t47 124.5v35
l-171 -4q-128 -3 -128 -99z" />
    <glyph glyph-name="Oslashacute" unicode="&#x1fe;" horiz-adv-x="761" 
d="M472 871l-67 -106h-42l54 106h55zM716 355q0 -161 -94 -264t-242 -103q-117 0 -204 68l-43 -56h-50l63 83q-101 104 -101 272q0 161 94 264t241 103q116 0 205 -68l43 56h51l-64 -83q101 -106 101 -272zM94 355q0 -144 82 -234l380 495q-74 60 -176 60q-126 0 -206 -89.5
t-80 -231.5zM667 355q0 143 -82 233l-380 -494q74 -60 175 -60q127 0 207 89.5t80 231.5z" />
    <glyph glyph-name="oslashacute" unicode="&#x1ff;" horiz-adv-x="556" 
d="M369 641l-67 -106h-42l54 106h55zM40 240q0 109 67.5 180.5t170.5 71.5q63 0 117 -30l34 56h45l-48 -77q90 -72 90 -201q0 -109 -67.5 -180.5t-170.5 -71.5q-63 0 -114 28l-42 -67h-44l54 88q-92 73 -92 203zM87 240q0 -104 68 -166l217 352q-43 24 -94 24
q-84 0 -137.5 -59t-53.5 -151zM469 240q0 103 -66 163l-217 -350q41 -23 92 -23q84 0 137.5 59t53.5 151z" />
    <glyph glyph-name="Scommaaccent" unicode="&#x218;" horiz-adv-x="551" 
d="M46 531q0 87 63 139t168 52q91 0 148.5 -48t68.5 -134h-50q-8 66 -51 102t-116 36q-83 0 -133 -40t-50 -107q0 -102 122 -134l126 -32q80 -20 122 -67t42 -115q0 -89 -63.5 -142t-170.5 -53q-100 0 -163 48.5t-71 131.5h51q3 -61 53.5 -98t129.5 -37q85 0 135.5 40.5
t50.5 108.5q0 107 -125 138l-123 31q-164 41 -164 180zM311 -93q0 -41 -23.5 -64.5t-49.5 -24.5v25q18 1 29 13t11 28q-4 -2 -12 -2q-16 0 -28 11t-12 27q0 18 11.5 30.5t28.5 12.5q45 0 45 -56z" />
    <glyph glyph-name="scommaaccent" unicode="&#x219;" horiz-adv-x="422" 
d="M33 130h45q0 -46 32 -73t88 -27q61 0 96 25.5t35 69.5q0 35 -19.5 55t-65.5 32l-81 21q-121 31 -121 126q0 60 45.5 96.5t119.5 36.5t118 -37.5t46 -102.5h-45q-2 46 -33.5 72t-85.5 26q-58 0 -88.5 -23.5t-30.5 -67.5q0 -63 86 -85l80 -21q63 -17 92 -47.5t29 -80.5
q0 -62 -48 -99.5t-127 -37.5q-77 0 -122 38.5t-45 103.5zM242 -93q0 -41 -23.5 -64.5t-49.5 -24.5v25q18 1 29 13t11 28q-4 -2 -12 -2q-16 0 -28 11t-12 27q0 18 11.5 30.5t28.5 12.5q45 0 45 -56z" />
    <glyph glyph-name="Tcommaaccent" unicode="&#x21a;" horiz-adv-x="514" 
d="M10 666v44h494v-44h-223v-666h-48v666h-223zM298 -93q0 -41 -23.5 -64.5t-49.5 -24.5v25q18 1 29 13t11 28q-4 -2 -12 -2q-16 0 -28 11t-12 27q0 18 11.5 30.5t28.5 12.5q45 0 45 -56z" />
    <glyph glyph-name="tcommaaccent" unicode="&#x21b;" horiz-adv-x="280" 
d="M163 0h-46v440h-97v40h97v152h46v-152h97v-40h-97v-440zM179 -93q0 -41 -23.5 -64.5t-49.5 -24.5v25q18 1 29 13t11 28q-4 -2 -12 -2q-16 0 -28 11t-12 27q0 18 11.5 30.5t28.5 12.5q45 0 45 -56z" />
    <glyph glyph-name="dotlessj" unicode="&#x237;" horiz-adv-x="198" 
d="M-58 -204l10 44q29 -7 50 -7q74 0 74 93v554h46v-554q0 -65 -31 -101.5t-87 -36.5q-33 0 -62 8z" />
    <glyph glyph-name="circumflex" unicode="&#x2c6;" horiz-adv-x="291" 
d="M88 765h-48l70 107h71l70 -107h-48l-57 84z" />
    <glyph glyph-name="caron" unicode="&#x2c7;" horiz-adv-x="291" 
d="M110 765l-70 107h48l58 -84l57 84h48l-70 -107h-71z" />
    <glyph glyph-name="breve" unicode="&#x2d8;" horiz-adv-x="310" 
d="M221 872h42q0 -51 -29 -80.5t-79 -29.5t-79 29.5t-29 80.5h42q0 -68 66 -68t66 68z" />
    <glyph glyph-name="dotaccent" unicode="&#x2d9;" horiz-adv-x="186" 
d="M93 788q-17 0 -29.5 12t-12.5 29t12.5 30t29.5 13t29.5 -13t12.5 -30q0 -16 -12.5 -28.5t-29.5 -12.5z" />
    <glyph glyph-name="ring" unicode="&#x2da;" horiz-adv-x="278" 
d="M139 766q-43 0 -71 28t-28 72q0 43 28.5 71t70.5 28t70.5 -28.5t28.5 -70.5t-28.5 -71t-70.5 -29zM139 805q25 0 41 17t16 44q0 26 -16 43.5t-41 17.5t-41 -17t-16 -44t16 -44t41 -17z" />
    <glyph glyph-name="ogonek" unicode="&#x2db;" horiz-adv-x="172" 
d="M95 0h37q-51 -23 -51 -62q0 -29 33 -29q8 0 18 3v-41q-12 -4 -30 -4q-28 0 -45 16.5t-17 42.5q0 46 55 74z" />
    <glyph glyph-name="tilde" unicode="&#x2dc;" horiz-adv-x="345" 
d="M87 785h-40q-1 43 16 67.5t49 24.5q26 0 60 -26t53 -26q33 0 33 52h40q0 -92 -72 -92q-29 0 -61.5 26t-46.5 26q-31 0 -31 -52z" />
    <glyph glyph-name="hungarumlaut" unicode="&#x2dd;" horiz-adv-x="292" 
d="M147 871l-65 -106h-40l52 106h53zM250 871l-82 -106h-42l67 106h57z" />
    <glyph glyph-name="gravecomb" unicode="&#x300;" horiz-adv-x="193" 
d="M147 765h-42l-65 107h55z" />
    <glyph glyph-name="acutecomb" unicode="&#x301;" horiz-adv-x="195" 
d="M155 871l-67 -106h-42l54 106h55z" />
    <glyph glyph-name="circumflexcomb" unicode="&#x302;" horiz-adv-x="291" 
d="M88 765h-48l70 107h71l70 -107h-48l-57 84z" />
    <glyph glyph-name="tildecomb" unicode="&#x303;" horiz-adv-x="345" 
d="M87 785h-40q-1 43 16 67.5t49 24.5q26 0 60 -26t53 -26q33 0 33 52h40q0 -92 -72 -92q-29 0 -61.5 26t-46.5 26q-31 0 -31 -52z" />
    <glyph glyph-name="macroncomb" unicode="&#x304;" horiz-adv-x="336" 
d="M60 827v42h216v-42h-216z" />
    <glyph glyph-name="brevecomb" unicode="&#x306;" horiz-adv-x="310" 
d="M221 872h42q0 -51 -29 -80.5t-79 -29.5t-79 29.5t-29 80.5h42q0 -68 66 -68t66 68z" />
    <glyph glyph-name="dotaccentcomb" unicode="&#x307;" horiz-adv-x="186" 
d="M93 788q-17 0 -29.5 12t-12.5 29t12.5 30t29.5 13t29.5 -13t12.5 -30q0 -16 -12.5 -28.5t-29.5 -12.5z" />
    <glyph glyph-name="dieresiscomb" unicode="&#x308;" horiz-adv-x="344" 
d="M106 788q-17 0 -29.5 12t-12.5 29t12.5 30t29.5 13t29.5 -13t12.5 -30q0 -16 -12.5 -28.5t-29.5 -12.5zM238 788q-17 0 -29.5 12t-12.5 29t12.5 30t29.5 13t29.5 -13t12.5 -30q0 -16 -12.5 -28.5t-29.5 -12.5z" />
    <glyph glyph-name="ringcomb" unicode="&#x30a;" horiz-adv-x="278" 
d="M139 766q-43 0 -71 28t-28 72q0 43 28.5 71t70.5 28t70.5 -28.5t28.5 -70.5t-28.5 -71t-70.5 -29zM139 805q25 0 41 17t16 44q0 26 -16 43.5t-41 17.5t-41 -17t-16 -44t16 -44t41 -17z" />
    <glyph glyph-name="hungarumlautcomb" unicode="&#x30b;" horiz-adv-x="292" 
d="M147 871l-65 -106h-40l52 106h53zM250 871l-82 -106h-42l67 106h57z" />
    <glyph glyph-name="caroncomb" unicode="&#x30c;" horiz-adv-x="291" 
d="M110 765l-70 107h48l58 -84l57 84h48l-70 -107h-71z" />
    <glyph glyph-name="commaturnedabovecomb" unicode="&#x312;" horiz-adv-x="172" 
d="M129 794q0 -18 -11.5 -30.5t-28.5 -12.5q-45 0 -45 56q0 41 23.5 64.5t49.5 24.5v-25q-18 -1 -29 -13t-11 -28q4 2 12 2q16 0 28 -11t12 -27z" />
    <glyph glyph-name="commaaccentcomb" unicode="&#x326;" horiz-adv-x="172" 
d="M125 -73q0 -41 -23.5 -64.5t-49.5 -24.5v25q18 1 29 13t11 28q-4 -2 -12 -2q-16 0 -28 11t-12 27q0 18 11.5 30.5t28.5 12.5q45 0 45 -56z" />
    <glyph glyph-name="cedillacomb" unicode="&#x327;" horiz-adv-x="216" 
d="M40 -156v36q26 -15 52 -15q19 0 31.5 8t12.5 24q0 32 -39 32q-20 0 -49 -13l-8 22l41 88h23v-26l-20 -44q17 5 28 5q28 0 46 -17t18 -45q0 -33 -23 -51t-56 -18q-37 0 -57 14z" />
    <glyph glyph-name="strokeshortcomb" unicode="&#x335;" horiz-adv-x="447" 
d="M90 592h267v-38h-267v38z" />
    <glyph glyph-name="slashshortcomb" unicode="&#x337;" horiz-adv-x="217" 
d="M20 323v42l177 85v-42z" />
    <glyph glyph-name="slashlongcomb" unicode="&#x338;" horiz-adv-x="476" 
d="M436 529l-352 -569h-44l351 569h45z" />
    <glyph glyph-name="Omega" unicode="&#x3a9;" horiz-adv-x="633" 
d="M272 0h-192v44h109q-56 38 -85 95.5t-29 120.5q0 102 69.5 167t172.5 65t172 -64.5t69 -166.5q0 -64 -30 -121.5t-84 -95.5h109v-44h-192v44q74 29 113 89t39 127q0 83 -56.5 135.5t-139.5 52.5t-140 -52.5t-57 -135.5q0 -68 40.5 -128.5t111.5 -87.5v-44z" />
    <glyph glyph-name="pi" unicode="&#x3c0;" horiz-adv-x="584" 
d="M120 0v436h-100v44h519v-44h-108v-333q0 -59 51 -61l57 -1v-37q-21 -4 -63 -4q-47 0 -69 23.5t-22 79.5v333h-219v-436h-46z" />
    <glyph glyph-name="Wgrave" unicode="&#x1e80;" horiz-adv-x="955" 
d="M495 765h-42l-65 107h55zM225 0l-210 710h50l158 -538q11 -41 26 -107q11 43 31 107l173 538h48l174 -538q12 -37 30 -106q13 62 26 106l160 538h49l-212 -710h-44l-207 640l-206 -640h-46z" />
    <glyph glyph-name="wgrave" unicode="&#x1e81;" horiz-adv-x="718" 
d="M377 535h-42l-65 107h55zM175 0l-160 480h47l108 -326q15 -45 29 -95q16 70 28 95l108 326h47l108 -326q17 -48 29 -94q13 47 28 94l109 326h47l-161 -480h-47l-114 343q-14 40 -22 77q-10 -39 -23 -77l-114 -343h-47z" />
    <glyph glyph-name="Wacute" unicode="&#x1e82;" horiz-adv-x="955" 
d="M568 871l-67 -106h-42l54 106h55zM225 0l-210 710h50l158 -538q11 -41 26 -107q11 43 31 107l173 538h48l174 -538q12 -37 30 -106q13 62 26 106l160 538h49l-212 -710h-44l-207 640l-206 -640h-46z" />
    <glyph glyph-name="wacute" unicode="&#x1e83;" horiz-adv-x="718" 
d="M450 641l-67 -106h-42l54 106h55zM175 0l-160 480h47l108 -326q15 -45 29 -95q16 70 28 95l108 326h47l108 -326q17 -48 29 -94q13 47 28 94l109 326h47l-161 -480h-47l-114 343q-14 40 -22 77q-10 -39 -23 -77l-114 -343h-47z" />
    <glyph glyph-name="Wdieresis" unicode="&#x1e84;" horiz-adv-x="955" 
d="M411 788q-17 0 -29.5 12t-12.5 29t12.5 30t29.5 13t29.5 -13t12.5 -30q0 -16 -12.5 -28.5t-29.5 -12.5zM543 788q-17 0 -29.5 12t-12.5 29t12.5 30t29.5 13t29.5 -13t12.5 -30q0 -16 -12.5 -28.5t-29.5 -12.5zM225 0l-210 710h50l158 -538q11 -41 26 -107q11 43 31 107
l173 538h48l174 -538q12 -37 30 -106q13 62 26 106l160 538h49l-212 -710h-44l-207 640l-206 -640h-46z" />
    <glyph glyph-name="wdieresis" unicode="&#x1e85;" horiz-adv-x="718" 
d="M293 558q-17 0 -29.5 12t-12.5 29t12.5 30t29.5 13t29.5 -13t12.5 -30q0 -16 -12.5 -28.5t-29.5 -12.5zM425 558q-17 0 -29.5 12t-12.5 29t12.5 30t29.5 13t29.5 -13t12.5 -30q0 -16 -12.5 -28.5t-29.5 -12.5zM175 0l-160 480h47l108 -326q15 -45 29 -95q16 70 28 95
l108 326h47l108 -326q17 -48 29 -94q13 47 28 94l109 326h47l-161 -480h-47l-114 343q-14 40 -22 77q-10 -39 -23 -77l-114 -343h-47z" />
    <glyph glyph-name="Ygrave" unicode="&#x1ef2;" horiz-adv-x="546" 
d="M292 765h-42l-65 107h55zM251 304l-241 406h55l190 -328q11 -19 20 -38q11 21 20 38l188 328h53l-237 -406v-304h-48v304z" />
    <glyph glyph-name="ygrave" unicode="&#x1ef3;" horiz-adv-x="446" 
d="M238 535h-42l-65 107h55zM24 -203v37h45q20 0 31.5 1.5t29 7t30 20.5t21.5 39l24 65l-195 513h48l169 -450l162 450h47l-213 -591q-36 -98 -134 -98q-35 0 -65 6z" />
    <glyph glyph-name="endash" unicode="&#x2013;" horiz-adv-x="906" 
d="M65 240v42h776v-42h-776z" />
    <glyph glyph-name="emdash" unicode="&#x2014;" horiz-adv-x="1107" 
d="M65 240v42h977v-42h-977z" />
    <glyph glyph-name="quoteleft" unicode="&#x2018;" horiz-adv-x="230" 
d="M170 595q0 -22 -14.5 -36.5t-37.5 -14.5t-40.5 18.5t-17.5 50.5q0 40 28 71.5t68 38.5v-32q-23 -4 -39 -20.5t-16 -35.5q9 7 26 7q18 0 30.5 -12.5t12.5 -34.5z" />
    <glyph glyph-name="quoteright" unicode="&#x2019;" horiz-adv-x="230" 
d="M170 654q0 -40 -28 -71.5t-68 -38.5v32q23 4 39 20.5t16 35.5q-9 -7 -26 -7q-18 0 -30.5 12.5t-12.5 34.5t14.5 36.5t37.5 14.5t40.5 -18.5t17.5 -50.5z" />
    <glyph glyph-name="quotesinglbase" unicode="&#x201a;" horiz-adv-x="230" 
d="M170 29q0 -40 -28 -71.5t-68 -38.5v32q23 4 39 20.5t16 35.5q-9 -7 -26 -7q-18 0 -30.5 12.5t-12.5 34.5t14.5 36.5t37.5 14.5t40.5 -18.5t17.5 -50.5z" />
    <glyph glyph-name="quotedblleft" unicode="&#x201c;" horiz-adv-x="376" 
d="M170 595q0 -22 -14.5 -36.5t-37.5 -14.5t-40.5 18.5t-17.5 50.5q0 40 28 71.5t68 38.5v-32q-23 -4 -39 -20.5t-16 -35.5q9 7 26 7q18 0 30.5 -12.5t12.5 -34.5zM316 595q0 -22 -14.5 -36.5t-37.5 -14.5t-40.5 18.5t-17.5 50.5q0 40 28 71.5t68 38.5v-32q-23 -4 -39 -20.5
t-16 -35.5q9 7 26 7q18 0 30.5 -12.5t12.5 -34.5z" />
    <glyph glyph-name="quotedblright" unicode="&#x201d;" horiz-adv-x="376" 
d="M170 654q0 -40 -28 -71.5t-68 -38.5v32q23 4 39 20.5t16 35.5q-9 -7 -26 -7q-18 0 -30.5 12.5t-12.5 34.5t14.5 36.5t37.5 14.5t40.5 -18.5t17.5 -50.5zM316 654q0 -40 -28 -71.5t-68 -38.5v32q23 4 39 20.5t16 35.5q-9 -7 -26 -7q-18 0 -30.5 12.5t-12.5 34.5t14.5 36.5
t37.5 14.5t40.5 -18.5t17.5 -50.5z" />
    <glyph glyph-name="quotedblbase" unicode="&#x201e;" horiz-adv-x="376" 
d="M170 29q0 -40 -28 -71.5t-68 -38.5v32q23 4 39 20.5t16 35.5q-9 -7 -26 -7q-18 0 -30.5 12.5t-12.5 34.5t14.5 36.5t37.5 14.5t40.5 -18.5t17.5 -50.5zM316 29q0 -40 -28 -71.5t-68 -38.5v32q23 4 39 20.5t16 35.5q-9 -7 -26 -7q-18 0 -30.5 12.5t-12.5 34.5t14.5 36.5
t37.5 14.5t40.5 -18.5t17.5 -50.5z" />
    <glyph glyph-name="dagger" unicode="&#x2020;" horiz-adv-x="282" 
d="M121 264v308h-95v38h95v100h40v-100h95v-38h-95v-308h-40z" />
    <glyph glyph-name="daggerdbl" unicode="&#x2021;" horiz-adv-x="283" 
d="M121 264v130h-94v38h94v110h-95v38h95v130h40v-130h95v-38h-95v-110h96v-38h-96v-130h-40z" />
    <glyph glyph-name="bullet" unicode="&#x2022;" horiz-adv-x="351" 
d="M176 133q-53 0 -91 37.5t-38 89.5t38 90t91 38q52 0 90 -38t38 -90q0 -51 -38 -89t-90 -38z" />
    <glyph glyph-name="ellipsis" unicode="&#x2026;" horiz-adv-x="650" 
d="M125 -11q-22 0 -38.5 16t-16.5 38q0 23 16 39t39 16t39 -16t16 -39q0 -22 -16.5 -38t-38.5 -16zM325 -11q-22 0 -38.5 16t-16.5 38q0 23 16 39t39 16t39 -16t16 -39q0 -22 -16.5 -38t-38.5 -16zM525 -11q-22 0 -38.5 16t-16.5 38q0 23 16 39t39 16t39 -16t16 -39
q0 -22 -16.5 -38t-38.5 -16z" />
    <glyph glyph-name="perthousand" unicode="&#x2030;" horiz-adv-x="1258" 
d="M392 552q0 -74 -48 -122.5t-121 -48.5t-121 48.5t-48 122.5t48 122.5t121 48.5t121 -48.5t48 -122.5zM739 710l-539 -710h-52l538 710h53zM348 552q0 57 -35 93t-90 36t-90 -36t-35 -93t35 -93t90 -36t90 36t35 93zM834 158q0 -74 -48 -122.5t-121 -48.5t-121 48.5
t-48 122.5t48 122.5t121 48.5t121 -48.5t48 -122.5zM1204 158q0 -74 -48 -122.5t-121 -48.5t-121 48.5t-48 122.5t48 122.5t121 48.5t121 -48.5t48 -122.5zM790 158q0 57 -35 93t-90 36t-90 -36t-35 -93t35 -93t90 -36t90 36t35 93zM1160 158q0 57 -35 93t-90 36t-90 -36
t-35 -93t35 -93t90 -36t90 36t35 93z" />
    <glyph glyph-name="minute" unicode="&#x2032;" horiz-adv-x="167" 
d="M117 684l-15 -177h-36l-16 177q-1 19 9.5 29t24.5 10t24 -10t9 -29z" />
    <glyph glyph-name="guilsinglleft" unicode="&#x2039;" horiz-adv-x="339" 
d="M250 0l-210 240l210 240h49l-210 -240l210 -240h-49z" />
    <glyph glyph-name="guilsinglright" unicode="&#x203a;" horiz-adv-x="339" 
d="M89 0h-49l210 240l-210 240h49l210 -240z" />
    <glyph glyph-name="asterism" unicode="&#x2042;" horiz-adv-x="853" 
d="M321 576l-60 22l15 36l58 -20q45 -15 81 -38q-9 39 -9 89v64h39v-64q0 -56 -8 -89q36 22 81 38l59 21l15 -37l-61 -22q-37 -14 -86 -22q26 -23 57 -68l36 -52l-33 -23l-36 52q-31 44 -43 78q-13 -37 -42 -78l-37 -52l-33 23l36 52q24 35 57 68q-48 8 -86 22zM94 200
l-62 23l15 37l59 -21q52 -19 81 -38q-9 47 -9 89v64h40v-64q0 -49 -8 -89q33 21 80 38l59 21l16 -37l-62 -22q-38 -13 -86 -21q35 -38 57 -70l35 -51l-32 -22l-36 51q-29 40 -44 78q-14 -41 -41 -78l-38 -52l-32 23l36 52q25 35 57 69q-64 12 -85 20zM550 200l-62 23l15 36
l58 -20q47 -16 82 -38q-9 39 -9 89v64h40v-64q0 -49 -8 -89q33 21 79 38l60 21l16 -37l-62 -22q-40 -14 -86 -21q35 -38 57 -70l35 -51l-32 -22l-36 51q-29 40 -44 78q-13 -40 -41 -78l-38 -52l-32 23l36 52q27 38 58 69q-63 11 -86 20z" />
    <glyph glyph-name="fraction" unicode="&#x2044;" horiz-adv-x="97" 
d="M300 710l-455 -710h-48l454 710h49z" />
    <glyph glyph-name="zero.superior" unicode="&#x2070;" horiz-adv-x="411" 
d="M33 534q0 101 46.5 162t125.5 61q80 0 126.5 -61t46.5 -162t-46.5 -161.5t-126.5 -60.5t-126 60.5t-46 161.5zM76 534q0 -84 34 -133t95 -49t95 49t34 133q0 85 -34 134t-95 49t-95 -49t-34 -134z" />
    <glyph glyph-name="four.superior" unicode="&#x2074;" horiz-adv-x="369" 
d="M349 419h-51v-89h-42v89h-234v41l219 300h57v-300h51v-41zM72 460h184v252z" />
    <glyph glyph-name="five.superior" unicode="&#x2075;" horiz-adv-x="349" 
d="M24 468h42q0 -46 30.5 -75.5t77.5 -29.5t77 30.5t30 77.5t-30 76.5t-77 29.5q-55 0 -94 -42l-41 8l53 217h209v-41h-177l-34 -133q38 30 89 30q64 0 105 -41t41 -105t-43 -105.5t-108 -41.5t-107.5 41t-42.5 104z" />
    <glyph glyph-name="six.superior" unicode="&#x2076;" horiz-adv-x="368" 
d="M83 614l107 146h49l-107 -142q25 12 54 12q67 0 109.5 -43.5t42.5 -108.5q0 -66 -44.5 -110.5t-108.5 -44.5q-65 0 -110 45t-45 110t53 136zM74 478q0 -50 31 -82.5t80 -32.5q48 0 78.5 32.5t30.5 82.5q0 48 -30.5 80t-78.5 32q-49 0 -80 -32t-31 -80z" />
    <glyph glyph-name="seven.superior" unicode="&#x2077;" horiz-adv-x="315" 
d="M300 719l-161 -389h-44l162 389h-242v41h285v-41z" />
    <glyph glyph-name="eight.superior" unicode="&#x2078;" horiz-adv-x="361" 
d="M30 446q0 40 23 70t62 43q-68 26 -68 98q0 51 38 80.5t96 29.5t96 -29.5t38 -80.5q0 -71 -67 -98q39 -12 61 -43t22 -70q0 -55 -42.5 -89t-107.5 -34q-66 0 -108.5 33.5t-42.5 89.5zM86 655q0 -34 25.5 -56.5t69.5 -22.5q43 0 68 22t25 56q0 35 -26 54.5t-67 19.5
t-68 -19t-27 -54zM74 451q0 -41 30.5 -64.5t76.5 -23.5t76.5 23.5t30.5 64.5q0 40 -30.5 63.5t-77.5 23.5q-46 0 -76 -23t-30 -64z" />
    <glyph glyph-name="nine.superior" unicode="&#x2079;" horiz-adv-x="368" 
d="M285 476l-107 -146h-49l108 143q-25 -13 -55 -13q-67 0 -109.5 43.5t-42.5 108.5q0 66 44.5 110.5t108.5 44.5q65 0 110 -45t45 -110t-53 -136zM294 612q0 50 -31 82.5t-80 32.5q-48 0 -78.5 -32.5t-30.5 -82.5q0 -48 30.5 -80t78.5 -32q49 0 80 32t31 80z" />
    <glyph glyph-name="zero.inferior" unicode="&#x2080;" horiz-adv-x="411" 
d="M33 114q0 101 46.5 162t125.5 61q80 0 126.5 -61t46.5 -162t-46.5 -161.5t-126.5 -60.5t-126 60.5t-46 161.5zM76 114q0 -84 34 -133t95 -49t95 49t34 133q0 85 -34 134t-95 49t-95 -49t-34 -134z" />
    <glyph glyph-name="one.inferior" unicode="&#x2081;" horiz-adv-x="203" 
d="M111 289h-90v41h133v-430h-43v389z" />
    <glyph glyph-name="two.inferior" unicode="&#x2082;" horiz-adv-x="337" 
d="M310 -100h-283v37l152 123q83 68 83 138q0 98 -94 98q-46 0 -71.5 -28.5t-25.5 -79.5h-42q0 68 38 108.5t102 40.5q63 0 99.5 -37t36.5 -101q0 -89 -101 -169l-111 -89h217v-41z" />
    <glyph glyph-name="three.inferior" unicode="&#x2083;" horiz-adv-x="341" 
d="M142 129h-25v31l138 129h-211v41h261v-45l-126 -117q58 -4 96.5 -41.5t38.5 -95.5q0 -62 -42.5 -100t-106.5 -38t-103 38.5t-39 99.5h42q0 -45 27 -71.5t73 -26.5t75.5 27t29.5 72q0 38 -23 63t-65 32q-12 2 -40 2z" />
    <glyph glyph-name="four.inferior" unicode="&#x2084;" horiz-adv-x="371" 
d="M349 -11h-51v-89h-42v89h-234v41l219 300h57v-300h51v-41zM72 30h184v252z" />
    <glyph glyph-name="five.inferior" unicode="&#x2085;" horiz-adv-x="349" 
d="M24 38h42q0 -46 30.5 -75.5t77.5 -29.5t77 30.5t30 77.5t-30 76.5t-77 29.5q-55 0 -94 -42l-41 8l53 217h209v-41h-177l-34 -133q38 30 89 30q64 0 105 -41t41 -105t-43 -105.5t-108 -41.5t-107.5 41t-42.5 104z" />
    <glyph glyph-name="six.inferior" unicode="&#x2086;" horiz-adv-x="368" 
d="M83 184l107 146h49l-107 -142q25 12 54 12q67 0 109.5 -43.5t42.5 -108.5q0 -66 -44.5 -110.5t-108.5 -44.5q-65 0 -110 45t-45 110t53 136zM74 48q0 -50 31 -82.5t80 -32.5q48 0 78.5 32.5t30.5 82.5q0 48 -30.5 80t-78.5 32q-49 0 -80 -32t-31 -80z" />
    <glyph glyph-name="seven.inferior" unicode="&#x2087;" horiz-adv-x="315" 
d="M300 289l-161 -389h-44l162 389h-242v41h285v-41z" />
    <glyph glyph-name="eight.inferior" unicode="&#x2088;" horiz-adv-x="361" 
d="M30 16q0 40 23 70t62 43q-68 26 -68 98q0 51 38 80.5t96 29.5t96 -29.5t38 -80.5q0 -71 -67 -98q39 -12 61 -43t22 -70q0 -55 -42.5 -89t-107.5 -34q-66 0 -108.5 33.5t-42.5 89.5zM86 225q0 -34 25.5 -56.5t69.5 -22.5q43 0 68 22t25 56q0 35 -26 54.5t-67 19.5t-68 -19
t-27 -54zM74 21q0 -41 30.5 -64.5t76.5 -23.5t76.5 23.5t30.5 64.5q0 40 -30.5 63.5t-77.5 23.5q-46 0 -76 -23t-30 -64z" />
    <glyph glyph-name="nine.inferior" unicode="&#x2089;" horiz-adv-x="368" 
d="M285 46l-107 -146h-49l108 143q-25 -13 -55 -13q-67 0 -109.5 43.5t-42.5 108.5q0 66 44.5 110.5t108.5 44.5q65 0 110 -45t45 -110t-53 -136zM294 182q0 50 -31 82.5t-80 32.5q-48 0 -78.5 -32.5t-30.5 -82.5q0 -48 30.5 -80t78.5 -32q49 0 80 32t31 80z" />
    <glyph glyph-name="Euro" unicode="&#x20ac;" horiz-adv-x="671" 
d="M472 -12q-137 0 -234.5 75t-124.5 205h-81v42h75q-2 30 -2 45q0 26 3 50h-76v42h82q27 127 123.5 200.5t235.5 73.5q83 0 138 -21v-45q-61 21 -140 21q-118 0 -199.5 -61t-107.5 -168h319v-42h-327q-3 -24 -3 -50q0 -15 2 -45h328v-42h-321q25 -110 108.5 -172.5
t203.5 -62.5q76 0 137 22v-47q-67 -20 -139 -20z" />
    <glyph glyph-name="numero" unicode="&#x2116;" horiz-adv-x="1219" 
d="M1169 490q0 -101 -68.5 -170t-168.5 -69q-98 0 -167.5 70t-69.5 169q0 98 68.5 165.5t168.5 67.5q101 0 169 -67t68 -166zM138 0h-48v710h49l416 -629v629h48v-710h-48l-417 631v-631zM1122 490q0 81 -54 135t-136 54q-81 0 -135.5 -54.5t-54.5 -134.5q0 -82 55.5 -138.5
t134.5 -56.5q82 0 136 55.5t54 139.5zM1139 127h-414v44h414v-44z" />
    <glyph glyph-name="soundcopyright" unicode="&#x2117;" horiz-adv-x="469" 
d="M235 336q-83 0 -139 55.5t-56 138.5q0 82 56 137.5t139 55.5t138.5 -55.5t55.5 -137.5q0 -83 -55.5 -138.5t-138.5 -55.5zM235 364q71 0 118 47.5t47 118.5q0 70 -47 117.5t-118 47.5t-118 -47.5t-47 -117.5q0 -71 47 -118.5t118 -47.5zM206 419h-31v216h78
q36 0 56.5 -19.5t20.5 -53.5t-20.5 -53.5t-56.5 -19.5h-47v-70zM206 606v-88h46q45 0 45 44t-45 44h-46z" />
    <glyph glyph-name="trademark" unicode="&#x2122;" horiz-adv-x="630" 
d="M120 676h-94v34h224v-34h-94v-242h-36v242zM321 434h-34v276h34l108 -238l107 238h34v-276h-34v200l-90 -200h-34l-91 197v-197z" />
    <glyph glyph-name="estimated" unicode="&#x212e;" horiz-adv-x="779" 
d="M60 353q0 158 92.5 257.5t237.5 99.5q147 0 238 -88.5t91 -240.5q0 -38 -1 -53h-558v-180q82 -117 242 -117q77 0 141.5 36.5t96.5 96.5l38 -14q-37 -74 -111 -116.5t-167 -42.5q-153 0 -246.5 100t-93.5 262zM160 546v-182h459v200q-37 51 -97 78.5t-132 27.5
q-73 0 -132.5 -33.5t-97.5 -90.5z" />
    <glyph glyph-name="oneeighth" unicode="&#x215b;" horiz-adv-x="601" 
d="M96 673h-74v37h114v-325h-40v288zM520 710l-455 -710h-48l454 710h49zM344 88q0 30 16.5 52.5t45.5 32.5q-49 21 -49 73q0 38 29 61t73 23q45 0 73.5 -22.5t28.5 -61.5q0 -54 -50 -73q29 -9 46 -32t17 -53q0 -42 -32 -67.5t-83 -25.5t-83 25.5t-32 67.5zM394 243
q0 -24 17 -38.5t48 -14.5q30 0 47.5 14.5t17.5 38.5t-18 37.5t-47 13.5t-47 -13.5t-18 -37.5zM385 93q0 -29 21 -45t53 -16t53 16.5t21 44.5t-21 43.5t-53 15.5t-53 -15.5t-21 -43.5z" />
    <glyph glyph-name="threeeighths" unicode="&#x215c;" horiz-adv-x="648" 
d="M22 486h41q0 -32 19 -50.5t52 -18.5t51.5 17t18.5 46q0 74 -92 74h-20v28l95 90h-149v38h200v-39l-91 -85q44 -3 71 -31t27 -70q0 -49 -30 -77.5t-82 -28.5q-49 0 -80 30t-31 77zM567 710l-455 -710h-48l454 710h49zM391 88q0 30 16.5 52.5t45.5 32.5q-49 21 -49 73
q0 38 29 61t73 23q45 0 73.5 -22.5t28.5 -61.5q0 -54 -50 -73q29 -9 46 -32t17 -53q0 -42 -32 -67.5t-83 -25.5t-83 25.5t-32 67.5zM441 243q0 -24 17 -38.5t48 -14.5q30 0 47.5 14.5t17.5 38.5t-18 37.5t-47 13.5t-47 -13.5t-18 -37.5zM432 93q0 -29 21 -45t53 -16t53 16.5
t21 44.5t-21 43.5t-53 15.5t-53 -15.5t-21 -43.5z" />
    <glyph glyph-name="fiveeighths" unicode="&#x215d;" horiz-adv-x="661" 
d="M140 380q-50 0 -83 31t-33 80h41q0 -33 20.5 -53t54.5 -20t54.5 21t20.5 54t-20 54t-55 21q-41 0 -67 -31l-38 7l41 166h163v-38h-133l-23 -89q25 20 62 20q50 0 80.5 -31.5t30.5 -78.5q0 -49 -32.5 -81t-83.5 -32zM580 710l-455 -710h-48l454 710h49zM404 88
q0 30 16.5 52.5t45.5 32.5q-49 21 -49 73q0 38 29 61t73 23q45 0 73.5 -22.5t28.5 -61.5q0 -54 -50 -73q29 -9 46 -32t17 -53q0 -42 -32 -67.5t-83 -25.5t-83 25.5t-32 67.5zM454 243q0 -24 17 -38.5t48 -14.5q30 0 47.5 14.5t17.5 38.5t-18 37.5t-47 13.5t-47 -13.5
t-18 -37.5zM445 93q0 -29 21 -45t53 -16t53 16.5t21 44.5t-21 43.5t-53 15.5t-53 -15.5t-21 -43.5z" />
    <glyph glyph-name="seveneighths" unicode="&#x215e;" horiz-adv-x="588" 
d="M194 671h-183v39h225v-39l-130 -286h-43zM507 710l-455 -710h-48l454 710h49zM331 88q0 30 16.5 52.5t45.5 32.5q-49 21 -49 73q0 38 29 61t73 23q45 0 73.5 -22.5t28.5 -61.5q0 -54 -50 -73q29 -9 46 -32t17 -53q0 -42 -32 -67.5t-83 -25.5t-83 25.5t-32 67.5zM381 243
q0 -24 17 -38.5t48 -14.5q30 0 47.5 14.5t17.5 38.5t-18 37.5t-47 13.5t-47 -13.5t-18 -37.5zM372 93q0 -29 21 -45t53 -16t53 16.5t21 44.5t-21 43.5t-53 15.5t-53 -15.5t-21 -43.5z" />
    <glyph glyph-name="arrowleft" unicode="&#x2190;" horiz-adv-x="886" 
d="M383 -18l-31 -31l-292 291l292 291l31 -31l-237 -238h680v-44h-680z" />
    <glyph glyph-name="arrowup" unicode="&#x2191;" horiz-adv-x="712" 
d="M92 390l-32 32l296 288l296 -288l-32 -32l-242 234v-624h-44v624z" />
    <glyph glyph-name="arrowright" unicode="&#x2192;" horiz-adv-x="886" 
d="M503 551l31 31l292 -291l-292 -291l-31 31l237 238h-680v44h680z" />
    <glyph glyph-name="arrowdown" unicode="&#x2193;" horiz-adv-x="702" 
d="M611 224l31 -31l-291 -292l-291 292l31 31l238 -237v723h44v-723z" />
    <glyph glyph-name="arrowboth" unicode="&#x2194;" horiz-adv-x="1022" 
d="M60 249l192 196v-68l-100 -105l224 1v1h267l228 -1l-101 105v67l192 -195l-191 -197v69l98 105l-490 -1v1l-227 -1l102 -107v-67z" />
    <glyph glyph-name="arrowupdn" unicode="&#x2195;" horiz-adv-x="512" 
d="M255 -155l-195 193h66l106 -100l-1 225v265l1 227l-106 -99h-66l195 191l197 -191h-69l-105 99v-717l105 100h69z" />
    <glyph glyph-name="arrowNW" unicode="&#x2196;" horiz-adv-x="830" 
d="M60 710h412v-44l-336 -1l634 -634l-31 -31l-634 634l-1 -336h-44v412z" />
    <glyph glyph-name="arrowNE" unicode="&#x2197;" horiz-adv-x="830" 
d="M358 665v45h412v-412h-45v336l-634 -634l-31 31l634 634h-336z" />
    <glyph glyph-name="arrowSE" unicode="&#x2198;" horiz-adv-x="828" 
d="M724 414h44v-412h-412v44l336 1l-632 632l31 31l632 -632z" />
    <glyph glyph-name="arrowSW" unicode="&#x2199;" horiz-adv-x="831" 
d="M472 43v-44h-412v412h45v-336l635 635l31 -31l-635 -635z" />
    <glyph glyph-name="partialdiff" unicode="&#x2202;" horiz-adv-x="612" 
d="M60 240q0 104 72 177t174 73q56 0 105.5 -26t81.5 -72q-31 94 -87.5 163.5t-170.5 166.5h60q132 -106 194.5 -212.5t62.5 -244.5q0 -124 -69 -200.5t-181 -76.5q-103 0 -172.5 72.5t-69.5 179.5zM107 239q0 -92 55.5 -150.5t141.5 -58.5q88 0 144.5 60t56.5 154
q0 89 -55 146t-140 57q-88 0 -145.5 -59t-57.5 -149z" />
    <glyph glyph-name="emptyset" unicode="&#x2205;" horiz-adv-x="782" 
d="M390 -12q-154 0 -252 109l-87 -80l-28 29l90 82q-68 96 -68 227q0 160 98.5 263.5t246.5 103.5q153 0 253 -109l88 81l28 -30l-91 -83q68 -96 68 -226q0 -160 -98.5 -263.5t-247.5 -103.5zM94 355q0 -111 55 -194l458 420q-84 95 -217 95q-127 0 -211.5 -90t-84.5 -231z
M390 34q128 0 212.5 90t84.5 231q0 111 -55 193l-458 -419q84 -95 216 -95z" />
    <glyph glyph-name="increment" unicode="&#x2206;" horiz-adv-x="649" 
d="M609 0h-569v43l247 667h71l251 -670v-40zM316 659l-229 -619h473l-232 619q-1 2 -2.5 6t-2.5 7t-1 5q-2 -8 -6 -18z" />
    <glyph glyph-name="product" unicode="&#x220f;" horiz-adv-x="659" 
d="M138 0h-48v710h479v-710h-48v666h-383v-666z" />
    <glyph glyph-name="summation" unicode="&#x2211;" horiz-adv-x="516" 
d="M476 0h-456v52l226 301l-226 305v52h456v-44h-407l233 -315l-231 -307h405v-44z" />
    <glyph glyph-name="minus" unicode="&#x2212;" 
d="M80 359h500v-44h-500v44z" />
    <glyph glyph-name="radical" unicode="&#x221a;" horiz-adv-x="678" 
d="M198 0l-198 479h50l170 -422l245 653h173v-44h-141l-255 -666h-44z" />
    <glyph glyph-name="infinity" unicode="&#x221e;" horiz-adv-x="842" 
d="M60 279q0 73 47.5 119.5t121.5 46.5q108 0 192 -133q84 133 192 133q74 0 121.5 -46.5t47.5 -119.5t-47.5 -119.5t-121.5 -46.5q-58 0 -103.5 32.5t-88.5 100.5q-43 -68 -88.5 -100.5t-103.5 -32.5q-74 0 -121.5 46.5t-47.5 119.5zM108 279q0 -55 34.5 -88.5t91.5 -33.5
q84 0 156 122q-72 122 -156 122q-58 0 -92 -33t-34 -89zM452 279q72 -122 156 -122q57 0 91.5 33.5t34.5 88.5q0 56 -34 89t-92 33q-84 0 -156 -122z" />
    <glyph glyph-name="integral" unicode="&#x222b;" horiz-adv-x="340" 
d="M103 -14h-73v42h73q18 0 31 13t13 31v562q0 38 26.5 64t63.5 26h73v-42h-73q-18 0 -31 -13t-13 -31v-562q0 -38 -26.5 -64t-63.5 -26z" />
    <glyph glyph-name="approxequal" unicode="&#x2248;" 
d="M537 447h43q0 -65 -32 -103.5t-86 -38.5q-42 0 -92 26.5t-95.5 52.5t-77.5 26q-37 0 -54.5 -21.5t-19.5 -73.5h-43q0 64 32 101.5t85 37.5q46 0 135 -52.5t131 -52.5q36 0 54 23t20 75zM537 272h43q0 -65 -32 -103.5t-86 -38.5q-34 0 -73 16.5t-68 36t-63.5 36
t-60.5 16.5q-37 0 -54.5 -21.5t-19.5 -73.5h-43q0 64 32 101.5t85 37.5q46 0 135 -52.5t131 -52.5q36 0 54 23t20 75z" />
    <glyph glyph-name="notequal" unicode="&#x2260;" 
d="M157 19l82 152h-159v44h183l86 158h-269v44h293l82 152h48l-82 -152h159v-44h-183l-86 -158h269v-44h-293l-82 -152h-48z" />
    <glyph glyph-name="lessequal" unicode="&#x2264;" 
d="M580 157v-47l-500 180v46l500 180v-47l-442 -156zM80 0v44h500v-44h-500z" />
    <glyph glyph-name="greaterequal" unicode="&#x2265;" 
d="M580 290l-500 -180v47l442 156l-442 156v47l500 -180v-46zM80 44h500v-44h-500v44z" />
    <glyph glyph-name="filledbox" unicode="&#x25a0;" horiz-adv-x="830" 
d="M60 0v710h710v-710h-710z" />
    <glyph glyph-name="squarewhite" unicode="&#x25a1;" horiz-adv-x="830" 
d="M60 0v710h710v-710h-710zM724 664h-618v-618h618v618z" />
    <glyph glyph-name="triagup" unicode="&#x25b2;" horiz-adv-x="966" 
d="M60 0l423 710l423 -710h-846z" />
    <glyph glyph-name="triangleupwhite" unicode="&#x25b3;" horiz-adv-x="968" 
d="M484 712l424 -712h-848zM150 49h668l-334 561z" />
    <glyph glyph-name="lozenge" unicode="&#x25ca;" horiz-adv-x="588" 
d="M528 355l-209 -355h-51l-208 355l208 355h51zM477 355l-183 312l-183 -312l183 -312z" />
    <glyph glyph-name="circle" unicode="&#x25cb;" horiz-adv-x="902" 
d="M451 -58q-162 0 -276.5 114.5t-114.5 276.5q0 161 115 276t276 115t276 -115t115 -276t-115 -276t-276 -115zM451 -4q139 0 238 99t99 238t-99 238t-238 99t-238 -99t-99 -238t99 -238t238 -99z" />
    <glyph glyph-name="circleblack" unicode="&#x25cf;" horiz-adv-x="902" 
d="M451 -58q-162 0 -276.5 114.5t-114.5 276.5q0 161 115 276t276 115t276 -115t115 -276t-115 -276t-276 -115z" />
    <glyph glyph-name="peace" unicode="&#x262e;" horiz-adv-x="902" 
d="M451 -58q-162 0 -276.5 114.5t-114.5 276.5q0 161 115 276t276 115t276 -115t115 -276t-115 -276t-276 -115zM114 333q0 -75 31 -142l282 179v299q-132 -9 -222.5 -106t-90.5 -230zM788 333q0 132 -90.5 229t-220.5 107v-299l280 -178q31 67 31 141zM170 148
q43 -65 110 -105.5t147 -45.5v313zM477 310v-313q79 6 146 46t110 105z" />
    <glyph glyph-name="check" unicode="&#x2713;" horiz-adv-x="756" 
d="M244 7l-215 232l35 35l177 -192l345 415l40 -31z" />
    <glyph glyph-name="ITF" unicode="&#xf8ff;" horiz-adv-x="1739" 
d="M110 0v700h216v-700h-216zM371 496v204h216v-204h-216zM631 0v700h217v-700h-217zM892 496v204h216v-204h-216zM1152 0v700h217v-700h-217zM1413 496v204h216v-204h-216zM1413 247v205h216v-205h-216z" />
    <glyph glyph-name="G.ss01" horiz-adv-x="749" 
d="M45 350q0 167 94 269.5t246 102.5q112 0 193.5 -54t111.5 -157h-53q-30 82 -96 123.5t-156 41.5q-133 0 -212 -88.5t-79 -237.5q0 -145 78.5 -230t209.5 -85q122 0 194 74.5t75 213.5h-292v44h340v-43q0 -156 -87 -245.5t-230 -89.5q-151 0 -244 97.5t-93 263.5z" />
    <glyph glyph-name="idotaccent" horiz-adv-x="198" 
d="M99 558q-17 0 -29.5 12t-12.5 29t12.5 30t29.5 13t29.5 -13t12.5 -30q0 -16 -12.5 -28.5t-29.5 -12.5zM76 0v480h46v-480h-46z" />
    <glyph glyph-name="a.ss01" horiz-adv-x="573" 
d="M458 480h39v-480h-41l-7 108q-53 -120 -188 -120q-103 0 -162 71t-59 181q0 109 61 180.5t164 71.5q138 0 187 -124zM446 240q0 94 -47 152t-131 58t-132.5 -58.5t-48.5 -151.5q0 -94 47.5 -152t131.5 -58t132 58t48 152z" />
    <glyph glyph-name="g.ss02" horiz-adv-x="519" 
d="M63 306q0 81 55.5 133.5t141.5 52.5q70 0 116 -33q29 53 93 53q12 0 17 -1v-46q-11 2 -23 2q-41 0 -64 -29q27 -24 43 -59.5t16 -72.5q0 -79 -55.5 -131t-141.5 -52q-55 0 -97 21q-58 -3 -58 -47q0 -45 69 -45h171q73 0 113 -30.5t40 -86.5q0 -69 -65 -109.5t-176 -40.5
q-218 0 -218 131q0 33 20.5 60.5t53.5 40.5q-50 16 -50 68q0 29 17.5 50.5t48.5 29.5q-67 53 -67 141zM107 305q0 -64 42.5 -103t111.5 -39q68 0 110.5 39t42.5 103q0 65 -42.5 106t-110.5 41t-111 -41.5t-43 -105.5zM82 -78q0 -49 42 -72t134 -23q195 0 195 107
q0 76 -107 76h-149q-56 0 -85.5 -22.5t-29.5 -65.5z" />
    <glyph glyph-name="t.ss03" horiz-adv-x="305" 
d="M252 41l7 -41q-33 -10 -60 -10q-52 0 -77.5 32t-25.5 85v333h-76v40h76v152h46v-152h118v-40h-118v-335q0 -36 17.5 -54.5t47.5 -18.5q21 0 45 9z" />
    <glyph glyph-name="f_y" horiz-adv-x="735" 
d="M313 -203v37h45q20 0 31.5 1.5t29 7t30 20.5t21.5 39l24 65l-180 473h-173v-440h-46v440h-75v40h75v108q0 69 32.5 101.5t82.5 32.5q28 0 49 -3v-41h-41q-44 0 -60.5 -21t-16.5 -69v-108h206l169 -450l162 450h47l-213 -591q-36 -98 -134 -98q-35 0 -65 6z" />
    <glyph glyph-name="t_i" horiz-adv-x="502" 
d="M407 634q-17 0 -27 10t-10 27t10.5 28t26.5 11t27 -11t11 -28q0 -16 -10.5 -26.5t-27.5 -10.5zM163 0h-46v440h-97v40h97v152h46v-152h268v-480h-46v440h-222v-440z" />
    <glyph glyph-name="t_t" horiz-adv-x="560" 
d="M163 0h-46v442h-97v38h97v152h46v-152h234v152h46v-152h97v-38h-97v-442h-46v442h-234v-442z" />
    <glyph glyph-name="t_y" horiz-adv-x="737" 
d="M163 0h-46v442h-97v38h97v152h46v-152h186l169 -450l162 450h47l-213 -591q-36 -98 -134 -98q-35 0 -65 6v37h45q20 0 31.5 1.5t29 7t30 20.5t21.5 39l24 65l-181 475h-152v-442z" />
    <glyph glyph-name="zero.tf" 
d="M53 354q0 167 74 267.5t203 100.5t203 -100.5t74 -267.5t-74 -267.5t-203 -100.5t-203 100.5t-74 267.5zM100 354q0 -147 61 -235t169 -88t169 88t61 235t-61 235t-169 88t-169 -88t-61 -235z" />
    <glyph glyph-name="one.tf" 
d="M333 44v622h-190v44h237v-666h185v-44h-436v44h204z" />
    <glyph glyph-name="two.tf" 
d="M558 0h-456v40l225 199q110 97 145 150t35 121q0 77 -45 122t-122 45q-79 0 -129 -54t-53 -143h-48q4 110 67.5 176t164.5 66q94 0 153.5 -58.5t59.5 -150.5q0 -79 -41 -142t-159 -167l-181 -160h384v-44z" />
    <glyph glyph-name="three.tf" 
d="M294 394h-44v35l232 237h-357v44h422v-40l-231 -235q109 0 176.5 -59.5t67.5 -156.5q0 -103 -67 -167t-175 -64q-105 0 -166.5 60.5t-61.5 163.5h48q0 -83 48.5 -131t131.5 -48q88 0 141 51t53 137q0 82 -57.5 127.5t-160.5 45.5z" />
    <glyph glyph-name="four.tf" 
d="M99 201h324v461zM554 157h-83v-157h-48v157h-378v44l359 509h67v-509h83v-44z" />
    <glyph glyph-name="five.tf" 
d="M323 -12q-105 0 -166.5 60.5t-61.5 163.5h48q0 -83 48.5 -131t131.5 -48q88 0 141 53.5t53 139.5q0 83 -52.5 138.5t-142.5 55.5q-103 0 -179 -76l-32 15l84 351h331v-44h-296l-61 -254q69 53 156 53q109 0 174.5 -69.5t65.5 -170.5q0 -104 -67.5 -170.5t-174.5 -66.5z
" />
    <glyph glyph-name="six.tf" 
d="M164 457l188 253h57l-198 -262q59 36 121 36q109 0 177.5 -71t68.5 -176q0 -106 -71.5 -177.5t-175.5 -71.5t-176.5 72t-72.5 177q0 61 18 109.5t64 110.5zM130 237q0 -89 56.5 -146.5t144.5 -57.5q87 0 143 57.5t56 146.5q0 88 -56 145t-143 57q-88 0 -144.5 -57
t-56.5 -145z" />
    <glyph glyph-name="seven.tf" 
d="M95 710h470v-44l-288 -666h-50l290 666h-422v44z" />
    <glyph glyph-name="eight.tf" 
d="M86 190q0 66 38 115.5t104 71.5q-56 22 -86.5 65.5t-30.5 99.5q0 80 61 130t159 50q97 0 157.5 -50t60.5 -130q0 -58 -30.5 -101t-85.5 -64q65 -19 103.5 -69.5t38.5 -118.5q0 -89 -68 -145t-176 -56q-109 0 -177 56.5t-68 145.5zM158 544q0 -65 47.5 -105t125.5 -40
t124.5 39t46.5 104q0 62 -46.5 99t-124.5 37t-125.5 -36.5t-47.5 -97.5zM133 195q0 -73 55 -118t144 -45q87 0 141.5 45t54.5 117t-54 115.5t-144 43.5q-89 0 -143 -43.5t-54 -114.5z" />
    <glyph glyph-name="nine.tf" 
d="M496 253l-188 -253h-57l198 262q-59 -36 -121 -36q-109 0 -177.5 71t-68.5 176q0 106 71.5 177.5t175.5 71.5t176.5 -72t72.5 -177q0 -61 -18 -109.5t-64 -110.5zM530 473q0 89 -56.5 146.5t-144.5 57.5q-87 0 -143 -57.5t-56 -146.5q0 -88 56 -145t143 -57
q88 0 144.5 57t56.5 145z" />
    <glyph glyph-name="zero.dnom" horiz-adv-x="338" 
d="M28 163q0 75 38 121t102 46q66 0 104 -47t38 -122t-38.5 -121t-102.5 -46q-65 0 -103 47t-38 122zM68 162q0 -58 27 -94t73 -36q47 0 74 36t27 94q0 59 -27 95t-74 36q-46 0 -73 -36t-27 -95z" />
    <glyph glyph-name="one.dnom" horiz-adv-x="180" 
d="M96 288h-74v37h114v-325h-40v288z" />
    <glyph glyph-name="two.dnom" horiz-adv-x="271" 
d="M249 0h-222v28l105 86q38 32 53.5 56.5t15.5 52.5q0 32 -18.5 51t-50.5 19t-50.5 -18.5t-18.5 -50.5h-41q0 47 31 76.5t80 29.5q50 0 80 -29t30 -77q0 -37 -19 -67t-67 -70l-61 -50h153v-37z" />
    <glyph glyph-name="three.dnom" horiz-adv-x="267" 
d="M22 101h41q0 -32 19 -50.5t52 -18.5t51.5 17t18.5 46q0 74 -92 74h-20v28l95 90h-149v38h200v-39l-91 -85q44 -3 71 -31t27 -70q0 -49 -30 -77.5t-82 -28.5q-49 0 -80 30t-31 77z" />
    <glyph glyph-name="four.dnom" horiz-adv-x="291" 
d="M186 67h-170v37l161 221h48v-221h40v-37h-40v-67h-39v67zM60 104h126v173z" />
    <glyph glyph-name="five.dnom" horiz-adv-x="280" 
d="M140 -5q-50 0 -83 31t-33 80h41q0 -33 20.5 -53t54.5 -20t54.5 21t20.5 54t-20 54t-55 21q-41 0 -67 -31l-38 7l41 166h163v-38h-133l-23 -89q25 20 62 20q50 0 80.5 -31.5t30.5 -78.5q0 -49 -32.5 -81t-83.5 -32z" />
    <glyph glyph-name="six.dnom" horiz-adv-x="298" 
d="M67 218l79 107h48l-81 -105q16 8 38 8q50 0 83.5 -32.5t33.5 -81.5q0 -50 -34 -84.5t-84 -34.5t-85 34.5t-35 84.5q0 55 37 104zM70 114q0 -36 22.5 -58.5t57.5 -22.5q34 0 56 23t22 58q0 34 -22 55.5t-56 21.5q-35 0 -57.5 -21.5t-22.5 -55.5z" />
    <glyph glyph-name="seven.dnom" horiz-adv-x="247" 
d="M194 286h-183v39h225v-39l-130 -286h-43z" />
    <glyph glyph-name="eight.dnom" horiz-adv-x="284" 
d="M27 88q0 30 16.5 52.5t45.5 32.5q-49 21 -49 73q0 38 29 61t73 23q45 0 73.5 -22.5t28.5 -61.5q0 -54 -50 -73q29 -9 46 -32t17 -53q0 -42 -32 -67.5t-83 -25.5t-83 25.5t-32 67.5zM77 243q0 -24 17 -38.5t48 -14.5q30 0 47.5 14.5t17.5 38.5t-18 37.5t-47 13.5
t-47 -13.5t-18 -37.5zM68 93q0 -29 21 -45t53 -16t53 16.5t21 44.5t-21 43.5t-53 15.5t-53 -15.5t-21 -43.5z" />
    <glyph glyph-name="nine.dnom" horiz-adv-x="298" 
d="M231 107l-79 -107h-48l81 105q-16 -8 -38 -8q-50 0 -83.5 32.5t-33.5 81.5q0 50 34 84.5t84 34.5t85 -34.5t35 -84.5q0 -55 -37 -104zM228 211q0 36 -22.5 58.5t-57.5 22.5q-34 0 -56 -23t-22 -58q0 -34 22 -55.5t56 -21.5q35 0 57.5 21.5t22.5 55.5z" />
    <glyph glyph-name="zero.numr" horiz-adv-x="338" 
d="M28 548q0 75 38 121t102 46q66 0 104 -47t38 -122t-38.5 -121t-102.5 -46q-65 0 -103 47t-38 122zM68 547q0 -58 27 -94t73 -36q47 0 74 36t27 94q0 59 -27 95t-74 36q-46 0 -73 -36t-27 -95z" />
    <glyph glyph-name="one.numr" horiz-adv-x="180" 
d="M96 673h-74v37h114v-325h-40v288z" />
    <glyph glyph-name="two.numr" horiz-adv-x="271" 
d="M249 385h-222v28l105 86q38 32 53.5 56.5t15.5 52.5q0 32 -18.5 51t-50.5 19t-50.5 -19t-18.5 -50h-41q0 47 31 76.5t80 29.5q50 0 80 -29t30 -77q0 -37 -19 -67t-67 -70l-61 -50h153v-37z" />
    <glyph glyph-name="three.numr" horiz-adv-x="267" 
d="M22 486h41q0 -32 19 -50.5t52 -18.5t51.5 17t18.5 46q0 74 -92 74h-20v28l95 90h-149v38h200v-39l-91 -85q44 -3 71 -31t27 -70q0 -49 -30 -77.5t-82 -28.5q-49 0 -80 30t-31 77z" />
    <glyph glyph-name="four.numr" horiz-adv-x="291" 
d="M186 452h-170v37l161 221h48v-221h40v-37h-40v-67h-39v67zM60 489h126v173z" />
    <glyph glyph-name="five.numr" horiz-adv-x="280" 
d="M140 380q-50 0 -83 31t-33 80h41q0 -33 20.5 -53t54.5 -20t54.5 21t20.5 54t-20 54t-55 21q-41 0 -67 -31l-38 7l41 166h163v-38h-133l-23 -89q25 20 62 20q50 0 80.5 -31.5t30.5 -78.5q0 -49 -32.5 -81t-83.5 -32z" />
    <glyph glyph-name="six.numr" horiz-adv-x="298" 
d="M67 603l79 107h48l-81 -105q16 8 38 8q50 0 83.5 -32.5t33.5 -81.5q0 -50 -34 -84.5t-84 -34.5t-85 34.5t-35 84.5q0 55 37 104zM70 499q0 -36 22.5 -58.5t57.5 -22.5q34 0 56 23t22 58q0 34 -22 55.5t-56 21.5q-35 0 -57.5 -21.5t-22.5 -55.5z" />
    <glyph glyph-name="seven.numr" horiz-adv-x="247" 
d="M194 671h-183v39h225v-39l-130 -286h-43z" />
    <glyph glyph-name="eight.numr" horiz-adv-x="284" 
d="M27 473q0 30 16.5 52.5t45.5 32.5q-49 21 -49 73q0 38 29 61t73 23q45 0 73.5 -22.5t28.5 -61.5q0 -54 -50 -73q29 -9 46 -32t17 -53q0 -42 -32 -67.5t-83 -25.5t-83 25.5t-32 67.5zM77 628q0 -24 17 -38.5t48 -14.5q30 0 47.5 14.5t17.5 38.5t-18 37.5t-47 13.5
t-47 -13.5t-18 -37.5zM68 478q0 -29 21 -45t53 -16t53 16.5t21 44.5t-21 43.5t-53 15.5t-53 -15.5t-21 -43.5z" />
    <glyph glyph-name="nine.numr" horiz-adv-x="298" 
d="M231 492l-79 -107h-48l81 105q-16 -8 -38 -8q-50 0 -83.5 32.5t-33.5 81.5q0 50 34 84.5t84 34.5t85 -34.5t35 -84.5q0 -55 -37 -104zM228 596q0 36 -22.5 58.5t-57.5 22.5q-34 0 -56 -23t-22 -58q0 -34 22 -55.5t56 -21.5q35 0 57.5 21.5t22.5 55.5z" />
    <glyph glyph-name="registered.ss01" horiz-adv-x="599" 
d="M300 209q-109 0 -184.5 74.5t-75.5 182.5t75.5 182.5t184.5 74.5t184 -75t75 -182t-75 -182t-184 -75zM300 244q94 0 158.5 64t64.5 158t-64.5 158t-158.5 64q-96 0 -159.5 -63.5t-63.5 -158.5t63.5 -158.5t159.5 -63.5zM252 334h-37v264h95q40 0 65.5 -22.5t25.5 -57.5
q0 -54 -50 -74l57 -110h-42l-51 100h-63v-100zM363 516q0 46 -54 46h-57v-92h57q25 0 39.5 12.5t14.5 33.5z" />
    <glyph glyph-name="bracketleftsuperior" horiz-adv-x="208" 
d="M92 275h111v-40h-153v625h153v-40h-111v-545z" />
    <glyph glyph-name="bracketrightsuperior" horiz-adv-x="208" 
d="M116 820h-111v40h153v-625h-153v40h111v545z" />
    <glyph glyph-name="Gbreve.ss01" horiz-adv-x="749" 
d="M422 873h42q0 -51 -29 -80.5t-79 -29.5t-79 29.5t-29 80.5h42q0 -68 66 -68t66 68zM45 350q0 167 94 269.5t246 102.5q112 0 193.5 -54t111.5 -157h-53q-30 82 -96 123.5t-156 41.5q-133 0 -212 -88.5t-79 -237.5q0 -145 78.5 -230t209.5 -85q122 0 194 74.5t75 213.5
h-292v44h340v-43q0 -156 -87 -245.5t-230 -89.5q-151 0 -244 97.5t-93 263.5z" />
    <glyph glyph-name="Gcircumflex.ss01" horiz-adv-x="749" 
d="M298 766h-48l70 107h71l70 -107h-48l-57 84zM45 350q0 167 94 269.5t246 102.5q112 0 193.5 -54t111.5 -157h-53q-30 82 -96 123.5t-156 41.5q-133 0 -212 -88.5t-79 -237.5q0 -145 78.5 -230t209.5 -85q122 0 194 74.5t75 213.5h-292v44h340v-43q0 -156 -87 -245.5
t-230 -89.5q-151 0 -244 97.5t-93 263.5z" />
    <glyph glyph-name="Gcommaaccent.ss01" horiz-adv-x="749" 
d="M45 350q0 167 94 269.5t246 102.5q112 0 193.5 -54t111.5 -157h-53q-30 82 -96 123.5t-156 41.5q-133 0 -212 -88.5t-79 -237.5q0 -145 78.5 -230t209.5 -85q122 0 194 74.5t75 213.5h-292v44h340v-43q0 -156 -87 -245.5t-230 -89.5q-151 0 -244 97.5t-93 263.5zM423 -93
q0 -41 -23.5 -64.5t-49.5 -24.5v25q18 1 29 13t11 28q-4 -2 -12 -2q-16 0 -28 11t-12 27q0 18 11.5 30.5t28.5 12.5q45 0 45 -56z" />
    <glyph glyph-name="Gdotaccent.ss01" horiz-adv-x="749" 
d="M356 789q-17 0 -29.5 12t-12.5 29t12.5 30t29.5 13t29.5 -13t12.5 -30q0 -16 -12.5 -28.5t-29.5 -12.5zM45 350q0 167 94 269.5t246 102.5q112 0 193.5 -54t111.5 -157h-53q-30 82 -96 123.5t-156 41.5q-133 0 -212 -88.5t-79 -237.5q0 -145 78.5 -230t209.5 -85
q122 0 194 74.5t75 213.5h-292v44h340v-43q0 -156 -87 -245.5t-230 -89.5q-151 0 -244 97.5t-93 263.5z" />
    <glyph glyph-name="Q.ss04" horiz-adv-x="761" 
d="M652 -132l-266 120h-6q-148 0 -241.5 103t-93.5 264t94 264t241 103q148 0 242 -103t94 -264q0 -135 -67 -231t-180 -125l201 -90zM667 355q0 142 -80 231.5t-207 89.5q-126 0 -206 -89.5t-80 -231.5t80 -231.5t206 -89.5q127 0 207 89.5t80 231.5z" />
    <glyph glyph-name="aacute.ss01" horiz-adv-x="573" 
d="M366 653l-67 -106h-42l54 106h55zM458 480h39v-480h-41l-7 108q-53 -120 -188 -120q-103 0 -162 71t-59 181q0 109 61 180.5t164 71.5q138 0 187 -124zM446 240q0 94 -47 152t-131 58t-132.5 -58.5t-48.5 -151.5q0 -94 47.5 -152t131.5 -58t132 58t48 152z" />
    <glyph glyph-name="abreve.ss01" horiz-adv-x="573" 
d="M341 654h42q0 -51 -29 -80.5t-79 -29.5t-79 29.5t-29 80.5h42q0 -68 66 -68t66 68zM458 480h39v-480h-41l-7 108q-53 -120 -188 -120q-103 0 -162 71t-59 181q0 109 61 180.5t164 71.5q138 0 187 -124zM446 240q0 94 -47 152t-131 58t-132.5 -58.5t-48.5 -151.5
q0 -94 47.5 -152t131.5 -58t132 58t48 152z" />
    <glyph glyph-name="acircumflex.ss01" horiz-adv-x="573" 
d="M217 547h-48l70 107h71l70 -107h-48l-57 84zM458 480h39v-480h-41l-7 108q-53 -120 -188 -120q-103 0 -162 71t-59 181q0 109 61 180.5t164 71.5q138 0 187 -124zM446 240q0 94 -47 152t-131 58t-132.5 -58.5t-48.5 -151.5q0 -94 47.5 -152t131.5 -58t132 58t48 152z" />
    <glyph glyph-name="adieresis.ss01" horiz-adv-x="573" 
d="M209 570q-17 0 -29.5 12t-12.5 29t12.5 30t29.5 13t29.5 -13t12.5 -30q0 -16 -12.5 -28.5t-29.5 -12.5zM341 570q-17 0 -29.5 12t-12.5 29t12.5 30t29.5 13t29.5 -13t12.5 -30q0 -16 -12.5 -28.5t-29.5 -12.5zM458 480h39v-480h-41l-7 108q-53 -120 -188 -120
q-103 0 -162 71t-59 181q0 109 61 180.5t164 71.5q138 0 187 -124zM446 240q0 94 -47 152t-131 58t-132.5 -58.5t-48.5 -151.5q0 -94 47.5 -152t131.5 -58t132 58t48 152z" />
    <glyph glyph-name="agrave.ss01" horiz-adv-x="573" 
d="M293 547h-42l-65 107h55zM458 480h39v-480h-41l-7 108q-53 -120 -188 -120q-103 0 -162 71t-59 181q0 109 61 180.5t164 71.5q138 0 187 -124zM446 240q0 94 -47 152t-131 58t-132.5 -58.5t-48.5 -151.5q0 -94 47.5 -152t131.5 -58t132 58t48 152z" />
    <glyph glyph-name="amacron.ss01" horiz-adv-x="573" 
d="M167 610v42h216v-42h-216zM458 480h39v-480h-41l-7 108q-53 -120 -188 -120q-103 0 -162 71t-59 181q0 109 61 180.5t164 71.5q138 0 187 -124zM446 240q0 94 -47 152t-131 58t-132.5 -58.5t-48.5 -151.5q0 -94 47.5 -152t131.5 -58t132 58t48 152z" />
    <glyph glyph-name="aogonek.ss01" horiz-adv-x="573" 
d="M460 0h-4l-7 108q-53 -120 -188 -120q-103 0 -162 71t-59 181q0 109 61 180.5t164 71.5q138 0 187 -124l6 112h39v-480q-51 -23 -51 -62q0 -29 33 -29q7 0 18 3v-41q-12 -4 -30 -4q-28 0 -45 16.5t-17 42.5q0 46 55 74zM446 240q0 94 -47 152t-131 58t-132.5 -58.5
t-48.5 -151.5q0 -94 47.5 -152t131.5 -58t132 58t48 152z" />
    <glyph glyph-name="aring.ss01" horiz-adv-x="573" 
d="M275 548q-43 0 -71 28t-28 72q0 43 28.5 71t70.5 28t70.5 -28.5t28.5 -70.5t-28.5 -71t-70.5 -29zM275 587q25 0 41 17t16 44q0 26 -16 43.5t-41 17.5t-41 -17t-16 -44t16 -44t41 -17zM458 480h39v-480h-41l-7 108q-53 -120 -188 -120q-103 0 -162 71t-59 181
q0 109 61 180.5t164 71.5q138 0 187 -124zM446 240q0 94 -47 152t-131 58t-132.5 -58.5t-48.5 -151.5q0 -94 47.5 -152t131.5 -58t132 58t48 152z" />
    <glyph glyph-name="aringacute.ss01" horiz-adv-x="573" 
d="M354 774l-67 -106h-42l54 106h55zM458 480h39v-480h-41l-7 108q-53 -120 -188 -120q-103 0 -162 71t-59 181q0 89 41.5 154.5t114.5 87.5q-27 29 -27 71q0 43 28.5 71t70.5 28t70.5 -28.5t28.5 -70.5q0 -44 -30 -72q82 -28 115 -113zM268 492q25 0 41 17t16 44
q0 26 -16 43.5t-41 17.5t-41 -17t-16 -44t16 -44t41 -17zM446 240q0 94 -47 152t-131 58t-132.5 -58.5t-48.5 -151.5q0 -94 47.5 -152t131.5 -58t132 58t48 152z" />
    <glyph glyph-name="atilde.ss01" horiz-adv-x="573" 
d="M189 567h-40q-1 43 16 67.5t49 24.5q26 0 60 -26t53 -26q33 0 33 52h40q0 -92 -72 -92q-29 0 -61.5 26t-46.5 26q-31 0 -31 -52zM458 480h39v-480h-41l-7 108q-53 -120 -188 -120q-103 0 -162 71t-59 181q0 109 61 180.5t164 71.5q138 0 187 -124zM446 240q0 94 -47 152
t-131 58t-132.5 -58.5t-48.5 -151.5q0 -94 47.5 -152t131.5 -58t132 58t48 152z" />
    <glyph glyph-name="gbreve.ss02" horiz-adv-x="519" 
d="M331 642h42q0 -51 -29 -80.5t-79 -29.5t-79 29.5t-29 80.5h42q0 -68 66 -68t66 68zM63 306q0 81 55.5 133.5t141.5 52.5q70 0 116 -33q29 53 93 53q12 0 17 -1v-46q-11 2 -23 2q-41 0 -64 -29q27 -24 43 -59.5t16 -72.5q0 -79 -55.5 -131t-141.5 -52q-55 0 -97 21
q-58 -3 -58 -47q0 -45 69 -45h171q73 0 113 -30.5t40 -86.5q0 -69 -65 -109.5t-176 -40.5q-218 0 -218 131q0 33 20.5 60.5t53.5 40.5q-50 16 -50 68q0 29 17.5 50.5t48.5 29.5q-67 53 -67 141zM107 305q0 -64 42.5 -103t111.5 -39q68 0 110.5 39t42.5 103q0 65 -42.5 106
t-110.5 41t-111 -41.5t-43 -105.5zM82 -78q0 -49 42 -72t134 -23q195 0 195 107q0 76 -107 76h-149q-56 0 -85.5 -22.5t-29.5 -65.5z" />
    <glyph glyph-name="gcircumflex.ss02" horiz-adv-x="519" 
d="M207 535h-48l70 107h71l70 -107h-48l-57 84zM63 306q0 81 55.5 133.5t141.5 52.5q70 0 116 -33q29 53 93 53q12 0 17 -1v-46q-11 2 -23 2q-41 0 -64 -29q27 -24 43 -59.5t16 -72.5q0 -79 -55.5 -131t-141.5 -52q-55 0 -97 21q-58 -3 -58 -47q0 -45 69 -45h171
q73 0 113 -30.5t40 -86.5q0 -69 -65 -109.5t-176 -40.5q-218 0 -218 131q0 33 20.5 60.5t53.5 40.5q-50 16 -50 68q0 29 17.5 50.5t48.5 29.5q-67 53 -67 141zM107 305q0 -64 42.5 -103t111.5 -39q68 0 110.5 39t42.5 103q0 65 -42.5 106t-110.5 41t-111 -41.5t-43 -105.5z
M82 -78q0 -49 42 -72t134 -23q195 0 195 107q0 76 -107 76h-149q-56 0 -85.5 -22.5t-29.5 -65.5z" />
    <glyph glyph-name="gcommaaccent.ss02" horiz-adv-x="519" 
d="M305 564q0 -18 -11.5 -30.5t-28.5 -12.5q-45 0 -45 56q0 41 23.5 64.5t49.5 24.5v-25q-18 -1 -29 -13t-11 -28q4 2 12 2q16 0 28 -11t12 -27zM63 306q0 81 55.5 133.5t141.5 52.5q70 0 116 -33q29 53 93 53q12 0 17 -1v-46q-11 2 -23 2q-41 0 -64 -29q27 -24 43 -59.5
t16 -72.5q0 -79 -55.5 -131t-141.5 -52q-55 0 -97 21q-58 -3 -58 -47q0 -45 69 -45h171q73 0 113 -30.5t40 -86.5q0 -69 -65 -109.5t-176 -40.5q-218 0 -218 131q0 33 20.5 60.5t53.5 40.5q-50 16 -50 68q0 29 17.5 50.5t48.5 29.5q-67 53 -67 141zM107 305q0 -64 42.5 -103
t111.5 -39q68 0 110.5 39t42.5 103q0 65 -42.5 106t-110.5 41t-111 -41.5t-43 -105.5zM82 -78q0 -49 42 -72t134 -23q195 0 195 107q0 76 -107 76h-149q-56 0 -85.5 -22.5t-29.5 -65.5z" />
    <glyph glyph-name="gdotaccent.ss02" horiz-adv-x="519" 
d="M265 558q-17 0 -29.5 12t-12.5 29t12.5 30t29.5 13t29.5 -13t12.5 -30q0 -16 -12.5 -28.5t-29.5 -12.5zM63 306q0 81 55.5 133.5t141.5 52.5q70 0 116 -33q29 53 93 53q12 0 17 -1v-46q-11 2 -23 2q-41 0 -64 -29q27 -24 43 -59.5t16 -72.5q0 -79 -55.5 -131t-141.5 -52
q-55 0 -97 21q-58 -3 -58 -47q0 -45 69 -45h171q73 0 113 -30.5t40 -86.5q0 -69 -65 -109.5t-176 -40.5q-218 0 -218 131q0 33 20.5 60.5t53.5 40.5q-50 16 -50 68q0 29 17.5 50.5t48.5 29.5q-67 53 -67 141zM107 305q0 -64 42.5 -103t111.5 -39q68 0 110.5 39t42.5 103
q0 65 -42.5 106t-110.5 41t-111 -41.5t-43 -105.5zM82 -78q0 -49 42 -72t134 -23q195 0 195 107q0 76 -107 76h-149q-56 0 -85.5 -22.5t-29.5 -65.5z" />
    <glyph glyph-name="tbar.ss03" horiz-adv-x="280" 
d="M252 41l7 -41q-33 -10 -60 -10q-52 0 -77.5 32t-25.5 85v150h-60v38h60v145h-76v40h76v152h46v-152h118v-40h-118v-145h80v-38h-80v-152q0 -36 17.5 -54.5t47.5 -18.5q21 0 45 9z" />
    <glyph glyph-name="tcaron.ss03" horiz-adv-x="305" 
d="M199 565v145h49l-13 -145h-36zM252 41l7 -41q-33 -10 -60 -10q-52 0 -77.5 32t-25.5 85v333h-76v40h76v152h46v-152h118v-40h-118v-335q0 -36 17.5 -54.5t47.5 -18.5q21 0 45 9z" />
    <glyph glyph-name="tcedilla.ss03" horiz-adv-x="305" 
d="M132 -156v36q26 -15 52 -15q19 0 31.5 8t12.5 24q0 32 -39 32q-20 0 -49 -13l-8 22l27 58q-63 23 -63 111v333h-76v40h76v152h46v-152h118v-40h-118v-335q0 -36 17.5 -54.5t47.5 -18.5q21 0 45 9l7 -41q-33 -10 -60 -10h-7l-16 -34q17 5 28 5q28 0 46 -17t18 -45
q0 -33 -23 -51t-56 -18q-37 0 -57 14z" />
    <glyph glyph-name="tcommaaccent.ss03" horiz-adv-x="305" 
d="M252 41l7 -41q-33 -10 -60 -10q-52 0 -77.5 32t-25.5 85v333h-76v40h76v152h46v-152h118v-40h-118v-335q0 -36 17.5 -54.5t47.5 -18.5q21 0 45 9zM220 -93q0 -41 -23.5 -64.5t-49.5 -24.5v25q18 1 29 13t11 28q-4 -2 -12 -2q-16 0 -28 11t-12 27q0 18 11.5 30.5
t28.5 12.5q45 0 45 -56z" />
    <glyph glyph-name="caroncomb.alt" horiz-adv-x="600" 
d="M314 565v145h49l-13 -145h-36z" />
    <glyph glyph-name="strokeshortcomb.case" horiz-adv-x="314" 
d="M20 333v44h274v-44h-274z" />
    <glyph glyph-name="strokelongcomb.case" horiz-adv-x="689" 
d="M3 549v44h683v-44h-683z" />
    <glyph glyph-name="slashshortcomb.case" horiz-adv-x="377" 
d="M20 308v49l337 161v-49z" />
    <glyph glyph-name="slashlongcomb.case" horiz-adv-x="476" 
d="M536 710l-546 -710h-50l545 710h51z" />
    <glyph glyph-name="dotaccentcomb.i" horiz-adv-x="186" 
d="M93 857q-17 0 -29.5 12t-12.5 29t12.5 30t29.5 13t29.5 -13t12.5 -30q0 -16 -12.5 -28.5t-29.5 -12.5z" />
    </font>
</defs>
</svg>
