<?xml version="1.0" standalone="no"?>
<!DOCTYPE svg PUBLIC "-//W3C//DTD SVG 1.1//EN" "http://www.w3.org/Graphics/SVG/1.1/DTD/svg11.dtd" >
<svg xmlns="http://www.w3.org/2000/svg" xmlns:xlink="http://www.w3.org/1999/xlink" version="1.1">
<metadata>
Created by FontForge 20201107 at Sat Jul 17 11:38:43 2021
 By 
Copyright 2017-2021 Indian Type Foundry. All rights reserved.
</metadata>
<defs>
<font id="false" horiz-adv-x="559" >
  <font-face 
    font-family="Satoshi Light Italic"
    font-weight="300"
    font-style="italic"
    font-stretch="normal"
    units-per-em="1000"
    panose-1="0 0 0 0 0 0 0 0 0 0"
    ascent="800"
    descent="-200"
    x-height="480"
    cap-height="710"
    bbox="-241 -214 1702 997"
    underline-thickness="80"
    underline-position="-235"
    slope="-9"
    unicode-range="U+0020-FB04"
  />
<missing-glyph horiz-adv-x="500" 
d="M50 -203v1063h400v-1063h-400zM100 -153h300v963h-300v-963z" />
    <glyph glyph-name="f_f" unicode="ff" horiz-adv-x="554" 
d="M58 480h74l17 109q10 64 44 98.5t88 34.5q32 0 47 -3l-6 -37h-40q-40 0 -61 -21.5t-29 -71.5l-17 -109h239l17 109q21 133 132 133q32 0 47 -3l-6 -37h-40q-40 0 -61 -21.5t-29 -71.5l-17 -109h110l-6 -38h-110l-70 -442h-43l70 442h-239l-70 -442h-43l70 442h-74z" />
    <glyph glyph-name="fi" unicode="fi" horiz-adv-x="495" 
d="M338 0l70 442h-239l-70 -442h-43l70 442h-74l6 38h74l17 109q21 133 132 133q32 0 47 -3l-6 -37h-40q-40 0 -61 -21.5t-29 -71.5l-17 -109h282l-76 -480h-43zM459 628q-15 0 -25 10t-10 24q0 20 13.5 34.5t32.5 14.5q15 0 25 -10t10 -24q0 -20 -13.5 -34.5t-32.5 -14.5z
" />
    <glyph glyph-name="fl" unicode="fl" horiz-adv-x="484" 
d="M366 0h-43l70 442h-224l-70 -442h-43l70 442h-74l6 38h74l17 109q10 64 44 98.5t88 34.5q32 0 47 -3l-6 -37h-40q-40 0 -61 -21.5t-29 -71.5l-17 -109h224l38 242h43z" />
    <glyph glyph-name="f_f_i" unicode="ffi" horiz-adv-x="777" 
d="M58 480h74l17 109q10 64 44 98.5t88 34.5q32 0 47 -3l-6 -37h-40q-40 0 -61 -21.5t-29 -71.5l-17 -109h239l17 109q21 133 132 133q32 0 47 -3l-6 -37h-40q-40 0 -61 -21.5t-29 -71.5l-17 -109h282l-76 -480h-43l70 442h-239l-70 -442h-43l70 442h-239l-70 -442h-43
l70 442h-74zM741 628q-15 0 -25 10t-10 24q0 20 13.5 34.5t32.5 14.5q15 0 25 -10t10 -24q0 -20 -13.5 -34.5t-32.5 -14.5z" />
    <glyph glyph-name="f_f_l" unicode="ffl" horiz-adv-x="766" 
d="M58 480h74l17 109q10 64 44 98.5t88 34.5q32 0 47 -3l-6 -37h-40q-40 0 -61 -21.5t-29 -71.5l-17 -109h239l17 109q21 133 132 133q32 0 47 -3l-6 -37h-40q-40 0 -61 -21.5t-29 -71.5l-17 -109h224l38 242h43l-114 -722h-43l70 442h-224l-70 -442h-43l70 442h-239
l-70 -442h-43l70 442h-74z" />
    <glyph glyph-name="f_t" unicode="ft" horiz-adv-x="556" 
d="M403 0h-43l70 442h-261l-70 -442h-43l70 442h-74l6 38h74l17 109q10 64 44 98.5t88 34.5q32 0 47 -3l-6 -37h-40q-40 0 -61 -21.5t-29 -71.5l-17 -109h261l24 152h43l-24 -152h95l-6 -38h-95z" />
    <glyph glyph-name=".notdef" horiz-adv-x="500" 
d="M50 -203v1063h400v-1063h-400zM100 -153h300v963h-300v-963z" />
    <glyph glyph-name=".null" horiz-adv-x="0" 
 />
    <glyph glyph-name="nonmarkingreturn" horiz-adv-x="333" 
 />
    <glyph glyph-name="space" unicode=" " horiz-adv-x="275" 
 />
    <glyph glyph-name="exclam" unicode="!" horiz-adv-x="246" 
d="M133 213h-28q13 123 45 326l27 171h42l-27 -171q-37 -230 -59 -326zM83 -11q-19 0 -32 13.5t-13 31.5q0 24 19.5 43.5t42.5 19.5q19 0 32 -13t13 -33q0 -24 -19 -43t-43 -19z" />
    <glyph glyph-name="quotedbl" unicode="&#x22;" horiz-adv-x="265" 
d="M173 672l-44 -192h-35l15 193q3 37 36 37q15 0 23.5 -10.5t4.5 -27.5zM293 672l-44 -192h-35l15 193q3 37 36 37q15 0 23.5 -10.5t4.5 -27.5z" />
    <glyph glyph-name="numbersign" unicode="#" horiz-adv-x="643" 
d="M61 263h107l64 184h-125l14 42h126l77 221h43l-77 -221h194l78 221h43l-78 -221h105l-14 -42h-105l-65 -184h108l-14 -42h-108l-78 -221h-43l78 221h-195l-77 -221h-43l77 221h-106zM211 263h194l65 184h-195z" />
    <glyph glyph-name="dollar" unicode="$" horiz-adv-x="545" 
d="M193 -100l14 90q-160 19 -180 178h47q14 -118 140 -135l49 311l-28 10q-76 27 -110.5 69t-34.5 107q0 84 61 138t156 54h16l14 88h40l-15 -93q74 -13 117.5 -59t49.5 -118h-46q-11 113 -127 135l-48 -301l47 -17q134 -48 134 -171q0 -88 -65.5 -143.5t-169.5 -55.5h-7
l-14 -87h-40zM247 396l23 -8l46 291h-9q-77 0 -124 -41t-47 -108q0 -50 26.5 -81.5t84.5 -52.5zM340 316l-39 14l-47 -300q84 0 136.5 43.5t52.5 112.5q0 50 -24 80.5t-79 49.5z" />
    <glyph glyph-name="percent" unicode="%" horiz-adv-x="868" 
d="M436 580q0 -80 -56.5 -138.5t-133.5 -58.5q-62 0 -102.5 40.5t-40.5 102.5q0 80 56.5 138.5t133.5 58.5q61 0 102 -40.5t41 -102.5zM796 710l-637 -710h-52l637 710h52zM394 576q0 49 -28.5 78.5t-75.5 29.5q-59 0 -102 -46t-43 -108q0 -49 28.5 -78.5t75.5 -29.5
q59 0 102 46t43 108zM802 184q0 -80 -56.5 -138.5t-133.5 -58.5q-62 0 -102.5 40.5t-40.5 102.5q0 80 56.5 138.5t133.5 58.5q61 0 102 -40.5t41 -102.5zM760 180q0 49 -28.5 78.5t-75.5 29.5q-59 0 -102 -46t-43 -108q0 -49 28.5 -78.5t75.5 -29.5q59 0 102 46t43 108z" />
    <glyph glyph-name="ampersand" unicode="&#x26;" horiz-adv-x="645" 
d="M545 0l-59 85q-96 -98 -239 -98q-96 0 -154.5 50.5t-58.5 132.5q0 74 50.5 128.5t173.5 113.5q-40 58 -54.5 92.5t-14.5 70.5q0 62 44.5 104t111.5 42q60 0 98.5 -34.5t38.5 -87.5q0 -61 -38.5 -107.5t-126.5 -92.5l172 -247q48 69 64 166h44q-19 -118 -83 -202l81 -116
h-50zM290 438l6 -9q142 67 142 169q0 39 -25.5 61.5t-69.5 22.5q-46 0 -78 -31.5t-32 -75.5q0 -34 11.5 -61.5t45.5 -75.5zM78 170q0 -64 47.5 -104t122.5 -40q131 0 215 92l-184 264q-111 -52 -156 -99.5t-45 -112.5z" />
    <glyph glyph-name="quotesingle" unicode="'" horiz-adv-x="145" 
d="M173 672l-44 -192h-35l15 193q3 37 36 37q15 0 23.5 -10.5t4.5 -27.5z" />
    <glyph glyph-name="parenleft" unicode="(" horiz-adv-x="225" 
d="M163 -143h-45q-64 137 -64 312q0 149 54 304.5t146 272.5h50q-93 -110 -149.5 -269.5t-56.5 -313.5q0 -185 65 -306z" />
    <glyph glyph-name="parenright" unicode=")" horiz-adv-x="225" 
d="M-10 -143h-50q93 110 149.5 269.5t56.5 313.5q0 185 -65 306h45q64 -137 64 -312q0 -149 -54 -304.5t-146 -272.5z" />
    <glyph glyph-name="asterisk" unicode="*" horiz-adv-x="388" 
d="M147 571l-59 22l18 35l54 -20q50 -19 75 -37q-3 34 6 88l10 64h37l-10 -64q-9 -52 -20 -89q45 25 82 38l62 21l10 -38l-63 -21q-45 -15 -88 -22q28 -31 47 -69l27 -52l-32 -21l-29 53q-25 44 -32 77q-18 -34 -56 -78l-44 -52l-31 23l43 52q23 28 69 68q-40 8 -76 22z" />
    <glyph glyph-name="plus" unicode="+" horiz-adv-x="660" 
d="M104 358h224l36 229h43l-36 -229h223l-7 -42h-223l-36 -230h-43l36 230h-224z" />
    <glyph glyph-name="comma" unicode="," horiz-adv-x="245" 
d="M143 44q0 -42 -33 -79.5t-77 -44.5l5 31q24 6 41.5 22.5t20.5 34.5q-10 -8 -27 -8q-15 0 -25 9.5t-10 26.5q0 25 17.5 43t41.5 18q20 0 33 -14t13 -39z" />
    <glyph glyph-name="hyphen" unicode="-" horiz-adv-x="399" 
d="M65 241l6 40h269l-6 -40h-269z" />
    <glyph glyph-name="period" unicode="." horiz-adv-x="246" 
d="M83 -11q-19 0 -32 13.5t-13 31.5q0 24 19.5 43.5t42.5 19.5q19 0 32 -13t13 -33q0 -24 -19 -43t-43 -19z" />
    <glyph glyph-name="slash" unicode="/" horiz-adv-x="315" 
d="M7 0h-45l382 710h45z" />
    <glyph glyph-name="zero" unicode="0" horiz-adv-x="663" 
d="M73 269q0 192 92.5 322.5t228.5 130.5q112 0 172 -76t60 -206q0 -192 -92.5 -322.5t-228.5 -130.5q-112 0 -172 76t-60 206zM117 272q0 -113 50 -177.5t144 -64.5q115 0 193 118.5t78 288.5q0 113 -50 177.5t-144 64.5q-115 0 -193 -118.5t-78 -288.5z" />
    <glyph glyph-name="one" unicode="1" horiz-adv-x="300" 
d="M238 668h-136l7 42h180l-112 -710h-44z" />
    <glyph glyph-name="two" unicode="2" horiz-adv-x="540" 
d="M452 0h-445l6 38l275 207q106 80 152.5 147.5t46.5 141.5q0 65 -43 106t-113 41q-158 0 -193 -201h-47q43 243 243 243q87 0 143.5 -53.5t56.5 -135.5q0 -85 -50.5 -158t-171.5 -165l-223 -169h370z" />
    <glyph glyph-name="three" unicode="3" horiz-adv-x="556" 
d="M270 395h-42l6 34l264 239h-350l7 42h413l-6 -38l-263 -238q92 -5 149 -65t57 -152q0 -100 -68 -164.5t-174 -64.5q-100 0 -162.5 62t-62.5 162h46q0 -83 48.5 -132.5t128.5 -49.5q89 0 144 51t55 135q0 83 -51 131t-139 48z" />
    <glyph glyph-name="four" unicode="4" horiz-adv-x="617" 
d="M93 200h327l72 453zM539 158h-81l-25 -158h-45l25 158h-381l7 42l448 510h59l-81 -510h81z" />
    <glyph glyph-name="five" unicode="5" horiz-adv-x="564" 
d="M288 -12q-104 0 -169.5 62t-65.5 162h46q0 -83 51.5 -133.5t135.5 -50.5q83 0 136 57t53 151q0 86 -50.5 136.5t-134.5 50.5q-100 0 -169 -78l-27 14l138 351h323l-7 -42h-287l-97 -246q59 43 133 43q99 0 161 -64t62 -164q0 -110 -66 -179.5t-166 -69.5z" />
    <glyph glyph-name="six" unicode="6" horiz-adv-x="589" 
d="M167 465l219 245h57l-229 -252q57 25 108 25q98 0 157.5 -60.5t59.5 -159.5q0 -115 -76.5 -195t-185.5 -80q-100 0 -163.5 63t-63.5 162q0 67 26.5 124t90.5 128zM95 213q0 -80 51.5 -131.5t131.5 -51.5q91 0 153.5 66.5t62.5 163.5q0 86 -46.5 133.5t-130.5 47.5
q-92 0 -157 -66.5t-65 -161.5z" />
    <glyph glyph-name="seven" unicode="7" horiz-adv-x="499" 
d="M84 710h479l-6 -42l-388 -668h-50l388 668h-429z" />
    <glyph glyph-name="eight" unicode="8" horiz-adv-x="589" 
d="M45 179q0 78 47.5 132.5t127.5 73.5q-95 42 -95 148q0 85 66.5 137.5t165.5 52.5q87 0 144.5 -49.5t57.5 -121.5q0 -70 -39 -116.5t-106 -65.5q55 -19 85 -62t30 -102q0 -98 -72 -158.5t-182 -60.5q-103 0 -166.5 53.5t-63.5 138.5zM171 533q0 -67 45.5 -101.5
t118.5 -34.5q80 0 129 41t49 114q0 57 -45 93t-119 36q-76 0 -127 -41t-51 -107zM90 180q0 -69 51 -110t135 -41q91 0 149.5 48t58.5 129q0 69 -50.5 109t-136.5 40q-92 0 -149.5 -47t-57.5 -128z" />
    <glyph glyph-name="nine" unicode="9" horiz-adv-x="589" 
d="M459 245l-219 -245h-57l229 252q-57 -25 -108 -25q-98 0 -157.5 60.5t-59.5 159.5q0 115 76.5 195t185.5 80q100 0 163.5 -63t63.5 -162q0 -67 -26.5 -124t-90.5 -128zM531 497q0 80 -51.5 131.5t-131.5 51.5q-91 0 -153.5 -66.5t-62.5 -163.5q0 -86 46.5 -133.5
t130.5 -47.5q92 0 157 66.5t65 161.5z" />
    <glyph glyph-name="colon" unicode=":" horiz-adv-x="266" 
d="M155 381q-19 0 -32 13.5t-13 31.5q0 24 19.5 43.5t42.5 19.5q19 0 32 -13t13 -33q0 -24 -19 -43t-43 -19zM93 -11q-19 0 -32 13.5t-13 31.5q0 24 19.5 43.5t42.5 19.5q19 0 32 -13t13 -33q0 -24 -19 -43t-43 -19z" />
    <glyph glyph-name="semicolon" unicode=";" horiz-adv-x="266" 
d="M156 381q-19 0 -32 13.5t-13 31.5q0 24 19.5 43.5t42.5 19.5q19 0 32 -13t13 -33q0 -24 -19 -43t-43 -19zM152 44q0 -42 -33 -79.5t-77 -44.5l5 31q24 6 41.5 22.5t20.5 34.5q-10 -8 -27 -8q-15 0 -25 9.5t-10 26.5q0 25 17.5 43t41.5 18q20 0 33 -14t13 -39z" />
    <glyph glyph-name="less" unicode="&#x3c;" horiz-adv-x="660" 
d="M550 83l-7 -42l-460 180l6 44l518 180l-7 -47l-459 -157z" />
    <glyph glyph-name="equal" unicode="=" horiz-adv-x="660" 
d="M113 416h490l-7 -42h-490zM81 214h490l-7 -42h-490z" />
    <glyph glyph-name="greater" unicode="&#x3e;" horiz-adv-x="660" 
d="M572 221l-518 -180l7 47l459 157l-409 158l7 42l460 -180z" />
    <glyph glyph-name="question" unicode="?" horiz-adv-x="490" 
d="M227 154h-43l5 27q8 47 37 83t96 82q71 50 101.5 94.5t30.5 99.5q0 63 -40.5 101t-107.5 38q-74 0 -122 -44.5t-59 -124.5h-47q16 98 78 155.5t152 57.5q84 0 138 -51.5t54 -131.5q0 -62 -37.5 -117t-117.5 -112q-59 -42 -82.5 -68.5t-30.5 -61.5zM183 -11q-19 0 -32 13
t-13 32q0 24 19.5 43.5t42.5 19.5q19 0 32 -13t13 -33q0 -24 -19 -43t-43 -19z" />
    <glyph glyph-name="at" unicode="@" horiz-adv-x="879" 
d="M248 213q0 64 48 101.5t139 44.5l153 12l3 18q10 60 -22.5 93.5t-95.5 33.5q-120 0 -135 -103h-43q11 68 56.5 105t122.5 37q79 0 124.5 -45t34.5 -115l-33 -208q-9 -62 56 -62t112.5 79t47.5 187q0 129 -90 211.5t-230 82.5q-169 0 -287 -123t-118 -298
q0 -142 86.5 -230t225.5 -88q136 0 234 73l19 -28q-108 -82 -254 -82q-154 0 -253 100t-99 255q0 194 129.5 326t319.5 132q155 0 256.5 -93.5t101.5 -236.5q0 -128 -58 -215.5t-143 -87.5q-50 0 -75 24.5t-20 70.5q-62 -94 -176 -94q-61 0 -99 34t-38 89zM289 213
q0 -40 26.5 -62t73.5 -22q75 0 127 50t63 134l3 22l-149 -12q-144 -12 -144 -110z" />
    <glyph glyph-name="A" unicode="A" horiz-adv-x="616" 
d="M25 0h-48l370 710h68l148 -710h-45l-42 200h-346zM370 664l-219 -422h316l-86 422q-3 13 -3 17q-1 -2 -3.5 -7.5t-4.5 -9.5z" />
    <glyph glyph-name="B" unicode="B" horiz-adv-x="611" 
d="M52 0l112 709h244q85 0 136.5 -45t51.5 -118q0 -68 -36.5 -117.5t-104.5 -72.5q102 -37 102 -152q0 -93 -66.5 -148.5t-176.5 -55.5h-262zM406 667h-204l-45 -290h214q80 0 129.5 46t49.5 122q0 56 -39 89t-105 33zM370 335h-220l-46 -293h220q86 0 137 44t51 118
q0 62 -37.5 96.5t-104.5 34.5z" />
    <glyph glyph-name="C" unicode="C" horiz-adv-x="707" 
d="M349 -11q-129 0 -208 86.5t-79 228.5q0 181 105 299.5t265 118.5q109 0 184 -63.5t83 -161.5h-46q-11 81 -72 131.5t-149 50.5q-141 0 -232.5 -106t-91.5 -269q0 -124 65.5 -197.5t176.5 -73.5q180 0 260 170h51q-90 -214 -312 -214z" />
    <glyph glyph-name="D" unicode="D" horiz-adv-x="683" 
d="M245 0h-193l112 710h183q145 0 228 -83.5t83 -216.5q0 -191 -116 -300.5t-297 -109.5zM342 669h-139l-99 -627h149q159 0 259 97.5t100 270.5q0 117 -71 188t-199 71z" />
    <glyph glyph-name="E" unicode="E" 
d="M461 0h-409l112 710h408l-6 -42h-363l-46 -291h330l-7 -42h-330l-47 -293h365z" />
    <glyph glyph-name="F" unicode="F" horiz-adv-x="524" 
d="M445 323h-297l-51 -323h-45l112 710h399l-6 -41h-354l-48 -304h297z" />
    <glyph glyph-name="G" unicode="G" horiz-adv-x="727" 
d="M432 679q-141 0 -232.5 -106t-91.5 -269q0 -124 65.5 -197.5t176.5 -73.5q116 0 191.5 66t94.5 183l8 52h-272l7 42h315l-60 -377h-33l14 129q-39 -65 -110.5 -102.5t-155.5 -37.5q-129 0 -208 87t-79 229q0 181 105 299.5t265 118.5q109 0 182.5 -55.5t84.5 -147.5h-46
q-11 74 -70.5 117t-150.5 43z" />
    <glyph glyph-name="H" unicode="H" horiz-adv-x="677" 
d="M97 0h-45l112 710h45l-51 -328h406l52 328h45l-112 -710h-45l53 340h-406z" />
    <glyph glyph-name="I" unicode="I" horiz-adv-x="225" 
d="M209 710l-112 -710h-45l112 710h45z" />
    <glyph glyph-name="J" unicode="J" horiz-adv-x="483" 
d="M13 193l3 22h45l-3 -22q-11 -76 21.5 -118.5t100.5 -42.5q72 0 111.5 39t53.5 122l82 517h45l-82 -517q-33 -205 -208 -205q-88 0 -135 57t-34 148z" />
    <glyph glyph-name="K" unicode="K" horiz-adv-x="579" 
d="M209 710l-71 -448l427 448h58l-287 -301l180 -409h-49l-165 373l-175 -184l-30 -189h-45l112 710h45z" />
    <glyph glyph-name="L" unicode="L" horiz-adv-x="487" 
d="M209 710l-105 -668h332l-7 -42h-377l112 710h45z" />
    <glyph glyph-name="M" unicode="M" horiz-adv-x="806" 
d="M98 0h-46l112 710h44l165 -655l367 655h50l-113 -710h-46l63 394q26 159 41 223l-345 -617h-47l-154 614q-3 -55 -29 -221z" />
    <glyph glyph-name="N" unicode="N" horiz-adv-x="680" 
d="M98 0h-46l112 710h46l309 -634l99 634h46l-112 -710h-44l-310 637z" />
    <glyph glyph-name="O" unicode="O" horiz-adv-x="753" 
d="M729 414q0 -177 -111 -301.5t-269 -124.5q-130 0 -209.5 84.5t-79.5 222.5q0 178 110.5 302.5t268.5 124.5q130 0 210 -85.5t80 -222.5zM683 414q0 119 -68 191.5t-180 72.5q-136 0 -232.5 -112.5t-96.5 -270.5q0 -119 67.5 -191t179.5 -72q137 0 233.5 112t96.5 270z
" />
    <glyph glyph-name="P" unicode="P" horiz-adv-x="595" 
d="M343 267h-204l-42 -267h-45l112 710h240q89 0 145 -54.5t56 -139.5q0 -113 -71.5 -181t-190.5 -68zM397 668h-195l-56 -359h197q100 0 158 55.5t58 151.5q0 68 -44.5 110t-117.5 42z" />
    <glyph glyph-name="Q" unicode="Q" horiz-adv-x="753" 
d="M598 -34l-57 80q-89 -58 -192 -58q-130 0 -209.5 84.5t-79.5 222.5q0 178 110.5 302.5t268.5 124.5q130 0 210 -85.5t80 -222.5q0 -103 -41 -193t-112 -149l56 -78zM683 414q0 119 -68 191.5t-180 72.5q-136 0 -232.5 -112.5t-96.5 -270.5q0 -119 67.5 -191t179.5 -72
q86 0 162 49l-75 104l34 29l76 -106q62 53 97.5 133.5t35.5 172.5z" />
    <glyph glyph-name="R" unicode="R" horiz-adv-x="612" 
d="M97 0h-45l112 710h256q85 0 135.5 -48.5t50.5 -130.5t-50.5 -141.5t-136.5 -76.5l106 -313h-47l-104 308h-228zM203 668l-51 -318h213q89 0 142 49t53 132q0 65 -38.5 101t-107.5 36h-211z" />
    <glyph glyph-name="S" unicode="S" horiz-adv-x="545" 
d="M90 530q0 84 61 138t156 54q97 0 156 -48.5t66 -133.5h-46q-7 67 -52.5 103t-123.5 36q-77 0 -124 -41t-47 -108q0 -50 26.5 -81.5t84.5 -52.5l108 -39q134 -48 134 -171q0 -88 -65.5 -143.5t-169.5 -55.5q-204 0 -227 181h47q8 -66 54 -102t126 -36q84 0 136.5 43.5
t52.5 112.5q0 50 -24 80.5t-79 49.5l-105 38q-76 27 -110.5 69t-34.5 107z" />
    <glyph glyph-name="T" unicode="T" horiz-adv-x="500" 
d="M78 669l6 41h480l-6 -41h-218l-106 -669h-45l106 669h-217z" />
    <glyph glyph-name="U" unicode="U" horiz-adv-x="666" 
d="M85 238l75 472h45l-75 -471q-15 -96 33 -151t146 -55q95 0 152.5 52.5t73.5 153.5l75 471h45l-75 -472q-20 -122 -89.5 -186t-181.5 -64q-116 0 -178.5 70t-45.5 180z" />
    <glyph glyph-name="V" unicode="V" horiz-adv-x="602" 
d="M239 0l-155 710h45l117 -535q15 -66 24 -120q18 39 62 121l285 534h49l-379 -710h-48z" />
    <glyph glyph-name="W" unicode="W" horiz-adv-x="934" 
d="M183 0l-94 710h45l70 -543q5 -41 8 -106q22 55 47 106l258 543h47l85 -543q10 -59 13 -105q15 48 40 105l245 543h46l-319 -710h-41l-103 644l-305 -644h-42z" />
    <glyph glyph-name="X" unicode="X" horiz-adv-x="569" 
d="M275 356l-191 354h50l116 -215q35 -65 54 -109l271 324h53l-299 -356l192 -354h-50l-123 226q-19 36 -48 96l-269 -322h-55z" />
    <glyph glyph-name="Y" unicode="Y" horiz-adv-x="533" 
d="M256 304l-172 406h49l136 -330q8 -18 14 -36q9 15 25 36l237 330h52l-296 -406l-48 -304h-45z" />
    <glyph glyph-name="Z" unicode="Z" horiz-adv-x="565" 
d="M482 0h-475l6 41l524 627h-422l6 42h478l-6 -41l-525 -627h421z" />
    <glyph glyph-name="bracketleft" unicode="[" horiz-adv-x="228" 
d="M46 -7h138l-6 -38h-178l126 800h178l-6 -38h-138z" />
    <glyph glyph-name="backslash" unicode="\" horiz-adv-x="315" 
d="M117 710l159 -710h-40l-160 710h41z" />
    <glyph glyph-name="bracketright" unicode="]" horiz-adv-x="228" 
d="M-39 -45l6 38h138l114 724h-138l6 38h178l-126 -800h-178z" />
    <glyph glyph-name="asciicircum" unicode="^" horiz-adv-x="464" 
d="M151 400h-46l179 310h43l82 -310h-42l-67 260z" />
    <glyph glyph-name="underscore" unicode="_" horiz-adv-x="497" 
d="M12 -65l7 45h377l-7 -45h-377z" />
    <glyph glyph-name="grave" unicode="`" horiz-adv-x="193" 
d="M226 765h-38l-46 106h50z" />
    <glyph glyph-name="a" unicode="a" horiz-adv-x="502" 
d="M169 -12q-63 0 -101 34.5t-38 91.5q0 71 53.5 115t148.5 52l163 13l3 15q13 68 -17.5 105t-101.5 37q-132 0 -152 -113h-45q11 73 63.5 113.5t134.5 40.5q88 0 132.5 -47t31.5 -126l-50 -319h-37l7 90q-31 -48 -82.5 -75t-112.5 -27zM179 28q81 0 137 54.5t70 147.5l4 26
l-161 -13q-73 -6 -114 -40t-41 -89q0 -39 28.5 -62.5t76.5 -23.5z" />
    <glyph glyph-name="b" unicode="b" 
d="M75 0h-37l114 722h43l-55 -347q70 117 194 117q84 0 136.5 -57.5t52.5 -149.5q0 -126 -73.5 -211.5t-182.5 -85.5q-65 0 -109.5 31.5t-59.5 88.5zM116 190q0 -78 39.5 -120t112.5 -42q90 0 150.5 73.5t60.5 183.5q0 76 -40.5 121.5t-108.5 45.5q-91 0 -152.5 -75.5
t-61.5 -186.5z" />
    <glyph glyph-name="c" unicode="c" horiz-adv-x="496" 
d="M36 201q0 123 72.5 207t179.5 84q75 0 122 -39.5t57 -112.5h-45q-7 52 -43 82t-91 30q-88 0 -148 -72.5t-60 -178.5q0 -77 43 -125t112 -48q58 0 102.5 30t63.5 81h46q-24 -70 -81 -110.5t-131 -40.5q-87 0 -143 60t-56 153z" />
    <glyph glyph-name="d" unicode="d" 
d="M225 -12q-84 0 -136.5 57.5t-52.5 149.5q0 126 73.5 211.5t182.5 85.5q65 0 109.5 -31.5t59.5 -88.5l55 350h43l-114 -722h-37l11 105q-70 -117 -194 -117zM229 28q91 0 152.5 75.5t61.5 186.5q0 78 -39.5 120t-112.5 42q-90 0 -150.5 -73.5t-60.5 -183.5
q0 -76 40.5 -121.5t108.5 -45.5z" />
    <glyph glyph-name="e" unicode="e" horiz-adv-x="505" 
d="M235 -12q-87 0 -143 60t-56 153q0 123 72.5 207t179.5 84q95 0 147 -63.5t37 -157.5l-5 -31h-385q-2 -26 -2 -39q0 -77 43 -125t112 -48q58 0 104.5 29.5t65.5 79.5h45q-24 -70 -82 -109.5t-133 -39.5zM288 452q-70 0 -124.5 -49t-74.5 -127h339q13 79 -26.5 127.5
t-113.5 48.5z" />
    <glyph glyph-name="f" unicode="f" horiz-adv-x="272" 
d="M58 480h74l17 109q21 133 132 133q32 0 47 -3l-6 -38q-4 0 -17 0.5t-23 0.5q-40 0 -61 -21.5t-29 -71.5l-17 -109h110l-6 -38h-110l-70 -442h-43l70 442h-74z" />
    <glyph glyph-name="g" unicode="g" 
d="M38 215q0 116 74 196.5t182 80.5q63 0 106.5 -31t58.5 -87l25 106h37l-74 -470q-17 -108 -78 -165.5t-159 -57.5q-88 0 -143.5 47.5t-58.5 126.5h44q3 -62 45.5 -98t112.5 -36q80 0 130 47.5t64 135.5l21 129q-33 -58 -84.5 -89.5t-113.5 -31.5q-85 0 -137 54.5
t-52 142.5zM82 215q0 -71 39.5 -114t105.5 -43q90 0 151 69t61 172q0 71 -39.5 112t-107.5 41q-88 0 -149 -68.5t-61 -168.5z" />
    <glyph glyph-name="h" unicode="h" horiz-adv-x="540" 
d="M81 0h-43l114 722h43l-53 -338q68 108 182 108q83 0 125.5 -54.5t28.5 -145.5l-46 -292h-43l45 283q13 83 -16.5 126t-98.5 43q-77 0 -130.5 -55.5t-68.5 -149.5z" />
    <glyph glyph-name="i" unicode="i" horiz-adv-x="195" 
d="M159 628q-15 0 -25 10t-10 24q0 20 13.5 34.5t32.5 14.5q15 0 25 -10t10 -24q0 -20 -13.5 -34.5t-32.5 -14.5zM38 0l76 480h43l-76 -480h-43z" />
    <glyph glyph-name="j" unicode="j" horiz-adv-x="193" 
d="M157 628q-15 0 -25 10t-10 24q0 20 13.5 34.5t32.5 14.5q15 0 25 -10t10 -24q0 -20 -13.5 -34.5t-32.5 -14.5zM-124 -203l13 41q21 -8 47 -8q73 0 88 96l88 554h43l-88 -554q-10 -67 -44.5 -102t-88.5 -35q-32 0 -58 8z" />
    <glyph glyph-name="k" unicode="k" horiz-adv-x="448" 
d="M85 0h-43l114 722h43l-81 -511l299 269h57l-212 -192l138 -288h-47l-123 260l-121 -109z" />
    <glyph glyph-name="l" unicode="l" horiz-adv-x="203" 
d="M85 0h-43l114 722h43z" />
    <glyph glyph-name="m" unicode="m" horiz-adv-x="809" 
d="M81 0h-43l76 480h34l-5 -74q53 86 155 86q57 0 93.5 -31t43.5 -83q24 53 69.5 83.5t103.5 30.5q74 0 113.5 -49.5t27.5 -128.5l-48 -314h-43l48 308q11 68 -16.5 106t-88.5 38q-59 0 -105 -41t-56 -103l-49 -308h-43l50 310q11 65 -18 103.5t-89 38.5q-59 0 -105 -41
t-56 -102z" />
    <glyph glyph-name="n" unicode="n" horiz-adv-x="540" 
d="M81 0h-43l76 480h34l-6 -96q68 108 182 108q83 0 125.5 -54.5t28.5 -145.5l-46 -292h-43l45 283q13 83 -16.5 126t-98.5 43q-77 0 -130.5 -55.5t-68.5 -149.5z" />
    <glyph glyph-name="o" unicode="o" horiz-adv-x="545" 
d="M36 206q0 118 79.5 202t189.5 84q91 0 147.5 -60.5t56.5 -157.5q0 -118 -79.5 -202t-189.5 -84q-91 0 -147.5 60.5t-56.5 157.5zM80 206q0 -82 44.5 -130t121.5 -48q90 0 154.5 72.5t64.5 173.5q0 82 -44.5 130t-121.5 48q-90 0 -154.5 -72.5t-64.5 -173.5z" />
    <glyph glyph-name="p" unicode="p" 
d="M6 -202l108 682h37l-11 -105q70 117 194 117q84 0 136.5 -57.5t52.5 -149.5q0 -126 -73.5 -211.5t-182.5 -85.5q-65 0 -109.5 31.5t-59.5 88.5l-49 -310h-43zM116 190q0 -78 39.5 -120t112.5 -42q90 0 150.5 73.5t60.5 183.5q0 76 -40.5 121.5t-108.5 45.5
q-91 0 -152.5 -75.5t-61.5 -186.5z" />
    <glyph glyph-name="q" unicode="q" 
d="M36 195q0 126 73.5 211.5t182.5 85.5q65 0 109.5 -31.5t59.5 -88.5l26 108h34l-108 -683h-43l49 308q-70 -117 -194 -117q-84 0 -136.5 57.5t-52.5 149.5zM80 195q0 -76 40.5 -121.5t108.5 -45.5q91 0 152.5 75.5t61.5 186.5q0 78 -39.5 120t-112.5 42
q-90 0 -150.5 -73.5t-60.5 -183.5z" />
    <glyph glyph-name="r" unicode="r" horiz-adv-x="318" 
d="M337 487l-6 -38h-35q-63 0 -110 -43.5t-58 -111.5l-47 -294h-43l76 480h37l-8 -85q18 44 59 70.5t91 26.5q21 0 44 -5z" />
    <glyph glyph-name="s" unicode="s" horiz-adv-x="412" 
d="M13 125h45q0 -43 33.5 -70t85.5 -27q57 0 92.5 27.5t35.5 71.5q0 32 -16 51.5t-54 32.5l-76 27q-100 36 -100 123q0 58 45.5 94.5t117.5 36.5q73 0 114 -37t41 -103h-45q-2 52 -29 76t-83 24q-53 0 -85 -25t-32 -66q0 -60 72 -86l75 -27q53 -19 76 -47t23 -74
q0 -61 -48.5 -100t-123.5 -39q-72 0 -118 38.5t-46 98.5z" />
    <glyph glyph-name="t" unicode="t" horiz-adv-x="273" 
d="M120 0h-43l70 442h-95l6 38h95l24 152h43l-24 -152h95l-6 -38h-95z" />
    <glyph glyph-name="u" unicode="u" horiz-adv-x="530" 
d="M449 480h43l-76 -480h-34l8 96q-68 -108 -179 -108q-80 0 -121.5 55t-27.5 145l46 292h43l-45 -283q-13 -83 15.5 -126t94.5 -43q76 0 127.5 55t66.5 150z" />
    <glyph glyph-name="v" unicode="v" horiz-adv-x="454" 
d="M167 0l-119 480h44l85 -353q11 -41 17 -82q23 46 43 82l198 353h47l-271 -480h-44z" />
    <glyph glyph-name="w" unicode="w" horiz-adv-x="701" 
d="M134 0l-81 480h44l54 -330q8 -45 13 -94q15 41 41 94l161 330h45l53 -330q7 -40 13 -93q24 57 41 93l161 330h45l-233 -480h-44l-56 347q-8 43 -9 75q-5 -13 -35 -75l-169 -347h-44z" />
    <glyph glyph-name="x" unicode="x" horiz-adv-x="419" 
d="M27 0h-55l210 242l-133 238h49l116 -209l179 209h53l-208 -241l133 -239h-49l-115 211z" />
    <glyph glyph-name="y" unicode="y" horiz-adv-x="435" 
d="M-46 -202l6 35h43q27 0 42 2t37.5 18t38.5 48l35 69l-108 510h44l95 -450l230 450h46l-302 -591q-50 -97 -145 -97q-35 0 -62 6z" />
    <glyph glyph-name="z" unicode="z" horiz-adv-x="422" 
d="M344 0h-342l5 33l350 409h-285l6 38h342l-6 -36l-348 -407h284z" />
    <glyph glyph-name="braceleft" unicode="{" horiz-adv-x="260" 
d="M60 335l7 42q78 0 87 60l37 234q14 84 97 84h48l-6 -38h-50q-19 0 -32.5 -13t-16.5 -33l-36 -234q-5 -34 -21 -54t-49 -29q52 -18 43 -79l-37 -238q-3 -19 7 -31.5t28 -12.5h50l-6 -38h-48q-35 0 -55.5 24t-15.5 58l37 238q5 31 -11.5 45.5t-56.5 14.5z" />
    <glyph glyph-name="bar" unicode="|" horiz-adv-x="298" 
d="M79 -84l139 878h38l-139 -878h-38z" />
    <glyph glyph-name="braceright" unicode="}" horiz-adv-x="260" 
d="M9 -45h-48l6 38h50q19 0 32.5 13t16.5 33l36 235q5 34 21 54t49 29q-52 18 -43 79l37 237q3 19 -7 31.5t-28 12.5h-50l6 38h48q35 0 55.5 -24t15.5 -58l-37 -237q-5 -31 11.5 -45.5t56.5 -14.5l-7 -42q-78 0 -87 -60l-37 -235q-14 -84 -97 -84z" />
    <glyph glyph-name="asciitilde" unicode="~" horiz-adv-x="660" 
d="M544 356h45q-23 -141 -133 -141q-34 0 -70.5 16.5t-63 36.5t-58.5 36.5t-57 16.5q-36 0 -56.5 -22.5t-30.5 -73.5h-45q10 67 45.5 102.5t91.5 35.5q38 0 82.5 -26.5t87 -53t77.5 -26.5q34 0 54 23t31 76z" />
    <glyph glyph-name="exclamdown" unicode="&#xa1;" horiz-adv-x="246" 
d="M199 721q19 0 32 -13.5t13 -31.5q0 -24 -19.5 -43.5t-42.5 -19.5q-19 0 -32 13t-13 33q0 24 19 43t43 19zM149 497h28q-13 -123 -45 -326l-27 -171h-42l27 171q37 230 59 326z" />
    <glyph glyph-name="cent" unicode="&#xa2;" horiz-adv-x="516" 
d="M213 -1l17 109q-74 11 -119.5 68.5t-45.5 140.5q0 118 67.5 199.5t168.5 87.5l16 106h42l-16 -106q64 -7 103.5 -46t49.5 -105h-45q-7 52 -43 82t-91 30q-88 0 -148 -71.5t-60 -176.5q0 -77 43 -124.5t112 -47.5q58 0 102.5 30t63.5 81h46q-23 -68 -78 -108.5t-126 -42.5
l-17 -106h-42z" />
    <glyph glyph-name="sterling" unicode="&#xa3;" horiz-adv-x="579" 
d="M302 0h-306l7 42q67 13 113 76.5t46 142.5q0 37 -8 77h-99l7 40h84q-20 86 -20 130q0 92 62.5 153t157.5 61q93 0 148.5 -48t62.5 -134h-45q-14 139 -166 139q-76 0 -125.5 -48.5t-49.5 -122.5q0 -42 20 -130h255l-7 -40h-240q8 -40 8 -76q0 -78 -35.5 -138t-96.5 -84
h235q78 0 119.5 41t55.5 132h46q-18 -112 -72 -162.5t-157 -50.5z" />
    <glyph glyph-name="currency" unicode="&#xa4;" horiz-adv-x="583" 
d="M486 108l-62 75q-60 -44 -137 -44q-78 0 -133 50l-94 -82l-26 31l95 82q-33 47 -33 110q0 98 67 163l-61 72l30 27l61 -74q59 42 134 42q78 0 133 -50l94 82l26 -31l-95 -82q33 -47 33 -110q0 -94 -64 -160l62 -74zM475 367q0 67 -41.5 110t-106.5 43q-82 0 -135 -53
t-53 -135q0 -67 41.5 -110t106.5 -43q82 0 135 53t53 135z" />
    <glyph glyph-name="yen" unicode="&#xa5;" horiz-adv-x="552" 
d="M245 169h-182l6 40h183l12 82h-182l7 40h166l-161 379h47l151 -369l264 369h50l-277 -379h166l-7 -40h-181l-12 -82h180l-6 -40h-181l-27 -169h-43z" />
    <glyph glyph-name="brokenbar" unicode="&#xa6;" horiz-adv-x="299" 
d="M256 794l-58 -364h-38l58 364h38zM79 -84l58 365h38l-58 -365h-38z" />
    <glyph glyph-name="section" unicode="&#xa7;" horiz-adv-x="448" 
d="M427 367q0 -51 -37.5 -87t-101.5 -47q81 -36 81 -109q0 -62 -44.5 -98.5t-119.5 -36.5q-71 0 -115 38.5t-44 101.5h43q0 -46 32 -73t86 -27q56 0 87 24.5t31 69.5q0 69 -98 93l-68 17q-101 25 -101 112q0 51 38 87t101 47q-81 36 -81 109q0 62 44.5 98.5t119.5 36.5
q71 0 115 -38.5t44 -101.5h-43q0 46 -32 73t-86 27q-56 0 -87 -24.5t-31 -69.5q0 -69 98 -93l68 -17q101 -25 101 -112zM383 367q0 41 -35.5 63t-99.5 22t-105 -30t-41 -77q0 -41 35.5 -63t99.5 -22t105 30t41 77z" />
    <glyph glyph-name="dieresis" unicode="&#xa8;" horiz-adv-x="344" 
d="M192 788q-15 0 -25 10t-10 24q0 20 13.5 34.5t32.5 14.5q15 0 25 -10t10 -24q0 -20 -13.5 -34.5t-32.5 -14.5zM321 788q-15 0 -25 10t-10 24q0 20 13.5 34.5t32.5 14.5q15 0 25 -10t10 -24q0 -20 -13.5 -34.5t-32.5 -14.5z" />
    <glyph glyph-name="copyright" unicode="&#xa9;" horiz-adv-x="807" 
d="M387 -13q-144 0 -237 92t-93 234q0 168 118 289t282 121q144 0 237 -91.5t93 -232.5q0 -168 -118.5 -290t-281.5 -122zM390 24q146 0 251.5 111t105.5 264q0 127 -81.5 207t-211.5 80q-146 0 -251.5 -110.5t-105.5 -262.5q0 -128 81.5 -208.5t211.5 -80.5zM240 324
q0 99 57 164t145 65q63 0 104.5 -34.5t47.5 -91.5h-45q-6 42 -34 64.5t-75 22.5q-68 0 -112.5 -53.5t-44.5 -134.5q0 -61 35.5 -98.5t91.5 -37.5q47 0 80 24t45 67h44q-20 -62 -64.5 -96t-106.5 -34q-72 0 -120 49.5t-48 123.5z" />
    <glyph glyph-name="guillemotleft" unicode="&#xab;" horiz-adv-x="534" 
d="M208 0l-168 240l244 240h48l-248 -243l166 -237h-42zM408 0l-168 240l244 240h48l-248 -243l166 -237h-42z" />
    <glyph glyph-name="logicalnot" unicode="&#xac;" horiz-adv-x="660" 
d="M546 318l-39 -242h-44l32 200h-404l7 42h448z" />
    <glyph glyph-name="registered" unicode="&#xae;" horiz-adv-x="463" 
d="M261 336q-79 0 -127.5 47t-48.5 123q0 91 60.5 154t148.5 63q79 0 127.5 -47t48.5 -123q0 -91 -60.5 -154t-148.5 -63zM261 361q76 0 128 55.5t52 136.5q0 65 -40 105t-107 40q-76 0 -128 -55.5t-52 -136.5q0 -65 40 -105t107 -40zM222 424h-31l34 216h76q31 0 48 -16
t17 -43q0 -51 -55 -68l34 -89h-33l-30 82h-47zM334 579q0 32 -39 32h-43l-12 -76h43q23 0 37 12t14 32z" />
    <glyph glyph-name="macron" unicode="&#xaf;" horiz-adv-x="336" 
d="M153 828l6 40h210l-6 -40h-210z" />
    <glyph glyph-name="degree" unicode="&#xb0;" horiz-adv-x="239" 
d="M288 622q0 -53 -33.5 -87.5t-85.5 -34.5q-43 0 -71.5 28.5t-28.5 71.5q0 53 33.5 87.5t85.5 34.5q43 0 71.5 -28.5t28.5 -71.5zM249 620q0 31 -17.5 48.5t-46.5 17.5q-34 0 -55.5 -23.5t-21.5 -60.5q0 -31 17.5 -48.5t46.5 -17.5q34 0 55.5 23.5t21.5 60.5z" />
    <glyph glyph-name="plusminus" unicode="&#xb1;" horiz-adv-x="660" 
d="M108 387h224l32 199h43l-32 -199h223l-6 -42h-223l-32 -199h-43l32 199h-224zM47 0l7 42h490l-7 -42h-490z" />
    <glyph glyph-name="twosuperior" unicode="&#xb2;" horiz-adv-x="331" 
d="M318 330h-277l6 36l178 134q96 72 96 149q0 37 -21.5 57.5t-59.5 20.5q-45 0 -74 -29t-37 -80h-40q11 69 52 109t101 40q54 0 87.5 -32.5t33.5 -85.5q0 -91 -118 -179l-133 -100h212z" />
    <glyph glyph-name="threesuperior" unicode="&#xb3;" horiz-adv-x="341" 
d="M123 559h-25l4 31l157 130h-207l6 40h255l-7 -45l-142 -117q49 -3 81 -34t32 -79q0 -68 -47.5 -115t-118.5 -47q-63 0 -97 39t-24 99h40q-7 -45 15.5 -72t67.5 -27q51 0 86.5 34t35.5 83q0 65 -72 78q-12 2 -40 2z" />
    <glyph glyph-name="acute" unicode="&#xb4;" horiz-adv-x="195" 
d="M251 870l-82 -105h-42l69 105h55z" />
    <glyph glyph-name="micro" unicode="&#xb5;" horiz-adv-x="530" 
d="M43 -202h-43l108 683h44l-49 -307q-11 -70 20 -108t93 -38q76 0 127.5 55t66.5 150l39 247h43l-76 -480h-34l8 96q-68 -108 -179 -108q-42 0 -77.5 20t-49.5 51z" />
    <glyph glyph-name="paragraph" unicode="&#xb6;" horiz-adv-x="552" 
d="M72 482q0 98 62 163t156 65h103l-121 -767h-44l57 364h-49q-69 0 -116.5 50.5t-47.5 124.5zM395 -59h-45l121 769h45z" />
    <glyph glyph-name="periodcentered" unicode="&#xb7;" horiz-adv-x="244" 
d="M111 170q-27 0 -45.5 19t-18.5 45q0 34 27.5 62t60.5 28q28 0 46 -18.5t18 -46.5q0 -35 -27 -62t-61 -27z" />
    <glyph glyph-name="cedilla" unicode="&#xb8;" horiz-adv-x="216" 
d="M-23 -155l6 36q23 -15 49 -15q48 0 48 34q0 29 -34 29q-20 0 -50 -13l-4 22l54 88h22l-4 -26l-25 -42q9 3 19 3q26 0 43.5 -16t17.5 -40q0 -34 -24 -54t-64 -20q-35 0 -54 14z" />
    <glyph glyph-name="onesuperior" unicode="&#xb9;" horiz-adv-x="203" 
d="M118 720h-88l6 40h129l-68 -430h-41z" />
    <glyph glyph-name="guillemotright" unicode="&#xbb;" horiz-adv-x="534" 
d="M126 480l168 -240l-244 -240h-48l248 243l-166 237h42zM326 480l168 -240l-244 -240h-48l248 243l-166 237h42z" />
    <glyph glyph-name="onequarter" unicode="&#xbc;" horiz-adv-x="527" 
d="M163 675h-72l5 35h110l-51 -325h-38zM578 710l-557 -710h-46l556 710h47zM397 67h-157l6 36l178 222h49l-33 -222h39l-6 -36h-39l-11 -67h-37zM288 103h115l26 175z" />
    <glyph glyph-name="onehalf" unicode="&#xbd;" horiz-adv-x="566" 
d="M163 675h-72l5 35h110l-51 -325h-38zM578 710l-557 -710h-46l556 710h47zM506 0h-216l4 27l142 109q32 24 46.5 46.5t14.5 53.5q0 26 -16 42t-43 16q-30 0 -51 -19t-26 -51h-41q8 49 41 77.5t80 28.5q42 0 69.5 -26.5t27.5 -67.5q0 -38 -20 -67.5t-61 -61.5l-90 -70h145z
" />
    <glyph glyph-name="threequarters" unicode="&#xbe;" horiz-adv-x="573" 
d="M61 486h39q0 -32 19 -51t50 -19q32 0 51 18.5t19 50.5q0 31 -22 50t-58 19h-18l4 27l106 92h-145l6 37h195l-6 -38l-102 -88q36 -8 58.5 -35.5t22.5 -63.5q0 -45 -32 -75.5t-79 -30.5t-77.5 30t-30.5 77zM624 710l-557 -710h-46l556 710h47zM443 67h-157l6 36l178 222h49
l-33 -222h39l-6 -36h-39l-11 -67h-37zM334 103h115l26 175z" />
    <glyph glyph-name="questiondown" unicode="&#xbf;" horiz-adv-x="489" 
d="M343 721q19 0 32 -13t13 -32q0 -24 -19.5 -43.5t-42.5 -19.5q-19 0 -32 13t-13 33q0 24 19 43t43 19zM299 556h43l-5 -27q-8 -47 -37 -83t-96 -82q-71 -50 -101.5 -94.5t-30.5 -99.5q0 -63 40.5 -101t107.5 -38q74 0 122 44.5t59 124.5h47q-16 -98 -78 -155.5t-152 -57.5
q-84 0 -138 51.5t-54 131.5q0 62 37.5 117t117.5 112q59 42 82.5 68.5t30.5 61.5z" />
    <glyph glyph-name="Agrave" unicode="&#xc0;" horiz-adv-x="616" 
d="M406 765h-38l-46 106h50zM25 0h-48l370 710h68l148 -710h-45l-42 200h-346zM370 664l-219 -422h316l-86 422q-3 13 -3 17q-1 -2 -3.5 -7.5t-4.5 -9.5z" />
    <glyph glyph-name="Aacute" unicode="&#xc1;" horiz-adv-x="616" 
d="M494 870l-82 -105h-42l69 105h55zM25 0h-48l370 710h68l148 -710h-45l-42 200h-346zM370 664l-219 -422h316l-86 422q-3 13 -3 17q-1 -2 -3.5 -7.5t-4.5 -9.5z" />
    <glyph glyph-name="Acircumflex" unicode="&#xc2;" horiz-adv-x="616" 
d="M335 765h-49l85 106h68l51 -106h-43l-42 83zM25 0h-48l370 710h68l148 -710h-45l-42 200h-346zM370 664l-219 -422h316l-86 422q-3 13 -3 17q-1 -2 -3.5 -7.5t-4.5 -9.5z" />
    <glyph glyph-name="Atilde" unicode="&#xc3;" horiz-adv-x="616" 
d="M308 785h-38q5 44 24.5 67.5t48.5 23.5q26 0 56.5 -26t49.5 -26q33 0 40 52h38q-14 -91 -77 -91q-30 0 -60.5 26t-44.5 26q-29 0 -37 -52zM25 0h-48l370 710h68l148 -710h-45l-42 200h-346zM370 664l-219 -422h316l-86 422q-3 13 -3 17q-1 -2 -3.5 -7.5t-4.5 -9.5z" />
    <glyph glyph-name="Adieresis" unicode="&#xc4;" horiz-adv-x="616" 
d="M329 788q-15 0 -25 10t-10 24q0 20 13.5 34.5t32.5 14.5q15 0 25 -10t10 -24q0 -20 -13.5 -34.5t-32.5 -14.5zM458 788q-15 0 -25 10t-10 24q0 20 13.5 34.5t32.5 14.5q15 0 25 -10t10 -24q0 -20 -13.5 -34.5t-32.5 -14.5zM25 0h-48l370 710h68l148 -710h-45l-42 200
h-346zM370 664l-219 -422h316l-86 422q-3 13 -3 17q-1 -2 -3.5 -7.5t-4.5 -9.5z" />
    <glyph glyph-name="Aring" unicode="&#xc5;" horiz-adv-x="616" 
d="M391 766q-37 0 -60.5 23t-23.5 60q0 49 32 82t79 33q37 0 60.5 -23.5t23.5 -60.5q0 -47 -32.5 -80.5t-78.5 -33.5zM395 804q27 0 46.5 21t19.5 51q0 22 -13 36t-34 14q-27 0 -46.5 -21.5t-19.5 -51.5q0 -22 13 -35.5t34 -13.5zM25 0h-48l370 710h68l148 -710h-45l-42 200
h-346zM370 664l-219 -422h316l-86 422q-3 13 -3 17q-1 -2 -3.5 -7.5t-4.5 -9.5z" />
    <glyph glyph-name="AE" unicode="&#xc6;" horiz-adv-x="860" 
d="M-28 0l389 710h513l-6 -42h-362l-46 -291h330l-7 -42h-329l-46 -293h361l-7 -42h-406l34 218h-249l-119 -218h-50zM164 260h233l64 408h-74z" />
    <glyph glyph-name="Ccedilla" unicode="&#xc7;" horiz-adv-x="707" 
d="M259 -155l6 36q23 -15 49 -15q48 0 48 34q0 29 -34 29q-20 0 -50 -13l-4 22l33 54q-112 14 -178.5 98.5t-66.5 213.5q0 181 105 299.5t265 118.5q109 0 184 -63.5t83 -161.5h-46q-11 81 -72 131.5t-149 50.5q-141 0 -232.5 -106t-91.5 -269q0 -124 65.5 -197.5
t176.5 -73.5q180 0 260 170h51q-90 -214 -312 -214h-10l-18 -31q9 3 19 3q26 0 43.5 -16t17.5 -40q0 -34 -24 -54t-64 -20q-35 0 -54 14z" />
    <glyph glyph-name="Egrave" unicode="&#xc8;" 
d="M387 765h-38l-46 106h50zM461 0h-409l112 710h408l-6 -42h-363l-46 -291h330l-7 -42h-330l-47 -293h365z" />
    <glyph glyph-name="Eacute" unicode="&#xc9;" 
d="M475 870l-82 -105h-42l69 105h55zM461 0h-409l112 710h408l-6 -42h-363l-46 -291h330l-7 -42h-330l-47 -293h365z" />
    <glyph glyph-name="Ecircumflex" unicode="&#xca;" 
d="M316 765h-49l85 106h68l51 -106h-43l-42 83zM461 0h-409l112 710h408l-6 -42h-363l-46 -291h330l-7 -42h-330l-47 -293h365z" />
    <glyph glyph-name="Edieresis" unicode="&#xcb;" 
d="M310 788q-15 0 -25 10t-10 24q0 20 13.5 34.5t32.5 14.5q15 0 25 -10t10 -24q0 -20 -13.5 -34.5t-32.5 -14.5zM439 788q-15 0 -25 10t-10 24q0 20 13.5 34.5t32.5 14.5q15 0 25 -10t10 -24q0 -20 -13.5 -34.5t-32.5 -14.5zM461 0h-409l112 710h408l-6 -42h-363l-46 -291
h330l-7 -42h-330l-47 -293h365z" />
    <glyph glyph-name="Igrave" unicode="&#xcc;" horiz-adv-x="225" 
d="M212 765h-38l-46 106h50zM209 710l-112 -710h-45l112 710h45z" />
    <glyph glyph-name="Iacute" unicode="&#xcd;" horiz-adv-x="225" 
d="M300 870l-82 -105h-42l69 105h55zM209 710l-112 -710h-45l112 710h45z" />
    <glyph glyph-name="Icircumflex" unicode="&#xce;" horiz-adv-x="225" 
d="M141 765h-49l85 106h68l51 -106h-43l-42 83zM209 710l-112 -710h-45l112 710h45z" />
    <glyph glyph-name="Idieresis" unicode="&#xcf;" horiz-adv-x="225" 
d="M135 788q-15 0 -25 10t-10 24q0 20 13.5 34.5t32.5 14.5q15 0 25 -10t10 -24q0 -20 -13.5 -34.5t-32.5 -14.5zM264 788q-15 0 -25 10t-10 24q0 20 13.5 34.5t32.5 14.5q15 0 25 -10t10 -24q0 -20 -13.5 -34.5t-32.5 -14.5zM209 710l-112 -710h-45l112 710h45z" />
    <glyph glyph-name="Eth" unicode="&#xd0;" horiz-adv-x="683" 
d="M245 0h-193l53 334h-68l7 42h67l53 334h183q145 0 228 -83.5t83 -216.5q0 -191 -116 -300.5t-297 -109.5zM304 334h-154l-46 -292h149q159 0 259 97.5t100 270.5q0 117 -71 188t-199 71h-139l-46 -293h154z" />
    <glyph glyph-name="Ntilde" unicode="&#xd1;" horiz-adv-x="680" 
d="M343 785h-38q5 44 24.5 67.5t48.5 23.5q26 0 56.5 -26t49.5 -26q33 0 40 52h38q-14 -91 -77 -91q-30 0 -60.5 26t-44.5 26q-29 0 -37 -52zM98 0h-46l112 710h46l309 -634l99 634h46l-112 -710h-44l-310 637z" />
    <glyph glyph-name="Ograve" unicode="&#xd2;" horiz-adv-x="753" 
d="M464 766h-38l-46 106h50zM729 414q0 -177 -111 -301.5t-269 -124.5q-130 0 -209.5 84.5t-79.5 222.5q0 178 110.5 302.5t268.5 124.5q130 0 210 -85.5t80 -222.5zM683 414q0 119 -68 191.5t-180 72.5q-136 0 -232.5 -112.5t-96.5 -270.5q0 -119 67.5 -191t179.5 -72
q137 0 233.5 112t96.5 270z" />
    <glyph glyph-name="Oacute" unicode="&#xd3;" horiz-adv-x="753" 
d="M552 871l-82 -105h-42l69 105h55zM729 414q0 -177 -111 -301.5t-269 -124.5q-130 0 -209.5 84.5t-79.5 222.5q0 178 110.5 302.5t268.5 124.5q130 0 210 -85.5t80 -222.5zM683 414q0 119 -68 191.5t-180 72.5q-136 0 -232.5 -112.5t-96.5 -270.5q0 -119 67.5 -191
t179.5 -72q137 0 233.5 112t96.5 270z" />
    <glyph glyph-name="Ocircumflex" unicode="&#xd4;" horiz-adv-x="753" 
d="M393 766h-49l85 106h68l51 -106h-43l-42 83zM729 414q0 -177 -111 -301.5t-269 -124.5q-130 0 -209.5 84.5t-79.5 222.5q0 178 110.5 302.5t268.5 124.5q130 0 210 -85.5t80 -222.5zM683 414q0 119 -68 191.5t-180 72.5q-136 0 -232.5 -112.5t-96.5 -270.5
q0 -119 67.5 -191t179.5 -72q137 0 233.5 112t96.5 270z" />
    <glyph glyph-name="Otilde" unicode="&#xd5;" horiz-adv-x="753" 
d="M366 786h-38q5 44 24.5 67.5t48.5 23.5q26 0 56.5 -26t49.5 -26q33 0 40 52h38q-14 -91 -77 -91q-30 0 -60.5 26t-44.5 26q-29 0 -37 -52zM729 414q0 -177 -111 -301.5t-269 -124.5q-130 0 -209.5 84.5t-79.5 222.5q0 178 110.5 302.5t268.5 124.5q130 0 210 -85.5
t80 -222.5zM683 414q0 119 -68 191.5t-180 72.5q-136 0 -232.5 -112.5t-96.5 -270.5q0 -119 67.5 -191t179.5 -72q137 0 233.5 112t96.5 270z" />
    <glyph glyph-name="Odieresis" unicode="&#xd6;" horiz-adv-x="753" 
d="M387 789q-15 0 -25 10t-10 24q0 20 13.5 34.5t32.5 14.5q15 0 25 -10t10 -24q0 -20 -13.5 -34.5t-32.5 -14.5zM516 789q-15 0 -25 10t-10 24q0 20 13.5 34.5t32.5 14.5q15 0 25 -10t10 -24q0 -20 -13.5 -34.5t-32.5 -14.5zM729 414q0 -177 -111 -301.5t-269 -124.5
q-130 0 -209.5 84.5t-79.5 222.5q0 178 110.5 302.5t268.5 124.5q130 0 210 -85.5t80 -222.5zM683 414q0 119 -68 191.5t-180 72.5q-136 0 -232.5 -112.5t-96.5 -270.5q0 -119 67.5 -191t179.5 -72q137 0 233.5 112t96.5 270z" />
    <glyph glyph-name="multiply" unicode="&#xd7;" horiz-adv-x="660" 
d="M192 557l156 -191l219 191l28 -31l-221 -192l155 -190l-32 -28l-155 190l-219 -190l-28 31l220 191l-155 191z" />
    <glyph glyph-name="Oslash" unicode="&#xd8;" horiz-adv-x="753" 
d="M729 414q0 -177 -111 -301.5t-269 -124.5q-120 0 -198 73l-56 -61h-47l79 87q-67 83 -67 208q0 178 110.5 302.5t268.5 124.5q120 0 199 -74l56 61h48l-80 -88q67 -81 67 -207zM106 295q0 -104 53 -173l448 492q-67 64 -172 64q-136 0 -232.5 -112.5t-96.5 -270.5z
M683 414q0 102 -52 173l-449 -491q67 -64 171 -64q137 0 233.5 112t96.5 270z" />
    <glyph glyph-name="Ugrave" unicode="&#xd9;" horiz-adv-x="666" 
d="M434 765h-38l-46 106h50zM85 238l75 472h45l-75 -471q-15 -96 33 -151t146 -55q95 0 152.5 52.5t73.5 153.5l75 471h45l-75 -472q-20 -122 -89.5 -186t-181.5 -64q-116 0 -178.5 70t-45.5 180z" />
    <glyph glyph-name="Uacute" unicode="&#xda;" horiz-adv-x="666" 
d="M522 870l-82 -105h-42l69 105h55zM85 238l75 472h45l-75 -471q-15 -96 33 -151t146 -55q95 0 152.5 52.5t73.5 153.5l75 471h45l-75 -472q-20 -122 -89.5 -186t-181.5 -64q-116 0 -178.5 70t-45.5 180z" />
    <glyph glyph-name="Ucircumflex" unicode="&#xdb;" horiz-adv-x="666" 
d="M363 765h-49l85 106h68l51 -106h-43l-42 83zM85 238l75 472h45l-75 -471q-15 -96 33 -151t146 -55q95 0 152.5 52.5t73.5 153.5l75 471h45l-75 -472q-20 -122 -89.5 -186t-181.5 -64q-116 0 -178.5 70t-45.5 180z" />
    <glyph glyph-name="Udieresis" unicode="&#xdc;" horiz-adv-x="666" 
d="M357 788q-15 0 -25 10t-10 24q0 20 13.5 34.5t32.5 14.5q15 0 25 -10t10 -24q0 -20 -13.5 -34.5t-32.5 -14.5zM486 788q-15 0 -25 10t-10 24q0 20 13.5 34.5t32.5 14.5q15 0 25 -10t10 -24q0 -20 -13.5 -34.5t-32.5 -14.5zM85 238l75 472h45l-75 -471q-15 -96 33 -151
t146 -55q95 0 152.5 52.5t73.5 153.5l75 471h45l-75 -472q-20 -122 -89.5 -186t-181.5 -64q-116 0 -178.5 70t-45.5 180z" />
    <glyph glyph-name="Yacute" unicode="&#xdd;" horiz-adv-x="533" 
d="M455 870l-82 -105h-42l69 105h55zM256 304l-172 406h49l136 -330q8 -18 14 -36q9 15 25 36l237 330h52l-296 -406l-48 -304h-45z" />
    <glyph glyph-name="Thorn" unicode="&#xde;" horiz-adv-x="595" 
d="M322 147h-202l-23 -147h-45l112 710h45l-22 -140h196q88 0 144.5 -53t56.5 -136q0 -109 -70 -171.5t-192 -62.5zM376 528h-196l-53 -339h195q103 0 159.5 50.5t56.5 141.5q0 66 -45 106.5t-117 40.5z" />
    <glyph glyph-name="germandbls" unicode="&#xdf;" horiz-adv-x="539" 
d="M81 0h-43l82 517q16 100 70.5 152.5t144.5 52.5q72 0 118 -44t46 -112q0 -59 -35.5 -103.5t-95.5 -61.5q62 -12 98 -58t36 -110q0 -101 -76 -167t-195 -66q-57 0 -91 6l5 35h95q97 0 157.5 54t60.5 138q0 67 -44.5 107t-123.5 40h-51l7 41h51q68 0 113 41.5t45 103.5
q0 52 -32.5 84t-87.5 32q-146 0 -172 -165z" />
    <glyph glyph-name="agrave" unicode="&#xe0;" horiz-adv-x="502" 
d="M318 535h-38l-46 106h50zM169 -12q-63 0 -101 34.5t-38 91.5q0 71 53.5 115t148.5 52l163 13l3 15q13 68 -17.5 105t-101.5 37q-132 0 -152 -113h-45q11 73 63.5 113.5t134.5 40.5q88 0 132.5 -47t31.5 -126l-50 -319h-37l7 90q-31 -48 -82.5 -75t-112.5 -27zM179 28
q81 0 137 54.5t70 147.5l4 26l-161 -13q-73 -6 -114 -40t-41 -89q0 -39 28.5 -62.5t76.5 -23.5z" />
    <glyph glyph-name="aacute" unicode="&#xe1;" horiz-adv-x="502" 
d="M406 640l-82 -105h-42l69 105h55zM169 -12q-63 0 -101 34.5t-38 91.5q0 71 53.5 115t148.5 52l163 13l3 15q13 68 -17.5 105t-101.5 37q-132 0 -152 -113h-45q11 73 63.5 113.5t134.5 40.5q88 0 132.5 -47t31.5 -126l-50 -319h-37l7 90q-31 -48 -82.5 -75t-112.5 -27z
M179 28q81 0 137 54.5t70 147.5l4 26l-161 -13q-73 -6 -114 -40t-41 -89q0 -39 28.5 -62.5t76.5 -23.5z" />
    <glyph glyph-name="acircumflex" unicode="&#xe2;" horiz-adv-x="502" 
d="M247 535h-49l85 106h68l51 -106h-43l-42 83zM169 -12q-63 0 -101 34.5t-38 91.5q0 71 53.5 115t148.5 52l163 13l3 15q13 68 -17.5 105t-101.5 37q-132 0 -152 -113h-45q11 73 63.5 113.5t134.5 40.5q88 0 132.5 -47t31.5 -126l-50 -319h-37l7 90q-31 -48 -82.5 -75
t-112.5 -27zM179 28q81 0 137 54.5t70 147.5l4 26l-161 -13q-73 -6 -114 -40t-41 -89q0 -39 28.5 -62.5t76.5 -23.5z" />
    <glyph glyph-name="atilde" unicode="&#xe3;" horiz-adv-x="502" 
d="M220 555h-38q5 44 24.5 67.5t48.5 23.5q26 0 56.5 -26t49.5 -26q33 0 40 52h38q-14 -91 -77 -91q-30 0 -60.5 26t-44.5 26q-29 0 -37 -52zM169 -12q-63 0 -101 34.5t-38 91.5q0 71 53.5 115t148.5 52l163 13l3 15q13 68 -17.5 105t-101.5 37q-132 0 -152 -113h-45
q11 73 63.5 113.5t134.5 40.5q88 0 132.5 -47t31.5 -126l-50 -319h-37l7 90q-31 -48 -82.5 -75t-112.5 -27zM179 28q81 0 137 54.5t70 147.5l4 26l-161 -13q-73 -6 -114 -40t-41 -89q0 -39 28.5 -62.5t76.5 -23.5z" />
    <glyph glyph-name="adieresis" unicode="&#xe4;" horiz-adv-x="502" 
d="M241 558q-15 0 -25 10t-10 24q0 20 13.5 34.5t32.5 14.5q15 0 25 -10t10 -24q0 -20 -13.5 -34.5t-32.5 -14.5zM370 558q-15 0 -25 10t-10 24q0 20 13.5 34.5t32.5 14.5q15 0 25 -10t10 -24q0 -20 -13.5 -34.5t-32.5 -14.5zM169 -12q-63 0 -101 34.5t-38 91.5
q0 71 53.5 115t148.5 52l163 13l3 15q13 68 -17.5 105t-101.5 37q-132 0 -152 -113h-45q11 73 63.5 113.5t134.5 40.5q88 0 132.5 -47t31.5 -126l-50 -319h-37l7 90q-31 -48 -82.5 -75t-112.5 -27zM179 28q81 0 137 54.5t70 147.5l4 26l-161 -13q-73 -6 -114 -40t-41 -89
q0 -39 28.5 -62.5t76.5 -23.5z" />
    <glyph glyph-name="aring" unicode="&#xe5;" horiz-adv-x="502" 
d="M303 536q-37 0 -60.5 23t-23.5 60q0 49 32 82t79 33q37 0 60.5 -23.5t23.5 -60.5q0 -47 -32.5 -80.5t-78.5 -33.5zM307 574q27 0 46.5 21t19.5 51q0 22 -13 36t-34 14q-27 0 -46.5 -21.5t-19.5 -51.5q0 -22 13 -35.5t34 -13.5zM169 -12q-63 0 -101 34.5t-38 91.5
q0 71 53.5 115t148.5 52l163 13l3 15q13 68 -17.5 105t-101.5 37q-132 0 -152 -113h-45q11 73 63.5 113.5t134.5 40.5q88 0 132.5 -47t31.5 -126l-50 -319h-37l7 90q-31 -48 -82.5 -75t-112.5 -27zM179 28q81 0 137 54.5t70 147.5l4 26l-161 -13q-73 -6 -114 -40t-41 -89
q0 -39 28.5 -62.5t76.5 -23.5z" />
    <glyph glyph-name="ae" unicode="&#xe6;" horiz-adv-x="852" 
d="M30 114q0 135 200 151l163 13l6 31q13 68 -18.5 105t-101.5 37q-132 0 -152 -113h-45q11 73 63.5 113.5t134.5 40.5q66 0 108.5 -27.5t54.5 -76.5q34 49 84 76.5t108 27.5q94 0 146.5 -63t37.5 -158l-5 -31h-385q-2 -26 -2 -39q0 -77 43 -125t112 -48q59 0 105 29.5
t64 79.5h46q-23 -69 -81 -109t-134 -40q-70 0 -120 40t-67 108q-31 -70 -88 -109t-131 -39q-68 0 -107 33.5t-39 92.5zM635 452q-70 0 -124.5 -49t-74.5 -127h339q13 78 -26.5 127t-113.5 49zM74 114q0 -39 28.5 -62.5t76.5 -23.5q81 0 136 53.5t71 146.5l2 12l-161 -13
q-153 -12 -153 -113z" />
    <glyph glyph-name="ccedilla" unicode="&#xe7;" horiz-adv-x="496" 
d="M36 201q0 123 72.5 207t179.5 84q75 0 122 -39.5t57 -112.5h-45q-7 52 -43 82t-91 30q-88 0 -148 -72.5t-60 -178.5q0 -77 43 -125t112 -48q58 0 102.5 30t63.5 81h46q-23 -68 -77.5 -108.5t-125.5 -42.5l-18 -30q9 3 19 3q26 0 43.5 -16t17.5 -40q0 -34 -24 -54t-64 -20
q-35 0 -54 14l6 36q23 -15 49 -15q48 0 48 34q0 29 -34 29q-20 0 -50 -13l-4 22l32 51q-78 9 -126.5 67.5t-48.5 144.5z" />
    <glyph glyph-name="egrave" unicode="&#xe8;" horiz-adv-x="505" 
d="M314 535h-38l-46 106h50zM235 -12q-87 0 -143 60t-56 153q0 123 72.5 207t179.5 84q95 0 147 -63.5t37 -157.5l-5 -31h-385q-2 -26 -2 -39q0 -77 43 -125t112 -48q58 0 104.5 29.5t65.5 79.5h45q-24 -70 -82 -109.5t-133 -39.5zM288 452q-70 0 -124.5 -49t-74.5 -127h339
q13 79 -26.5 127.5t-113.5 48.5z" />
    <glyph glyph-name="eacute" unicode="&#xe9;" horiz-adv-x="505" 
d="M402 640l-82 -105h-42l69 105h55zM235 -12q-87 0 -143 60t-56 153q0 123 72.5 207t179.5 84q95 0 147 -63.5t37 -157.5l-5 -31h-385q-2 -26 -2 -39q0 -77 43 -125t112 -48q58 0 104.5 29.5t65.5 79.5h45q-24 -70 -82 -109.5t-133 -39.5zM288 452q-70 0 -124.5 -49
t-74.5 -127h339q13 79 -26.5 127.5t-113.5 48.5z" />
    <glyph glyph-name="ecircumflex" unicode="&#xea;" horiz-adv-x="505" 
d="M243 535h-49l85 106h68l51 -106h-43l-42 83zM235 -12q-87 0 -143 60t-56 153q0 123 72.5 207t179.5 84q95 0 147 -63.5t37 -157.5l-5 -31h-385q-2 -26 -2 -39q0 -77 43 -125t112 -48q58 0 104.5 29.5t65.5 79.5h45q-24 -70 -82 -109.5t-133 -39.5zM288 452
q-70 0 -124.5 -49t-74.5 -127h339q13 79 -26.5 127.5t-113.5 48.5z" />
    <glyph glyph-name="edieresis" unicode="&#xeb;" horiz-adv-x="505" 
d="M237 558q-15 0 -25 10t-10 24q0 20 13.5 34.5t32.5 14.5q15 0 25 -10t10 -24q0 -20 -13.5 -34.5t-32.5 -14.5zM366 558q-15 0 -25 10t-10 24q0 20 13.5 34.5t32.5 14.5q15 0 25 -10t10 -24q0 -20 -13.5 -34.5t-32.5 -14.5zM235 -12q-87 0 -143 60t-56 153q0 123 72.5 207
t179.5 84q95 0 147 -63.5t37 -157.5l-5 -31h-385q-2 -26 -2 -39q0 -77 43 -125t112 -48q58 0 104.5 29.5t65.5 79.5h45q-24 -70 -82 -109.5t-133 -39.5zM288 452q-70 0 -124.5 -49t-74.5 -127h339q13 79 -26.5 127.5t-113.5 48.5z" />
    <glyph glyph-name="igrave" unicode="&#xec;" horiz-adv-x="195" 
d="M161 535h-38l-46 106h50zM38 0l76 480h43l-76 -480h-43z" />
    <glyph glyph-name="iacute" unicode="&#xed;" horiz-adv-x="195" 
d="M249 640l-82 -105h-42l69 105h55zM38 0l76 480h43l-76 -480h-43z" />
    <glyph glyph-name="icircumflex" unicode="&#xee;" horiz-adv-x="195" 
d="M90 535h-49l85 106h68l51 -106h-43l-42 83zM38 0l76 480h43l-76 -480h-43z" />
    <glyph glyph-name="idieresis" unicode="&#xef;" horiz-adv-x="195" 
d="M84 558q-15 0 -25 10t-10 24q0 20 13.5 34.5t32.5 14.5q15 0 25 -10t10 -24q0 -20 -13.5 -34.5t-32.5 -14.5zM213 558q-15 0 -25 10t-10 24q0 20 13.5 34.5t32.5 14.5q15 0 25 -10t10 -24q0 -20 -13.5 -34.5t-32.5 -14.5zM38 0l76 480h43l-76 -480h-43z" />
    <glyph glyph-name="eth" unicode="&#xf0;" horiz-adv-x="562" 
d="M37 210q0 115 79.5 197.5t190.5 82.5q60 0 109 -30.5t75 -83.5q-18 113 -113 244l-98 -52l-14 32l90 50q-28 33 -65 73h54q13 -12 47 -53l87 48l14 -36l-79 -42q119 -167 119 -298q0 -157 -77 -255.5t-199 -98.5q-98 0 -159 61.5t-61 160.5zM81 210q0 -82 48.5 -132
t127.5 -50q92 0 158 72t66 174q0 80 -47.5 128t-126.5 48q-95 0 -160.5 -70t-65.5 -170z" />
    <glyph glyph-name="ntilde" unicode="&#xf1;" horiz-adv-x="540" 
d="M235 555h-38q5 44 24.5 67.5t48.5 23.5q26 0 56.5 -26t49.5 -26q33 0 40 52h38q-14 -91 -77 -91q-30 0 -60.5 26t-44.5 26q-29 0 -37 -52zM81 0h-43l76 480h34l-6 -96q68 108 182 108q83 0 125.5 -54.5t28.5 -145.5l-46 -292h-43l45 283q13 83 -16.5 126t-98.5 43
q-77 0 -130.5 -55.5t-68.5 -149.5z" />
    <glyph glyph-name="ograve" unicode="&#xf2;" horiz-adv-x="545" 
d="M336 535h-38l-46 106h50zM36 206q0 118 79.5 202t189.5 84q91 0 147.5 -60.5t56.5 -157.5q0 -118 -79.5 -202t-189.5 -84q-91 0 -147.5 60.5t-56.5 157.5zM80 206q0 -82 44.5 -130t121.5 -48q90 0 154.5 72.5t64.5 173.5q0 82 -44.5 130t-121.5 48q-90 0 -154.5 -72.5
t-64.5 -173.5z" />
    <glyph glyph-name="oacute" unicode="&#xf3;" horiz-adv-x="545" 
d="M424 640l-82 -105h-42l69 105h55zM36 206q0 118 79.5 202t189.5 84q91 0 147.5 -60.5t56.5 -157.5q0 -118 -79.5 -202t-189.5 -84q-91 0 -147.5 60.5t-56.5 157.5zM80 206q0 -82 44.5 -130t121.5 -48q90 0 154.5 72.5t64.5 173.5q0 82 -44.5 130t-121.5 48
q-90 0 -154.5 -72.5t-64.5 -173.5z" />
    <glyph glyph-name="ocircumflex" unicode="&#xf4;" horiz-adv-x="545" 
d="M265 535h-49l85 106h68l51 -106h-43l-42 83zM36 206q0 118 79.5 202t189.5 84q91 0 147.5 -60.5t56.5 -157.5q0 -118 -79.5 -202t-189.5 -84q-91 0 -147.5 60.5t-56.5 157.5zM80 206q0 -82 44.5 -130t121.5 -48q90 0 154.5 72.5t64.5 173.5q0 82 -44.5 130t-121.5 48
q-90 0 -154.5 -72.5t-64.5 -173.5z" />
    <glyph glyph-name="otilde" unicode="&#xf5;" horiz-adv-x="545" 
d="M238 555h-38q5 44 24.5 67.5t48.5 23.5q26 0 56.5 -26t49.5 -26q33 0 40 52h38q-14 -91 -77 -91q-30 0 -60.5 26t-44.5 26q-29 0 -37 -52zM36 206q0 118 79.5 202t189.5 84q91 0 147.5 -60.5t56.5 -157.5q0 -118 -79.5 -202t-189.5 -84q-91 0 -147.5 60.5t-56.5 157.5z
M80 206q0 -82 44.5 -130t121.5 -48q90 0 154.5 72.5t64.5 173.5q0 82 -44.5 130t-121.5 48q-90 0 -154.5 -72.5t-64.5 -173.5z" />
    <glyph glyph-name="odieresis" unicode="&#xf6;" horiz-adv-x="545" 
d="M259 558q-15 0 -25 10t-10 24q0 20 13.5 34.5t32.5 14.5q15 0 25 -10t10 -24q0 -20 -13.5 -34.5t-32.5 -14.5zM388 558q-15 0 -25 10t-10 24q0 20 13.5 34.5t32.5 14.5q15 0 25 -10t10 -24q0 -20 -13.5 -34.5t-32.5 -14.5zM36 206q0 118 79.5 202t189.5 84
q91 0 147.5 -60.5t56.5 -157.5q0 -118 -79.5 -202t-189.5 -84q-91 0 -147.5 60.5t-56.5 157.5zM80 206q0 -82 44.5 -130t121.5 -48q90 0 154.5 72.5t64.5 173.5q0 82 -44.5 130t-121.5 48q-90 0 -154.5 -72.5t-64.5 -173.5z" />
    <glyph glyph-name="divide" unicode="&#xf7;" horiz-adv-x="660" 
d="M362 444q-19 0 -32 13.5t-13 31.5q0 24 19.5 43.5t42.5 19.5q19 0 32 -13.5t13 -33.5q0 -23 -19 -42t-43 -19zM98 322h490l-7 -42h-490zM299 49q-19 0 -32 13.5t-13 32.5q0 24 19.5 43t43.5 19q19 0 32 -13.5t13 -32.5q0 -24 -19.5 -43t-43.5 -19z" />
    <glyph glyph-name="oslash" unicode="&#xf8;" horiz-adv-x="545" 
d="M36 206q0 118 79.5 202t189.5 84q65 0 115 -33l45 59h42l-61 -80q63 -61 63 -164q0 -118 -79.5 -202t-189.5 -84q-65 0 -114 32l-54 -71h-41l70 91q-65 62 -65 166zM80 206q0 -83 46 -132l269 352q-40 26 -96 26q-90 0 -154.5 -72.5t-64.5 -173.5zM465 274q0 83 -45 130
l-268 -351q39 -25 94 -25q90 0 154.5 72.5t64.5 173.5z" />
    <glyph glyph-name="ugrave" unicode="&#xf9;" horiz-adv-x="530" 
d="M334 535h-38l-46 106h50zM449 480h43l-76 -480h-34l8 96q-68 -108 -179 -108q-80 0 -121.5 55t-27.5 145l46 292h43l-45 -283q-13 -83 15.5 -126t94.5 -43q76 0 127.5 55t66.5 150z" />
    <glyph glyph-name="uacute" unicode="&#xfa;" horiz-adv-x="530" 
d="M422 640l-82 -105h-42l69 105h55zM449 480h43l-76 -480h-34l8 96q-68 -108 -179 -108q-80 0 -121.5 55t-27.5 145l46 292h43l-45 -283q-13 -83 15.5 -126t94.5 -43q76 0 127.5 55t66.5 150z" />
    <glyph glyph-name="ucircumflex" unicode="&#xfb;" horiz-adv-x="530" 
d="M263 535h-49l85 106h68l51 -106h-43l-42 83zM449 480h43l-76 -480h-34l8 96q-68 -108 -179 -108q-80 0 -121.5 55t-27.5 145l46 292h43l-45 -283q-13 -83 15.5 -126t94.5 -43q76 0 127.5 55t66.5 150z" />
    <glyph glyph-name="udieresis" unicode="&#xfc;" horiz-adv-x="530" 
d="M257 558q-15 0 -25 10t-10 24q0 20 13.5 34.5t32.5 14.5q15 0 25 -10t10 -24q0 -20 -13.5 -34.5t-32.5 -14.5zM386 558q-15 0 -25 10t-10 24q0 20 13.5 34.5t32.5 14.5q15 0 25 -10t10 -24q0 -20 -13.5 -34.5t-32.5 -14.5zM449 480h43l-76 -480h-34l8 96
q-68 -108 -179 -108q-80 0 -121.5 55t-27.5 145l46 292h43l-45 -283q-13 -83 15.5 -126t94.5 -43q76 0 127.5 55t66.5 150z" />
    <glyph glyph-name="yacute" unicode="&#xfd;" horiz-adv-x="435" 
d="M366 640l-82 -105h-42l69 105h55zM-46 -202l6 35h43q27 0 42 2t37.5 18t38.5 48l35 69l-108 510h44l95 -450l230 450h46l-302 -591q-50 -97 -145 -97q-35 0 -62 6z" />
    <glyph glyph-name="thorn" unicode="&#xfe;" 
d="M523 285q0 -126 -73.5 -211.5t-182.5 -85.5q-65 0 -109.5 31.5t-59.5 88.5l-49 -310h-43l146 924h43l-55 -347q70 117 194 117q84 0 136.5 -57.5t52.5 -149.5zM479 285q0 76 -40.5 121.5t-108.5 45.5q-91 0 -152.5 -75.5t-61.5 -186.5q0 -78 39.5 -120t112.5 -42
q90 0 150.5 73.5t60.5 183.5z" />
    <glyph glyph-name="ydieresis" unicode="&#xff;" horiz-adv-x="435" 
d="M201 558q-15 0 -25 10t-10 24q0 20 13.5 34.5t32.5 14.5q15 0 25 -10t10 -24q0 -20 -13.5 -34.5t-32.5 -14.5zM330 558q-15 0 -25 10t-10 24q0 20 13.5 34.5t32.5 14.5q15 0 25 -10t10 -24q0 -20 -13.5 -34.5t-32.5 -14.5zM-46 -202l6 35h43q27 0 42 2t37.5 18t38.5 48
l35 69l-108 510h44l95 -450l230 450h46l-302 -591q-50 -97 -145 -97q-35 0 -62 6z" />
    <glyph glyph-name="Amacron" unicode="&#x100;" horiz-adv-x="616" 
d="M294 829l6 40h210l-6 -40h-210zM25 0h-48l370 710h68l148 -710h-45l-42 200h-346zM370 664l-219 -422h316l-86 422q-3 13 -3 17q-1 -2 -3.5 -7.5t-4.5 -9.5z" />
    <glyph glyph-name="amacron" unicode="&#x101;" horiz-adv-x="502" 
d="M206 599l6 40h210l-6 -40h-210zM169 -12q-63 0 -101 34.5t-38 91.5q0 71 53.5 115t148.5 52l163 13l3 15q13 68 -17.5 105t-101.5 37q-132 0 -152 -113h-45q11 73 63.5 113.5t134.5 40.5q88 0 132.5 -47t31.5 -126l-50 -319h-37l7 90q-31 -48 -82.5 -75t-112.5 -27z
M179 28q81 0 137 54.5t70 147.5l4 26l-161 -13q-73 -6 -114 -40t-41 -89q0 -39 28.5 -62.5t76.5 -23.5z" />
    <glyph glyph-name="Abreve" unicode="&#x102;" horiz-adv-x="616" 
d="M470 871h41q-8 -51 -37.5 -80t-76.5 -29q-46 0 -70.5 29t-24.5 80h40q0 -68 58 -68q59 0 70 68zM25 0h-48l370 710h68l148 -710h-45l-42 200h-346zM370 664l-219 -422h316l-86 422q-3 13 -3 17q-1 -2 -3.5 -7.5t-4.5 -9.5z" />
    <glyph glyph-name="abreve" unicode="&#x103;" horiz-adv-x="502" 
d="M382 641h41q-8 -51 -37.5 -80t-76.5 -29q-46 0 -70.5 29t-24.5 80h40q0 -68 58 -68q59 0 70 68zM169 -12q-63 0 -101 34.5t-38 91.5q0 71 53.5 115t148.5 52l163 13l3 15q13 68 -17.5 105t-101.5 37q-132 0 -152 -113h-45q11 73 63.5 113.5t134.5 40.5q88 0 132.5 -47
t31.5 -126l-50 -319h-37l7 90q-31 -48 -82.5 -75t-112.5 -27zM179 28q81 0 137 54.5t70 147.5l4 26l-161 -13q-73 -6 -114 -40t-41 -89q0 -39 28.5 -62.5t76.5 -23.5z" />
    <glyph glyph-name="Aogonek" unicode="&#x104;" horiz-adv-x="616" 
d="M25 0h-48l370 710h68l148 -710q-25 -10 -42 -30t-17 -38q0 -22 26 -22q10 0 21 3l-7 -40q-9 -4 -29 -4q-24 0 -38 13.5t-14 37.5q0 47 66 80h-11l-42 200h-346zM370 664l-219 -422h316l-86 422q-3 13 -3 17q-1 -2 -3.5 -7.5t-4.5 -9.5z" />
    <glyph glyph-name="aogonek" unicode="&#x105;" horiz-adv-x="502" 
d="M169 -12q-63 0 -101 34.5t-38 91.5q0 71 53.5 115t148.5 52l163 13l3 15q13 68 -17.5 105t-101.5 37q-132 0 -152 -113h-45q11 73 63.5 113.5t134.5 40.5q88 0 132.5 -47t31.5 -126l-50 -319q-25 -10 -42 -30t-17 -38q0 -22 26 -22q11 0 21 3l-7 -40q-9 -4 -29 -4
q-24 0 -38 13.5t-14 37.5q0 47 66 80h-3l7 90q-31 -48 -82.5 -75t-112.5 -27zM179 28q81 0 137 54.5t70 147.5l4 26l-161 -13q-73 -6 -114 -40t-41 -89q0 -39 28.5 -62.5t76.5 -23.5z" />
    <glyph glyph-name="Cacute" unicode="&#x106;" horiz-adv-x="707" 
d="M563 870l-82 -105h-42l69 105h55zM349 -11q-129 0 -208 86.5t-79 228.5q0 181 105 299.5t265 118.5q109 0 184 -63.5t83 -161.5h-46q-11 81 -72 131.5t-149 50.5q-141 0 -232.5 -106t-91.5 -269q0 -124 65.5 -197.5t176.5 -73.5q180 0 260 170h51q-90 -214 -312 -214z
" />
    <glyph glyph-name="cacute" unicode="&#x107;" horiz-adv-x="496" 
d="M402 640l-82 -105h-42l69 105h55zM36 201q0 123 72.5 207t179.5 84q75 0 122 -39.5t57 -112.5h-45q-7 52 -43 82t-91 30q-88 0 -148 -72.5t-60 -178.5q0 -77 43 -125t112 -48q58 0 102.5 30t63.5 81h46q-24 -70 -81 -110.5t-131 -40.5q-87 0 -143 60t-56 153z" />
    <glyph glyph-name="Ccircumflex" unicode="&#x108;" horiz-adv-x="707" 
d="M404 765h-49l85 106h68l51 -106h-43l-42 83zM349 -11q-129 0 -208 86.5t-79 228.5q0 181 105 299.5t265 118.5q109 0 184 -63.5t83 -161.5h-46q-11 81 -72 131.5t-149 50.5q-141 0 -232.5 -106t-91.5 -269q0 -124 65.5 -197.5t176.5 -73.5q180 0 260 170h51
q-90 -214 -312 -214z" />
    <glyph glyph-name="ccircumflex" unicode="&#x109;" horiz-adv-x="496" 
d="M243 535h-49l85 106h68l51 -106h-43l-42 83zM36 201q0 123 72.5 207t179.5 84q75 0 122 -39.5t57 -112.5h-45q-7 52 -43 82t-91 30q-88 0 -148 -72.5t-60 -178.5q0 -77 43 -125t112 -48q58 0 102.5 30t63.5 81h46q-24 -70 -81 -110.5t-131 -40.5q-87 0 -143 60t-56 153z
" />
    <glyph glyph-name="Cdotaccent" unicode="&#x10a;" horiz-adv-x="707" 
d="M462 788q-15 0 -25 10t-10 24q0 20 13.5 34.5t32.5 14.5q15 0 25 -10t10 -24q0 -20 -13.5 -34.5t-32.5 -14.5zM349 -11q-129 0 -208 86.5t-79 228.5q0 181 105 299.5t265 118.5q109 0 184 -63.5t83 -161.5h-46q-11 81 -72 131.5t-149 50.5q-141 0 -232.5 -106t-91.5 -269
q0 -124 65.5 -197.5t176.5 -73.5q180 0 260 170h51q-90 -214 -312 -214z" />
    <glyph glyph-name="cdotaccent" unicode="&#x10b;" horiz-adv-x="496" 
d="M301 558q-15 0 -25 10t-10 24q0 20 13.5 34.5t32.5 14.5q15 0 25 -10t10 -24q0 -20 -13.5 -34.5t-32.5 -14.5zM36 201q0 123 72.5 207t179.5 84q75 0 122 -39.5t57 -112.5h-45q-7 52 -43 82t-91 30q-88 0 -148 -72.5t-60 -178.5q0 -77 43 -125t112 -48q58 0 102.5 30
t63.5 81h46q-24 -70 -81 -110.5t-131 -40.5q-87 0 -143 60t-56 153z" />
    <glyph glyph-name="Ccaron" unicode="&#x10c;" horiz-adv-x="707" 
d="M424 765l-51 106h43l42 -83l70 83h49l-85 -106h-68zM349 -11q-129 0 -208 86.5t-79 228.5q0 181 105 299.5t265 118.5q109 0 184 -63.5t83 -161.5h-46q-11 81 -72 131.5t-149 50.5q-141 0 -232.5 -106t-91.5 -269q0 -124 65.5 -197.5t176.5 -73.5q180 0 260 170h51
q-90 -214 -312 -214z" />
    <glyph glyph-name="ccaron" unicode="&#x10d;" horiz-adv-x="496" 
d="M263 535l-51 106h43l42 -83l70 83h49l-85 -106h-68zM36 201q0 123 72.5 207t179.5 84q75 0 122 -39.5t57 -112.5h-45q-7 52 -43 82t-91 30q-88 0 -148 -72.5t-60 -178.5q0 -77 43 -125t112 -48q58 0 102.5 30t63.5 81h46q-24 -70 -81 -110.5t-131 -40.5q-87 0 -143 60
t-56 153z" />
    <glyph glyph-name="Dcaron" unicode="&#x10e;" horiz-adv-x="683" 
d="M335 764l-51 106h43l42 -83l70 83h49l-85 -106h-68zM245 0h-193l112 710h183q145 0 228 -83.5t83 -216.5q0 -191 -116 -300.5t-297 -109.5zM342 669h-139l-99 -627h149q159 0 259 97.5t100 270.5q0 117 -71 188t-199 71z" />
    <glyph glyph-name="dcaron" unicode="&#x10f;" 
d="M225 -12q-84 0 -136.5 57.5t-52.5 149.5q0 126 73.5 211.5t182.5 85.5q65 0 109.5 -31.5t59.5 -88.5l55 350h43l-114 -722h-37l11 105q-70 -117 -194 -117zM592 578l23 144h47l-36 -144h-34zM229 28q91 0 152.5 75.5t61.5 186.5q0 78 -39.5 120t-112.5 42
q-90 0 -150.5 -73.5t-60.5 -183.5q0 -76 40.5 -121.5t108.5 -45.5z" />
    <glyph glyph-name="Dcroat" unicode="&#x110;" horiz-adv-x="683" 
d="M245 0h-193l53 334h-68l7 42h67l53 334h183q145 0 228 -83.5t83 -216.5q0 -191 -116 -300.5t-297 -109.5zM304 334h-154l-46 -292h149q159 0 259 97.5t100 270.5q0 117 -71 188t-199 71h-139l-46 -293h154z" />
    <glyph glyph-name="dcroat" unicode="&#x111;" 
d="M225 -12q-84 0 -136.5 57.5t-52.5 149.5q0 126 73.5 211.5t182.5 85.5q65 0 109.5 -31.5t59.5 -88.5l32 206h-159l6 37h159l17 107h43l-17 -107h58l-6 -37h-58l-91 -578h-37l11 105q-70 -117 -194 -117zM229 28q91 0 152.5 75.5t61.5 186.5q0 78 -39.5 120t-112.5 42
q-90 0 -150.5 -73.5t-60.5 -183.5q0 -76 40.5 -121.5t108.5 -45.5z" />
    <glyph glyph-name="Emacron" unicode="&#x112;" 
d="M275 829l6 40h210l-6 -40h-210zM461 0h-409l112 710h408l-6 -42h-363l-46 -291h330l-7 -42h-330l-47 -293h365z" />
    <glyph glyph-name="emacron" unicode="&#x113;" horiz-adv-x="505" 
d="M202 599l6 40h210l-6 -40h-210zM235 -12q-87 0 -143 60t-56 153q0 123 72.5 207t179.5 84q95 0 147 -63.5t37 -157.5l-5 -31h-385q-2 -26 -2 -39q0 -77 43 -125t112 -48q58 0 104.5 29.5t65.5 79.5h45q-24 -70 -82 -109.5t-133 -39.5zM288 452q-70 0 -124.5 -49
t-74.5 -127h339q13 79 -26.5 127.5t-113.5 48.5z" />
    <glyph glyph-name="Ebreve" unicode="&#x114;" 
d="M451 871h41q-8 -51 -37.5 -80t-76.5 -29q-46 0 -70.5 29t-24.5 80h40q0 -68 58 -68q59 0 70 68zM461 0h-409l112 710h408l-6 -42h-363l-46 -291h330l-7 -42h-330l-47 -293h365z" />
    <glyph glyph-name="ebreve" unicode="&#x115;" horiz-adv-x="505" 
d="M378 641h41q-8 -51 -37.5 -80t-76.5 -29q-46 0 -70.5 29t-24.5 80h40q0 -68 58 -68q59 0 70 68zM235 -12q-87 0 -143 60t-56 153q0 123 72.5 207t179.5 84q95 0 147 -63.5t37 -157.5l-5 -31h-385q-2 -26 -2 -39q0 -77 43 -125t112 -48q58 0 104.5 29.5t65.5 79.5h45
q-24 -70 -82 -109.5t-133 -39.5zM288 452q-70 0 -124.5 -49t-74.5 -127h339q13 79 -26.5 127.5t-113.5 48.5z" />
    <glyph glyph-name="Edotaccent" unicode="&#x116;" 
d="M374 788q-15 0 -25 10t-10 24q0 20 13.5 34.5t32.5 14.5q15 0 25 -10t10 -24q0 -20 -13.5 -34.5t-32.5 -14.5zM461 0h-409l112 710h408l-6 -42h-363l-46 -291h330l-7 -42h-330l-47 -293h365z" />
    <glyph glyph-name="edotaccent" unicode="&#x117;" horiz-adv-x="505" 
d="M301 558q-15 0 -25 10t-10 24q0 20 13.5 34.5t32.5 14.5q15 0 25 -10t10 -24q0 -20 -13.5 -34.5t-32.5 -14.5zM235 -12q-87 0 -143 60t-56 153q0 123 72.5 207t179.5 84q95 0 147 -63.5t37 -157.5l-5 -31h-385q-2 -26 -2 -39q0 -77 43 -125t112 -48q58 0 104.5 29.5
t65.5 79.5h45q-24 -70 -82 -109.5t-133 -39.5zM288 452q-70 0 -124.5 -49t-74.5 -127h339q13 79 -26.5 127.5t-113.5 48.5z" />
    <glyph glyph-name="Eogonek" unicode="&#x118;" 
d="M427 0h-375l112 710h408l-6 -42h-363l-46 -291h330l-7 -42h-330l-47 -293h365l-7 -42q-25 -10 -42 -30t-17 -38q0 -22 26 -22q10 0 21 3l-7 -40q-9 -4 -29 -4q-24 0 -38 13.5t-14 37.5q0 47 66 80z" />
    <glyph glyph-name="eogonek" unicode="&#x119;" horiz-adv-x="505" 
d="M235 -12q-87 0 -143 60t-56 153q0 123 72.5 207t179.5 84q95 0 147 -63.5t37 -157.5l-5 -31h-385q-2 -26 -2 -39q0 -77 43 -125t112 -48q58 0 104.5 29.5t65.5 79.5h45q-35 -103 -138 -137q-25 -10 -42 -30t-17 -38q0 -22 26 -22q11 0 21 3l-7 -40q-9 -4 -29 -4
q-24 0 -38 13.5t-14 37.5q0 39 47 69q-8 -1 -24 -1zM288 452q-70 0 -124.5 -49t-74.5 -127h339q13 79 -26.5 127.5t-113.5 48.5z" />
    <glyph glyph-name="Ecaron" unicode="&#x11a;" 
d="M336 765l-51 106h43l42 -83l70 83h49l-85 -106h-68zM461 0h-409l112 710h408l-6 -42h-363l-46 -291h330l-7 -42h-330l-47 -293h365z" />
    <glyph glyph-name="ecaron" unicode="&#x11b;" horiz-adv-x="505" 
d="M263 535l-51 106h43l42 -83l70 83h49l-85 -106h-68zM235 -12q-87 0 -143 60t-56 153q0 123 72.5 207t179.5 84q95 0 147 -63.5t37 -157.5l-5 -31h-385q-2 -26 -2 -39q0 -77 43 -125t112 -48q58 0 104.5 29.5t65.5 79.5h45q-24 -70 -82 -109.5t-133 -39.5zM288 452
q-70 0 -124.5 -49t-74.5 -127h339q13 79 -26.5 127.5t-113.5 48.5z" />
    <glyph glyph-name="Gcircumflex" unicode="&#x11c;" horiz-adv-x="727" 
d="M385 766h-49l85 106h68l51 -106h-43l-42 83zM432 679q-141 0 -232.5 -106t-91.5 -269q0 -124 65.5 -197.5t176.5 -73.5q116 0 191.5 66t94.5 183l8 52h-272l7 42h315l-60 -377h-33l14 129q-39 -65 -110.5 -102.5t-155.5 -37.5q-129 0 -208 87t-79 229q0 181 105 299.5
t265 118.5q109 0 182.5 -55.5t84.5 -147.5h-46q-11 74 -70.5 117t-150.5 43z" />
    <glyph glyph-name="gcircumflex" unicode="&#x11d;" 
d="M249 548h-49l85 106h68l51 -106h-43l-42 83zM38 215q0 116 74 196.5t182 80.5q63 0 106.5 -31t58.5 -87l25 106h37l-74 -470q-17 -108 -78 -165.5t-159 -57.5q-88 0 -143.5 47.5t-58.5 126.5h44q3 -62 45.5 -98t112.5 -36q80 0 130 47.5t64 135.5l21 129
q-33 -58 -84.5 -89.5t-113.5 -31.5q-85 0 -137 54.5t-52 142.5zM82 215q0 -71 39.5 -114t105.5 -43q90 0 151 69t61 172q0 71 -39.5 112t-107.5 41q-88 0 -149 -68.5t-61 -168.5z" />
    <glyph glyph-name="Gbreve" unicode="&#x11e;" horiz-adv-x="727" 
d="M520 872h41q-8 -51 -37.5 -80t-76.5 -29q-46 0 -70.5 29t-24.5 80h40q0 -68 58 -68q59 0 70 68zM432 679q-141 0 -232.5 -106t-91.5 -269q0 -124 65.5 -197.5t176.5 -73.5q116 0 191.5 66t94.5 183l8 52h-272l7 42h315l-60 -377h-33l14 129q-39 -65 -110.5 -102.5
t-155.5 -37.5q-129 0 -208 87t-79 229q0 181 105 299.5t265 118.5q109 0 182.5 -55.5t84.5 -147.5h-46q-11 74 -70.5 117t-150.5 43z" />
    <glyph glyph-name="gbreve" unicode="&#x11f;" 
d="M384 654h41q-8 -51 -37.5 -80t-76.5 -29q-46 0 -70.5 29t-24.5 80h40q0 -68 58 -68q59 0 70 68zM38 215q0 116 74 196.5t182 80.5q63 0 106.5 -31t58.5 -87l25 106h37l-74 -470q-17 -108 -78 -165.5t-159 -57.5q-88 0 -143.5 47.5t-58.5 126.5h44q3 -62 45.5 -98
t112.5 -36q80 0 130 47.5t64 135.5l21 129q-33 -58 -84.5 -89.5t-113.5 -31.5q-85 0 -137 54.5t-52 142.5zM82 215q0 -71 39.5 -114t105.5 -43q90 0 151 69t61 172q0 71 -39.5 112t-107.5 41q-88 0 -149 -68.5t-61 -168.5z" />
    <glyph glyph-name="Gdotaccent" unicode="&#x120;" horiz-adv-x="727" 
d="M443 789q-15 0 -25 10t-10 24q0 20 13.5 34.5t32.5 14.5q15 0 25 -10t10 -24q0 -20 -13.5 -34.5t-32.5 -14.5zM432 679q-141 0 -232.5 -106t-91.5 -269q0 -124 65.5 -197.5t176.5 -73.5q116 0 191.5 66t94.5 183l8 52h-272l7 42h315l-60 -377h-33l14 129
q-39 -65 -110.5 -102.5t-155.5 -37.5q-129 0 -208 87t-79 229q0 181 105 299.5t265 118.5q109 0 182.5 -55.5t84.5 -147.5h-46q-11 74 -70.5 117t-150.5 43z" />
    <glyph glyph-name="gdotaccent" unicode="&#x121;" 
d="M307 571q-15 0 -25 10t-10 24q0 20 13.5 34.5t32.5 14.5q15 0 25 -10t10 -24q0 -20 -13.5 -34.5t-32.5 -14.5zM38 215q0 116 74 196.5t182 80.5q63 0 106.5 -31t58.5 -87l25 106h37l-74 -470q-17 -108 -78 -165.5t-159 -57.5q-88 0 -143.5 47.5t-58.5 126.5h44
q3 -62 45.5 -98t112.5 -36q80 0 130 47.5t64 135.5l21 129q-33 -58 -84.5 -89.5t-113.5 -31.5q-85 0 -137 54.5t-52 142.5zM82 215q0 -71 39.5 -114t105.5 -43q90 0 151 69t61 172q0 71 -39.5 112t-107.5 41q-88 0 -149 -68.5t-61 -168.5z" />
    <glyph glyph-name="Gcommaaccent" unicode="&#x122;" horiz-adv-x="727" 
d="M432 679q-141 0 -232.5 -106t-91.5 -269q0 -124 65.5 -197.5t176.5 -73.5q116 0 191.5 66t94.5 183l8 52h-272l7 42h315l-60 -377h-33l14 129q-39 -65 -110.5 -102.5t-155.5 -37.5q-129 0 -208 87t-79 229q0 181 105 299.5t265 118.5q109 0 182.5 -55.5t84.5 -147.5h-46
q-11 74 -70.5 117t-150.5 43zM371 -77q0 -37 -26 -69.5t-59 -33.5l4 26q16 1 29 12t15 27q-4 -2 -11 -2q-13 0 -23 9t-10 23q0 19 14 33.5t32 14.5q35 0 35 -40z" />
    <glyph glyph-name="gcommaaccent" unicode="&#x123;" 
d="M346 581q0 -19 -14 -33.5t-32 -14.5q-35 0 -35 40q0 37 26 69.5t59 33.5l-4 -26q-16 -1 -29 -12t-15 -27q4 2 11 2q13 0 23 -9t10 -23zM38 215q0 116 74 196.5t182 80.5q63 0 106.5 -31t58.5 -87l25 106h37l-74 -470q-17 -108 -78 -165.5t-159 -57.5q-88 0 -143.5 47.5
t-58.5 126.5h44q3 -62 45.5 -98t112.5 -36q80 0 130 47.5t64 135.5l21 129q-33 -58 -84.5 -89.5t-113.5 -31.5q-85 0 -137 54.5t-52 142.5zM82 215q0 -71 39.5 -114t105.5 -43q90 0 151 69t61 172q0 71 -39.5 112t-107.5 41q-88 0 -149 -68.5t-61 -168.5z" />
    <glyph glyph-name="Hbar" unicode="&#x126;" horiz-adv-x="677" 
d="M97 0h-45l87 549h-84l7 43h83l19 118h45l-18 -118h406l19 118h45l-19 -118h88l-7 -43h-87l-87 -549h-45l53 340h-406zM158 382h406l26 167h-406z" />
    <glyph glyph-name="hbar" unicode="&#x127;" horiz-adv-x="540" 
d="M81 0h-43l91 578h-58l6 37h58l17 107h43l-17 -107h159l-6 -37h-159l-30 -194q68 108 182 108q83 0 125.5 -54.5t28.5 -145.5l-46 -292h-43l45 283q13 83 -16.5 126t-98.5 43q-77 0 -130.5 -55.5t-68.5 -149.5z" />
    <glyph glyph-name="Itilde" unicode="&#x128;" horiz-adv-x="225" 
d="M114 785h-38q5 44 24.5 67.5t48.5 23.5q26 0 56.5 -26t49.5 -26q33 0 40 52h38q-14 -91 -77 -91q-30 0 -60.5 26t-44.5 26q-29 0 -37 -52zM209 710l-112 -710h-45l112 710h45z" />
    <glyph glyph-name="itilde" unicode="&#x129;" horiz-adv-x="195" 
d="M63 555h-38q5 44 24.5 67.5t48.5 23.5q26 0 56.5 -26t49.5 -26q33 0 40 52h38q-14 -91 -77 -91q-30 0 -60.5 26t-44.5 26q-29 0 -37 -52zM38 0l76 480h43l-76 -480h-43z" />
    <glyph glyph-name="Imacron" unicode="&#x12a;" horiz-adv-x="225" 
d="M100 829l6 40h210l-6 -40h-210zM209 710l-112 -710h-45l112 710h45z" />
    <glyph glyph-name="imacron" unicode="&#x12b;" horiz-adv-x="195" 
d="M49 599l6 40h210l-6 -40h-210zM38 0l76 480h43l-76 -480h-43z" />
    <glyph glyph-name="Iogonek" unicode="&#x12e;" horiz-adv-x="225" 
d="M63 0h-11l112 710h45l-112 -710q-25 -10 -42 -30t-17 -38q0 -22 26 -22q10 0 21 3l-7 -40q-9 -4 -29 -4q-24 0 -38 13.5t-14 37.5q0 47 66 80z" />
    <glyph glyph-name="iogonek" unicode="&#x12f;" horiz-adv-x="195" 
d="M159 628q-15 0 -25 10t-10 24q0 20 13.5 34.5t32.5 14.5q15 0 25 -10t10 -24q0 -20 -13.5 -34.5t-32.5 -14.5zM38 0l76 480h43l-76 -480q-25 -10 -42 -30t-17 -38q0 -22 26 -22q10 0 21 3l-7 -40q-9 -4 -29 -4q-24 0 -38 13.5t-14 37.5q0 47 66 80h-9z" />
    <glyph glyph-name="Idotaccent" unicode="&#x130;" horiz-adv-x="225" 
d="M199 788q-15 0 -25 10t-10 24q0 20 13.5 34.5t32.5 14.5q15 0 25 -10t10 -24q0 -20 -13.5 -34.5t-32.5 -14.5zM209 710l-112 -710h-45l112 710h45z" />
    <glyph glyph-name="dotlessi" unicode="&#x131;" horiz-adv-x="195" 
d="M38 0l76 480h43l-76 -480h-43z" />
    <glyph glyph-name="Jcircumflex" unicode="&#x134;" horiz-adv-x="483" 
d="M405 766h-49l85 106h68l51 -106h-43l-42 83zM13 193l3 22h45l-3 -22q-11 -76 21.5 -118.5t100.5 -42.5q72 0 111.5 39t53.5 122l82 517h45l-82 -517q-33 -205 -208 -205q-88 0 -135 57t-34 148z" />
    <glyph glyph-name="jcircumflex" unicode="&#x135;" horiz-adv-x="193" 
d="M88 535h-49l85 106h68l51 -106h-43l-42 83zM-124 -203l13 41q21 -8 47 -8q73 0 88 96l88 554h43l-88 -554q-10 -67 -44.5 -102t-88.5 -35q-32 0 -58 8z" />
    <glyph glyph-name="Kcommaaccent" unicode="&#x136;" horiz-adv-x="579" 
d="M209 710l-71 -448l427 448h58l-287 -301l180 -409h-49l-165 373l-175 -184l-30 -189h-45l112 710h45zM307 -77q0 -37 -26 -69.5t-59 -33.5l4 26q16 1 29 12t15 27q-4 -2 -11 -2q-13 0 -23 9t-10 23q0 19 14 33.5t32 14.5q35 0 35 -40z" />
    <glyph glyph-name="kcommaaccent" unicode="&#x137;" horiz-adv-x="448" 
d="M85 0h-43l114 722h43l-81 -511l299 269h57l-212 -192l138 -288h-47l-123 260l-121 -109zM224 -77q0 -37 -26 -69.5t-59 -33.5l4 26q16 1 29 12t15 27q-4 -2 -11 -2q-13 0 -23 9t-10 23q0 19 14 33.5t32 14.5q35 0 35 -40z" />
    <glyph glyph-name="Lacute" unicode="&#x139;" horiz-adv-x="487" 
d="M300 870l-82 -105h-42l69 105h55zM209 710l-105 -668h332l-7 -42h-377l112 710h45z" />
    <glyph glyph-name="lacute" unicode="&#x13a;" horiz-adv-x="203" 
d="M289 871l-82 -105h-42l69 105h55zM85 0h-43l114 722h43z" />
    <glyph glyph-name="Lcommaaccent" unicode="&#x13b;" horiz-adv-x="487" 
d="M209 710l-105 -668h332l-7 -42h-377l112 710h45zM250 -77q0 -37 -26 -69.5t-59 -33.5l4 26q16 1 29 12t15 27q-4 -2 -11 -2q-13 0 -23 9t-10 23q0 19 14 33.5t32 14.5q35 0 35 -40z" />
    <glyph glyph-name="lcommaaccent" unicode="&#x13c;" horiz-adv-x="203" 
d="M85 0h-43l114 722h43zM89 -77q0 -37 -26 -69.5t-59 -33.5l4 26q16 1 29 12t15 27q-4 -2 -11 -2q-13 0 -23 9t-10 23q0 19 14 33.5t32 14.5q35 0 35 -40z" />
    <glyph glyph-name="Lcaron" unicode="&#x13d;" horiz-adv-x="487" 
d="M209 710l-105 -668h332l-7 -42h-377l112 710h45zM242 565l23 144h47l-36 -144h-34z" />
    <glyph glyph-name="lcaron" unicode="&#x13e;" horiz-adv-x="203" 
d="M85 0h-43l114 722h43zM232 578l23 144h47l-36 -144h-34z" />
    <glyph glyph-name="Ldot" unicode="&#x13f;" horiz-adv-x="487" 
d="M209 710l-105 -668h332l-7 -42h-377l112 710h45zM287 328q-15 0 -26 11t-11 26q0 16 10.5 27t26.5 11q15 0 26 -11t11 -27q0 -15 -11 -26t-26 -11z" />
    <glyph glyph-name="ldot" unicode="&#x140;" horiz-adv-x="307" 
d="M85 0h-43l114 722h43zM257 322q-17 0 -29 12t-12 28q0 17 12 28.5t29 11.5t28.5 -12t11.5 -28t-12 -28t-28 -12z" />
    <glyph glyph-name="Lslash" unicode="&#x141;" horiz-adv-x="487" 
d="M22 269l7 47l78 35l57 359h45l-53 -337l229 104l-8 -47l-229 -104l-44 -284h332l-7 -42h-377l48 304z" />
    <glyph glyph-name="lslash" unicode="&#x142;" horiz-adv-x="203" 
d="M85 0h-43l55 351l-70 -32l6 40l71 32l52 331h43l-49 -309l69 31l-7 -41l-68 -31z" />
    <glyph glyph-name="Nacute" unicode="&#x143;" horiz-adv-x="680" 
d="M529 870l-82 -105h-42l69 105h55zM98 0h-46l112 710h46l309 -634l99 634h46l-112 -710h-44l-310 637z" />
    <glyph glyph-name="nacute" unicode="&#x144;" horiz-adv-x="540" 
d="M421 640l-82 -105h-42l69 105h55zM81 0h-43l76 480h34l-6 -96q68 108 182 108q83 0 125.5 -54.5t28.5 -145.5l-46 -292h-43l45 283q13 83 -16.5 126t-98.5 43q-77 0 -130.5 -55.5t-68.5 -149.5z" />
    <glyph glyph-name="Ncommaaccent" unicode="&#x145;" horiz-adv-x="680" 
d="M98 0h-46l112 710h46l309 -634l99 634h46l-112 -710h-44l-310 637zM334 -77q0 -37 -26 -69.5t-59 -33.5l4 26q16 1 29 12t15 27q-4 -2 -11 -2q-13 0 -23 9t-10 23q0 19 14 33.5t32 14.5q35 0 35 -40z" />
    <glyph glyph-name="ncommaaccent" unicode="&#x146;" horiz-adv-x="540" 
d="M81 0h-43l76 480h34l-6 -96q68 108 182 108q83 0 125.5 -54.5t28.5 -145.5l-46 -292h-43l45 283q13 83 -16.5 126t-98.5 43q-77 0 -130.5 -55.5t-68.5 -149.5zM257 -77q0 -37 -26 -69.5t-59 -33.5l4 26q16 1 29 12t15 27q-4 -2 -11 -2q-13 0 -23 9t-10 23q0 19 14 33.5
t32 14.5q35 0 35 -40z" />
    <glyph glyph-name="Ncaron" unicode="&#x147;" horiz-adv-x="680" 
d="M390 765l-51 106h43l42 -83l70 83h49l-85 -106h-68zM98 0h-46l112 710h46l309 -634l99 634h46l-112 -710h-44l-310 637z" />
    <glyph glyph-name="ncaron" unicode="&#x148;" horiz-adv-x="540" 
d="M282 535l-51 106h43l42 -83l70 83h49l-85 -106h-68zM81 0h-43l76 480h34l-6 -96q68 108 182 108q83 0 125.5 -54.5t28.5 -145.5l-46 -292h-43l45 283q13 83 -16.5 126t-98.5 43q-77 0 -130.5 -55.5t-68.5 -149.5z" />
    <glyph glyph-name="Eng" unicode="&#x14a;" horiz-adv-x="680" 
d="M405 -211q-35 0 -65 11l13 42q33 -10 52 -10q75 0 90 93l12 74l-309 637l-100 -636h-46l112 710h46l308 -635l100 635h46l-124 -784q-21 -137 -135 -137z" />
    <glyph glyph-name="eng" unicode="&#x14b;" horiz-adv-x="540" 
d="M81 0h-43l76 480h34l-6 -96q68 108 182 108q83 0 125.5 -54.5t28.5 -145.5l-58 -366q-10 -67 -44.5 -102t-88.5 -35q-32 0 -58 8l13 41q21 -8 47 -8q73 0 88 96l57 357q13 83 -16.5 126t-98.5 43q-77 0 -130.5 -55.5t-68.5 -149.5z" />
    <glyph glyph-name="Omacron" unicode="&#x14c;" horiz-adv-x="753" 
d="M352 830l6 40h210l-6 -40h-210zM729 414q0 -177 -111 -301.5t-269 -124.5q-130 0 -209.5 84.5t-79.5 222.5q0 178 110.5 302.5t268.5 124.5q130 0 210 -85.5t80 -222.5zM683 414q0 119 -68 191.5t-180 72.5q-136 0 -232.5 -112.5t-96.5 -270.5q0 -119 67.5 -191
t179.5 -72q137 0 233.5 112t96.5 270z" />
    <glyph glyph-name="omacron" unicode="&#x14d;" horiz-adv-x="545" 
d="M224 599l6 40h210l-6 -40h-210zM36 206q0 118 79.5 202t189.5 84q91 0 147.5 -60.5t56.5 -157.5q0 -118 -79.5 -202t-189.5 -84q-91 0 -147.5 60.5t-56.5 157.5zM80 206q0 -82 44.5 -130t121.5 -48q90 0 154.5 72.5t64.5 173.5q0 82 -44.5 130t-121.5 48
q-90 0 -154.5 -72.5t-64.5 -173.5z" />
    <glyph glyph-name="Ohungarumlaut" unicode="&#x150;" horiz-adv-x="753" 
d="M507 871l-80 -105h-40l67 105h53zM606 871l-97 -105h-42l83 105h56zM729 414q0 -177 -111 -301.5t-269 -124.5q-130 0 -209.5 84.5t-79.5 222.5q0 178 110.5 302.5t268.5 124.5q130 0 210 -85.5t80 -222.5zM683 414q0 119 -68 191.5t-180 72.5q-136 0 -232.5 -112.5
t-96.5 -270.5q0 -119 67.5 -191t179.5 -72q137 0 233.5 112t96.5 270z" />
    <glyph glyph-name="ohungarumlaut" unicode="&#x151;" horiz-adv-x="545" 
d="M379 640l-80 -105h-40l67 105h53zM478 640l-97 -105h-42l83 105h56zM36 206q0 118 79.5 202t189.5 84q91 0 147.5 -60.5t56.5 -157.5q0 -118 -79.5 -202t-189.5 -84q-91 0 -147.5 60.5t-56.5 157.5zM80 206q0 -82 44.5 -130t121.5 -48q90 0 154.5 72.5t64.5 173.5
q0 82 -44.5 130t-121.5 48q-90 0 -154.5 -72.5t-64.5 -173.5z" />
    <glyph glyph-name="OE" unicode="&#x152;" horiz-adv-x="1128" 
d="M60 295q0 178 110.5 302.5t268.5 124.5q98 0 169 -52.5t101 -144.5l27 185h406l-6 -42h-361l-46 -291h329l-7 -42h-329l-46 -293h361l-7 -42h-406l25 155q-50 -76 -129 -121.5t-171 -45.5q-130 0 -209.5 84.5t-79.5 222.5zM106 295q0 -119 67.5 -191t179.5 -72
q137 0 233.5 112t96.5 270q0 119 -68 191.5t-180 72.5q-136 0 -232.5 -112.5t-96.5 -270.5z" />
    <glyph glyph-name="oe" unicode="&#x153;" horiz-adv-x="930" 
d="M36 206q0 118 79.5 202t189.5 84q70 0 121 -37.5t71 -102.5q33 65 90 102.5t126 37.5q95 0 147 -63.5t37 -157.5l-5 -31h-385q-2 -26 -2 -39q0 -77 43 -125t112 -48q58 0 104 29.5t65 79.5h46q-24 -70 -82 -109.5t-133 -39.5q-69 0 -119.5 39t-68.5 104q-36 -65 -98 -104
t-134 -39q-91 0 -147.5 60.5t-56.5 157.5zM80 206q0 -82 44.5 -130t121.5 -48q90 0 154.5 72.5t64.5 173.5q0 82 -44.5 130t-121.5 48q-90 0 -154.5 -72.5t-64.5 -173.5zM713 452q-70 0 -124.5 -49t-74.5 -127h339q13 79 -26.5 127.5t-113.5 48.5z" />
    <glyph glyph-name="Racute" unicode="&#x154;" horiz-adv-x="612" 
d="M486 871l-82 -105h-42l69 105h55zM97 0h-45l112 710h256q85 0 135.5 -48.5t50.5 -130.5t-50.5 -141.5t-136.5 -76.5l106 -313h-47l-104 308h-228zM203 668l-51 -318h213q89 0 142 49t53 132q0 65 -38.5 101t-107.5 36h-211z" />
    <glyph glyph-name="racute" unicode="&#x155;" horiz-adv-x="318" 
d="M318 647l-82 -105h-42l69 105h55zM337 487l-6 -38h-35q-63 0 -110 -43.5t-58 -111.5l-47 -294h-43l76 480h37l-8 -85q18 44 59 70.5t91 26.5q21 0 44 -5z" />
    <glyph glyph-name="Rcommaaccent" unicode="&#x156;" horiz-adv-x="612" 
d="M97 0h-45l112 710h256q85 0 135.5 -48.5t50.5 -130.5t-50.5 -141.5t-136.5 -76.5l106 -313h-47l-104 308h-228zM203 668l-51 -318h213q89 0 142 49t53 132q0 65 -38.5 101t-107.5 36h-211zM313 -77q0 -37 -26 -69.5t-59 -33.5l4 26q16 1 29 12t15 27q-4 -2 -11 -2
q-13 0 -23 9t-10 23q0 19 14 33.5t32 14.5q35 0 35 -40z" />
    <glyph glyph-name="rcommaaccent" unicode="&#x157;" horiz-adv-x="318" 
d="M337 487l-6 -38h-35q-63 0 -110 -43.5t-58 -111.5l-47 -294h-43l76 480h37l-8 -85q18 44 59 70.5t91 26.5q21 0 44 -5zM85 -77q0 -37 -26 -69.5t-59 -33.5l4 26q16 1 29 12t15 27q-4 -2 -11 -2q-13 0 -23 9t-10 23q0 19 14 33.5t32 14.5q35 0 35 -40z" />
    <glyph glyph-name="Rcaron" unicode="&#x158;" horiz-adv-x="612" 
d="M347 766l-51 106h43l42 -83l70 83h49l-85 -106h-68zM97 0h-45l112 710h256q85 0 135.5 -48.5t50.5 -130.5t-50.5 -141.5t-136.5 -76.5l106 -313h-47l-104 308h-228zM203 668l-51 -318h213q89 0 142 49t53 132q0 65 -38.5 101t-107.5 36h-211z" />
    <glyph glyph-name="rcaron" unicode="&#x159;" horiz-adv-x="318" 
d="M179 542l-51 106h43l42 -83l70 83h49l-85 -106h-68zM337 487l-6 -38h-35q-63 0 -110 -43.5t-58 -111.5l-47 -294h-43l76 480h37l-8 -85q18 44 59 70.5t91 26.5q21 0 44 -5z" />
    <glyph glyph-name="Sacute" unicode="&#x15a;" horiz-adv-x="545" 
d="M441 871l-82 -105h-42l69 105h55zM90 530q0 84 61 138t156 54q97 0 156 -48.5t66 -133.5h-46q-7 67 -52.5 103t-123.5 36q-77 0 -124 -41t-47 -108q0 -50 26.5 -81.5t84.5 -52.5l108 -39q134 -48 134 -171q0 -88 -65.5 -143.5t-169.5 -55.5q-204 0 -227 181h47
q8 -66 54 -102t126 -36q84 0 136.5 43.5t52.5 112.5q0 50 -24 80.5t-79 49.5l-105 38q-76 27 -110.5 69t-34.5 107z" />
    <glyph glyph-name="sacute" unicode="&#x15b;" horiz-adv-x="412" 
d="M342 668l-82 -105h-42l69 105h55zM13 125h45q0 -43 33.5 -70t85.5 -27q57 0 92.5 27.5t35.5 71.5q0 32 -16 51.5t-54 32.5l-76 27q-100 36 -100 123q0 58 45.5 94.5t117.5 36.5q73 0 114 -37t41 -103h-45q-2 52 -29 76t-83 24q-53 0 -85 -25t-32 -66q0 -60 72 -86l75 -27
q53 -19 76 -47t23 -74q0 -61 -48.5 -100t-123.5 -39q-72 0 -118 38.5t-46 98.5z" />
    <glyph glyph-name="Scircumflex" unicode="&#x15c;" horiz-adv-x="545" 
d="M282 766h-49l85 106h68l51 -106h-43l-42 83zM90 530q0 84 61 138t156 54q97 0 156 -48.5t66 -133.5h-46q-7 67 -52.5 103t-123.5 36q-77 0 -124 -41t-47 -108q0 -50 26.5 -81.5t84.5 -52.5l108 -39q134 -48 134 -171q0 -88 -65.5 -143.5t-169.5 -55.5q-204 0 -227 181h47
q8 -66 54 -102t126 -36q84 0 136.5 43.5t52.5 112.5q0 50 -24 80.5t-79 49.5l-105 38q-76 27 -110.5 69t-34.5 107z" />
    <glyph glyph-name="scircumflex" unicode="&#x15d;" horiz-adv-x="412" 
d="M183 563h-49l85 106h68l51 -106h-43l-42 83zM13 125h45q0 -43 33.5 -70t85.5 -27q57 0 92.5 27.5t35.5 71.5q0 32 -16 51.5t-54 32.5l-76 27q-100 36 -100 123q0 58 45.5 94.5t117.5 36.5q73 0 114 -37t41 -103h-45q-2 52 -29 76t-83 24q-53 0 -85 -25t-32 -66
q0 -60 72 -86l75 -27q53 -19 76 -47t23 -74q0 -61 -48.5 -100t-123.5 -39q-72 0 -118 38.5t-46 98.5z" />
    <glyph glyph-name="Scedilla" unicode="&#x15e;" horiz-adv-x="545" 
d="M194 -155l6 36q23 -15 49 -15q48 0 48 34q0 29 -34 29q-20 0 -50 -13l-4 22l30 49q-191 8 -212 181h47q8 -66 54 -102t126 -36q84 0 136.5 43.5t52.5 112.5q0 50 -24 80.5t-79 49.5l-105 38q-76 27 -110.5 69t-34.5 107q0 84 61 138t156 54q97 0 156 -48.5t66 -133.5h-46
q-7 67 -52.5 103t-123.5 36q-77 0 -124 -41t-47 -108q0 -50 26.5 -81.5t84.5 -52.5l108 -39q134 -48 134 -171q0 -83 -60 -138t-156 -60l-17 -30q9 3 19 3q26 0 43.5 -16t17.5 -40q0 -34 -24 -54t-64 -20q-35 0 -54 14z" />
    <glyph glyph-name="scedilla" unicode="&#x15f;" horiz-adv-x="412" 
d="M13 125h45q0 -43 33 -70t85 -27l1 1h20q49 5 78.5 31.5t29.5 66.5q0 32 -16 51.5t-54 32.5l-76 27q-100 36 -100 123q0 58 45.5 94.5t117.5 36.5q73 0 114 -37t41 -103h-45q-2 52 -29 76t-83 24q-53 0 -85 -25t-32 -66q0 -60 72 -86l75 -27q53 -19 76 -47t23 -74
q0 -59 -45.5 -97.5t-117.5 -41.5l-16 -27q9 3 19 3q26 0 43.5 -16t17.5 -40q0 -34 -24 -54t-64 -20q-35 0 -54 14l6 36q22 -15 49 -15q48 0 48 34q0 29 -34 29q-20 0 -50 -13l-4 22l30 48q-63 7 -101.5 44t-38.5 92z" />
    <glyph glyph-name="Scaron" unicode="&#x160;" horiz-adv-x="545" 
d="M302 766l-51 106h43l42 -83l70 83h49l-85 -106h-68zM90 530q0 84 61 138t156 54q97 0 156 -48.5t66 -133.5h-46q-7 67 -52.5 103t-123.5 36q-77 0 -124 -41t-47 -108q0 -50 26.5 -81.5t84.5 -52.5l108 -39q134 -48 134 -171q0 -88 -65.5 -143.5t-169.5 -55.5
q-204 0 -227 181h47q8 -66 54 -102t126 -36q84 0 136.5 43.5t52.5 112.5q0 50 -24 80.5t-79 49.5l-105 38q-76 27 -110.5 69t-34.5 107z" />
    <glyph glyph-name="scaron" unicode="&#x161;" horiz-adv-x="412" 
d="M203 563l-51 106h43l42 -83l70 83h49l-85 -106h-68zM13 125h45q0 -43 33.5 -70t85.5 -27q57 0 92.5 27.5t35.5 71.5q0 32 -16 51.5t-54 32.5l-76 27q-100 36 -100 123q0 58 45.5 94.5t117.5 36.5q73 0 114 -37t41 -103h-45q-2 52 -29 76t-83 24q-53 0 -85 -25t-32 -66
q0 -60 72 -86l75 -27q53 -19 76 -47t23 -74q0 -61 -48.5 -100t-123.5 -39q-72 0 -118 38.5t-46 98.5z" />
    <glyph glyph-name="Tcedilla" unicode="&#x162;" horiz-adv-x="500" 
d="M140 -155l6 36q22 -15 49 -15q48 0 48 34q0 29 -34 29q-20 0 -50 -13l-4 22l38 62h-4l106 669h-217l6 41h480l-6 -41h-218l-106 -669h-7l-25 -42q9 3 19 3q26 0 43.5 -16t17.5 -40q0 -34 -24 -54t-64 -20q-35 0 -54 14z" />
    <glyph glyph-name="tcedilla" unicode="&#x163;" horiz-adv-x="273" 
d="M120 0h-8l-25 -42q9 3 19 3q26 0 43.5 -16t17.5 -40q0 -34 -24 -54t-64 -20q-35 0 -54 14l6 36q23 -15 49 -15q48 0 48 34q0 29 -34 29q-20 0 -50 -13l-4 22l38 62h-1l70 442h-95l6 38h95l24 152h43l-24 -152h95l-6 -38h-95z" />
    <glyph glyph-name="Tcaron" unicode="&#x164;" horiz-adv-x="500" 
d="M298 765l-51 106h43l42 -83l70 83h49l-85 -106h-68zM78 669l6 41h480l-6 -41h-218l-106 -669h-45l106 669h-217z" />
    <glyph glyph-name="tcaron" unicode="&#x165;" horiz-adv-x="273" 
d="M266 567l23 144h47l-36 -144h-34zM120 0h-43l70 442h-95l6 38h95l24 152h43l-24 -152h95l-6 -38h-95z" />
    <glyph glyph-name="Tbar" unicode="&#x166;" horiz-adv-x="500" 
d="M141 392l7 42h110l37 235h-217l6 41h480l-6 -41h-218l-37 -235h112l-7 -42h-112l-62 -392h-45l62 392h-110z" />
    <glyph glyph-name="tbar" unicode="&#x167;" horiz-adv-x="273" 
d="M120 0h-43l41 258h-68l6 37h68l23 147h-95l6 38h95l24 152h43l-24 -152h95l-6 -38h-95l-23 -147h68l-6 -37h-68z" />
    <glyph glyph-name="Utilde" unicode="&#x168;" horiz-adv-x="666" 
d="M336 785h-38q5 44 24.5 67.5t48.5 23.5q26 0 56.5 -26t49.5 -26q33 0 40 52h38q-14 -91 -77 -91q-30 0 -60.5 26t-44.5 26q-29 0 -37 -52zM85 238l75 472h45l-75 -471q-15 -96 33 -151t146 -55q95 0 152.5 52.5t73.5 153.5l75 471h45l-75 -472q-20 -122 -89.5 -186
t-181.5 -64q-116 0 -178.5 70t-45.5 180z" />
    <glyph glyph-name="utilde" unicode="&#x169;" horiz-adv-x="530" 
d="M236 555h-38q5 44 24.5 67.5t48.5 23.5q26 0 56.5 -26t49.5 -26q33 0 40 52h38q-14 -91 -77 -91q-30 0 -60.5 26t-44.5 26q-29 0 -37 -52zM449 480h43l-76 -480h-34l8 96q-68 -108 -179 -108q-80 0 -121.5 55t-27.5 145l46 292h43l-45 -283q-13 -83 15.5 -126t94.5 -43
q76 0 127.5 55t66.5 150z" />
    <glyph glyph-name="Umacron" unicode="&#x16a;" horiz-adv-x="666" 
d="M322 829l6 40h210l-6 -40h-210zM85 238l75 472h45l-75 -471q-15 -96 33 -151t146 -55q95 0 152.5 52.5t73.5 153.5l75 471h45l-75 -472q-20 -122 -89.5 -186t-181.5 -64q-116 0 -178.5 70t-45.5 180z" />
    <glyph glyph-name="umacron" unicode="&#x16b;" horiz-adv-x="530" 
d="M222 599l6 40h210l-6 -40h-210zM449 480h43l-76 -480h-34l8 96q-68 -108 -179 -108q-80 0 -121.5 55t-27.5 145l46 292h43l-45 -283q-13 -83 15.5 -126t94.5 -43q76 0 127.5 55t66.5 150z" />
    <glyph glyph-name="Uring" unicode="&#x16e;" horiz-adv-x="666" 
d="M419 766q-37 0 -60.5 23t-23.5 60q0 49 32 82t79 33q37 0 60.5 -23.5t23.5 -60.5q0 -47 -32.5 -80.5t-78.5 -33.5zM423 804q27 0 46.5 21t19.5 51q0 22 -13 36t-34 14q-27 0 -46.5 -21.5t-19.5 -51.5q0 -22 13 -35.5t34 -13.5zM85 238l75 472h45l-75 -471
q-15 -96 33 -151t146 -55q95 0 152.5 52.5t73.5 153.5l75 471h45l-75 -472q-20 -122 -89.5 -186t-181.5 -64q-116 0 -178.5 70t-45.5 180z" />
    <glyph glyph-name="uring" unicode="&#x16f;" horiz-adv-x="530" 
d="M319 536q-37 0 -60.5 23t-23.5 60q0 49 32 82t79 33q37 0 60.5 -23.5t23.5 -60.5q0 -47 -32.5 -80.5t-78.5 -33.5zM323 574q27 0 46.5 21t19.5 51q0 22 -13 36t-34 14q-27 0 -46.5 -21.5t-19.5 -51.5q0 -22 13 -35.5t34 -13.5zM449 480h43l-76 -480h-34l8 96
q-68 -108 -179 -108q-80 0 -121.5 55t-27.5 145l46 292h43l-45 -283q-13 -83 15.5 -126t94.5 -43q76 0 127.5 55t66.5 150z" />
    <glyph glyph-name="Uhungarumlaut" unicode="&#x170;" horiz-adv-x="666" 
d="M477 870l-80 -105h-40l67 105h53zM576 870l-97 -105h-42l83 105h56zM85 238l75 472h45l-75 -471q-15 -96 33 -151t146 -55q95 0 152.5 52.5t73.5 153.5l75 471h45l-75 -472q-20 -122 -89.5 -186t-181.5 -64q-116 0 -178.5 70t-45.5 180z" />
    <glyph glyph-name="uhungarumlaut" unicode="&#x171;" horiz-adv-x="530" 
d="M377 640l-80 -105h-40l67 105h53zM476 640l-97 -105h-42l83 105h56zM449 480h43l-76 -480h-34l8 96q-68 -108 -179 -108q-80 0 -121.5 55t-27.5 145l46 292h43l-45 -283q-13 -83 15.5 -126t94.5 -43q76 0 127.5 55t66.5 150z" />
    <glyph glyph-name="Uogonek" unicode="&#x172;" horiz-adv-x="666" 
d="M85 238l75 472h45l-75 -471q-15 -96 33 -151t146 -55q95 0 152.5 52.5t73.5 153.5l75 471h45l-75 -472q-15 -95 -61.5 -155.5t-120.5 -82.5q-25 -10 -42 -30t-17 -38q0 -22 26 -22q11 0 21 3l-7 -40q-9 -4 -29 -4q-24 0 -38 13.5t-14 37.5q0 39 48 70q-24 -2 -37 -2
q-116 0 -178.5 70t-45.5 180z" />
    <glyph glyph-name="uogonek" unicode="&#x173;" horiz-adv-x="530" 
d="M382 0l8 96q-68 -108 -179 -108q-80 0 -121.5 55t-27.5 145l46 292h43l-45 -283q-13 -83 15.5 -126t94.5 -43q76 0 127.5 55t66.5 150l39 247h43l-76 -480q-25 -10 -42 -30t-17 -38q0 -22 26 -22q11 0 21 3l-7 -40q-9 -4 -29 -4q-24 0 -38 13.5t-14 37.5q0 47 66 80z" />
    <glyph glyph-name="Wcircumflex" unicode="&#x174;" horiz-adv-x="934" 
d="M496 765h-49l85 106h68l51 -106h-43l-42 83zM183 0l-94 710h45l70 -543q5 -41 8 -106q22 55 47 106l258 543h47l85 -543q10 -59 13 -105q15 48 40 105l245 543h46l-319 -710h-41l-103 644l-305 -644h-42z" />
    <glyph glyph-name="wcircumflex" unicode="&#x175;" horiz-adv-x="701" 
d="M344 535h-49l85 106h68l51 -106h-43l-42 83zM134 0l-81 480h44l54 -330q8 -45 13 -94q15 41 41 94l161 330h45l53 -330q7 -40 13 -93q24 57 41 93l161 330h45l-233 -480h-44l-56 347q-8 43 -9 75q-5 -13 -35 -75l-169 -347h-44z" />
    <glyph glyph-name="Ycircumflex" unicode="&#x176;" horiz-adv-x="533" 
d="M296 765h-49l85 106h68l51 -106h-43l-42 83zM256 304l-172 406h49l136 -330q8 -18 14 -36q9 15 25 36l237 330h52l-296 -406l-48 -304h-45z" />
    <glyph glyph-name="ycircumflex" unicode="&#x177;" horiz-adv-x="435" 
d="M207 535h-49l85 106h68l51 -106h-43l-42 83zM-46 -202l6 35h43q27 0 42 2t37.5 18t38.5 48l35 69l-108 510h44l95 -450l230 450h46l-302 -591q-50 -97 -145 -97q-35 0 -62 6z" />
    <glyph glyph-name="Ydieresis" unicode="&#x178;" horiz-adv-x="533" 
d="M290 788q-15 0 -25 10t-10 24q0 20 13.5 34.5t32.5 14.5q15 0 25 -10t10 -24q0 -20 -13.5 -34.5t-32.5 -14.5zM419 788q-15 0 -25 10t-10 24q0 20 13.5 34.5t32.5 14.5q15 0 25 -10t10 -24q0 -20 -13.5 -34.5t-32.5 -14.5zM256 304l-172 406h49l136 -330q8 -18 14 -36
q9 15 25 36l237 330h52l-296 -406l-48 -304h-45z" />
    <glyph glyph-name="Zacute" unicode="&#x179;" horiz-adv-x="565" 
d="M465 870l-82 -105h-42l69 105h55zM482 0h-475l6 41l524 627h-422l6 42h478l-6 -41l-525 -627h421z" />
    <glyph glyph-name="zacute" unicode="&#x17a;" horiz-adv-x="422" 
d="M363 640l-82 -105h-42l69 105h55zM344 0h-342l5 33l350 409h-285l6 38h342l-6 -36l-348 -407h284z" />
    <glyph glyph-name="Zdotaccent" unicode="&#x17b;" horiz-adv-x="565" 
d="M364 788q-15 0 -25 10t-10 24q0 20 13.5 34.5t32.5 14.5q15 0 25 -10t10 -24q0 -20 -13.5 -34.5t-32.5 -14.5zM482 0h-475l6 41l524 627h-422l6 42h478l-6 -41l-525 -627h421z" />
    <glyph glyph-name="zdotaccent" unicode="&#x17c;" horiz-adv-x="422" 
d="M262 558q-15 0 -25 10t-10 24q0 20 13.5 34.5t32.5 14.5q15 0 25 -10t10 -24q0 -20 -13.5 -34.5t-32.5 -14.5zM344 0h-342l5 33l350 409h-285l6 38h342l-6 -36l-348 -407h284z" />
    <glyph glyph-name="Zcaron" unicode="&#x17d;" horiz-adv-x="565" 
d="M326 765l-51 106h43l42 -83l70 83h49l-85 -106h-68zM482 0h-475l6 41l524 627h-422l6 42h478l-6 -41l-525 -627h421z" />
    <glyph glyph-name="zcaron" unicode="&#x17e;" horiz-adv-x="422" 
d="M224 535l-51 106h43l42 -83l70 83h49l-85 -106h-68zM344 0h-342l5 33l350 409h-285l6 38h342l-6 -36l-348 -407h284z" />
    <glyph glyph-name="florin" unicode="&#x192;" horiz-adv-x="517" 
d="M98 400h173l67 222q26 88 113 88h79l-7 -40h-86q-42 0 -56 -48l-66 -222h167l-6 -40h-173l-112 -374q-26 -88 -107 -88h-98l7 40h98q18 0 33.5 13t22.5 35l112 374h-167z" />
    <glyph glyph-name="Aringacute" unicode="&#x1fa;" horiz-adv-x="616" 
d="M509 997l-82 -105h-42l69 105h55zM25 0h-48l358 687q-40 22 -40 72q0 49 32 82t79 33q37 0 60.5 -23.5t23.5 -60.5q0 -35 -19.5 -64t-50.5 -42l143 -684h-45l-42 200h-346zM383 714q27 0 46.5 21t19.5 51q0 22 -13 36t-34 14q-27 0 -46.5 -21.5t-19.5 -51.5
q0 -22 13 -35.5t34 -13.5zM370 664l-219 -422h316l-86 422q-1 6 -3 12h-2q-1 -1 -2.5 -5t-3.5 -7z" />
    <glyph glyph-name="aringacute" unicode="&#x1fb;" horiz-adv-x="502" 
d="M418 773l-82 -105h-42l69 105h55zM169 -12q-63 0 -101 34.5t-38 91.5q0 71 53.5 115t148.5 52l163 13l3 15q13 68 -17.5 105t-101.5 37q-132 0 -152 -113h-45q9 58 45.5 96.5t93.5 51.5q-16 21 -16 51q0 49 32 82t79 33q37 0 60.5 -23.5t23.5 -60.5q0 -55 -41 -89
q49 -18 72 -59.5t13 -100.5l-50 -319h-37l7 90q-31 -48 -82.5 -75t-112.5 -27zM293 492q27 0 46.5 21t19.5 51q0 22 -13 36t-34 14q-27 0 -46.5 -21.5t-19.5 -51.5q0 -22 13 -35.5t34 -13.5zM179 28q81 0 137 54.5t70 147.5l4 26l-161 -13q-73 -6 -114 -40t-41 -89
q0 -39 28.5 -62.5t76.5 -23.5z" />
    <glyph glyph-name="AEacute" unicode="&#x1fc;" horiz-adv-x="860" 
d="M733 870l-82 -105h-42l69 105h55zM-28 0l389 710h513l-6 -42h-362l-46 -291h330l-7 -42h-329l-46 -293h361l-7 -42h-406l34 218h-249l-119 -218h-50zM164 260h233l64 408h-74z" />
    <glyph glyph-name="aeacute" unicode="&#x1fd;" horiz-adv-x="852" 
d="M571 640l-82 -105h-42l69 105h55zM30 114q0 135 200 151l163 13l6 31q13 68 -18.5 105t-101.5 37q-132 0 -152 -113h-45q11 73 63.5 113.5t134.5 40.5q66 0 108.5 -27.5t54.5 -76.5q34 49 84 76.5t108 27.5q94 0 146.5 -63t37.5 -158l-5 -31h-385q-2 -26 -2 -39
q0 -77 43 -125t112 -48q59 0 105 29.5t64 79.5h46q-23 -69 -81 -109t-134 -40q-70 0 -120 40t-67 108q-31 -70 -88 -109t-131 -39q-68 0 -107 33.5t-39 92.5zM635 452q-70 0 -124.5 -49t-74.5 -127h339q13 78 -26.5 127t-113.5 49zM74 114q0 -39 28.5 -62.5t76.5 -23.5
q81 0 136 53.5t71 146.5l2 12l-161 -13q-153 -12 -153 -113z" />
    <glyph glyph-name="Oslashacute" unicode="&#x1fe;" horiz-adv-x="753" 
d="M565 871l-82 -105h-42l69 105h55zM729 414q0 -177 -111 -301.5t-269 -124.5q-120 0 -198 73l-56 -61h-47l79 87q-67 83 -67 208q0 178 110.5 302.5t268.5 124.5q120 0 199 -74l56 61h48l-80 -88q67 -81 67 -207zM106 295q0 -104 53 -173l448 492q-67 64 -172 64
q-136 0 -232.5 -112.5t-96.5 -270.5zM683 414q0 102 -52 173l-449 -491q67 -64 171 -64q137 0 233.5 112t96.5 270z" />
    <glyph glyph-name="oslashacute" unicode="&#x1ff;" horiz-adv-x="545" 
d="M424 640l-82 -105h-42l69 105h55zM36 206q0 118 79.5 202t189.5 84q65 0 115 -33l45 59h42l-61 -80q63 -61 63 -164q0 -118 -79.5 -202t-189.5 -84q-65 0 -114 32l-54 -71h-41l70 91q-65 62 -65 166zM80 206q0 -83 46 -132l269 352q-40 26 -96 26q-90 0 -154.5 -72.5
t-64.5 -173.5zM465 274q0 83 -45 130l-268 -351q39 -25 94 -25q90 0 154.5 72.5t64.5 173.5z" />
    <glyph glyph-name="Scommaaccent" unicode="&#x218;" horiz-adv-x="545" 
d="M90 530q0 84 61 138t156 54q97 0 156 -48.5t66 -133.5h-46q-7 67 -52.5 103t-123.5 36q-77 0 -124 -41t-47 -108q0 -50 26.5 -81.5t84.5 -52.5l108 -39q134 -48 134 -171q0 -88 -65.5 -143.5t-169.5 -55.5q-204 0 -227 181h47q8 -66 54 -102t126 -36q84 0 136.5 43.5
t52.5 112.5q0 50 -24 80.5t-79 49.5l-105 38q-76 27 -110.5 69t-34.5 107zM291 -77q0 -37 -26 -69.5t-59 -33.5l4 26q16 1 29 12t15 27q-4 -2 -11 -2q-13 0 -23 9t-10 23q0 19 14 33.5t32 14.5q35 0 35 -40z" />
    <glyph glyph-name="scommaaccent" unicode="&#x219;" horiz-adv-x="412" 
d="M13 125h45q0 -43 33.5 -70t85.5 -27q57 0 92.5 27.5t35.5 71.5q0 32 -16 51.5t-54 32.5l-76 27q-100 36 -100 123q0 58 45.5 94.5t117.5 36.5q73 0 114 -37t41 -103h-45q-2 52 -29 76t-83 24q-53 0 -85 -25t-32 -66q0 -60 72 -86l75 -27q53 -19 76 -47t23 -74
q0 -61 -48.5 -100t-123.5 -39q-72 0 -118 38.5t-46 98.5zM205 -74q0 -37 -26 -69.5t-59 -33.5l4 26q16 1 29 12t15 27q-4 -2 -11 -2q-13 0 -23 9t-10 23q0 19 14 33.5t32 14.5q35 0 35 -40z" />
    <glyph glyph-name="Tcommaaccent" unicode="&#x21a;" horiz-adv-x="500" 
d="M78 669l6 41h480l-6 -41h-218l-106 -669h-45l106 669h-217zM237 -77q0 -37 -26 -69.5t-59 -33.5l4 26q16 1 29 12t15 27q-4 -2 -11 -2q-13 0 -23 9t-10 23q0 19 14 33.5t32 14.5q35 0 35 -40z" />
    <glyph glyph-name="tcommaaccent" unicode="&#x21b;" horiz-adv-x="273" 
d="M120 0h-43l70 442h-95l6 38h95l24 152h43l-24 -152h95l-6 -38h-95zM122 -77q0 -37 -26 -69.5t-59 -33.5l4 26q16 1 29 12t15 27q-4 -2 -11 -2q-13 0 -23 9t-10 23q0 19 14 33.5t32 14.5q35 0 35 -40z" />
    <glyph glyph-name="dotlessj" unicode="&#x237;" horiz-adv-x="193" 
d="M-124 -203l13 41q21 -8 47 -8q73 0 88 96l88 554h43l-88 -554q-10 -67 -44.5 -102t-88.5 -35q-32 0 -58 8z" />
    <glyph glyph-name="circumflex" unicode="&#x2c6;" horiz-adv-x="291" 
d="M172 765h-49l85 106h68l51 -106h-43l-42 83z" />
    <glyph glyph-name="caron" unicode="&#x2c7;" horiz-adv-x="291" 
d="M191 765l-51 106h43l42 -83l70 83h49l-85 -106h-68z" />
    <glyph glyph-name="breve" unicode="&#x2d8;" horiz-adv-x="310" 
d="M315 871h41q-8 -51 -37.5 -80t-76.5 -29q-46 0 -70.5 29t-24.5 80h40q0 -68 58 -68q59 0 70 68z" />
    <glyph glyph-name="dotaccent" unicode="&#x2d9;" horiz-adv-x="186" 
d="M179 788q-15 0 -25 10t-10 24q0 20 13.5 34.5t32.5 14.5q15 0 25 -10t10 -24q0 -20 -13.5 -34.5t-32.5 -14.5z" />
    <glyph glyph-name="ring" unicode="&#x2da;" horiz-adv-x="278" 
d="M222 766q-37 0 -60.5 23t-23.5 60q0 49 32 82t79 33q37 0 60.5 -23.5t23.5 -60.5q0 -47 -32.5 -80.5t-78.5 -33.5zM226 804q27 0 46.5 21t19.5 51q0 22 -13 36t-34 14q-27 0 -46.5 -21.5t-19.5 -51.5q0 -22 13 -35.5t34 -13.5z" />
    <glyph glyph-name="ogonek" unicode="&#x2db;" horiz-adv-x="170" 
d="M56 0h34q-25 -10 -42 -30t-17 -38q0 -22 26 -22q11 0 21 3l-7 -40q-9 -4 -29 -4q-24 0 -38 13.5t-14 37.5q0 47 66 80z" />
    <glyph glyph-name="tilde" unicode="&#x2dc;" horiz-adv-x="345" 
d="M171 785h-38q5 44 24.5 67.5t48.5 23.5q26 0 56.5 -26t49.5 -26q33 0 40 52h38q-14 -91 -77 -91q-30 0 -60.5 26t-44.5 26q-29 0 -37 -52z" />
    <glyph glyph-name="hungarumlaut" unicode="&#x2dd;" horiz-adv-x="292" 
d="M245 870l-80 -105h-40l67 105h53zM344 870l-97 -105h-42l83 105h56z" />
    <glyph glyph-name="gravecomb" unicode="&#x300;" horiz-adv-x="189" 
d="M226 765h-38l-46 106h50z" />
    <glyph glyph-name="acutecomb" unicode="&#x301;" horiz-adv-x="191" 
d="M251 870l-82 -105h-42l69 105h55z" />
    <glyph glyph-name="circumflexcomb" unicode="&#x302;" horiz-adv-x="284" 
d="M172 765h-49l85 106h68l51 -106h-43l-42 83z" />
    <glyph glyph-name="tildecomb" unicode="&#x303;" horiz-adv-x="336" 
d="M171 785h-38q5 44 24.5 67.5t48.5 23.5q26 0 56.5 -26t49.5 -26q33 0 40 52h38q-14 -91 -77 -91q-30 0 -60.5 26t-44.5 26q-29 0 -37 -52z" />
    <glyph glyph-name="macroncomb" unicode="&#x304;" horiz-adv-x="330" 
d="M153 828l6 40h210l-6 -40h-210z" />
    <glyph glyph-name="brevecomb" unicode="&#x306;" horiz-adv-x="303" 
d="M315 871h41q-8 -51 -37.5 -80t-76.5 -29q-46 0 -70.5 29t-24.5 80h40q0 -68 58 -68q59 0 70 68z" />
    <glyph glyph-name="dotaccentcomb" unicode="&#x307;" horiz-adv-x="183" 
d="M179 788q-15 0 -25 10t-10 24q0 20 13.5 34.5t32.5 14.5q15 0 25 -10t10 -24q0 -20 -13.5 -34.5t-32.5 -14.5z" />
    <glyph glyph-name="dieresiscomb" unicode="&#x308;" horiz-adv-x="337" 
d="M192 788q-15 0 -25 10t-10 24q0 20 13.5 34.5t32.5 14.5q15 0 25 -10t10 -24q0 -20 -13.5 -34.5t-32.5 -14.5zM321 788q-15 0 -25 10t-10 24q0 20 13.5 34.5t32.5 14.5q15 0 25 -10t10 -24q0 -20 -13.5 -34.5t-32.5 -14.5z" />
    <glyph glyph-name="ringcomb" unicode="&#x30a;" horiz-adv-x="273" 
d="M222 766q-37 0 -60.5 23t-23.5 60q0 49 32 82t79 33q37 0 60.5 -23.5t23.5 -60.5q0 -47 -32.5 -80.5t-78.5 -33.5zM226 804q27 0 46.5 21t19.5 51q0 22 -13 36t-34 14q-27 0 -46.5 -21.5t-19.5 -51.5q0 -22 13 -35.5t34 -13.5z" />
    <glyph glyph-name="hungarumlautcomb" unicode="&#x30b;" horiz-adv-x="284" 
d="M245 870l-80 -105h-40l67 105h53zM344 870l-97 -105h-42l83 105h56z" />
    <glyph glyph-name="caroncomb" unicode="&#x30c;" horiz-adv-x="284" 
d="M191 765l-51 106h43l42 -83l70 83h49l-85 -106h-68z" />
    <glyph glyph-name="commaturnedabovecomb" unicode="&#x312;" horiz-adv-x="169" 
d="M213 798q0 -19 -14 -33.5t-32 -14.5q-35 0 -35 40q0 37 26 69.5t59 33.5l-4 -26q-16 -1 -29 -12t-15 -27q4 2 11 2q13 0 23 -9t10 -23z" />
    <glyph glyph-name="commaaccentcomb" unicode="&#x326;" horiz-adv-x="168" 
d="M73 -57q0 -37 -26 -69.5t-59 -33.5l4 26q16 1 29 12t15 27q-4 -2 -11 -2q-13 0 -23 9t-10 23q0 19 14 33.5t32 14.5q35 0 35 -40z" />
    <glyph glyph-name="cedillacomb" unicode="&#x327;" horiz-adv-x="212" 
d="M-23 -155l6 36q23 -15 49 -15q48 0 48 34q0 29 -34 29q-20 0 -50 -13l-4 22l54 88h22l-4 -26l-25 -42q9 3 19 3q26 0 43.5 -16t17.5 -40q0 -34 -24 -54t-64 -20q-35 0 -54 14z" />
    <glyph glyph-name="strokeshortcomb" unicode="&#x335;" horiz-adv-x="440" 
d="M146 591h260l-6 -37h-260z" />
    <glyph glyph-name="slashshortcomb" unicode="&#x337;" horiz-adv-x="213" 
d="M34 324l6 40l186 85l-7 -41z" />
    <glyph glyph-name="slashlongcomb" unicode="&#x338;" horiz-adv-x="466" 
d="M472 529l-435 -569h-41l434 569h42z" />
    <glyph glyph-name="Omega" unicode="&#x3a9;" horiz-adv-x="624" 
d="M229 0h-187l7 40h126q-47 34 -73.5 86t-26.5 110q0 113 71 185t183 72q97 0 161.5 -61.5t64.5 -153.5q0 -154 -158 -238h114l-7 -40h-187l7 40q91 37 140 98.5t49 139.5q0 75 -52.5 123.5t-133.5 48.5q-95 0 -152.5 -58.5t-57.5 -156.5q0 -61 33 -115.5t86 -79.5z" />
    <glyph glyph-name="pi" unicode="&#x3c0;" horiz-adv-x="571" 
d="M80 0l70 440h-99l7 40h506l-7 -40h-105l-54 -345q-5 -30 4.5 -43t35.5 -13h56l-6 -35q-28 -5 -60 -5q-40 0 -60 26t-13 70l54 345h-216l-70 -440h-43z" />
    <glyph glyph-name="Wgrave" unicode="&#x1e80;" horiz-adv-x="934" 
d="M567 765h-38l-46 106h50zM183 0l-94 710h45l70 -543q5 -41 8 -106q22 55 47 106l258 543h47l85 -543q10 -59 13 -105q15 48 40 105l245 543h46l-319 -710h-41l-103 644l-305 -644h-42z" />
    <glyph glyph-name="wgrave" unicode="&#x1e81;" horiz-adv-x="701" 
d="M415 535h-38l-46 106h50zM134 0l-81 480h44l54 -330q8 -45 13 -94q15 41 41 94l161 330h45l53 -330q7 -40 13 -93q24 57 41 93l161 330h45l-233 -480h-44l-56 347q-8 43 -9 75q-5 -13 -35 -75l-169 -347h-44z" />
    <glyph glyph-name="Wacute" unicode="&#x1e82;" horiz-adv-x="934" 
d="M655 870l-82 -105h-42l69 105h55zM183 0l-94 710h45l70 -543q5 -41 8 -106q22 55 47 106l258 543h47l85 -543q10 -59 13 -105q15 48 40 105l245 543h46l-319 -710h-41l-103 644l-305 -644h-42z" />
    <glyph glyph-name="wacute" unicode="&#x1e83;" horiz-adv-x="701" 
d="M503 640l-82 -105h-42l69 105h55zM134 0l-81 480h44l54 -330q8 -45 13 -94q15 41 41 94l161 330h45l53 -330q7 -40 13 -93q24 57 41 93l161 330h45l-233 -480h-44l-56 347q-8 43 -9 75q-5 -13 -35 -75l-169 -347h-44z" />
    <glyph glyph-name="Wdieresis" unicode="&#x1e84;" horiz-adv-x="934" 
d="M490 788q-15 0 -25 10t-10 24q0 20 13.5 34.5t32.5 14.5q15 0 25 -10t10 -24q0 -20 -13.5 -34.5t-32.5 -14.5zM619 788q-15 0 -25 10t-10 24q0 20 13.5 34.5t32.5 14.5q15 0 25 -10t10 -24q0 -20 -13.5 -34.5t-32.5 -14.5zM183 0l-94 710h45l70 -543q5 -41 8 -106
q22 55 47 106l258 543h47l85 -543q10 -59 13 -105q15 48 40 105l245 543h46l-319 -710h-41l-103 644l-305 -644h-42z" />
    <glyph glyph-name="wdieresis" unicode="&#x1e85;" horiz-adv-x="701" 
d="M338 558q-15 0 -25 10t-10 24q0 20 13.5 34.5t32.5 14.5q15 0 25 -10t10 -24q0 -20 -13.5 -34.5t-32.5 -14.5zM467 558q-15 0 -25 10t-10 24q0 20 13.5 34.5t32.5 14.5q15 0 25 -10t10 -24q0 -20 -13.5 -34.5t-32.5 -14.5zM134 0l-81 480h44l54 -330q8 -45 13 -94
q15 41 41 94l161 330h45l53 -330q7 -40 13 -93q24 57 41 93l161 330h45l-233 -480h-44l-56 347q-8 43 -9 75q-5 -13 -35 -75l-169 -347h-44z" />
    <glyph glyph-name="Ygrave" unicode="&#x1ef2;" horiz-adv-x="533" 
d="M367 765h-38l-46 106h50zM256 304l-172 406h49l136 -330q8 -18 14 -36q9 15 25 36l237 330h52l-296 -406l-48 -304h-45z" />
    <glyph glyph-name="ygrave" unicode="&#x1ef3;" horiz-adv-x="435" 
d="M278 535h-38l-46 106h50zM-46 -202l6 35h43q27 0 42 2t37.5 18t38.5 48l35 69l-108 510h44l95 -450l230 450h46l-302 -591q-50 -97 -145 -97q-35 0 -62 6z" />
    <glyph glyph-name="endash" unicode="&#x2013;" horiz-adv-x="889" 
d="M65 241l6 40h759l-6 -40h-759z" />
    <glyph glyph-name="emdash" unicode="&#x2014;" horiz-adv-x="1085" 
d="M65 241l6 40h955l-6 -40h-955z" />
    <glyph glyph-name="quoteleft" unicode="&#x2018;" horiz-adv-x="227" 
d="M224 605q0 -24 -17.5 -41.5t-42.5 -17.5q-19 0 -32.5 14t-13.5 39q0 41 33.5 78.5t77.5 44.5l-5 -31q-22 -5 -40.5 -21.5t-20.5 -34.5q9 7 26 7q14 0 24.5 -10t10.5 -27z" />
    <glyph glyph-name="quoteright" unicode="&#x2019;" horiz-adv-x="227" 
d="M234 669q0 -41 -33 -78.5t-78 -44.5l5 31q22 4 40.5 21t20.5 35q-9 -7 -25 -7t-26 9.5t-10 26.5q0 25 17 42.5t42 17.5q19 0 33 -14t14 -39z" />
    <glyph glyph-name="quotesinglbase" unicode="&#x201a;" horiz-adv-x="227" 
d="M135 43q0 -41 -34 -78.5t-77 -44.5l5 32q24 5 41.5 21t19.5 34q-10 -7 -25 -7t-25.5 10t-10.5 27q0 25 17.5 42.5t41.5 17.5q20 0 33.5 -14.5t13.5 -39.5z" />
    <glyph glyph-name="quotedblleft" unicode="&#x201c;" horiz-adv-x="367" 
d="M224 605q0 -24 -17.5 -41.5t-42.5 -17.5q-19 0 -32.5 14t-13.5 39q0 41 33.5 78.5t77.5 44.5l-5 -31q-22 -5 -40.5 -21.5t-20.5 -34.5q9 7 26 7q14 0 24.5 -10t10.5 -27zM364 605q0 -24 -17.5 -41.5t-42.5 -17.5q-19 0 -32.5 14t-13.5 39q0 41 33.5 78.5t77.5 44.5
l-5 -31q-22 -5 -40.5 -21.5t-20.5 -34.5q9 7 26 7q14 0 24.5 -10t10.5 -27z" />
    <glyph glyph-name="quotedblright" unicode="&#x201d;" horiz-adv-x="367" 
d="M234 669q0 -41 -33 -78.5t-78 -44.5l5 31q22 4 40.5 21t20.5 35q-9 -7 -25 -7t-26 9.5t-10 26.5q0 25 17 42.5t42 17.5q19 0 33 -14t14 -39zM374 669q0 -41 -33 -78.5t-78 -44.5l5 31q22 4 40.5 21t20.5 35q-9 -7 -25 -7t-26 9.5t-10 26.5q0 25 17 42.5t42 17.5
q19 0 33 -14t14 -39z" />
    <glyph glyph-name="quotedblbase" unicode="&#x201e;" horiz-adv-x="367" 
d="M135 43q0 -41 -34 -78.5t-77 -44.5l5 32q24 5 41.5 21t19.5 34q-10 -7 -25 -7t-25.5 10t-10.5 27q0 25 17.5 42.5t41.5 17.5q20 0 33.5 -14.5t13.5 -39.5zM275 43q0 -41 -34 -78.5t-77 -44.5l5 32q24 5 41.5 21t19.5 34q-10 -7 -25 -7t-25.5 10t-10.5 27q0 25 17.5 42.5
t41.5 17.5q20 0 33.5 -14.5t13.5 -39.5z" />
    <glyph glyph-name="dagger" unicode="&#x2020;" horiz-adv-x="276" 
d="M123 264l49 309h-93l6 37h93l16 100h38l-16 -100h93l-6 -37h-93l-49 -309h-38z" />
    <glyph glyph-name="daggerdbl" unicode="&#x2021;" horiz-adv-x="277" 
d="M123 264l21 131h-92l6 37h92l17 111h-93l6 37h93l21 130h38l-21 -130h94l-6 -37h-94l-17 -111h92l-6 -37h-92l-21 -131h-38z" />
    <glyph glyph-name="bullet" unicode="&#x2022;" horiz-adv-x="344" 
d="M160 134q-47 0 -79 32t-32 79q0 59 42.5 100.5t102.5 41.5q46 0 77 -32t31 -79q0 -59 -41.5 -100.5t-100.5 -41.5z" />
    <glyph glyph-name="ellipsis" unicode="&#x2026;" horiz-adv-x="646" 
d="M83 -11q-19 0 -32 13.5t-13 31.5q0 24 19.5 43.5t42.5 19.5q19 0 32 -13t13 -33q0 -24 -19 -43t-43 -19zM283 -11q-19 0 -32 13.5t-13 31.5q0 24 19.5 43.5t42.5 19.5q19 0 32 -13t13 -33q0 -24 -19 -43t-43 -19zM483 -11q-19 0 -32 13.5t-13 31.5q0 24 19.5 43.5
t42.5 19.5q19 0 32 -13t13 -33q0 -24 -19 -43t-43 -19z" />
    <glyph glyph-name="perthousand" unicode="&#x2030;" horiz-adv-x="1231" 
d="M436 580q0 -80 -56.5 -138.5t-133.5 -58.5q-62 0 -102.5 40.5t-40.5 102.5q0 80 56.5 138.5t133.5 58.5q61 0 102 -40.5t41 -102.5zM796 710l-637 -710h-52l637 710h52zM394 576q0 49 -28.5 78.5t-75.5 29.5q-59 0 -102 -46t-43 -108q0 -49 28.5 -78.5t75.5 -29.5
q59 0 102 46t43 108zM802 184q0 -80 -56.5 -138.5t-133.5 -58.5q-62 0 -102.5 40.5t-40.5 102.5q0 80 56.5 138.5t133.5 58.5q61 0 102 -40.5t41 -102.5zM1165 184q0 -80 -56.5 -138.5t-133.5 -58.5q-61 0 -102 40.5t-41 102.5q0 80 56.5 138.5t133.5 58.5q62 0 102.5 -40.5
t40.5 -102.5zM760 180q0 49 -28.5 78.5t-75.5 29.5q-59 0 -102 -46t-43 -108q0 -49 28.5 -78.5t75.5 -29.5q59 0 102 46t43 108zM1123 180q0 49 -28.5 78.5t-75.5 29.5q-59 0 -102 -46t-43 -108q0 -49 28.5 -78.5t75.5 -29.5q59 0 102 46t43 108z" />
    <glyph glyph-name="minute" unicode="&#x2032;" horiz-adv-x="166" 
d="M186 683l-43 -176h-34l12 178q1 19 11.5 28.5t24.5 9.5q15 0 24.5 -10.5t4.5 -29.5z" />
    <glyph glyph-name="guilsinglleft" unicode="&#x2039;" horiz-adv-x="334" 
d="M208 0l-168 240l244 240h48l-248 -243l166 -237h-42z" />
    <glyph glyph-name="guilsinglright" unicode="&#x203a;" horiz-adv-x="334" 
d="M126 480l168 -240l-244 -240h-48l248 243l-166 237h42z" />
    <glyph glyph-name="asterism" unicode="&#x2042;" horiz-adv-x="832" 
d="M368 571l-59 22l18 35l54 -20q50 -19 75 -37q-3 34 6 88l10 64h37l-10 -64q-9 -52 -20 -89q45 25 82 38l62 21l10 -38l-63 -21q-45 -15 -88 -22q28 -31 47 -69l27 -52l-32 -21l-29 53q-25 44 -32 77q-18 -34 -56 -78l-44 -52l-31 23l43 52q23 28 69 68q-40 8 -76 22z
M88 202l-59 22l18 35l54 -20q50 -19 75 -37q-3 34 6 88l10 64h37l-10 -64q-9 -52 -20 -89q45 25 82 38l62 21l10 -38l-63 -21q-45 -15 -88 -22q28 -31 47 -69l27 -52l-32 -21l-29 53q-25 44 -32 77q-18 -34 -56 -78l-44 -52l-31 23l43 52q23 28 69 68q-40 8 -76 22zM532 202
l-59 22l18 35l54 -20q50 -19 75 -37q-3 34 6 88l10 64h37l-10 -64q-9 -52 -20 -89q45 25 82 38l62 21l10 -38l-63 -21q-45 -15 -88 -22q28 -31 47 -69l27 -52l-32 -21l-29 53q-25 44 -32 77q-18 -34 -56 -78l-44 -52l-31 23l43 52q23 28 69 68q-40 8 -76 22z" />
    <glyph glyph-name="fraction" unicode="&#x2044;" horiz-adv-x="85" 
d="M362 710l-557 -710h-46l556 710h47z" />
    <glyph glyph-name="zero.superior" unicode="&#x2070;" horiz-adv-x="411" 
d="M9 477q0 118 60.5 199t147.5 81q66 0 102.5 -44t36.5 -121q0 -118 -60.5 -199t-148.5 -81q-65 0 -101.5 44t-36.5 121zM50 481q0 -61 26.5 -95.5t76.5 -34.5q68 0 114 68t46 169q0 61 -26.5 95.5t-75.5 34.5q-68 0 -114.5 -68.5t-46.5 -168.5z" />
    <glyph glyph-name="four.superior" unicode="&#x2074;" horiz-adv-x="369" 
d="M300 419h-50l-14 -89h-40l14 89h-226l6 40l257 301h58l-48 -301h49zM39 459h178l41 259z" />
    <glyph glyph-name="five.superior" unicode="&#x2075;" horiz-adv-x="349" 
d="M-8 468h40q-7 -46 18.5 -76t71.5 -30q51 0 87.5 38t36.5 91q0 39 -24.5 62.5t-65.5 23.5q-54 0 -99 -42l-38 8l86 217h204l-6 -40h-174l-53 -134q42 30 90 30q55 0 88.5 -33t33.5 -86q0 -72 -49 -123t-119 -51q-64 0 -101 41.5t-27 103.5z" />
    <glyph glyph-name="six.superior" unicode="&#x2076;" horiz-adv-x="356" 
d="M134 613l130 147h51l-131 -144q27 8 49 8q60 0 98 -37.5t38 -98.5q0 -70 -48 -117.5t-116 -47.5q-62 0 -102.5 39t-40.5 100q0 40 16 73.5t56 77.5zM104 463q0 -45 28.5 -73t73.5 -28q52 0 86.5 34.5t34.5 88.5q0 48 -26 75t-73 27q-52 0 -88 -35.5t-36 -88.5z" />
    <glyph glyph-name="seven.superior" unicode="&#x2077;" horiz-adv-x="309" 
d="M370 720l-215 -390h-47l217 390h-234l6 40h279z" />
    <glyph glyph-name="eight.superior" unicode="&#x2078;" horiz-adv-x="361" 
d="M-7 426q0 45 28.5 82t73.5 51q-52 23 -52 79q0 55 43 92t106 37q51 0 83.5 -24.5t32.5 -67.5q0 -39 -23 -70.5t-60 -45.5q31 -10 48 -35t17 -58q0 -61 -48 -102t-119 -41q-58 0 -94 28t-36 75zM81 642q0 -29 21.5 -48t60.5 -19q44 0 74.5 26.5t30.5 65.5q0 29 -22.5 45.5
t-58.5 16.5q-46 0 -76 -24.5t-30 -62.5zM36 436q0 -35 26 -54.5t67 -19.5q52 0 86.5 29.5t34.5 73.5q0 34 -26.5 53.5t-67.5 19.5q-52 0 -86 -29t-34 -73z" />
    <glyph glyph-name="nine.superior" unicode="&#x2079;" horiz-adv-x="356" 
d="M319 477l-130 -147h-51l131 144q-27 -8 -49 -8q-60 0 -98 37.5t-38 98.5q0 70 48 117.5t116 47.5q62 0 102.5 -39t40.5 -100q0 -40 -16 -73.5t-56 -77.5zM349 627q0 45 -28.5 73t-73.5 28q-52 0 -86.5 -34.5t-34.5 -88.5q0 -48 26 -75t73 -27q52 0 88 35.5t36 88.5z" />
    <glyph glyph-name="zero.inferior" unicode="&#x2080;" horiz-adv-x="405" 
d="M9 57q0 118 60.5 199t147.5 81q66 0 102.5 -44t36.5 -121q0 -118 -60.5 -199t-148.5 -81q-65 0 -101.5 44t-36.5 121zM50 61q0 -61 26.5 -95.5t76.5 -34.5q68 0 114 68t46 169q0 61 -26.5 95.5t-75.5 34.5q-68 0 -114.5 -68.5t-46.5 -168.5z" />
    <glyph glyph-name="one.inferior" unicode="&#x2081;" horiz-adv-x="200" 
d="M118 290h-88l6 40h129l-68 -430h-41z" />
    <glyph glyph-name="two.inferior" unicode="&#x2082;" horiz-adv-x="331" 
d="M250 -100h-277l6 36l178 134q96 72 96 149q0 37 -21.5 57.5t-59.5 20.5q-45 0 -74 -29t-37 -80h-40q11 69 52 109t101 40q54 0 87.5 -32.5t33.5 -85.5q0 -91 -118 -179l-133 -100h212z" />
    <glyph glyph-name="three.inferior" unicode="&#x2083;" horiz-adv-x="335" 
d="M123 129h-25l4 31l157 130h-207l6 40h255l-7 -45l-142 -117q49 -3 81 -34t32 -79q0 -68 -47.5 -115t-118.5 -47q-63 0 -97 39t-24 99h40q-7 -45 15.5 -72t67.5 -27q51 0 86.5 34t35.5 83q0 65 -72 78q-12 2 -40 2z" />
    <glyph glyph-name="four.inferior" unicode="&#x2084;" horiz-adv-x="363" 
d="M300 -11h-50l-14 -89h-40l14 89h-226l6 40l257 301h58l-48 -301h49zM39 29h178l41 259z" />
    <glyph glyph-name="five.inferior" unicode="&#x2085;" horiz-adv-x="342" 
d="M-8 38h40q-7 -46 18.5 -76t71.5 -30q51 0 87.5 38t36.5 91q0 39 -24.5 62.5t-65.5 23.5q-54 0 -99 -42l-38 8l86 217h204l-6 -40h-174l-53 -134q42 30 90 30q55 0 88.5 -33t33.5 -86q0 -72 -49 -123t-119 -51q-64 0 -101 41.5t-27 103.5z" />
    <glyph glyph-name="six.inferior" unicode="&#x2086;" horiz-adv-x="356" 
d="M66 183l130 147h51l-131 -144q27 8 49 8q60 0 98 -37.5t38 -98.5q0 -70 -48 -117.5t-116 -47.5q-62 0 -102.5 39t-40.5 100q0 40 16 73.5t56 77.5zM36 33q0 -45 28.5 -73t73.5 -28q52 0 86.5 34.5t34.5 88.5q0 48 -26 75t-73 27q-52 0 -88 -35.5t-36 -88.5z" />
    <glyph glyph-name="seven.inferior" unicode="&#x2087;" horiz-adv-x="309" 
d="M302 290l-215 -390h-47l217 390h-234l6 40h279z" />
    <glyph glyph-name="eight.inferior" unicode="&#x2088;" horiz-adv-x="354" 
d="M-7 -4q0 45 28.5 82t73.5 51q-52 23 -52 79q0 55 43 92t106 37q51 0 83.5 -24.5t32.5 -67.5q0 -39 -23 -70.5t-60 -45.5q31 -10 48 -35t17 -58q0 -61 -48 -102t-119 -41q-58 0 -94 28t-36 75zM81 212q0 -29 21.5 -48t60.5 -19q44 0 74.5 26.5t30.5 65.5q0 29 -22.5 45.5
t-58.5 16.5q-46 0 -76 -24.5t-30 -62.5zM36 6q0 -35 26 -54.5t67 -19.5q52 0 86.5 29.5t34.5 73.5q0 34 -26.5 53.5t-67.5 19.5q-52 0 -86 -29t-34 -73z" />
    <glyph glyph-name="nine.inferior" unicode="&#x2089;" horiz-adv-x="355" 
d="M250 47l-130 -147h-51l131 144q-27 -8 -49 -8q-60 0 -98 37.5t-38 98.5q0 70 48 117.5t116 47.5q62 0 102.5 -39t40.5 -100q0 -40 -16 -73.5t-56 -77.5zM280 197q0 45 -28.5 73t-73.5 28q-52 0 -86.5 -34.5t-34.5 -88.5q0 -48 26 -75t73 -27q52 0 88 35.5t36 88.5z" />
    <glyph glyph-name="Euro" unicode="&#x20ac;" horiz-adv-x="661" 
d="M434 -12q-126 0 -212 77.5t-102 203.5h-83l6 40h74v11q0 43 8 86h-66l6 40h69q37 128 144.5 201t261.5 73q86 0 133 -21l-7 -43q-57 21 -134 21q-132 0 -224 -61.5t-127 -169.5h326l-6 -40h-331q-8 -43 -8 -86v-11h323l-6 -40h-314q16 -109 90.5 -173.5t186.5 -64.5
q66 0 129 22l-7 -45q-51 -20 -130 -20z" />
    <glyph glyph-name="numero" unicode="&#x2116;" horiz-adv-x="1197" 
d="M1188 519q0 -110 -76 -189.5t-182 -79.5q-93 0 -153 59t-60 151q0 109 75 185.5t182 76.5q95 0 154.5 -56t59.5 -147zM98 0h-46l112 710h46l309 -634l99 634h46l-112 -710h-44l-310 637zM1143 516q0 77 -46 121t-125 44q-87 0 -148.5 -64t-61.5 -155q0 -77 46.5 -124
t123.5 -47q88 0 149.5 65.5t61.5 159.5zM1098 127h-405l7 42h405z" />
    <glyph glyph-name="soundcopyright" unicode="&#x2117;" horiz-adv-x="463" 
d="M261 336q-79 0 -127.5 47t-48.5 123q0 91 60.5 154t148.5 63q79 0 127.5 -47t48.5 -123q0 -91 -60.5 -154t-148.5 -63zM261 361q76 0 128 55.5t52 136.5q0 65 -40 105t-107 40q-76 0 -128 -55.5t-52 -136.5q0 -65 40 -105t107 -40zM231 419h-31l34 216h76
q30 0 47.5 -17.5t17.5 -45.5q0 -38 -24.5 -60.5t-63.5 -22.5h-45zM261 606l-14 -88h44q23 0 37.5 14.5t14.5 39.5q0 34 -38 34h-44z" />
    <glyph glyph-name="trademark" unicode="&#x2122;" horiz-adv-x="619" 
d="M187 677h-92l5 33h219l-5 -33h-92l-38 -243h-35zM345 434h-33l43 276h32l69 -239l143 239h34l-43 -276h-33l32 203l-121 -203h-33l-59 201z" />
    <glyph glyph-name="estimated" unicode="&#x212e;" horiz-adv-x="788" 
d="M84 353q0 158 92.5 257.5t237.5 99.5q147 0 238 -88.5t91 -240.5q0 -38 -1 -53h-558v-180q82 -117 242 -117q77 0 141.5 36.5t96.5 96.5l38 -14q-37 -74 -111 -116.5t-167 -42.5q-153 0 -246.5 100t-93.5 262zM184 546v-182h459v200q-37 51 -97 78.5t-132 27.5
q-73 0 -132.5 -33.5t-97.5 -90.5z" />
    <glyph glyph-name="oneeighth" unicode="&#x215b;" horiz-adv-x="579" 
d="M163 675h-72l5 35h110l-51 -325h-38zM578 710l-557 -710h-46l556 710h47zM303 82q0 33 20 57.5t55 35.5q-37 21 -37 64q0 39 30.5 63t79.5 24q39 0 65 -22.5t26 -56.5q0 -28 -16.5 -49t-43.5 -29q47 -18 47 -72q0 -44 -34 -73t-86 -29q-47 0 -76.5 24.5t-29.5 62.5z
M377 239q0 -23 16.5 -36.5t46.5 -13.5q29 0 47.5 16t18.5 41q0 21 -16.5 34.5t-41.5 13.5q-32 0 -51.5 -15t-19.5 -40zM342 87q0 -24 20 -40t50 -16q34 0 56 19t22 48q0 25 -19.5 39.5t-52.5 14.5t-54.5 -18.5t-21.5 -46.5z" />
    <glyph glyph-name="threeeighths" unicode="&#x215c;" horiz-adv-x="625" 
d="M61 486h39q0 -32 19 -51t50 -19q32 0 51 18.5t19 50.5q0 31 -22 50t-58 19h-18l4 27l106 92h-145l6 37h195l-6 -38l-102 -88q36 -8 58.5 -35.5t22.5 -63.5q0 -45 -32 -75.5t-79 -30.5t-77.5 30t-30.5 77zM624 710l-557 -710h-46l556 710h47zM349 82q0 33 20 57.5t55 35.5
q-37 21 -37 64q0 39 30.5 63t79.5 24q39 0 65 -22.5t26 -56.5q0 -28 -16.5 -49t-43.5 -29q47 -18 47 -72q0 -44 -34 -73t-86 -29q-47 0 -76.5 24.5t-29.5 62.5zM423 239q0 -23 16.5 -36.5t46.5 -13.5q29 0 47.5 16t18.5 41q0 21 -16.5 34.5t-41.5 13.5q-32 0 -51.5 -15
t-19.5 -40zM388 87q0 -24 20 -40t50 -16q34 0 56 19t22 48q0 25 -19.5 39.5t-52.5 14.5t-54.5 -18.5t-21.5 -46.5z" />
    <glyph glyph-name="fiveeighths" unicode="&#x215d;" horiz-adv-x="639" 
d="M171 379q-47 0 -77.5 30t-30.5 77h39q0 -32 19 -51t50 -19q35 0 58.5 25t23.5 63q0 30 -17 47t-47 17q-39 0 -70 -31l-35 7l67 166h159l-6 -37h-129l-36 -88q24 17 55 17q44 0 71.5 -26.5t27.5 -68.5q0 -54 -35 -91t-87 -37zM638 710l-557 -710h-46l556 710h47zM363 82
q0 33 20 57.5t55 35.5q-37 21 -37 64q0 39 30.5 63t79.5 24q39 0 65 -22.5t26 -56.5q0 -28 -16.5 -49t-43.5 -29q47 -18 47 -72q0 -44 -34 -73t-86 -29q-47 0 -76.5 24.5t-29.5 62.5zM437 239q0 -23 16.5 -36.5t46.5 -13.5q29 0 47.5 16t18.5 41q0 21 -16.5 34.5t-41.5 13.5
q-32 0 -51.5 -15t-19.5 -40zM402 87q0 -24 20 -40t50 -16q34 0 56 19t22 48q0 25 -19.5 39.5t-52.5 14.5t-54.5 -18.5t-21.5 -46.5z" />
    <glyph glyph-name="seveneighths" unicode="&#x215e;" horiz-adv-x="563" 
d="M256 673h-177l6 37h219l-6 -38l-166 -287h-44zM562 710l-557 -710h-46l556 710h47zM287 82q0 33 20 57.5t55 35.5q-37 21 -37 64q0 39 30.5 63t79.5 24q39 0 65 -22.5t26 -56.5q0 -28 -16.5 -49t-43.5 -29q47 -18 47 -72q0 -44 -34 -73t-86 -29q-47 0 -76.5 24.5
t-29.5 62.5zM361 239q0 -23 16.5 -36.5t46.5 -13.5q29 0 47.5 16t18.5 41q0 21 -16.5 34.5t-41.5 13.5q-32 0 -51.5 -15t-19.5 -40zM326 87q0 -24 20 -40t50 -16q34 0 56 19t22 48q0 25 -19.5 39.5t-52.5 14.5t-54.5 -18.5t-21.5 -46.5z" />
    <glyph glyph-name="arrowleft" unicode="&#x2190;" horiz-adv-x="889" 
d="M383 -18l-31 -31l-292 291l292 291l31 -31l-237 -238h680v-44h-680z" />
    <glyph glyph-name="arrowup" unicode="&#x2191;" horiz-adv-x="712" 
d="M121 390l-32 32l296 288l296 -288l-32 -32l-242 234v-624h-44v624z" />
    <glyph glyph-name="arrowright" unicode="&#x2192;" horiz-adv-x="890" 
d="M515 551l31 31l292 -291l-292 -291l-31 31l237 238h-680v44h680z" />
    <glyph glyph-name="arrowdown" unicode="&#x2193;" horiz-adv-x="702" 
d="M604 224l31 -31l-291 -292l-291 292l31 31l238 -237v723h44v-723z" />
    <glyph glyph-name="arrowboth" unicode="&#x2194;" horiz-adv-x="1021" 
d="M61 249l192 196v-68l-100 -105l224 1v1h267l228 -1l-101 105v67l192 -195l-191 -197v69l98 105l-490 -1v1l-227 -1l102 -107v-67z" />
    <glyph glyph-name="arrowupdn" unicode="&#x2195;" horiz-adv-x="594" 
d="M305 -155l-195 193h66l106 -100l-1 225v265l1 227l-106 -99h-66l195 191l197 -191h-69l-105 99v-717l105 100h69z" />
    <glyph glyph-name="arrowNW" unicode="&#x2196;" horiz-adv-x="937" 
d="M134 710h412v-44l-336 -1l634 -634l-31 -31l-634 634l-1 -336h-44v412z" />
    <glyph glyph-name="arrowNE" unicode="&#x2197;" horiz-adv-x="788" 
d="M325 665v45h412v-412h-45v336l-634 -634l-31 31l634 634h-336z" />
    <glyph glyph-name="arrowSE" unicode="&#x2198;" horiz-adv-x="936" 
d="M794 414h44v-412h-412v44l336 1l-632 632l31 31l632 -632z" />
    <glyph glyph-name="arrowSW" unicode="&#x2199;" horiz-adv-x="788" 
d="M499 43v-44h-412v412h45v-336l635 635l31 -31l-635 -635z" />
    <glyph glyph-name="partialdiff" unicode="&#x2202;" horiz-adv-x="601" 
d="M56 210q0 115 79.5 197.5t190.5 82.5q60 0 109 -31t75 -84q-23 188 -200 348h54q91 -80 139.5 -183t48.5 -215q0 -147 -78 -242t-198 -95q-98 0 -159 61.5t-61 160.5zM100 210q0 -82 48.5 -132t127.5 -50q92 0 158 72t66 174q0 80 -47.5 128t-126.5 48q-95 0 -160.5 -70
t-65.5 -170z" />
    <glyph glyph-name="emptyset" unicode="&#x2205;" horiz-adv-x="765" 
d="M356 -12q-157 0 -239 109l-98 -80l-27 31l103 84q-38 70 -38 163q0 177 115 302t274 125q157 0 240 -110l99 81l25 -32l-102 -83q38 -70 38 -164q0 -176 -115.5 -301t-274.5 -125zM103 295q0 -75 29 -133l518 421q-71 95 -208 95t-238 -113t-101 -270zM360 32
q138 0 239 112.5t101 269.5q0 76 -29 134l-518 -422q70 -94 207 -94z" />
    <glyph glyph-name="increment" unicode="&#x2206;" horiz-adv-x="637" 
d="M559 0h-557l6 41l348 669h68l141 -672zM379 664l-325 -624h467l-130 624q-2 10 -3 17q-6 -12 -9 -17z" />
    <glyph glyph-name="product" unicode="&#x220f;" horiz-adv-x="648" 
d="M96 0h-44l112 710h468l-112 -710h-45l106 668h-379z" />
    <glyph glyph-name="summation" unicode="&#x2211;" horiz-adv-x="506" 
d="M428 0h-446l8 50l270 303l-173 308l7 49h446l-6 -42h-403l181 -321l-273 -305h396z" />
    <glyph glyph-name="minus" unicode="&#x2212;" horiz-adv-x="660" 
d="M104 358h490l-7 -42h-490z" />
    <glyph glyph-name="radical" unicode="&#x221a;" horiz-adv-x="663" 
d="M156 0l-118 480h44l101 -426l343 656h171l-6 -40h-136l-358 -670h-41z" />
    <glyph glyph-name="infinity" unicode="&#x221e;" horiz-adv-x="826" 
d="M65 256q0 79 53.5 133.5t131.5 54.5q106 0 172 -134q99 134 206 134q62 0 103.5 -40.5t41.5 -101.5q0 -79 -53.5 -133.5t-130.5 -54.5q-108 0 -174 133q-96 -133 -204 -133q-62 0 -104 40.5t-42 101.5zM110 261q0 -48 30.5 -76.5t82.5 -28.5q83 0 169 126
q-53 120 -142 120q-59 0 -99.5 -40.5t-40.5 -100.5zM445 277q55 -121 144 -121q59 0 99 40.5t40 100.5q0 48 -29.5 76.5t-78.5 28.5q-84 0 -175 -125z" />
    <glyph glyph-name="integral" unicode="&#x222b;" horiz-adv-x="332" 
d="M61 -14h-71l6 40h71q44 0 50 43l90 568q14 87 100 87h71l-7 -40h-71q-41 0 -49 -43l-90 -568q-14 -87 -100 -87z" />
    <glyph glyph-name="approxequal" unicode="&#x2248;" horiz-adv-x="660" 
d="M544 446h45q-23 -141 -133 -141q-34 0 -70.5 16.5t-63 36.5t-58.5 36.5t-57 16.5q-36 0 -56.5 -22.5t-30.5 -73.5h-45q10 67 45.5 102.5t91.5 35.5q38 0 82.5 -26.5t87 -53t77.5 -26.5q34 0 54 23t31 76zM544 271h45q-23 -141 -133 -141q-34 0 -70.5 16.5t-63 36.5
t-58.5 36.5t-57 16.5q-36 0 -56.5 -22.5t-30.5 -73.5h-45q10 67 45.5 102.5t91.5 35.5q38 0 82.5 -26.5t87 -53t77.5 -26.5q34 0 54 23t31 76z" />
    <glyph glyph-name="notequal" unicode="&#x2260;" horiz-adv-x="660" 
d="M127 19l104 153h-157l7 42h179l108 160h-262l7 42h284l104 153h49l-104 -153h157l-7 -42h-179l-109 -160h263l-7 -42h-285l-104 -153h-48z" />
    <glyph glyph-name="lessequal" unicode="&#x2264;" horiz-adv-x="660" 
d="M561 153l-7 -42l-460 180l6 44l518 180l-7 -47l-459 -157zM47 0l7 42h490l-7 -42h-490z" />
    <glyph glyph-name="greaterequal" unicode="&#x2265;" horiz-adv-x="660" 
d="M583 291l-518 -180l7 47l459 157l-409 158l7 42l460 -180zM54 42h490l-7 -42h-490z" />
    <glyph glyph-name="filledbox" unicode="&#x25a0;" horiz-adv-x="942" 
d="M134 0v710h710v-710h-710z" />
    <glyph glyph-name="squarewhite" unicode="&#x25a1;" horiz-adv-x="942" 
d="M134 0v710h710v-710h-710zM798 664h-618v-618h618v618z" />
    <glyph glyph-name="triagup" unicode="&#x25b2;" horiz-adv-x="966" 
d="M22 0l423 710l423 -710h-846z" />
    <glyph glyph-name="triangleupwhite" unicode="&#x25b3;" horiz-adv-x="968" 
d="M446 712l424 -712h-848zM112 49h668l-334 561z" />
    <glyph glyph-name="lozenge" unicode="&#x25ca;" horiz-adv-x="588" 
d="M546 355l-209 -355h-51l-208 355l208 355h51zM495 355l-183 312l-183 -312l183 -312z" />
    <glyph glyph-name="circle" unicode="&#x25cb;" horiz-adv-x="912" 
d="M471 -58q-162 0 -276.5 114.5t-114.5 276.5q0 161 115 276t276 115t276 -115t115 -276t-115 -276t-276 -115zM471 -4q139 0 238 99t99 238t-99 238t-238 99t-238 -99t-99 -238t99 -238t238 -99z" />
    <glyph glyph-name="circleblack" unicode="&#x25cf;" horiz-adv-x="912" 
d="M471 -58q-162 0 -276.5 114.5t-114.5 276.5q0 161 115 276t276 115t276 -115t115 -276t-115 -276t-276 -115z" />
    <glyph glyph-name="peace" unicode="&#x262e;" horiz-adv-x="912" 
d="M471 -58q-162 0 -276.5 114.5t-114.5 276.5q0 161 115 276t276 115t276 -115t115 -276t-115 -276t-276 -115zM134 333q0 -75 31 -142l282 179v299q-132 -9 -222.5 -106t-90.5 -230zM808 333q0 132 -90.5 229t-220.5 107v-299l280 -178q31 67 31 141zM190 148
q43 -65 110 -105.5t147 -45.5v313zM497 310v-313q79 6 146 46t110 105z" />
    <glyph glyph-name="check" unicode="&#x2713;" horiz-adv-x="720" 
d="M244 7l-215 232l35 35l177 -192l345 415l40 -31z" />
    <glyph glyph-name="ITF" unicode="&#xf8ff;" horiz-adv-x="1811" 
d="M183 0v700h216v-700h-216zM444 496v204h216v-204h-216zM704 0v700h217v-700h-217zM965 496v204h216v-204h-216zM1225 0v700h217v-700h-217zM1486 496v204h216v-204h-216zM1486 247v205h216v-205h-216z" />
    <glyph glyph-name="G.ss01" horiz-adv-x="742" 
d="M62 304q0 181 105 299.5t265 118.5q109 0 182.5 -58t84.5 -153h-46q-11 77 -70.5 122.5t-150.5 45.5q-141 0 -232.5 -106t-91.5 -269q0 -126 68 -199.5t184 -73.5q124 0 200.5 75t101.5 219h-289l7 42h331l-6 -42q-23 -161 -113.5 -249t-232.5 -88q-135 0 -216 86.5
t-81 229.5z" />
    <glyph glyph-name="idotaccent" horiz-adv-x="195" 
d="M148 558q-15 0 -25 10t-10 24q0 20 13.5 34.5t32.5 14.5q15 0 25 -10t10 -24q0 -20 -13.5 -34.5t-32.5 -14.5zM38 0l76 480h43l-76 -480h-43z" />
    <glyph glyph-name="a.ss01" 
d="M487 480h34l-76 -480h-37l11 105q-70 -117 -194 -117q-84 0 -136.5 57.5t-52.5 149.5q0 126 73.5 211.5t182.5 85.5q65 0 109.5 -31.5t59.5 -88.5zM443 290q0 78 -39.5 120t-112.5 42q-90 0 -150.5 -73.5t-60.5 -183.5q0 -76 40.5 -121.5t108.5 -45.5q91 0 152.5 75.5
t61.5 186.5z" />
    <glyph glyph-name="g.ss02" horiz-adv-x="508" 
d="M70 285q0 88 63 147.5t157 59.5q71 0 111 -35q35 54 101 54q11 0 16 -1l-7 -45q-4 2 -22 2q-44 0 -71 -31q19 -19 30.5 -49t11.5 -59q0 -85 -62.5 -145t-151.5 -60q-52 0 -91 21q-32 -1 -53.5 -15t-21.5 -35q0 -42 61 -42h168q61 0 96.5 -28t35.5 -75q0 -75 -69 -119
t-187 -44q-198 0 -198 125q0 39 24.5 68.5t66.5 40.5q-40 19 -40 64q0 31 22.5 53t61.5 30q-52 44 -52 118zM112 285q0 -55 37 -89t97 -34q77 0 124.5 45.5t47.5 120.5q0 56 -35.5 90.5t-92.5 34.5q-75 0 -126.5 -48.5t-51.5 -119.5zM30 -85q0 -89 157 -89q97 0 153.5 33
t56.5 89q0 63 -94 63h-145q-58 0 -93 -26.5t-35 -69.5z" />
    <glyph glyph-name="t.ss03" horiz-adv-x="298" 
d="M213 39l6 -39q-22 -10 -54 -10q-50 0 -75.5 30.5t-16.5 85.5l53 336h-74l6 38h74l24 152h43l-24 -152h116l-6 -38h-116l-54 -339q-11 -72 50 -72q24 0 48 8z" />
    <glyph glyph-name="f_y" horiz-adv-x="718" 
d="M237 -202l6 35h43q27 0 42 2t37.5 18t38.5 48l35 69l-100 472h-170l-70 -442h-43l70 442h-74l6 38h74l17 109q10 64 44 98.5t88 34.5q32 0 47 -3l-6 -37h-40q-40 0 -61 -21.5t-29 -71.5l-17 -109h200l95 -450l230 450h46l-302 -591q-50 -97 -145 -97q-35 0 -62 6z" />
    <glyph glyph-name="t_i" horiz-adv-x="484" 
d="M448 628q-15 0 -25 10t-10 24q0 20 13.5 34.5t32.5 14.5q15 0 25 -10t10 -24q0 -20 -13.5 -34.5t-32.5 -14.5zM120 0h-43l70 442h-95l6 38h95l24 152h43l-24 -152h250l-76 -480h-43l70 442h-207z" />
    <glyph glyph-name="t_t" horiz-adv-x="546" 
d="M120 0h-43l70 442h-95l6 38h95l24 152h43l-24 -152h230l24 152h43l-24 -152h95l-6 -38h-95l-70 -442h-43l70 442h-230z" />
    <glyph glyph-name="t_y" horiz-adv-x="719" 
d="M120 0h-43l70 442h-95l6 38h95l24 152h43l-24 -152h180l95 -450l230 450h46l-302 -591q-50 -97 -145 -97q-35 0 -62 6l6 35h43q27 0 42 2t37.5 18t38.5 48l35 69l-100 472h-150z" />
    <glyph glyph-name="zero.tf" horiz-adv-x="660" 
d="M71 269q0 192 92.5 322.5t228.5 130.5q112 0 172 -76t60 -206q0 -192 -92.5 -322.5t-228.5 -130.5q-112 0 -172 76t-60 206zM115 272q0 -113 50 -177.5t144 -64.5q115 0 193 118.5t78 288.5q0 113 -50 177.5t-144 64.5q-115 0 -193 -118.5t-78 -288.5z" />
    <glyph glyph-name="one.tf" horiz-adv-x="660" 
d="M304 42l98 626h-186l7 42h230l-105 -668h181l-7 -42h-425l7 42h200z" />
    <glyph glyph-name="two.tf" horiz-adv-x="660" 
d="M514 0h-445l6 38l275 207q106 80 152.5 147.5t46.5 141.5q0 65 -43 106t-113 41q-158 0 -193 -201h-47q43 243 243 243q87 0 143.5 -53.5t56.5 -135.5q0 -85 -50.5 -158t-171.5 -165l-223 -169h370z" />
    <glyph glyph-name="three.tf" horiz-adv-x="660" 
d="M323 395h-42l6 34l264 239h-350l7 42h413l-6 -38l-263 -238q92 -5 149 -65t57 -152q0 -100 -68 -164.5t-174 -64.5q-100 0 -162.5 62t-62.5 162h46q0 -83 48.5 -132.5t128.5 -49.5q89 0 144 51t55 135q0 83 -51 131t-139 48z" />
    <glyph glyph-name="four.tf" horiz-adv-x="660" 
d="M123 200h327l72 453zM569 158h-81l-25 -158h-45l25 158h-381l7 42l448 510h59l-81 -510h81z" />
    <glyph glyph-name="five.tf" horiz-adv-x="660" 
d="M328 -12q-104 0 -169.5 62t-65.5 162h46q0 -83 51.5 -133.5t135.5 -50.5q83 0 136 57t53 151q0 86 -50.5 136.5t-134.5 50.5q-100 0 -169 -78l-27 14l138 351h323l-7 -42h-287l-97 -246q59 43 133 43q99 0 161 -64t62 -164q0 -110 -66 -179.5t-166 -69.5z" />
    <glyph glyph-name="six.tf" horiz-adv-x="660" 
d="M203 465l219 245h57l-229 -252q57 25 108 25q98 0 157.5 -60.5t59.5 -159.5q0 -115 -76.5 -195t-185.5 -80q-100 0 -163.5 63t-63.5 162q0 67 26.5 124t90.5 128zM131 213q0 -80 51.5 -131.5t131.5 -51.5q91 0 153.5 66.5t62.5 163.5q0 86 -46.5 133.5t-130.5 47.5
q-92 0 -157 -66.5t-65 -161.5z" />
    <glyph glyph-name="seven.tf" horiz-adv-x="660" 
d="M164 710h479l-6 -42l-388 -668h-50l388 668h-429z" />
    <glyph glyph-name="eight.tf" horiz-adv-x="660" 
d="M80 179q0 78 47.5 132.5t127.5 73.5q-95 42 -95 148q0 85 66.5 137.5t165.5 52.5q87 0 144.5 -49.5t57.5 -121.5q0 -70 -39 -116.5t-106 -65.5q55 -19 85 -62t30 -102q0 -98 -72 -158.5t-182 -60.5q-103 0 -166.5 53.5t-63.5 138.5zM206 533q0 -67 45.5 -101.5
t118.5 -34.5q80 0 129 41t49 114q0 57 -45 93t-119 36q-76 0 -127 -41t-51 -107zM125 180q0 -69 51 -110t135 -41q91 0 149.5 48t58.5 129q0 69 -50.5 109t-136.5 40q-92 0 -149.5 -47t-57.5 -128z" />
    <glyph glyph-name="nine.tf" horiz-adv-x="660" 
d="M495 245l-219 -245h-57l229 252q-57 -25 -108 -25q-98 0 -157.5 60.5t-59.5 159.5q0 115 76.5 195t185.5 80q100 0 163.5 -63t63.5 -162q0 -67 -26.5 -124t-90.5 -128zM567 497q0 80 -51.5 131.5t-131.5 51.5q-91 0 -153.5 -66.5t-62.5 -163.5q0 -86 46.5 -133.5
t130.5 -47.5q92 0 157 66.5t65 161.5z" />
    <glyph glyph-name="zero.dnom" horiz-adv-x="334" 
d="M14 129q0 86 48 143.5t119 57.5q52 0 83.5 -36.5t31.5 -97.5q0 -85 -48 -143.5t-119 -58.5q-52 0 -83.5 36.5t-31.5 98.5zM52 129q0 -45 22 -71.5t59 -26.5q52 0 88.5 48.5t36.5 116.5q0 45 -22.5 71.5t-60.5 26.5q-51 0 -87 -48.5t-36 -116.5z" />
    <glyph glyph-name="one.dnom" horiz-adv-x="176" 
d="M102 290h-72l5 35h110l-51 -325h-38z" />
    <glyph glyph-name="two.dnom" horiz-adv-x="265" 
d="M205 0h-216l4 27l142 109q32 24 46.5 46.5t14.5 53.5q0 26 -16 42t-43 16q-30 0 -51 -19t-26 -51h-41q8 49 41 77.5t80 28.5q42 0 69.5 -26.5t27.5 -67.5q0 -38 -20 -67.5t-61 -61.5l-90 -70h145z" />
    <glyph glyph-name="three.dnom" horiz-adv-x="262" 
d="M0 101h39q0 -32 19 -51t50 -19q32 0 51 18.5t19 50.5q0 31 -22 50t-58 19h-18l4 27l106 92h-145l6 37h195l-6 -38l-102 -88q36 -8 58.5 -35.5t22.5 -63.5q0 -45 -32 -75.5t-79 -30.5t-77.5 30t-30.5 77z" />
    <glyph glyph-name="four.dnom" horiz-adv-x="276" 
d="M146 67h-157l6 36l178 222h49l-33 -222h39l-6 -36h-39l-11 -67h-37zM37 103h115l26 175z" />
    <glyph glyph-name="five.dnom" horiz-adv-x="276" 
d="M110 -6q-47 0 -77.5 30t-30.5 77h39q0 -32 19 -51t50 -19q35 0 58.5 25t23.5 63q0 30 -17 47t-47 17q-39 0 -70 -31l-35 7l67 166h159l-6 -37h-129l-36 -88q24 17 55 17q44 0 71.5 -26.5t27.5 -68.5q0 -54 -35 -91t-87 -37z" />
    <glyph glyph-name="six.dnom" horiz-adv-x="288" 
d="M61 214l99 111h49l-95 -105q16 2 23 2q46 0 76 -29t30 -74q0 -52 -37 -88.5t-90 -36.5q-49 0 -80.5 30t-31.5 76q0 29 12 53t45 61zM44 101q0 -32 19 -51t53 -19q39 0 63 23.5t24 62.5q0 33 -18.5 51.5t-51.5 18.5q-39 0 -64 -24t-25 -62z" />
    <glyph glyph-name="seven.dnom" horiz-adv-x="240" 
d="M195 288h-177l6 37h219l-6 -38l-166 -287h-44z" />
    <glyph glyph-name="eight.dnom" horiz-adv-x="278" 
d="M2 82q0 33 20 57.5t55 35.5q-37 21 -37 64q0 39 30.5 63t79.5 24q39 0 65 -22.5t26 -56.5q0 -28 -16.5 -49t-43.5 -29q47 -18 47 -72q0 -44 -34 -73t-86 -29q-47 0 -76.5 24.5t-29.5 62.5zM76 239q0 -23 16.5 -36.5t46.5 -13.5q29 0 47.5 16t18.5 41q0 21 -16.5 34.5
t-41.5 13.5q-32 0 -51.5 -15t-19.5 -40zM41 87q0 -24 20 -40t50 -16q34 0 56 19t22 48q0 25 -19.5 39.5t-52.5 14.5t-54.5 -18.5t-21.5 -46.5z" />
    <glyph glyph-name="nine.dnom" horiz-adv-x="287" 
d="M202 111l-99 -111h-49l95 105q-16 -2 -23 -2q-46 0 -76 29t-30 74q0 52 37 88.5t90 36.5q49 0 80.5 -30t31.5 -76q0 -29 -12 -53t-45 -61zM219 224q0 32 -19 51t-53 19q-39 0 -63 -23.5t-24 -62.5q0 -33 18.5 -51.5t51.5 -18.5q39 0 64 24t25 62z" />
    <glyph glyph-name="zero.numr" horiz-adv-x="334" 
d="M75 514q0 86 48 143.5t119 57.5q52 0 83.5 -36.5t31.5 -97.5q0 -85 -48 -143.5t-119 -58.5q-52 0 -83.5 36.5t-31.5 98.5zM113 514q0 -45 22 -71.5t59 -26.5q52 0 88.5 48.5t36.5 116.5q0 45 -22.5 71.5t-60.5 26.5q-51 0 -87 -48.5t-36 -116.5z" />
    <glyph glyph-name="one.numr" horiz-adv-x="176" 
d="M163 675h-72l5 35h110l-51 -325h-38z" />
    <glyph glyph-name="two.numr" horiz-adv-x="265" 
d="M266 385h-216l4 27l142 109q32 24 46.5 46.5t14.5 53.5q0 26 -16 42t-43 16q-30 0 -51 -19t-26 -51h-41q8 49 41 77.5t80 28.5q42 0 69.5 -26.5t27.5 -67.5q0 -38 -20 -67.5t-61 -61.5l-90 -70h145z" />
    <glyph glyph-name="three.numr" horiz-adv-x="262" 
d="M61 486h39q0 -32 19 -51t50 -19q32 0 51 18.5t19 50.5q0 31 -22 50t-58 19h-18l4 27l106 92h-145l6 37h195l-6 -38l-102 -88q36 -8 58.5 -35.5t22.5 -63.5q0 -45 -32 -75.5t-79 -30.5t-77.5 30t-30.5 77z" />
    <glyph glyph-name="four.numr" horiz-adv-x="276" 
d="M207 452h-157l6 36l178 222h49l-33 -222h39l-6 -36h-39l-11 -67h-37zM98 488h115l26 175z" />
    <glyph glyph-name="five.numr" horiz-adv-x="276" 
d="M171 379q-47 0 -77.5 30t-30.5 77h39q0 -32 19 -51t50 -19q35 0 58.5 25t23.5 63q0 30 -17 47t-47 17q-39 0 -70 -31l-35 7l67 166h159l-6 -37h-129l-36 -88q24 17 55 17q44 0 71.5 -26.5t27.5 -68.5q0 -54 -35 -91t-87 -37z" />
    <glyph glyph-name="six.numr" horiz-adv-x="288" 
d="M122 599l99 111h49l-95 -105q16 2 23 2q46 0 76 -29t30 -74q0 -52 -37 -88.5t-90 -36.5q-49 0 -80.5 30t-31.5 76q0 29 12 53t45 61zM105 486q0 -32 19 -51t53 -19q39 0 63 23.5t24 62.5q0 33 -18.5 51.5t-51.5 18.5q-39 0 -64 -24t-25 -62z" />
    <glyph glyph-name="seven.numr" horiz-adv-x="240" 
d="M256 673h-177l6 37h219l-6 -38l-166 -287h-44z" />
    <glyph glyph-name="eight.numr" horiz-adv-x="278" 
d="M63 467q0 33 20 57.5t55 35.5q-37 21 -37 64q0 39 30.5 63t79.5 24q39 0 65 -22.5t26 -56.5q0 -28 -16.5 -49t-43.5 -29q47 -18 47 -72q0 -44 -34 -73t-86 -29q-47 0 -76.5 24.5t-29.5 62.5zM137 624q0 -23 16.5 -36.5t46.5 -13.5q29 0 47.5 16t18.5 41q0 21 -16.5 34.5
t-41.5 13.5q-32 0 -51.5 -15t-19.5 -40zM102 472q0 -24 20 -40t50 -16q34 0 56 19t22 48q0 25 -19.5 39.5t-52.5 14.5t-54.5 -18.5t-21.5 -46.5z" />
    <glyph glyph-name="nine.numr" horiz-adv-x="287" 
d="M263 496l-99 -111h-49l95 105q-16 -2 -23 -2q-46 0 -76 29t-30 74q0 52 37 88.5t90 36.5q49 0 80.5 -30t31.5 -76q0 -29 -12 -53t-45 -61zM280 609q0 32 -19 51t-53 19q-39 0 -63 -23.5t-24 -62.5q0 -33 18.5 -51.5t51.5 -18.5q39 0 64 24t25 62z" />
    <glyph glyph-name="registered.ss01" horiz-adv-x="594" 
d="M306 209q-100 0 -165.5 64.5t-65.5 162.5q0 124 81 205.5t204 81.5q99 0 164.5 -65t65.5 -163q0 -122 -81.5 -204t-202.5 -82zM309 242q104 0 174.5 72.5t70.5 180.5q0 85 -55 140t-141 55q-107 0 -177 -72t-70 -182q0 -86 55 -140t143 -54zM265 334h-36l42 264h89
q36 0 58.5 -19.5t22.5 -51.5q0 -64 -64 -87l37 -106h-38l-34 100h-61zM403 523q0 40 -46 40h-55l-15 -94h55q26 0 43.5 15.5t17.5 38.5z" />
    <glyph glyph-name="bracketleftsuperior" horiz-adv-x="204" 
d="M96 273h108l-6 -38h-149l99 625h149l-6 -38h-109z" />
    <glyph glyph-name="bracketrightsuperior" horiz-adv-x="204" 
d="M205 822h-108l6 38h149l-99 -625h-149l6 38h109z" />
    <glyph glyph-name="Gbreve.ss01" horiz-adv-x="742" 
d="M519 872h41q-8 -51 -37.5 -80t-76.5 -29q-46 0 -70.5 29t-24.5 80h40q0 -68 58 -68q59 0 70 68zM62 304q0 181 105 299.5t265 118.5q109 0 182.5 -58t84.5 -153h-46q-11 77 -70.5 122.5t-150.5 45.5q-141 0 -232.5 -106t-91.5 -269q0 -126 68 -199.5t184 -73.5
q124 0 200.5 75t101.5 219h-289l7 42h331l-6 -42q-23 -161 -113.5 -249t-232.5 -88q-135 0 -216 86.5t-81 229.5z" />
    <glyph glyph-name="Gcircumflex.ss01" horiz-adv-x="742" 
d="M384 766h-49l85 106h68l51 -106h-43l-42 83zM62 304q0 181 105 299.5t265 118.5q109 0 182.5 -58t84.5 -153h-46q-11 77 -70.5 122.5t-150.5 45.5q-141 0 -232.5 -106t-91.5 -269q0 -126 68 -199.5t184 -73.5q124 0 200.5 75t101.5 219h-289l7 42h331l-6 -42
q-23 -161 -113.5 -249t-232.5 -88q-135 0 -216 86.5t-81 229.5z" />
    <glyph glyph-name="Gcommaaccent.ss01" horiz-adv-x="742" 
d="M62 304q0 181 105 299.5t265 118.5q109 0 182.5 -58t84.5 -153h-46q-11 77 -70.5 122.5t-150.5 45.5q-141 0 -232.5 -106t-91.5 -269q0 -126 68 -199.5t184 -73.5q124 0 200.5 75t101.5 219h-289l7 42h331l-6 -42q-23 -161 -113.5 -249t-232.5 -88q-135 0 -216 86.5
t-81 229.5zM368 -77q0 -37 -26 -69.5t-59 -33.5l4 26q16 1 29 12t15 27q-4 -2 -11 -2q-13 0 -23 9t-10 23q0 19 14 33.5t32 14.5q35 0 35 -40z" />
    <glyph glyph-name="Gdotaccent.ss01" horiz-adv-x="742" 
d="M442 789q-15 0 -25 10t-10 24q0 20 13.5 34.5t32.5 14.5q15 0 25 -10t10 -24q0 -20 -13.5 -34.5t-32.5 -14.5zM62 304q0 181 105 299.5t265 118.5q109 0 182.5 -58t84.5 -153h-46q-11 77 -70.5 122.5t-150.5 45.5q-141 0 -232.5 -106t-91.5 -269q0 -126 68 -199.5
t184 -73.5q124 0 200.5 75t101.5 219h-289l7 42h331l-6 -42q-23 -161 -113.5 -249t-232.5 -88q-135 0 -216 86.5t-81 229.5z" />
    <glyph glyph-name="Q.ss04" horiz-adv-x="753" 
d="M598 -132l-247 120h-2q-130 0 -209.5 84.5t-79.5 222.5q0 178 110.5 302.5t268.5 124.5q130 0 210 -85.5t80 -222.5q0 -154 -85.5 -271t-217.5 -146l191 -93zM683 414q0 119 -68 191.5t-180 72.5q-136 0 -232.5 -112.5t-96.5 -270.5q0 -119 67.5 -191t179.5 -72
q137 0 233.5 112t96.5 270z" />
    <glyph glyph-name="aacute.ss01" 
d="M415 640l-82 -105h-42l69 105h55zM487 480h34l-76 -480h-37l11 105q-70 -117 -194 -117q-84 0 -136.5 57.5t-52.5 149.5q0 126 73.5 211.5t182.5 85.5q65 0 109.5 -31.5t59.5 -88.5zM443 290q0 78 -39.5 120t-112.5 42q-90 0 -150.5 -73.5t-60.5 -183.5
q0 -76 40.5 -121.5t108.5 -45.5q91 0 152.5 75.5t61.5 186.5z" />
    <glyph glyph-name="abreve.ss01" 
d="M391 641h41q-8 -51 -37.5 -80t-76.5 -29q-46 0 -70.5 29t-24.5 80h40q0 -68 58 -68q59 0 70 68zM487 480h34l-76 -480h-37l11 105q-70 -117 -194 -117q-84 0 -136.5 57.5t-52.5 149.5q0 126 73.5 211.5t182.5 85.5q65 0 109.5 -31.5t59.5 -88.5zM443 290q0 78 -39.5 120
t-112.5 42q-90 0 -150.5 -73.5t-60.5 -183.5q0 -76 40.5 -121.5t108.5 -45.5q91 0 152.5 75.5t61.5 186.5z" />
    <glyph glyph-name="acircumflex.ss01" 
d="M256 535h-49l85 106h68l51 -106h-43l-42 83zM487 480h34l-76 -480h-37l11 105q-70 -117 -194 -117q-84 0 -136.5 57.5t-52.5 149.5q0 126 73.5 211.5t182.5 85.5q65 0 109.5 -31.5t59.5 -88.5zM443 290q0 78 -39.5 120t-112.5 42q-90 0 -150.5 -73.5t-60.5 -183.5
q0 -76 40.5 -121.5t108.5 -45.5q91 0 152.5 75.5t61.5 186.5z" />
    <glyph glyph-name="adieresis.ss01" 
d="M250 558q-15 0 -25 10t-10 24q0 20 13.5 34.5t32.5 14.5q15 0 25 -10t10 -24q0 -20 -13.5 -34.5t-32.5 -14.5zM379 558q-15 0 -25 10t-10 24q0 20 13.5 34.5t32.5 14.5q15 0 25 -10t10 -24q0 -20 -13.5 -34.5t-32.5 -14.5zM487 480h34l-76 -480h-37l11 105
q-70 -117 -194 -117q-84 0 -136.5 57.5t-52.5 149.5q0 126 73.5 211.5t182.5 85.5q65 0 109.5 -31.5t59.5 -88.5zM443 290q0 78 -39.5 120t-112.5 42q-90 0 -150.5 -73.5t-60.5 -183.5q0 -76 40.5 -121.5t108.5 -45.5q91 0 152.5 75.5t61.5 186.5z" />
    <glyph glyph-name="agrave.ss01" 
d="M327 535h-38l-46 106h50zM487 480h34l-76 -480h-37l11 105q-70 -117 -194 -117q-84 0 -136.5 57.5t-52.5 149.5q0 126 73.5 211.5t182.5 85.5q65 0 109.5 -31.5t59.5 -88.5zM443 290q0 78 -39.5 120t-112.5 42q-90 0 -150.5 -73.5t-60.5 -183.5q0 -76 40.5 -121.5
t108.5 -45.5q91 0 152.5 75.5t61.5 186.5z" />
    <glyph glyph-name="amacron.ss01" 
d="M215 599l6 40h210l-6 -40h-210zM487 480h34l-76 -480h-37l11 105q-70 -117 -194 -117q-84 0 -136.5 57.5t-52.5 149.5q0 126 73.5 211.5t182.5 85.5q65 0 109.5 -31.5t59.5 -88.5zM443 290q0 78 -39.5 120t-112.5 42q-90 0 -150.5 -73.5t-60.5 -183.5q0 -76 40.5 -121.5
t108.5 -45.5q91 0 152.5 75.5t61.5 186.5z" />
    <glyph glyph-name="aogonek.ss01" 
d="M411 0h-3l11 105q-70 -117 -194 -117q-84 0 -136.5 57.5t-52.5 149.5q0 126 73.5 211.5t182.5 85.5q65 0 109.5 -31.5t59.5 -88.5l26 108h34l-76 -480q-25 -10 -42 -30t-17 -38q0 -22 26 -22q10 0 21 3l-7 -40q-9 -4 -29 -4q-24 0 -38 13.5t-14 37.5q0 47 66 80zM443 290
q0 78 -39.5 120t-112.5 42q-90 0 -150.5 -73.5t-60.5 -183.5q0 -76 40.5 -121.5t108.5 -45.5q91 0 152.5 75.5t61.5 186.5z" />
    <glyph glyph-name="aring.ss01" 
d="M312 536q-37 0 -60.5 23t-23.5 60q0 49 32 82t79 33q37 0 60.5 -23.5t23.5 -60.5q0 -47 -32.5 -80.5t-78.5 -33.5zM316 574q27 0 46.5 21t19.5 51q0 22 -13 36t-34 14q-27 0 -46.5 -21.5t-19.5 -51.5q0 -22 13 -35.5t34 -13.5zM487 480h34l-76 -480h-37l11 105
q-70 -117 -194 -117q-84 0 -136.5 57.5t-52.5 149.5q0 126 73.5 211.5t182.5 85.5q65 0 109.5 -31.5t59.5 -88.5zM443 290q0 78 -39.5 120t-112.5 42q-90 0 -150.5 -73.5t-60.5 -183.5q0 -76 40.5 -121.5t108.5 -45.5q91 0 152.5 75.5t61.5 186.5z" />
    <glyph glyph-name="aringacute.ss01" 
d="M423 773l-82 -105h-42l69 105h55zM487 480h34l-76 -480h-37l11 105q-70 -117 -194 -117q-84 0 -136.5 57.5t-52.5 149.5q0 106 53.5 185.5t138.5 102.5q-18 23 -18 54q0 49 32 82t79 33q37 0 60.5 -23.5t23.5 -60.5q0 -54 -41 -88q76 -28 97 -108zM298 492q27 0 46.5 21
t19.5 51q0 22 -13 36t-34 14q-27 0 -46.5 -21.5t-19.5 -51.5q0 -22 13 -35.5t34 -13.5zM443 290q0 78 -39.5 120t-112.5 42q-90 0 -150.5 -73.5t-60.5 -183.5q0 -76 40.5 -121.5t108.5 -45.5q91 0 152.5 75.5t61.5 186.5z" />
    <glyph glyph-name="atilde.ss01" 
d="M229 555h-38q5 44 24.5 67.5t48.5 23.5q26 0 56.5 -26t49.5 -26q33 0 40 52h38q-14 -91 -77 -91q-30 0 -60.5 26t-44.5 26q-29 0 -37 -52zM487 480h34l-76 -480h-37l11 105q-70 -117 -194 -117q-84 0 -136.5 57.5t-52.5 149.5q0 126 73.5 211.5t182.5 85.5
q65 0 109.5 -31.5t59.5 -88.5zM443 290q0 78 -39.5 120t-112.5 42q-90 0 -150.5 -73.5t-60.5 -183.5q0 -76 40.5 -121.5t108.5 -45.5q91 0 152.5 75.5t61.5 186.5z" />
    <glyph glyph-name="gbreve.ss02" horiz-adv-x="508" 
d="M387 641h41q-8 -51 -37.5 -80t-76.5 -29q-46 0 -70.5 29t-24.5 80h40q0 -68 58 -68q59 0 70 68zM70 285q0 88 63 147.5t157 59.5q71 0 111 -35q35 54 101 54q11 0 16 -1l-7 -45q-4 2 -22 2q-44 0 -71 -31q19 -19 30.5 -49t11.5 -59q0 -85 -62.5 -145t-151.5 -60
q-52 0 -91 21q-32 -1 -53.5 -15t-21.5 -35q0 -42 61 -42h168q61 0 96.5 -28t35.5 -75q0 -75 -69 -119t-187 -44q-198 0 -198 125q0 39 24.5 68.5t66.5 40.5q-40 19 -40 64q0 31 22.5 53t61.5 30q-52 44 -52 118zM112 285q0 -55 37 -89t97 -34q77 0 124.5 45.5t47.5 120.5
q0 56 -35.5 90.5t-92.5 34.5q-75 0 -126.5 -48.5t-51.5 -119.5zM30 -85q0 -89 157 -89q97 0 153.5 33t56.5 89q0 63 -94 63h-145q-58 0 -93 -26.5t-35 -69.5z" />
    <glyph glyph-name="gcircumflex.ss02" horiz-adv-x="508" 
d="M252 535h-49l85 106h68l51 -106h-43l-42 83zM70 285q0 88 63 147.5t157 59.5q71 0 111 -35q35 54 101 54q11 0 16 -1l-7 -45q-4 2 -22 2q-44 0 -71 -31q19 -19 30.5 -49t11.5 -59q0 -85 -62.5 -145t-151.5 -60q-52 0 -91 21q-32 -1 -53.5 -15t-21.5 -35q0 -42 61 -42h168
q61 0 96.5 -28t35.5 -75q0 -75 -69 -119t-187 -44q-198 0 -198 125q0 39 24.5 68.5t66.5 40.5q-40 19 -40 64q0 31 22.5 53t61.5 30q-52 44 -52 118zM112 285q0 -55 37 -89t97 -34q77 0 124.5 45.5t47.5 120.5q0 56 -35.5 90.5t-92.5 34.5q-75 0 -126.5 -48.5t-51.5 -119.5z
M30 -85q0 -89 157 -89q97 0 153.5 33t56.5 89q0 63 -94 63h-145q-58 0 -93 -26.5t-35 -69.5z" />
    <glyph glyph-name="gcommaaccent.ss02" horiz-adv-x="508" 
d="M349 568q0 -19 -14 -33.5t-32 -14.5q-35 0 -35 40q0 37 26 69.5t59 33.5l-4 -26q-16 -1 -29 -12t-15 -27q4 2 11 2q13 0 23 -9t10 -23zM70 285q0 88 63 147.5t157 59.5q71 0 111 -35q35 54 101 54q11 0 16 -1l-7 -45q-4 2 -22 2q-44 0 -71 -31q19 -19 30.5 -49t11.5 -59
q0 -85 -62.5 -145t-151.5 -60q-52 0 -91 21q-32 -1 -53.5 -15t-21.5 -35q0 -42 61 -42h168q61 0 96.5 -28t35.5 -75q0 -75 -69 -119t-187 -44q-198 0 -198 125q0 39 24.5 68.5t66.5 40.5q-40 19 -40 64q0 31 22.5 53t61.5 30q-52 44 -52 118zM112 285q0 -55 37 -89t97 -34
q77 0 124.5 45.5t47.5 120.5q0 56 -35.5 90.5t-92.5 34.5q-75 0 -126.5 -48.5t-51.5 -119.5zM30 -85q0 -89 157 -89q97 0 153.5 33t56.5 89q0 63 -94 63h-145q-58 0 -93 -26.5t-35 -69.5z" />
    <glyph glyph-name="gdotaccent.ss02" horiz-adv-x="508" 
d="M310 558q-15 0 -25 10t-10 24q0 20 13.5 34.5t32.5 14.5q15 0 25 -10t10 -24q0 -20 -13.5 -34.5t-32.5 -14.5zM70 285q0 88 63 147.5t157 59.5q71 0 111 -35q35 54 101 54q11 0 16 -1l-7 -45q-4 2 -22 2q-44 0 -71 -31q19 -19 30.5 -49t11.5 -59q0 -85 -62.5 -145
t-151.5 -60q-52 0 -91 21q-32 -1 -53.5 -15t-21.5 -35q0 -42 61 -42h168q61 0 96.5 -28t35.5 -75q0 -75 -69 -119t-187 -44q-198 0 -198 125q0 39 24.5 68.5t66.5 40.5q-40 19 -40 64q0 31 22.5 53t61.5 30q-52 44 -52 118zM112 285q0 -55 37 -89t97 -34q77 0 124.5 45.5
t47.5 120.5q0 56 -35.5 90.5t-92.5 34.5q-75 0 -126.5 -48.5t-51.5 -119.5zM30 -85q0 -89 157 -89q97 0 153.5 33t56.5 89q0 63 -94 63h-145q-58 0 -93 -26.5t-35 -69.5z" />
    <glyph glyph-name="tbar.ss03" horiz-adv-x="277" 
d="M213 39l6 -39q-22 -10 -54 -10q-50 0 -75.5 30.5t-16.5 85.5l24 152h-59l6 37h59l23 147h-74l6 38h74l24 152h43l-24 -152h116l-6 -38h-116l-24 -147h78l-6 -37h-77l-25 -155q-11 -72 50 -72q24 0 48 8z" />
    <glyph glyph-name="tcaron.ss03" horiz-adv-x="298" 
d="M242 566l23 144h47l-36 -144h-34zM213 39l6 -39q-22 -10 -54 -10q-50 0 -75.5 30.5t-16.5 85.5l53 336h-74l6 38h74l24 152h43l-24 -152h116l-6 -38h-116l-54 -339q-11 -72 50 -72q24 0 48 8z" />
    <glyph glyph-name="tcedilla.ss03" horiz-adv-x="298" 
d="M65 -155l6 36q23 -15 49 -15q48 0 48 34q0 29 -34 29q-20 0 -50 -13l-4 22l38 61q-58 26 -45 107l53 336h-74l6 38h74l24 152h43l-24 -152h116l-6 -38h-116l-54 -339q-11 -72 50 -72q24 0 48 8l6 -39q-22 -10 -54 -10q-12 0 -18 1l-20 -33q9 3 19 3q26 0 43.5 -16
t17.5 -40q0 -34 -24 -54t-64 -20q-35 0 -54 14z" />
    <glyph glyph-name="tcommaaccent.ss03" horiz-adv-x="298" 
d="M213 39l6 -39q-22 -10 -54 -10q-50 0 -75.5 30.5t-16.5 85.5l53 336h-74l6 38h74l24 152h43l-24 -152h116l-6 -38h-116l-54 -339q-11 -72 50 -72q24 0 48 8zM162 -77q0 -37 -26 -69.5t-59 -33.5l4 26q16 1 29 12t15 27q-4 -2 -11 -2q-13 0 -23 9t-10 23q0 19 14 33.5
t32 14.5q35 0 35 -40z" />
    <glyph glyph-name="caroncomb.alt" horiz-adv-x="598" 
d="M365 565l23 144h47l-36 -144h-34z" />
    <glyph glyph-name="strokeshortcomb.case" horiz-adv-x="307" 
d="M35 334l7 42h267l-7 -42h-267z" />
    <glyph glyph-name="strokelongcomb.case" horiz-adv-x="674" 
d="M52 549l7 43h668l-7 -43h-668z" />
    <glyph glyph-name="slashshortcomb.case" horiz-adv-x="370" 
d="M31 309l7 47l356 161l-8 -47z" />
    <glyph glyph-name="slashlongcomb.case" horiz-adv-x="462" 
d="M596 709l-647 -709h-47l646 709h48z" />
    <glyph glyph-name="dotaccentcomb.i" horiz-adv-x="183" 
d="M190 858q-15 0 -25 10t-10 24q0 20 13.5 34.5t32.5 14.5q15 0 25 -10t10 -24q0 -20 -13.5 -34.5t-32.5 -14.5z" />
    </font>
</defs>
</svg>
