<svg width="26" height="27" viewBox="0 0 26 27" fill="none" xmlns="http://www.w3.org/2000/svg">
<g opacity="0.6">
<path d="M4.41113 7.2349C4.41113 4.86326 6.33372 2.94067 8.70536 2.94067H9.77892C10.3718 2.94067 10.8525 3.42133 10.8525 4.01423C10.8525 4.60714 10.3718 5.08779 9.77892 5.08779H8.70536C7.51954 5.08779 6.55825 6.04908 6.55825 7.2349V22.3257L11.7516 18.6161C12.4981 18.0829 13.5011 18.0829 14.2476 18.6161L19.4409 22.3257V14.7498C19.4409 14.1569 19.9216 13.6762 20.5145 13.6762C21.1074 13.6762 21.5881 14.1569 21.5881 14.7498V22.3257C21.5881 24.0722 19.6141 25.0879 18.1929 24.0729L12.9996 20.3633L7.80624 24.0729C6.38513 25.0879 4.41113 24.0722 4.41113 22.3257V7.2349Z" fill="black"/>
<path d="M18.3678 4.01423C18.3678 3.42133 17.8872 2.94067 17.2942 2.94067C16.7013 2.94067 16.2207 3.42133 16.2207 4.01423V6.16135H14.0736C13.4806 6.16135 13 6.642 13 7.2349C13 7.82781 13.4806 8.30846 14.0736 8.30846H16.2207V10.4556C16.2207 11.0485 16.7013 11.5291 17.2942 11.5291C17.8872 11.5291 18.3678 11.0485 18.3678 10.4556V8.30846H20.5149C21.1078 8.30846 21.5885 7.82781 21.5885 7.2349C21.5885 6.642 21.1078 6.16135 20.5149 6.16135H18.3678V4.01423Z" fill="black"/>
</g>
</svg>
