<svg xmlns="http://www.w3.org/2000/svg" width="83.831" height="83.82" viewBox="0 0 83.831 83.82">
  <g id="facebook" transform="translate(-160.875 -184.015)">
    <path id="Path_282" data-name="Path 282" d="M242.64,212.956A41.9,41.9,0,1,1,202.8,184.015,41.905,41.905,0,0,1,242.64,212.956ZM202.8,187.786A38.133,38.133,0,1,0,239.12,214.13,38.133,38.133,0,0,0,202.8,187.786Z" fill="#455d96"/>
    <path id="Path_283" data-name="Path 283" d="M209.647,211.476h4.666v-7.124c-.727,0-1.481-.168-2.263-.223h-4.191a10.308,10.308,0,0,0-5.922,1.843,8.884,8.884,0,0,0-3.548,5.923,20.616,20.616,0,0,0-.279,2.849v5.588h-6.789v7.933h6.733v19.919h8.381v-20h6.732l.81-7.85h-7.822v-5.588C206.379,212.23,207.776,211.532,209.647,211.476Z" fill="#455d96" fill-rule="evenodd"/>
  </g>
</svg>
