<svg xmlns="http://www.w3.org/2000/svg" width="83.831" height="83.82" viewBox="0 0 83.831 83.82">
  <g id="Linkedin" transform="translate(-452.485 -184.015)">
    <path id="Path_289" data-name="Path 289" d="M534.25,212.956a41.9,41.9,0,1,1-39.837-28.941A41.9,41.9,0,0,1,534.25,212.956Zm-39.837-25.17A38.133,38.133,0,1,0,530.73,214.13,38.133,38.133,0,0,0,494.413,187.786Z" fill="#3672b2"/>
    <path id="Path_290" data-name="Path 290" d="M478.657,218.627h8.018v25.786h-8.018ZM482.68,205.8a4.637,4.637,0,1,1-4.665,4.637,4.636,4.636,0,0,1,4.665-4.637" fill="#3672b2"/>
    <path id="Path_291" data-name="Path 291" d="M491.62,218.627H499.3v3.52h0a8.382,8.382,0,0,1,7.6-4.162c8.1,0,9.61,5.336,9.61,12.292v14.136h-7.822V231.869c0-2.989,0-6.844-4.163-6.844s-4.8,3.268-4.8,6.481v12.767h-8.1Z" fill="#3672b2"/>
  </g>
</svg>
