<svg xmlns="http://www.w3.org/2000/svg" width="83.831" height="83.82" viewBox="0 0 83.831 83.82">
  <g id="mail" transform="translate(-280.078 -279.835)">
    <path id="Path_292" data-name="Path 292" d="M339.843,212.956a41.9,41.9,0,1,1-39.837-28.941A41.9,41.9,0,0,1,339.843,212.956Zm-39.837-25.17a38.133,38.133,0,1,0,36.317,26.344A38.133,38.133,0,0,0,300.006,187.786Z" transform="translate(22 95.82)" fill="#fd5109"/>
    <path id="envelope-solid" d="M3.917,64a3.917,3.917,0,0,0-2.35,7.051L19.326,84.371a2.62,2.62,0,0,0,3.134,0L40.219,71.051A3.917,3.917,0,0,0,37.869,64ZM0,73.141V90.117A5.228,5.228,0,0,0,5.223,95.34h31.34a5.228,5.228,0,0,0,5.223-5.223V73.141L24.027,86.46a5.215,5.215,0,0,1-6.268,0Z" transform="translate(301.102 242.075)" fill="#fd5109"/>
  </g>
</svg>
