<svg width="30" height="30" viewBox="0 0 30 30" fill="none" xmlns="http://www.w3.org/2000/svg">
<path fill-rule="evenodd" clip-rule="evenodd" d="M4.19961 13.2001C4.19961 10.8131 5.14782 8.52396 6.83565 6.83614C8.52348 5.14831 10.8127 4.2001 13.1996 4.2001C15.5866 4.2001 17.8757 5.14831 19.5636 6.83614C21.2514 8.52396 22.1996 10.8131 22.1996 13.2001C22.1996 15.587 21.2514 17.8762 19.5636 19.5641C17.8757 21.2519 15.5866 22.2001 13.1996 22.2001C10.8127 22.2001 8.52348 21.2519 6.83565 19.5641C5.14782 17.8762 4.19961 15.587 4.19961 13.2001ZM13.1996 0.600098C11.2031 0.600098 9.2352 1.07453 7.45804 1.98429C5.68087 2.89406 4.14533 4.21311 2.97796 5.83275C1.81059 7.45239 1.04481 9.32625 0.743717 11.2999C0.442629 13.2736 0.614855 15.2905 1.2462 17.1846C1.87755 19.0786 2.94994 20.7955 4.37501 22.1938C5.80008 23.5921 7.53702 24.6317 9.4427 25.227C11.3484 25.8223 13.3682 25.9562 15.3358 25.6177C17.3034 25.2792 19.1624 24.478 20.7596 23.2801C20.8108 23.3482 20.8667 23.4125 20.927 23.4727L26.327 28.8727C26.6665 29.2006 27.1212 29.382 27.5931 29.3779C28.0651 29.3738 28.5166 29.1845 28.8503 28.8508C29.184 28.517 29.3733 28.0656 29.3774 27.5936C29.3815 27.1217 29.2001 26.667 28.8722 26.3275L23.4722 20.9275C23.4121 20.8672 23.3477 20.8113 23.2796 20.7601C24.6836 18.8881 25.5386 16.6622 25.7487 14.3316C25.9588 12.0011 25.5159 9.65814 24.4694 7.56521C23.4229 5.47227 21.8143 3.71209 19.8238 2.4819C17.8333 1.2517 15.5396 0.600098 13.1996 0.600098Z" fill="#E8E8E8"/>
</svg>
