<svg width="21" height="21" viewBox="0 0 21 21" fill="none" xmlns="http://www.w3.org/2000/svg">
<path d="M7.21039 11.8274L13.3427 14.8935M13.3427 5.69514L7.21039 8.76128M16.4088 19.4927C14.7154 19.4927 13.3427 18.12 13.3427 16.4266C13.3427 14.7332 14.7154 13.3605 16.4088 13.3605C18.1022 13.3605 19.4749 14.7332 19.4749 16.4266C19.4749 18.12 18.1022 19.4927 16.4088 19.4927ZM4.14426 13.3605C2.45088 13.3605 1.07812 11.9878 1.07812 10.2943C1.07812 8.60092 2.45088 7.22821 4.14426 7.22821C5.83763 7.22821 7.21039 8.60092 7.21039 10.2943C7.21039 11.9878 5.83763 13.3605 4.14426 13.3605ZM16.4088 7.22821C14.7154 7.22821 13.3427 5.85545 13.3427 4.16208C13.3427 2.46871 14.7154 1.09595 16.4088 1.09595C18.1022 1.09595 19.4749 2.46871 19.4749 4.16208C19.4749 5.85545 18.1022 7.22821 16.4088 7.22821Z" stroke="gray" stroke-width="2.04409" stroke-linecap="round" stroke-linejoin="round"/>
</svg>
