<svg xmlns="http://www.w3.org/2000/svg" width="83.831" height="83.82" viewBox="0 0 83.831 83.82">
  <g id="X" transform="translate(-258.078 -184.015)">
    <path id="Path_292" data-name="Path 292" d="M339.843,212.956a41.9,41.9,0,1,1-39.837-28.941A41.9,41.9,0,0,1,339.843,212.956Zm-39.837-25.17a38.133,38.133,0,1,0,36.317,26.344A38.133,38.133,0,0,0,300.006,187.786Z"/>
    <g id="layer1">
      <path id="path1009" d="M277.014,204.31l17.832,23.843L276.9,247.539h4.039l15.711-16.972,12.693,16.972h13.743l-18.835-25.185,16.7-18.044h-4.039l-14.469,15.631-11.69-15.631Zm5.939,2.975h6.314l27.88,37.279h-6.313Z"/>
    </g>
  </g>
</svg>
