<svg width="182" height="236" viewBox="0 0 182 236" fill="none" xmlns="http://www.w3.org/2000/svg">
<g clip-path="url(#clip0_1645_281)">
<path d="M71.858 127.024C71.966 127.824 71.9331 128.545 71.9788 129.125C72.0173 133.028 72.3377 137.089 73.3171 140.964C73.9231 143.521 74.8897 146.094 76.3121 148.183C77.2659 149.455 78.2197 150.728 79.3309 151.718C83.5726 155.383 89.5789 155.227 93.8058 151.305C98.1115 147.241 99.0964 141.507 96.3009 136.248C95.2391 134.175 93.6592 132.368 91.922 130.843C88.2442 127.494 83.9366 125.271 79.2355 123.753C78.452 123.5 77.6685 123.247 76.6653 123.056C76.6195 122.476 76.5737 121.896 76.6689 121.395C77.3352 117.885 78.2835 114.533 79.4514 111.119C81.2033 105.998 83.3158 100.894 85.7103 95.9474C90.4992 86.054 96.8222 77.3877 104.758 69.8074C111.185 63.6024 118.77 58.9681 126.947 55.5896C132.252 53.3786 137.761 51.466 143.394 49.9928C145.151 49.4961 146.987 48.8586 148.823 48.221C149.482 48.0348 150.22 47.7077 150.817 47.3018C151.115 47.0989 151.07 46.5187 151.086 46.1582C151.024 45.9386 150.68 45.5614 150.319 45.5447C149.378 45.5734 148.437 45.6021 147.637 45.7096C141.739 46.6649 136.106 48.1382 130.66 50.2704C124.414 52.51 118.433 55.2677 112.842 58.9828C104.048 64.7893 96.7709 72.1832 90.5266 80.7088C87.2077 85.3237 84.0919 90.237 81.7597 95.4033C79.8211 99.8654 77.9612 104.187 76.1635 108.727C74.5398 112.626 73.4799 116.84 72.5609 121.132C72.4657 121.634 72.3705 122.135 72.1344 122.558C70.6131 122.632 69.1706 122.565 67.6493 122.639C60.9839 122.981 54.7542 124.86 48.9767 127.916C40.5301 132.438 33.7421 138.626 28.2521 146.464C21.9913 155.35 17.6418 165.12 15.846 175.946C15.068 180.318 15.0113 184.722 15.5349 189.081C16.399 195.48 18.7386 201.223 22.6947 206.392C23.3043 207.287 23.9926 208.041 24.9794 208.593C25.1203 208.671 25.481 208.688 25.5597 208.547C25.6384 208.406 25.7958 208.125 25.7336 207.905C25.6713 207.685 25.3272 207.308 25.2649 207.089C22.7807 202.928 20.9555 198.58 19.7271 193.827C18.5316 188.353 18.7165 182.726 19.6849 177.352C22.0811 164.458 27.5949 152.936 36.3508 143.227C41.6798 137.332 48.1035 132.789 55.5433 129.737C60.2517 127.932 65.0681 126.927 70.0548 126.941C70.6351 126.895 71.1367 126.991 71.858 127.024ZM76.3724 127.883C76.9527 127.838 77.0314 127.697 77.1724 127.776C82.2506 128.95 86.7614 131.471 90.344 135.322C91.3765 136.453 92.1893 137.647 92.7037 139.043C94.2012 142.653 92.9546 146.208 89.7509 148.299C87.7409 149.579 85.6393 149.698 83.6659 148.596C82.8201 148.123 81.9121 147.431 81.0828 146.598C79.9093 145.387 79.113 143.833 78.3954 142.138C76.8356 138.309 76.3743 134.169 76.1326 129.968C76.3687 129.545 76.4017 128.824 76.3724 127.883Z" fill="#98BF00"/>
<path d="M174.161 42.6022C173.328 43.4307 172.653 43.9774 172.04 44.7437C169.918 46.8853 167.937 49.1057 165.815 51.2472C165.36 51.7319 164.904 52.2165 164.589 52.7799C164.353 53.2025 164.038 53.766 163.864 54.4082C163.752 55.27 164.08 56.0077 164.926 56.4803C165.631 56.8742 166.352 56.9076 167.027 56.3608C170.766 53.6438 174.487 51.2873 177.537 47.8159C178.072 47.1904 178.606 46.5649 179 45.8606C180.338 43.4661 179.935 41.2077 178.073 39.243C177.588 38.787 177.103 38.3311 176.539 38.016C172.265 35.0726 167.659 33.0532 162.518 31.6593C161.876 31.485 161.155 31.4516 160.574 31.497C159.994 31.5424 159.758 31.965 159.522 32.3876C159.426 32.8889 159.551 33.3282 160.036 33.7841C160.741 34.178 161.305 34.4931 162.009 34.887C163.78 35.6914 165.409 36.4171 167.179 37.2215C168.589 38.0093 169.857 38.7182 171.188 39.6468C172.378 40.4966 173.427 41.2677 174.161 42.6022Z" fill="#98BF00"/>
</g>
<defs>
<clipPath id="clip0_1645_281">
<rect width="83" height="223" fill="white" transform="matrix(0.872937 0.487833 0.487833 -0.872937 0.734375 195.043)"/>
</clipPath>
</defs>
</svg>
