<svg width="233" height="384" viewBox="0 0 233 384" fill="none" xmlns="http://www.w3.org/2000/svg">
<g opacity="0.4" clip-path="url(#clip0_0_1)">
<path d="M126.22 339.7C126.22 339.333 126.22 339.21 126.343 339.088C128.18 336.519 130.14 333.951 132.1 331.26C132.59 331.382 133.202 331.382 133.569 331.504C135.529 332.116 137.366 332.85 139.204 333.584C142.633 334.929 146.185 335.908 149.737 336.642C147.9 336.03 146.063 335.419 144.225 334.685C142.388 334.073 140.551 333.339 138.836 332.605C136.999 331.871 135.162 331.137 133.324 330.404C133.202 329.425 133.937 328.936 134.304 328.447C139.571 321.475 144.838 314.38 150.227 307.408C156.841 298.724 163.578 290.039 170.314 281.355C170.559 280.988 170.927 280.621 171.294 280.254C171.907 280.254 172.642 280.132 173.376 280.01C174.601 279.887 175.704 279.765 176.928 279.643C177.786 279.52 178.276 279.031 178.153 278.542C178.031 277.93 177.418 277.808 176.928 277.686C176.316 277.563 175.704 277.563 175.091 277.563C174.601 277.563 174.234 277.441 173.744 277.441C173.744 277.196 173.744 276.952 173.866 276.707C176.561 273.16 179.133 269.735 181.828 266.066C182.808 266.066 183.788 266.188 184.767 266.188C186.605 266.188 188.442 266.188 190.402 265.943C191.259 265.821 192.116 265.576 192.974 265.209C194.199 264.598 194.566 263.375 193.954 262.152C193.709 261.54 193.219 260.806 192.729 260.317C191.994 259.583 191.259 258.849 190.402 258.115C189.912 257.748 189.544 257.381 189.054 257.014C189.177 256.036 189.912 255.546 190.402 254.813C196.036 247.351 201.793 239.89 207.427 232.306C210.856 227.659 214.163 223.011 217.593 218.363C218.695 216.895 219.798 215.672 220.777 214.081C221.635 212.614 222.615 211.268 223.595 209.8C223.962 208.944 224.452 208.088 224.819 207.232C225.309 206.253 225.309 205.397 224.697 204.419C224.33 203.807 223.962 203.073 223.472 202.584C221.635 200.749 219.675 199.037 217.838 197.202C217.348 196.957 216.736 196.59 216.368 196.223C215.878 195.856 215.388 195.367 214.776 195C213.428 195.367 212.449 196.223 211.591 197.447C208.897 200.994 206.079 204.419 203.385 207.966C196.893 216.528 190.402 225.09 183.91 233.652C183.42 234.386 182.93 235.12 182.073 235.487C181.828 235.609 181.46 235.976 181.46 236.343C181.338 237.077 180.97 237.566 180.603 238.178C178.398 241.113 176.194 244.049 173.989 246.984C173.866 247.229 173.621 247.474 173.376 247.718C173.132 247.718 172.764 247.718 172.519 247.596C168.722 246.006 164.925 244.416 161.251 242.826C156.964 240.991 152.677 239.401 148.145 238.178C141.531 236.465 134.917 234.753 128.058 233.53C124.261 232.918 120.341 232.306 116.544 232.429C113.482 232.429 110.543 232.796 107.725 233.774C106.623 234.141 105.643 234.63 104.663 235.242C102.459 236.832 101.969 239.278 103.684 241.48C104.296 242.336 105.276 243.07 106.133 243.804C108.583 245.761 111.4 247.107 114.217 248.452C119.729 251.021 125.486 253.1 131.365 254.935C138.836 257.259 146.43 259.216 154.147 261.051C156.106 261.54 158.066 261.907 160.026 262.396C160.516 262.518 161.006 262.763 161.496 262.885C160.761 264.475 155.371 271.692 153.167 274.138C152.922 274.138 152.554 274.138 152.187 274.016C144.838 272.304 137.611 270.347 130.385 268.023C127.445 267.044 124.506 265.821 121.566 264.72C118.626 263.497 115.687 262.274 112.502 261.662C111.89 261.54 111.277 261.295 110.788 261.418C110.175 261.418 109.685 261.662 109.073 261.907C108.705 262.152 108.46 262.641 108.583 263.008C108.705 263.252 108.95 263.742 109.318 263.742C111.155 264.109 112.625 265.209 114.095 266.066C117.769 268.267 121.689 269.98 125.731 271.325C129.405 272.548 133.202 273.527 136.876 274.505C140.796 275.484 144.715 276.34 148.635 277.319C149.125 277.441 149.615 277.563 150.105 277.808C150.227 278.664 149.615 279.031 149.247 279.52C144.47 285.881 139.694 292.241 134.917 298.724C129.038 306.552 123.158 314.503 117.279 322.331C116.789 322.942 116.422 323.554 115.809 324.166C115.197 324.043 114.585 323.921 114.095 323.799C110.175 322.453 106.133 321.352 101.969 320.496C99.5191 319.884 96.9469 319.518 94.4973 319.151C94.0074 319.028 93.3949 319.151 92.905 319.273C92.5375 319.395 92.2926 319.64 92.5375 320.251C99.7641 321.964 107.113 323.554 114.34 325.633C113.727 327.101 109.808 332.483 108.093 334.318C99.3966 332.361 80.4117 325.756 74.0426 321.108C74.41 320.985 74.655 320.741 74.9 320.863C76.1248 320.863 77.4721 320.985 78.6969 321.108C79.5543 321.23 80.4117 321.23 81.2691 320.863C81.3916 320.251 81.0241 320.129 80.6567 320.007C77.7171 318.906 74.5325 318.539 71.4704 318.906C69.3882 319.151 68.7758 320.863 70.1231 322.453C70.6131 323.065 71.2255 323.676 71.9604 324.166C75.2674 326.734 78.8194 328.813 82.7389 330.526C89.108 333.461 95.8446 335.541 102.459 337.743C103.194 337.987 104.051 338.232 104.786 338.476C104.908 339.333 104.296 339.822 103.928 340.311C98.6617 347.528 93.2724 354.744 88.0057 361.839C78.6969 374.437 69.3882 386.913 60.0795 399.512C59.8345 399.879 59.5896 400.246 59.2221 400.613C58.6097 401.347 58.1198 402.203 57.1399 402.325C56.8949 403.181 56.65 403.793 56.405 404.405C56.0375 405.138 55.6701 405.872 55.4251 406.606C54.9352 408.074 55.0577 409.419 55.9151 410.643C57.1399 412.722 58.6097 414.557 60.4469 416.147C61.5493 417.003 62.6516 417.615 63.9989 417.982C64.7338 418.104 65.3463 418.471 66.0812 418.715C66.8161 419.082 67.4285 418.96 67.9184 418.471C68.6533 417.859 69.2657 417.248 69.7557 416.514C72.0828 413.456 74.41 410.398 76.7372 407.218C77.2271 406.484 77.8396 405.75 78.3295 405.016C78.8194 405.138 79.3094 405.138 79.7993 405.261C86.6584 406.729 93.3949 408.808 100.009 411.132C105.643 413.211 111.4 415.168 117.034 417.37C119.116 418.104 121.199 419.082 123.158 419.939C123.771 420.183 124.383 420.428 125.118 420.55C123.403 419.694 121.689 418.838 119.851 418.104C117.892 417.37 116.054 416.514 114.095 415.658C112.257 414.924 110.298 414.19 108.46 413.456C106.501 412.722 104.541 411.988 102.581 411.254C100.744 410.52 98.7842 409.909 96.8245 409.297C94.8647 408.686 93.0275 407.952 91.0678 407.34C89.108 406.729 87.0258 406.117 85.0661 405.505C83.2288 404.894 81.1466 404.649 79.3094 403.793C80.9016 400.368 118.749 347.772 122.546 343.858C123.158 343.981 123.771 344.103 124.383 344.348C132.957 346.672 141.531 348.996 150.105 351.197C154.392 352.298 158.801 353.277 163.21 353.766C165.17 354.011 167.252 354.011 169.212 353.766C170.437 353.521 171.662 353.154 172.764 352.42C174.724 351.075 175.091 348.873 173.744 347.039C172.887 345.815 171.784 344.959 170.314 344.837C170.069 344.837 169.947 344.959 169.702 344.959C169.457 345.448 169.947 345.693 170.069 345.938C170.559 346.549 171.294 347.039 171.784 347.772C172.642 348.996 172.274 349.974 170.927 350.341C170.069 350.586 168.967 350.708 168.11 350.708C165.293 350.708 162.475 350.219 159.658 349.607C153.412 348.262 147.165 346.427 141.041 344.592C136.509 343.247 131.977 341.901 127.568 340.556C127.323 340.189 126.71 339.944 126.22 339.7ZM163.823 260.317C163.21 260.194 162.843 260.194 162.475 260.072C159.413 259.338 156.351 258.604 153.412 257.748C144.593 255.546 135.897 252.856 127.323 249.798C122.546 248.085 117.892 246.25 113.36 243.804C111.645 242.826 109.93 241.725 108.338 240.502C107.725 240.012 106.991 239.523 106.868 238.667C107.481 237.811 108.46 237.566 109.44 237.321C112.747 236.343 116.054 236.098 119.361 236.343C123.648 236.588 127.813 237.321 131.977 238.178C135.652 239.034 139.326 239.89 143.123 240.746C150.962 242.581 158.434 245.15 165.66 248.697C167.252 249.431 168.845 250.287 170.437 251.143C170.314 251.51 170.437 251.755 170.314 251.877C167.987 254.69 165.905 257.504 163.823 260.317ZM213.428 217.139C212.816 217.996 212.571 218.363 212.204 218.852C210.121 221.665 207.917 224.478 205.835 227.169C204.242 229.126 202.772 231.206 201.18 233.163C200.813 233.774 200.323 234.141 199.465 234.141C196.158 234.264 192.729 234.508 189.422 234.753C189.054 234.753 188.687 234.63 188.197 234.63C189.054 232.918 190.279 231.695 191.259 230.349C192.239 229.004 193.219 227.659 194.199 226.313C195.178 224.968 196.158 223.5 197.261 222.154C198.241 220.809 199.343 219.463 200.2 218.118C204.61 217.873 208.897 217.506 213.428 217.139ZM150.717 298.112C150.105 298.968 149.737 299.458 149.37 299.947C147.9 301.782 146.553 303.616 145.083 305.451C142.511 308.754 139.816 312.179 137.366 315.481C136.632 316.337 136.019 316.827 134.794 316.949C132.59 317.071 130.507 317.316 128.303 317.56C127.935 317.56 127.69 317.56 127.2 317.56C128.058 315.97 139.571 300.314 141.286 298.479C144.225 298.357 147.288 298.235 150.717 298.112ZM64.3664 401.714C64.9788 400.857 65.2238 400.49 65.4688 400.001C68.2859 396.087 71.2255 392.173 74.1651 388.381C74.41 388.014 74.655 387.647 75.0224 387.28C75.3899 387.036 75.7574 386.669 76.1248 386.669C79.1869 386.302 82.1265 386.057 85.1886 385.813C85.1886 386.057 85.311 386.179 85.1886 386.302C81.8815 391.072 78.6969 395.72 75.5124 400.368C71.8379 400.857 68.2859 401.224 64.3664 401.714ZM83.9637 375.783C84.2087 375.293 84.3312 374.926 84.4537 374.804C88.2506 369.667 92.0476 364.53 95.8446 359.515C99.3966 359.27 102.826 359.392 104.296 359.882C100.621 364.897 97.0694 369.912 93.6399 374.682C90.3328 374.926 87.2708 375.293 83.9637 375.783ZM155.861 278.786C158.801 279.153 161.496 279.52 164.313 280.01C164.435 280.01 164.558 280.132 164.803 280.377C162.475 283.312 160.148 286.248 157.821 289.183C154.514 289.428 151.452 289.55 148.267 289.795C148.145 289.795 148.145 289.795 148.022 289.673L147.9 289.55C148.757 288.082 154.024 280.743 155.861 278.786ZM177.173 249.675C178.153 248.33 178.888 247.351 179.746 246.25C180.236 245.639 180.725 245.517 181.46 245.394C184.522 245.15 187.585 244.905 190.647 244.783C191.014 244.783 191.504 244.783 192.239 244.783C191.014 246.617 189.789 248.085 188.564 249.553C187.34 251.021 186.36 252.733 184.89 254.079C182.318 252.611 179.868 251.265 177.173 249.675ZM213.306 199.771C213.796 200.015 214.286 200.015 214.531 200.26C216.736 201.85 218.818 203.562 220.9 205.152C221.267 205.519 221.512 205.764 221.88 206.131C221.635 206.498 221.512 206.743 221.39 206.987C221.022 207.476 220.655 207.966 220.288 208.333C215.756 208.822 208.897 209.067 207.059 208.7C209.142 205.764 211.224 202.828 213.306 199.771ZM182.195 257.381C181.093 259.338 179.133 261.785 177.908 262.885C172.029 262.274 170.437 261.907 168.967 261.051C170.437 258.727 173.376 254.813 174.601 253.589C176.684 254.446 180.97 256.403 182.195 257.381ZM120.096 327.101C122.301 327.835 124.506 328.202 126.588 329.18C125.731 330.893 121.811 336.03 120.341 337.743C118.382 337.498 115.319 336.519 113.85 335.785C114.462 334.318 117.769 329.67 120.096 327.101ZM103.316 349.607C104.786 347.161 109.195 341.29 110.42 340.189C113.36 340.8 115.687 341.534 116.912 342.391C115.319 344.715 113.482 347.039 111.767 349.363C109.073 349.485 106.378 349.607 103.316 349.607ZM198.608 236.71C197.016 238.667 195.791 240.257 194.566 241.847C194.199 242.336 193.831 242.459 193.219 242.459C189.912 242.581 186.727 242.703 183.42 242.703C183.175 242.703 182.93 242.581 182.563 242.336C183.543 240.869 184.522 239.645 185.38 238.422C185.87 237.688 186.482 237.566 187.217 237.444C190.524 237.199 193.709 236.954 197.016 236.588C197.383 236.71 197.751 236.71 198.608 236.71ZM77.5946 384.1C78.6969 382.143 80.0443 380.798 81.0241 379.208C81.5141 378.474 82.1265 378.229 83.1063 378.107C85.556 377.984 88.0057 377.74 90.4553 377.617C90.7003 377.617 90.8228 377.74 91.0678 377.74C91.0678 377.862 91.0678 378.107 91.0678 378.229C89.9654 379.697 88.9855 381.287 87.8832 382.632C84.4537 383.122 81.2691 383.611 77.5946 384.1ZM218.083 211.268C217.348 212.247 216.736 212.981 216.246 213.715C215.878 214.326 215.266 214.571 214.531 214.571C210.856 214.815 207.304 215.06 203.63 215.182C203.262 215.182 202.895 215.427 202.65 214.693C203.507 213.715 204.12 212.369 204.977 211.757C209.264 211.635 213.428 211.513 218.083 211.268ZM106.501 356.579C104.173 356.701 101.724 356.824 99.3966 356.824C99.1516 356.824 98.7842 356.824 98.5392 356.824C98.4167 356.824 98.4167 356.824 98.2943 356.824C98.2943 356.824 98.1718 356.701 98.1718 356.579C98.1718 356.335 98.2943 356.212 98.4167 355.968C99.2741 354.744 100.254 353.644 101.111 352.298C103.928 352.176 106.746 351.931 109.808 352.053C108.705 353.766 107.725 355.234 106.501 356.579ZM122.056 324.41C122.791 322.82 123.771 321.842 124.628 320.741C125.118 320.007 125.731 319.762 126.71 319.762C128.793 319.762 130.875 319.64 132.957 319.518C133.324 319.518 133.692 319.395 133.937 320.007C132.957 321.23 131.977 322.575 130.997 323.799C128.058 323.921 125.241 324.166 122.056 324.41ZM142.878 296.155C143.858 294.81 144.593 293.831 145.328 292.853C145.818 292.119 146.43 291.752 147.41 291.874C149.86 292.119 152.309 292.241 154.759 291.997C154.882 291.997 155.126 292.119 155.494 292.241C154.759 293.22 154.024 294.076 153.412 294.932C153.044 295.421 152.677 295.544 152.064 295.544C149.002 295.788 146.185 295.911 142.878 296.155ZM161.373 271.325C161.741 270.224 162.598 269.49 163.088 268.634C163.455 268.023 164.068 267.778 164.803 267.778C167.497 267.656 170.192 267.533 172.764 267.533C173.254 267.533 173.744 267.533 174.479 267.533C173.866 268.757 173.132 269.49 172.519 270.347C168.967 270.714 165.538 271.203 162.108 271.57C161.986 271.447 161.863 271.325 161.373 271.325ZM158.434 275.606C158.801 274.261 159.536 274.016 160.516 273.894C163.455 273.771 166.517 273.649 169.457 273.527C169.579 273.527 169.702 273.649 169.824 273.771C169.457 274.75 168.6 275.484 167.987 276.218C167.62 276.829 167.13 276.952 166.395 276.829C165.538 276.707 164.68 276.585 163.7 276.462C161.986 276.218 160.271 275.851 158.434 275.606ZM72.6953 404.038C72.4503 405.138 71.9604 405.628 70.858 405.872C68.1634 406.239 65.3463 406.729 62.6516 407.095C62.0392 407.218 61.3043 407.34 60.6919 407.34C61.0594 405.872 61.0594 405.872 62.8966 403.915C66.0812 403.915 69.2657 403.426 72.6953 404.038ZM70.0006 408.686C69.0208 410.276 68.2859 411.621 67.551 412.844C67.306 413.334 66.9386 413.701 66.6936 414.067C64.7339 413.211 63.0191 411.499 61.9167 409.419C64.4889 409.175 67.061 408.93 70.0006 408.686ZM192.239 263.13C189.789 264.109 187.707 263.864 185.625 263.742C185.012 263.742 184.4 263.864 184.033 263.252C184.767 262.274 185.502 261.295 186.36 260.194C186.482 260.072 186.727 259.95 186.972 259.705C188.687 260.684 190.279 261.785 192.239 263.13ZM127.445 328.08C126.098 327.713 124.873 327.223 123.526 326.612C123.893 326.123 124.383 326.245 124.873 326.245C126.098 326.245 127.323 326.245 128.67 326.245C128.425 327.223 128.058 327.713 127.445 328.08ZM166.15 264.842C167.13 263.742 167.742 263.864 169.824 264.72C168.6 264.965 167.497 265.087 166.15 264.842Z" fill="#277D2A"/>
<path d="M73.1854 273.649C72.8179 273.649 72.4505 273.771 72.2055 273.771C67.5511 273.771 62.7743 273.894 58.2424 272.671C55.1803 271.814 52.1183 271.325 49.0562 271.08C45.0142 270.714 41.2172 271.447 38.0327 274.505C36.4404 275.973 35.0931 277.686 33.8683 279.398C31.6636 282.578 29.9488 286.125 28.479 289.672C26.6417 294.198 24.927 298.724 23.4572 303.249C22.2324 306.797 20.885 310.221 19.6602 313.769C19.2928 314.869 18.8028 315.848 18.5579 316.949C15.4958 325.878 12.4337 334.929 9.49409 343.858C8.6367 346.305 7.9018 348.873 7.04442 351.32C6.55449 353.032 6.30953 354.744 6.30953 356.579C6.43202 360.493 7.90182 363.673 10.9639 366.12C14.026 368.688 17.333 370.768 21.0075 372.358C23.3347 373.336 25.6619 374.437 27.9891 375.538C30.5612 376.761 33.1334 378.229 35.3381 380.064C36.073 380.675 36.8079 381.287 37.7877 381.531C39.135 381.776 39.9924 381.042 39.8699 379.697C39.8699 378.718 39.5025 377.984 38.8901 377.25C38.1552 376.517 37.5428 375.66 36.6854 375.049C34.2357 373.092 31.5411 371.502 28.724 370.034C25.9069 368.688 23.0897 367.221 20.3951 365.753C18.4354 364.652 16.7206 363.306 15.0058 361.839C13.0461 360.126 12.3112 357.925 12.5562 355.478C12.6787 354.5 12.8011 353.399 13.1686 352.42C14.3934 348.751 15.6183 345.204 16.8431 341.657C19.0478 335.296 21.2525 328.813 23.4572 322.453C26.5193 313.157 29.5813 303.739 32.7659 294.443C33.9907 290.651 35.583 287.104 37.4203 283.557C38.5226 281.477 39.9924 279.52 41.7072 277.808C43.6669 275.851 45.9941 275.117 48.5662 275.117C51.0159 275.239 53.4656 275.362 55.9152 275.973C59.2223 276.707 62.6518 277.196 66.0814 276.829C67.7961 276.707 69.5109 276.585 71.2256 276.462C71.4706 276.462 71.5931 276.585 71.9605 276.585C69.8783 282.7 67.7961 288.694 65.7139 294.81C65.224 294.81 64.734 294.81 64.2441 294.687C62.7743 294.443 61.3045 294.076 59.8347 293.831C58.8548 293.709 57.7525 293.464 56.7726 293.464C53.833 293.464 51.2609 294.443 49.3011 296.767C47.4639 298.846 46.2391 301.292 45.0142 303.861C41.9521 310.099 39.2575 316.46 36.8079 322.942C35.2156 327.468 33.3783 331.994 31.6636 336.519C30.8062 338.843 30.1938 341.167 29.7038 343.614C29.3364 345.326 29.5813 346.794 30.4387 348.384C31.5411 350.586 33.0109 352.298 35.0931 353.766C37.9102 355.601 40.6048 357.558 43.2995 359.515C44.0344 360.126 44.7693 360.738 45.5042 361.472C45.9941 361.961 46.1166 362.45 45.8716 363.062C45.8716 363.184 45.7491 363.306 45.7491 363.551C44.1568 368.566 42.8095 373.581 41.0948 378.474C38.0327 387.403 34.9706 396.209 31.7861 405.016C31.5411 405.872 31.2961 406.728 31.4186 407.585C31.5411 408.563 32.031 409.297 33.0109 409.542C33.8683 409.786 34.6032 409.542 35.2156 408.93C35.583 408.563 35.828 408.196 35.9505 407.829C36.1954 407.34 36.3179 406.851 36.5629 406.362C38.6451 400.49 40.7273 394.497 42.932 388.748C49.4236 371.624 54.323 353.888 59.4672 336.275C64.1216 320.251 68.776 304.228 73.5528 288.205C74.5327 284.658 75.7575 281.233 77.1048 277.808C77.8397 275.728 78.8196 273.649 79.9219 271.692C80.4119 270.714 81.1468 269.857 81.8817 269.001C82.984 267.778 84.4538 267.289 86.1686 267.778C87.1485 268.023 88.0058 268.267 88.9857 268.39C89.4756 268.512 89.8431 268.512 90.333 268.39C91.0679 268.267 91.3129 267.411 90.9454 266.799C90.823 266.677 90.823 266.555 90.7005 266.432C87.1485 263.13 82.984 262.396 78.9421 265.576C77.2273 266.922 76.125 268.634 75.1451 270.469C74.2877 271.447 73.7978 272.426 73.1854 273.649ZM46.484 358.781C44.5243 357.313 42.5646 355.845 40.6048 354.377C39.135 353.277 37.6652 352.053 36.4404 350.708C34.7256 348.873 33.6233 346.672 34.4807 343.981C35.3381 341.045 36.3179 338.109 37.4203 335.296C39.135 330.77 40.9723 326.245 42.6871 321.719C45.1367 315.359 47.7089 309.121 50.6485 303.005C51.2609 301.782 51.8733 300.681 52.6082 299.58C53.7105 297.868 55.3028 297.134 57.385 297.011C58.2424 297.011 59.2223 297.011 60.0797 297.134C61.3045 297.256 62.4069 297.256 63.6317 297.378C63.9991 297.378 64.3666 297.501 64.734 297.623C58.7324 317.927 52.8532 337.987 46.974 358.169C46.8515 358.291 46.729 358.536 46.484 358.781Z" fill="#277D2A"/>
<path d="M187.217 292.363C186.237 292.241 185.257 292.119 184.4 292.119C183.91 292.119 183.543 292.363 183.42 292.853C183.298 293.342 183.42 293.831 183.788 294.076C184.4 294.565 185.012 294.932 185.625 295.299C189.667 297.501 191.994 301.537 191.749 306.185C191.504 310.344 191.014 314.38 189.912 318.294C186.85 330.404 183.298 342.513 179.623 354.377C173.989 372.235 168.355 390.094 162.72 407.829C160.026 416.147 157.454 424.464 154.882 432.782C154.147 435.228 153.289 437.552 152.432 439.998C152.187 440.855 151.819 441.711 151.697 442.567C151.574 443.545 151.452 444.646 151.452 445.625C151.452 446.603 151.942 447.582 152.922 447.949C154.024 448.316 155.004 447.827 155.739 446.97C156.351 446.236 156.841 445.38 157.331 444.524C157.576 444.035 157.699 443.545 157.821 443.056C160.026 436.084 162.353 429.235 164.558 422.263C169.335 407.095 173.989 391.806 178.643 376.517C183.053 362.083 187.585 347.772 191.504 333.217C192.974 327.835 194.199 322.331 195.423 316.949C196.158 313.646 196.403 310.221 196.403 306.797C196.403 302.026 194.566 298.112 191.259 294.81C190.157 293.709 188.809 292.853 187.217 292.363Z" fill="#277D2A"/>
<path d="M184.4 279.031C184.155 280.01 184.645 280.499 185.258 280.866C185.748 281.233 186.36 281.233 186.972 280.988C187.83 280.743 188.442 280.132 189.055 279.398C190.402 277.441 191.382 275.362 191.994 273.16C192.239 272.181 192.484 271.203 192.729 270.102C192.852 269.49 192.852 268.879 192.852 268.39C192.852 267.411 192.484 266.799 191.872 266.677C191.014 266.433 190.402 267.044 190.034 267.656C189.3 269.001 188.687 270.347 188.197 271.692C187.707 273.038 187.34 274.383 186.85 275.729C186.237 277.074 185.87 278.542 184.4 279.031Z" fill="#277D2A"/>
<path d="M100.376 251.632C100.254 251.877 100.009 252.733 100.009 253.467C99.8865 254.201 100.376 254.813 100.989 255.057C101.601 255.302 102.091 255.057 102.581 254.69L102.704 254.568C104.418 252.122 106.011 249.553 106.256 246.495C106.378 245.639 106.256 244.783 105.398 244.416C104.786 244.049 103.928 244.416 103.194 245.517C101.969 247.229 101.356 249.186 100.376 251.632Z" fill="#277D2A"/>
</g>
<g opacity="0.4" clip-path="url(#clip1_0_1)">
<path d="M247.504 121.119C251.756 127.39 254.811 134.329 256.671 141.668C259.062 151.275 257.734 160.482 252.42 168.889C251.888 169.689 251.224 170.623 250.693 171.424C246.84 177.428 241.393 181.698 234.75 184.5C228.108 187.436 221.199 189.037 214.025 189.571C211.368 189.838 208.711 189.571 206.054 189.304C201.139 188.904 196.356 187.703 191.706 186.368C189.049 185.568 186.525 184.367 184.532 182.365C183.868 181.698 183.336 181.031 183.469 179.964C183.469 179.697 183.602 179.43 183.602 179.43C182.141 177.428 183.204 175.427 184.001 173.559C185.993 168.889 187.853 164.218 190.112 159.815C193.433 153.01 197.02 146.338 200.607 139.533C205.124 130.86 209.907 122.32 214.424 113.78C216.151 110.578 218.144 107.642 220.137 104.707C221.997 102.038 223.458 101.504 227.045 102.705C228.639 103.239 230.101 104.039 231.429 104.973C237.673 109.51 243.12 114.848 247.504 121.119ZM224.388 108.71C223.591 109.644 223.059 110.578 222.926 111.779C223.724 112.713 224.654 113.647 225.318 114.714C228.241 119.251 230.898 124.055 233.023 129.125C233.953 131.527 233.953 133.795 231.562 135.53C231.429 135.663 231.429 135.797 231.429 136.197C232.492 136.331 233.422 136.464 234.485 136.597C236.477 136.864 238.205 137.531 239.932 138.599C241.659 139.666 242.589 141.134 242.589 143.136C242.589 144.203 242.589 145.404 242.456 146.472C242.19 150.341 240.596 153.544 237.806 156.212C235.946 157.947 233.82 159.014 231.163 159.014C230.632 159.014 230.233 159.014 229.436 159.014C230.101 160.082 230.499 160.882 230.898 161.683C231.429 162.751 231.96 163.685 232.226 164.752C232.89 167.688 232.093 169.422 229.436 170.356C225.982 171.557 222.395 172.358 218.808 173.025C216.284 173.425 214.158 172.358 212.564 170.49C212.165 170.089 211.9 169.689 211.235 168.889C210.97 170.223 210.837 171.023 210.704 171.958C210.305 173.959 209.243 175.16 207.25 175.694C204.593 176.361 201.803 176.761 199.013 176.761C196.223 176.761 193.566 176.094 191.175 174.493C190.378 173.959 189.448 173.559 188.385 172.892C187.721 174.092 187.056 175.293 186.392 176.494C186.126 177.028 185.861 177.562 185.595 178.095C191.839 179.697 198.216 180.364 203.929 180.097C206.718 179.964 209.508 179.83 212.165 179.697C214.291 179.697 216.417 179.43 218.542 178.763C220.535 178.095 222.661 177.428 224.654 176.628C227.443 175.427 230.499 174.493 232.89 172.491C237.009 169.155 240.596 165.019 243.519 160.616C245.511 157.547 246.84 154.077 246.441 150.475C245.91 145.137 245.113 139.8 242.722 134.996C239.666 128.858 236.079 122.987 232.226 117.249C231.828 116.716 231.429 116.315 231.03 115.782C229.968 114.714 228.905 113.647 227.842 112.446C226.513 111.378 225.451 110.044 224.388 108.71ZM229.436 166.62C229.702 164.752 228.772 163.017 227.842 161.416C226.248 158.614 223.989 156.346 221.731 154.077C219.074 151.409 216.151 149.007 213.494 146.338C211.767 144.737 210.305 142.869 208.844 141.001C208.578 140.734 208.578 139.933 208.711 139.533C209.11 138.866 209.641 139.133 210.305 139.266C212.298 140.067 213.627 141.534 215.088 143.002C218.808 146.738 222.528 150.341 226.779 153.41C227.311 153.81 227.975 154.211 228.506 154.611C230.233 155.812 231.96 155.812 233.688 154.611C234.618 153.944 235.68 153.143 236.477 152.209C238.736 149.674 239.135 146.472 239.267 143.269C239.267 142.068 238.869 141.401 237.806 140.734C235.946 139.666 234.086 139.133 231.96 138.999C225.052 138.199 218.144 137.531 211.103 137.531C210.04 137.531 209.11 137.531 208.047 137.531C206.984 138.465 206.586 139.666 207.25 141.134C207.648 141.935 207.648 142.869 207.914 143.803C209.243 149.674 210.438 155.412 211.9 161.283C212.298 162.751 212.697 164.218 213.228 165.686C214.557 169.422 216.417 170.49 220.269 169.689C222.262 169.289 224.255 168.755 226.248 168.355C227.443 168.088 228.506 167.688 229.436 166.62ZM201.404 182.499C201.404 182.766 201.271 182.899 201.271 183.166C205.39 183.967 209.641 184.901 214.025 184.367C220.934 183.7 227.576 182.365 233.82 179.296C236.345 178.095 238.869 176.628 241.127 174.76C245.113 171.29 248.169 167.02 250.56 162.35C253.615 156.079 255.077 149.274 253.483 142.335C250.958 130.993 245.246 121.386 236.477 113.78C236.079 113.513 235.68 113.246 235.016 112.713C235.282 113.38 235.282 113.647 235.547 113.914C238.47 118.05 240.729 122.72 243.386 127.124C245.91 131.393 247.637 136.064 248.168 141.001C248.567 144.337 249.098 147.806 248.833 151.142C248.434 156.346 246.574 161.149 242.987 165.152C241.792 166.487 240.729 168.088 239.4 169.422C236.743 172.224 234.219 174.893 230.765 176.628C227.709 178.229 224.388 179.43 221.199 180.631C217.878 181.832 214.557 182.365 210.97 182.365C207.781 182.099 204.593 182.365 201.404 182.499ZM207.117 171.691C207.25 170.757 207.516 169.823 207.648 169.022C207.781 166.887 208.047 164.752 207.914 162.617C207.516 156.613 206.851 150.741 205.788 144.87C205.656 144.337 205.523 143.936 205.257 143.136C203.131 146.205 201.67 149.14 199.943 152.076C198.216 155.145 196.489 158.08 194.762 161.149C193.167 164.085 191.44 166.887 190.112 169.956C194.895 172.892 198.747 173.692 207.117 171.691ZM209.774 135.13C210.704 135.13 211.634 134.996 212.564 135.13C217.081 135.663 221.598 134.863 225.982 133.795C226.912 133.528 227.975 133.262 228.905 132.861C229.968 132.461 230.366 131.794 229.968 130.726C229.569 129.392 228.905 128.058 228.373 126.723C226.779 123.254 225.052 119.918 222.794 116.849C222.395 116.315 221.864 115.915 221.332 115.381C219.605 117.383 210.837 132.461 209.774 135.13Z" fill="#277D2A"/>
<path d="M203.397 213.856C203.264 214.523 202.999 215.724 202.467 216.925C201.271 219.46 199.146 220.261 196.622 219.193C195.559 218.66 194.496 217.992 193.566 217.192C191.706 215.591 190.112 213.722 189.182 211.454C187.853 208.252 186.79 204.916 185.595 201.713C185.329 200.913 185.329 200.112 185.329 199.312C185.462 197.844 187.056 196.776 188.518 197.31C189.049 197.443 189.58 197.844 190.112 198.111C193.035 200.246 195.824 202.381 198.614 204.649C200.076 205.716 201.271 207.184 202.201 208.785C203.131 210.12 203.397 211.721 203.397 213.856ZM189.979 202.647C191.175 205.983 191.972 208.785 193.433 211.187C194.23 212.522 195.293 213.856 196.356 215.057C197.02 215.857 197.817 216.525 198.88 216.525C199.013 216.391 199.279 216.258 199.411 216.124C199.677 215.724 199.81 215.457 199.943 215.057C200.474 212.388 199.81 209.986 197.817 208.118C195.692 206.117 193.3 204.515 189.979 202.647Z" fill="#277D2A"/>
<path d="M164.339 221.462C164.339 218.926 165.003 216.525 165.933 214.256C168.058 209.186 171.247 204.782 175.498 201.313C175.764 201.046 176.162 200.779 176.428 200.512C178.421 199.178 179.484 199.578 179.617 201.98C179.617 202.647 179.749 203.448 179.617 204.115C179.085 208.118 178.819 212.121 177.89 215.991C177.092 218.793 176.162 221.462 174.435 223.863C173.373 225.465 171.911 226.799 170.051 227.6C167.793 228.534 166.066 227.867 165.003 225.598C164.471 224.397 164.206 223.33 164.339 221.462ZM175.764 206.25C175.1 206.784 174.834 206.917 174.568 207.051C172.443 209.586 170.45 212.255 168.988 215.19C168.058 217.058 167.527 219.06 166.863 220.928C166.464 222.129 166.597 223.33 166.996 224.531C167.394 225.598 168.191 225.865 169.254 225.465C170.715 224.931 171.911 223.863 172.575 222.529C173.373 220.928 174.17 219.193 174.568 217.459C175.764 213.989 175.631 210.387 175.764 206.25Z" fill="#277D2A"/>
<path d="M163.675 195.842C162.346 196.243 161.682 196.643 160.885 196.776C158.892 197.043 157.032 197.844 155.172 198.644C154.508 198.911 153.843 199.312 153.179 199.312C152.781 199.312 152.116 199.045 151.851 198.778C151.585 198.378 151.585 197.71 151.851 197.443C152.116 196.91 152.648 196.509 153.179 196.243C155.039 195.042 157.032 194.374 159.158 194.108C160.619 193.841 162.08 194.241 163.675 195.842Z" fill="#277D2A"/>
<path d="M227.311 147.806C227.178 147.539 226.912 147.272 227.045 147.005C227.045 146.738 227.444 146.205 227.576 146.205C229.038 146.205 230.233 147.139 231.163 148.206C231.296 148.473 231.296 149.007 231.163 149.407C231.031 149.941 230.499 150.074 229.968 150.074C228.639 149.674 227.975 148.607 227.311 147.806Z" fill="#277D2A"/>
<path d="M218.676 140.867C218.809 140.867 219.207 140.6 219.473 140.734C220.403 141.001 221.333 141.401 222.263 141.801C222.396 141.935 222.661 142.335 222.661 142.602C222.661 142.869 222.396 143.269 222.13 143.269C220.934 143.669 219.739 143.403 218.676 142.602C218.144 142.202 218.144 141.268 218.676 140.867Z" fill="#277D2A"/>
<path d="M216.815 160.882C218.41 161.149 218.941 162.35 219.207 163.685C219.207 163.951 219.074 164.218 218.808 164.485C218.543 164.619 218.144 164.752 218.011 164.619C216.815 163.951 216.417 162.484 216.815 160.882Z" fill="#277D2A"/>
<path d="M218.809 156.746C220.403 157.813 221.864 159.014 222.794 160.749C222.396 160.882 221.997 161.016 221.864 161.016C220.403 159.948 219.606 158.881 218.809 156.746Z" fill="#277D2A"/>
<path d="M232.891 142.068C232.758 142.335 232.626 142.735 232.36 142.869C231.828 143.269 231.031 143.002 230.898 142.468C230.898 142.202 231.031 141.668 231.297 141.534C231.828 141.001 232.626 141.268 232.891 142.068Z" fill="#277D2A"/>
<path d="M202.866 160.082C203.796 161.283 203.398 164.218 202.202 165.152C201.803 165.419 201.006 165.553 200.475 165.419C199.811 165.286 199.412 164.752 199.412 164.085C199.412 162.484 200.076 161.149 200.873 159.948C201.405 159.281 202.468 159.415 202.866 160.082Z" fill="#277D2A"/>
<path d="M204.992 150.741C205.523 152.209 205.789 153.41 205.124 154.744C204.992 155.011 204.46 155.278 204.194 155.278C203.796 155.278 203.397 155.011 203.264 154.744C202.6 153.677 202.999 151.542 203.929 150.875C204.062 150.608 204.593 150.741 204.992 150.741Z" fill="#277D2A"/>
<path d="M196.09 168.355C195.692 168.221 195.293 168.221 195.027 168.088C194.363 167.421 194.363 166.62 194.629 165.82C194.762 165.553 195.16 165.152 195.426 165.019C195.692 165.019 196.09 165.419 196.223 165.686C196.489 166.22 196.489 166.887 196.489 167.421C196.622 167.688 196.356 167.954 196.09 168.355Z" fill="#277D2A"/>
<path d="M219.207 131.127C218.144 131.794 217.081 132.327 215.753 132.061C215.354 131.927 214.823 131.527 214.69 131.26C214.424 130.86 214.823 129.926 215.354 129.792C216.55 129.525 217.746 129.258 218.941 129.125C219.207 129.125 219.738 129.392 219.871 129.659C220.004 129.926 219.738 130.459 219.606 130.726C219.606 130.86 219.34 130.993 219.207 131.127Z" fill="#277D2A"/>
<path d="M221.997 124.188C221.465 124.455 221.067 124.722 220.668 124.855C220.403 124.855 219.871 124.722 219.606 124.455C219.473 124.188 219.34 123.654 219.606 123.387C220.27 122.186 221.465 121.92 222.661 121.653C222.927 121.653 223.325 121.92 223.325 122.186C223.458 122.453 223.458 122.854 223.325 122.987C222.927 123.254 222.395 123.654 221.997 124.188Z" fill="#277D2A"/>
<path d="M20.9902 76.4185C21.1231 70.1471 23.2487 64.8097 27.7657 60.5398C32.017 56.6702 36.9326 54.2684 42.5124 52.8006C47.9593 51.3328 53.1406 52.1334 58.0561 54.6687C59.5175 55.4693 61.2446 56.003 62.8388 56.6702C64.4331 57.3374 66.1602 58.0045 67.7544 58.6717C68.6844 59.072 69.4815 59.8726 70.2786 60.5398C70.81 60.9401 71.4743 61.4738 72.0057 61.8741C76.7884 65.3434 79.844 70.0136 80.774 76.0182C80.9068 76.9522 81.0397 77.7528 80.9068 78.6869C80.9068 79.8878 80.774 81.0887 81.4382 82.2896C81.8368 82.9568 81.5711 84.0242 81.4382 84.9583C80.774 88.1607 79.7111 91.2297 78.5155 94.2987C77.8512 95.8999 76.7884 97.5011 75.5927 98.8355C71.0757 104.039 65.363 107.509 58.7204 109.644C54.8677 110.845 51.015 110.444 47.2951 108.976C43.7081 107.642 39.9882 106.174 36.4012 104.573C34.1427 103.639 32.2827 102.038 30.6885 100.17C25.5072 94.2987 22.3188 87.4935 21.1231 79.6209C21.1231 78.2866 20.9902 77.3525 20.9902 76.4185ZM77.0541 85.3586C79.3126 81.8893 79.5783 78.9537 78.7812 75.6179C77.5855 70.1471 74.5299 65.8772 69.7472 63.2085C63.5031 59.7392 56.7276 58.5383 49.6864 60.1395C43.0438 61.6073 38.1282 65.4769 35.4712 71.8817C33.877 75.6179 33.2127 79.4875 33.4784 83.6239C33.877 93.2312 38.6596 99.9029 47.1622 104.039C51.9449 106.308 56.8605 106.308 61.776 103.773C65.7616 101.771 69.2158 99.1023 72.2714 95.8999C74.7956 93.3647 76.3898 90.2957 77.8512 87.0932C77.9841 86.2926 77.5855 85.8923 77.0541 85.3586ZM55.1334 56.4033C54.602 56.1364 54.4691 56.003 54.2034 55.8696C51.5464 55.069 48.7565 54.6687 45.9665 55.069C41.1838 55.7361 36.7997 57.4708 32.947 60.2729C29.7585 62.5413 27.1015 65.3434 25.6401 69.213C24.4444 72.282 23.913 75.351 24.4444 78.5534C24.9758 82.1562 25.5072 85.7589 26.9686 89.2282C28.5628 92.8309 30.5556 96.1668 32.947 99.3692C33.7441 100.437 34.5412 101.371 35.8697 101.904C36.1354 102.038 36.534 102.038 37.1983 102.171C36.4012 101.237 35.8697 100.57 35.3383 100.036C32.6813 96.9674 30.9542 93.4981 30.1571 89.6285C28.6957 82.423 29.4928 75.4844 32.6813 68.9462C34.4084 65.4769 36.7997 62.6747 40.121 60.6732C43.9738 58.2714 48.0922 56.8036 52.742 56.5368C53.4063 56.5368 54.0706 56.5368 55.1334 56.4033Z" fill="#277D2A"/>
<path d="M58.455 158.881C58.3221 160.749 58.0564 162.617 57.9235 164.485C57.9235 164.886 57.7907 165.286 57.7907 165.686C58.0564 168.355 57.2593 170.623 56.0636 173.025C55.2665 174.76 54.3365 176.494 53.4066 178.229C51.8123 181.431 49.421 183.833 46.2325 185.701C41.5827 188.37 36.5343 189.437 31.2201 189.437C28.6959 189.437 26.3046 188.904 24.179 187.836C22.0533 186.902 20.0605 185.835 18.0677 184.767C14.0821 182.499 11.1594 179.296 9.29945 175.16C7.57236 171.424 5.31386 167.821 3.58678 164.085C2.78966 162.35 1.99255 160.482 1.19543 158.748C1.06258 158.481 0.929724 158.08 0.929724 157.814C0.664018 154.344 -0.000245436 150.875 0.132607 147.406C0.26546 145.137 0.531165 142.869 1.19543 140.6C2.1254 137.532 3.71963 134.729 6.11098 132.594C8.36948 130.459 10.7608 128.591 13.5507 126.99C23.1161 121.786 32.5487 122.32 41.5827 128.458C46.2325 131.527 49.2881 135.93 51.9452 140.6C52.7423 142.068 53.6723 143.536 54.6022 145.004C56.9936 149.14 58.455 153.81 58.455 158.881ZM55.2665 161.149C55.2665 160.215 55.2665 159.415 55.2665 158.481C55.0008 149.541 48.0924 141.001 42.3798 138.065C38.7928 136.197 35.0729 135.663 31.2201 136.597C25.1089 138.065 19.7948 141.134 15.5435 145.804C11.2922 150.608 9.83086 156.079 10.628 162.35C11.0265 165.419 12.0894 168.355 13.285 171.157C16.4735 178.362 22.1862 182.232 29.4931 184.1C33.8772 185.168 38.3942 184.634 42.6455 183.166C46.2325 181.965 49.1553 179.83 51.0152 176.494C51.9452 174.76 53.008 173.158 53.938 171.424C54.4694 170.49 55.2665 169.556 54.6022 168.221C54.4694 167.955 54.6022 167.554 54.7351 167.287C55.5322 165.286 55.2665 163.284 55.2665 161.149ZM37.1985 131.794C36.8 131.527 36.5343 131.26 36.1357 131.127C33.3458 129.659 30.2902 128.858 27.1017 128.591C23.249 128.191 19.5291 128.858 15.9421 130.593C13.285 131.927 10.8937 133.662 8.76803 135.663C6.37669 137.932 4.91531 140.867 4.25104 144.07C3.45393 147.939 3.85248 151.676 4.51675 155.545C4.51675 155.945 4.91531 156.346 5.18101 156.879C5.31386 156.212 5.31386 155.945 5.31386 155.545C5.97813 151.409 7.30665 147.673 9.96371 144.337C15.4107 137.398 22.4519 133.262 31.0873 131.927C33.0801 131.794 35.0729 131.794 37.1985 131.794Z" fill="#277D2A"/>
<path d="M39.1915 159.415C39.5901 159.281 39.8558 159.014 40.1215 159.014C43.4428 159.281 46.6313 160.482 49.4212 162.484C49.6869 162.617 49.9526 163.151 49.9526 163.551C49.9526 164.085 49.554 164.485 49.0226 164.485C48.0927 164.619 47.2955 164.619 46.3656 164.619C45.3027 164.619 44.1071 164.352 42.7785 164.619C43.1771 165.553 43.7085 166.22 43.9742 167.02C44.3728 167.821 44.6385 168.622 44.7713 169.556C44.9042 170.49 44.1071 171.157 43.1771 170.89C42.6457 170.757 42.2471 170.623 41.8486 170.356C40.7858 169.689 39.8558 168.889 38.9258 168.221C38.793 168.088 38.793 167.688 38.9258 167.554C39.0587 167.421 39.3244 167.154 39.4572 167.287C39.8558 167.287 40.2543 167.554 40.6529 167.688C41.1843 167.955 41.8486 168.221 42.6457 168.622C42.5128 168.088 42.6457 167.821 42.5128 167.554C42.1143 166.887 41.7157 166.086 41.3172 165.419C40.2543 163.551 40.7858 162.484 43.0442 162.484C43.9742 162.484 44.7713 162.617 45.7013 162.617C46.0999 162.617 46.4984 162.751 47.4284 162.884C46.7641 162.35 46.4984 162.083 46.2327 161.95C44.6385 161.149 43.0442 160.749 41.3172 160.482C40.52 160.215 39.7229 160.349 39.1915 159.415Z" fill="#277D2A"/>
<path d="M41.7152 150.608C41.3166 150.742 41.0509 150.742 40.7852 150.875C40.121 151.142 39.7224 150.875 39.191 150.608C38.5267 150.074 37.9953 149.407 37.3311 148.073C38.261 147.005 39.0581 148.34 39.9881 148.473C40.3867 147.939 40.6524 147.406 41.1838 147.005C41.9809 146.205 43.0437 146.338 43.5751 147.406C43.708 147.806 43.8408 148.206 43.9737 148.473C44.638 150.742 44.1065 152.743 43.1766 154.878C43.0437 155.145 42.9109 155.412 42.778 155.412C42.5123 155.545 42.2466 155.679 41.848 155.545C41.7152 155.545 41.4495 155.145 41.4495 155.011C41.4495 154.077 41.5823 153.277 41.5823 152.343C41.7152 151.809 41.7152 151.275 41.7152 150.608Z" fill="#277D2A"/>
<path d="M26.8359 153.544C27.1016 154.478 27.2345 154.878 27.3674 155.412C27.5002 156.346 27.2345 157.146 26.3045 157.413C25.3746 157.68 24.4446 157.814 23.5146 157.947C23.1161 157.947 22.7175 157.68 22.5847 157.28C22.4518 156.746 22.8504 156.479 23.2489 156.346C24.046 156.079 24.7103 155.812 25.6403 155.545C25.1089 154.611 24.7103 153.811 24.4446 153.01C24.046 152.076 24.7103 151.275 25.7731 151.275C25.906 151.275 26.0388 151.275 26.3045 151.275C29.3601 152.209 31.8843 153.677 33.8771 156.079C33.7443 156.746 33.3457 157.013 32.9472 156.746C32.2829 156.346 31.7515 155.945 31.0872 155.545C29.7587 154.745 28.563 154.077 26.8359 153.544Z" fill="#277D2A"/>
<path d="M29.0947 172.625C28.2976 172.358 27.7662 172.224 27.2348 172.091C27.1019 171.424 27.3676 171.157 27.7662 171.024C28.1647 170.89 28.6961 170.757 29.2275 170.89C30.1575 171.024 30.8218 171.691 30.9546 172.625C30.9546 173.292 30.8218 174.093 30.8218 174.893C32.416 174.359 33.2131 173.158 34.1431 171.691C34.4088 172.224 34.6745 172.491 34.5417 172.758C34.4088 173.292 34.2759 173.826 34.0102 174.359C33.0803 175.827 31.7517 176.895 30.1575 177.695C29.6261 177.962 29.0947 177.962 28.5633 177.562C28.1647 177.162 28.1647 176.761 28.2976 176.227C28.5633 174.893 28.829 173.826 29.0947 172.625Z" fill="#277D2A"/>
<path d="M35.4716 152.476C35.2059 152.476 34.9402 152.476 34.8074 152.343C33.7445 151.809 33.0803 150.875 33.2131 149.674C33.2131 149.14 33.6117 148.607 34.276 148.473C34.8074 148.34 35.6045 148.607 35.7373 149.14C36.003 149.941 36.1359 150.875 36.1359 151.676C36.1359 151.942 35.6045 152.343 35.4716 152.476Z" fill="#277D2A"/>
<path d="M38.6602 177.295C38.793 177.028 39.0588 176.494 39.4573 175.961C39.8559 175.427 40.653 175.427 41.1844 175.827C41.583 176.228 41.7158 176.761 41.3173 177.295C41.0515 177.829 40.653 178.229 40.2544 178.629C39.9887 178.896 39.4573 179.03 39.1916 178.896C38.9259 178.763 38.793 178.362 38.5273 177.962C38.6602 177.962 38.6602 177.829 38.6602 177.295Z" fill="#277D2A"/>
<path d="M25.6399 165.152C25.3742 165.152 25.1085 165.152 24.8428 165.019C24.1785 164.885 23.78 164.085 24.1785 163.551C24.71 162.751 25.9056 162.35 26.7027 162.751C27.2342 163.017 27.4999 163.418 27.367 163.951C27.2342 164.352 26.9685 164.619 26.7027 164.885C26.437 165.019 26.0385 165.152 25.6399 165.152Z" fill="#277D2A"/>
<path d="M23.7803 172.358C22.8504 172.358 22.4518 171.691 22.7175 171.157C23.1161 170.356 23.6475 169.823 24.4446 169.556C24.976 169.422 25.5074 169.556 25.6403 170.09C25.7731 170.356 25.7731 170.89 25.6403 171.157C25.2417 172.091 24.4446 172.358 23.7803 172.358Z" fill="#277D2A"/>
<path d="M49.5539 157.68C48.6239 157.68 48.3582 157.146 48.4911 156.613C48.7568 155.945 49.2882 155.412 50.0853 155.278C50.4839 155.145 51.1481 155.412 51.281 155.812C51.281 156.212 51.281 156.746 51.1481 156.879C50.4839 157.28 49.8196 157.547 49.5539 157.68Z" fill="#277D2A"/>
<path d="M47.4286 72.8158C48.0929 73.6164 48.89 74.417 49.4214 75.2176C50.0857 76.2851 49.4214 77.6194 48.2257 77.7529C47.4286 77.8863 47.03 77.3525 47.4286 76.4185C47.4286 76.2851 47.5615 76.1516 47.5615 75.8848C46.7643 74.9507 45.9672 73.8833 45.303 72.8158C44.9044 72.1486 44.6387 71.348 44.373 70.5474C44.2401 69.7468 45.0373 69.2131 45.8344 69.3465C46.1001 69.3465 46.4986 69.4799 46.7643 69.6134C49.0228 71.2146 51.4142 72.9492 53.6727 74.5504C53.8055 74.6839 53.8055 75.0842 53.8055 75.2176C53.6727 75.351 53.407 75.6179 53.2741 75.4845C52.477 75.2176 51.6799 74.9507 51.0156 74.5504C49.9528 73.8833 48.89 73.0826 47.8272 72.282C47.5615 72.5489 47.5615 72.6823 47.4286 72.8158Z" fill="#277D2A"/>
<path d="M61.2449 84.6914C59.9163 85.6254 60.3149 86.9598 59.7835 87.8938C59.2521 88.0273 59.1192 87.8938 59.1192 87.4935C59.1192 87.2266 59.1192 86.8263 59.1192 86.5595C59.3849 84.6914 59.7835 84.0242 61.6434 83.2236C60.9792 82.2896 59.6506 82.423 58.8535 81.489C58.9864 80.8218 59.3849 80.9552 59.6506 80.9552C60.182 81.0887 60.5806 81.2221 61.112 81.3555C63.5034 82.2896 65.629 83.7574 67.4889 85.6254C68.4189 86.5595 68.6846 87.3601 68.2861 87.6269C67.6218 88.1607 66.8247 87.7604 66.2933 87.3601C65.2304 86.6929 64.1676 86.0257 63.2377 85.492C62.4405 85.2251 61.9091 84.9583 61.2449 84.6914Z" fill="#277D2A"/>
<path d="M52.7424 84.9583C53.6724 86.6929 52.211 87.7604 52.6096 89.0947C54.0709 88.0272 53.9381 86.1592 54.7352 84.9583C55.2666 84.9583 55.3995 85.2251 55.3995 85.492C55.5323 88.6944 53.8052 91.0962 51.281 92.8309C51.0153 92.9643 50.3511 92.9643 50.2182 92.8309C49.9525 92.6974 49.8197 92.0303 49.9525 91.7634C50.3511 90.5625 50.8825 89.495 51.4139 88.4275C51.8125 87.2266 52.211 86.2926 52.7424 84.9583Z" fill="#277D2A"/>
<path d="M63.9023 74.2836C64.9652 72.5489 66.4265 71.7483 68.0208 71.0811C68.2865 70.9477 68.8179 71.0811 69.0836 71.2146C69.4822 71.6149 69.3493 72.1486 69.0836 72.5489C68.2865 73.6164 67.3565 74.417 66.1608 75.0842C65.4966 74.9507 64.8323 74.6839 63.9023 74.2836Z" fill="#277D2A"/>
<path d="M62.7063 94.5656C62.1749 94.2987 61.7763 94.2987 61.5106 94.0318C60.8463 93.2312 60.4478 92.2972 59.9164 91.3631C59.7835 91.2297 59.9164 90.696 60.1821 90.5625C60.4478 90.4291 60.8463 90.2957 61.1121 90.2957C62.4406 90.696 63.2377 91.7634 63.6363 92.9643C63.6363 93.0978 63.6363 93.3646 63.6363 93.4981C63.3706 93.8984 62.972 94.1653 62.7063 94.5656Z" fill="#277D2A"/>
<path d="M46.2323 85.0918C45.4352 85.0918 44.7709 85.2252 44.6381 84.4246C44.5052 83.8909 44.7709 83.2237 45.5681 82.9568C46.2323 82.69 46.8966 82.5565 47.6937 82.5565C48.2251 82.5565 48.7565 83.2237 48.7565 83.624C48.7565 84.1577 48.4908 84.558 47.9594 84.6915C47.2951 84.9583 46.6309 85.0918 46.2323 85.0918Z" fill="#277D2A"/>
<path d="M58.9862 68.4124C58.9862 69.213 58.3219 69.7467 57.5248 69.7467C56.8606 69.7467 56.3291 69.0795 56.1963 68.2789C56.1963 67.6118 56.7277 66.9446 57.2591 66.9446C58.1891 66.9446 58.9862 67.6118 58.9862 68.4124Z" fill="#277D2A"/>
<path d="M70.8106 78.6868C69.4821 79.4874 69.4821 79.4874 67.2236 79.354C66.9579 78.5534 67.6221 78.2865 68.1535 78.2865C69.0835 78.0197 70.0135 77.7528 70.8106 78.6868Z" fill="#277D2A"/>
<path d="M114.917 213.856C108.939 213.989 100.569 210.253 97.7793 201.98C97.3807 200.913 96.9822 199.845 96.8493 198.778C96.0522 195.309 96.3179 192.106 97.9121 188.904C99.7721 185.168 102.429 182.099 106.016 179.697C110.002 177.161 114.12 176.761 118.637 177.962C119.567 178.229 120.497 178.362 121.56 178.362C123.42 178.362 125.147 178.896 126.343 180.497C127.538 182.099 128.734 183.7 129.664 185.568C131.657 189.304 132.454 193.307 132.454 197.444C132.454 205.183 126.874 210.52 121.427 212.655C119.169 213.589 117.043 213.989 114.917 213.856ZM116.246 179.964C112.393 179.964 109.337 180.898 106.813 183.033C105.352 184.234 104.023 185.701 102.828 187.169C99.6392 191.306 98.975 195.709 101.233 200.513C101.233 200.646 101.233 200.646 101.366 200.779C104.023 206.517 108.408 209.453 114.652 209.853C122.091 210.253 130.195 203.715 127.937 193.974C126.874 189.571 124.881 185.835 122.091 182.365C121.029 181.165 119.7 180.364 118.106 180.23C117.309 179.964 116.512 179.964 116.246 179.964Z" fill="#277D2A"/>
<path d="M115.05 190.371C115.581 191.572 115.98 192.506 116.245 193.44C116.644 194.508 116.511 195.442 115.581 196.109C114.651 196.776 113.721 196.776 112.791 196.109C111.994 195.575 111.197 194.908 110.4 194.108C109.603 194.775 108.806 195.442 108.009 195.976C106.68 197.043 105.219 197.177 104.289 196.509C103.226 195.709 102.827 194.108 103.226 192.506C103.492 191.572 104.023 190.638 104.82 189.971C105.617 189.437 106.016 188.637 106.149 187.703C106.68 185.701 107.61 184.5 109.736 184.1C110.267 183.967 110.666 183.566 111.197 183.299C111.861 182.899 112.658 182.499 113.455 182.232C115.847 181.431 117.972 182.365 119.168 184.634C119.965 186.235 119.434 187.703 117.84 188.503C117.441 188.77 116.91 188.77 116.511 189.037C116.113 189.571 115.714 189.971 115.05 190.371ZM110.533 192.373C111.064 192.773 111.728 193.04 112.127 193.307C112.658 193.707 113.19 194.241 113.721 194.775C113.854 194.908 114.253 194.908 114.518 194.775C114.651 194.641 114.784 194.241 114.784 194.108C114.518 193.307 114.12 192.64 113.854 191.839C113.19 189.971 113.721 188.77 115.714 188.103C116.245 187.97 116.777 187.836 117.308 187.703C117.972 187.436 118.238 186.769 117.972 186.102C117.308 184.233 115.581 183.566 113.721 184.367C113.19 184.634 112.658 185.034 112.127 185.301C111.463 185.701 110.798 186.235 110.134 186.235C108.673 186.368 108.009 187.302 107.876 188.503C107.61 189.838 107.079 190.905 106.016 191.706C105.351 192.24 104.953 193.174 104.953 194.108C104.953 194.908 105.75 195.442 106.414 195.042C107.211 194.508 107.876 193.974 108.673 193.44C109.071 193.04 109.736 192.773 110.533 192.373Z" fill="#277D2A"/>
<path d="M111.596 188.503C111.729 189.438 110.932 190.505 110.135 190.505C109.869 190.505 109.471 190.238 109.338 189.971C109.072 189.037 110.002 187.97 111.065 188.103C111.198 188.237 111.463 188.503 111.596 188.503Z" fill="#277D2A"/>
</g>
<g opacity="0.4" clip-path="url(#clip2_0_1)">
<path d="M171.999 54.7965C172.431 61.9186 166.681 71.9477 156.474 74.4186C150.581 75.8721 145.549 74.564 141.237 70.3489C137.356 66.5698 134.481 62.064 133.762 56.5407C133.618 55.814 133.474 54.9419 133.618 54.2152C134.193 48.2558 136.062 42.8779 139.943 38.3721C143.249 34.5931 147.274 32.7035 152.306 33.4303C152.737 33.4303 153.312 33.4303 153.599 33.721C156.187 35.0291 159.062 35.6105 161.506 37.3547C163.374 38.6628 165.099 40.1163 166.968 41.4245C168.406 42.5872 169.556 44.0407 170.131 45.7849C171.137 48.4012 171.999 51.5989 171.999 54.7965ZM159.493 38.5175C158.631 39.2442 158.056 39.8256 157.193 39.0989C156.762 38.8082 156.331 38.5175 155.756 38.2268C151.156 35.6105 146.843 36.3372 143.106 40.1163C139.656 43.6047 137.931 47.8198 137.356 52.6163C137.068 55.0872 137.212 57.4128 138.218 59.5931C139.799 63.0814 141.956 66.1338 144.974 68.4593C149.143 71.9477 153.887 72.2384 158.631 70.2035C165.818 67.1512 169.843 59.157 168.118 51.4535C167.974 50.4361 167.687 49.4186 167.399 48.5465C166.968 47.2384 166.393 45.9303 165.531 44.9128C163.806 42.4419 161.793 40.407 159.493 38.5175Z" fill="#277D2A"/>
<path d="M136.062 13.2267C138.65 16.1337 138.793 19.6221 137.643 23.1105C135.487 29.9419 130.887 34.593 124.131 36.9186C121.687 37.7907 119.1 37.7907 116.512 36.7733C113.781 35.7558 111.337 34.4477 109.181 32.5581C108.462 31.9767 107.743 31.3953 107.312 30.6686C103.718 25.8721 102.137 20.3488 103.575 14.3895C104.581 10.0291 107.168 6.8314 111.05 4.65116C114.212 2.90698 117.662 2.47093 121.112 3.92442C121.687 4.06977 122.118 4.21512 122.837 4.50581C122.837 3.63372 122.837 2.76163 122.981 2.03488C123.125 0.726744 123.987 0 124.993 0C126 0 126.718 0.581395 127.006 1.45349C127.15 2.03488 127.293 2.47093 127.437 3.05233C127.581 3.48837 127.725 3.92442 127.868 4.50581C128.875 4.36046 129.737 4.06977 130.6 3.92442C132.181 3.63372 132.756 4.06977 133.187 5.81395C133.187 6.10465 133.187 6.39535 133.331 6.83139C134.193 6.97674 135.056 6.97674 135.918 7.12209C137.212 7.41279 138.075 8.57558 137.787 9.88372C137.356 11.0465 136.637 12.064 136.062 13.2267ZM125.281 8.72093C126.143 9.30233 127.15 9.73837 128.156 10.4651C129.306 11.1919 130.456 11.9186 131.462 12.7907C131.606 12.936 131.606 13.2267 131.893 13.9535C129.881 12.936 128.3 12.2093 126.862 11.3372C125.425 10.6105 123.987 9.88372 123.556 8.13953C123.412 7.84884 122.981 7.41279 122.693 7.26744C120.393 6.25 118.093 5.6686 115.506 6.25C109.037 7.70349 105.731 14.3895 106.45 19.9128C107.312 26.4535 110.762 30.9593 116.943 33.4302C119.1 34.3023 121.112 34.3023 123.268 33.7209C128.587 32.1221 132.037 28.6337 133.762 23.5465C134.337 22.093 134.768 20.3488 134.337 18.8953C133.762 16.7151 133.762 14.5349 133.475 12.2093C134.05 11.0465 136.35 11.0465 135.775 8.72093C134.768 8.72093 133.762 8.72093 132.756 8.72093C132.037 8.72093 131.462 8.43023 131.175 7.70349C130.887 7.26744 130.6 6.8314 130.312 6.25C129.162 6.97674 128.156 7.55814 127.006 7.12209C125.856 6.8314 125.568 7.70349 125.281 8.72093Z" fill="#277D2A"/>
<path d="M151.012 41.2791C151.012 41.2791 151.299 40.9884 151.587 40.6977C153.599 38.6628 155.756 38.9535 157.193 41.2791C157.912 42.2965 157.912 43.4593 157.193 44.4768C156.762 45.2035 156.187 45.9303 155.468 46.8024C156.474 47.6745 157.481 48.4012 158.343 49.2733C159.349 50.2907 159.781 51.5989 159.206 53.0524C158.631 54.5058 157.624 55.3779 156.187 55.5233C155.324 55.6686 154.462 55.3779 153.599 54.9419C152.737 54.6512 152.018 53.9244 151.299 53.4884C150.581 53.0524 150.006 53.3431 149.574 53.9244C149.143 54.5058 148.856 55.3779 148.281 55.9593C146.556 58.5756 143.537 59.3024 140.806 57.8489C138.649 56.6861 137.499 53.9244 138.793 51.7442C140.231 49.1279 141.381 46.5117 142.099 43.6047C142.531 42.0058 143.968 40.9884 145.693 40.9884C147.562 40.9884 149.143 41.1338 151.012 41.2791ZM148.568 42.8779C147.706 42.8779 146.699 42.8779 145.693 42.8779C144.831 42.8779 144.256 43.4593 143.968 44.3314C143.681 45.2035 143.537 46.0756 143.393 46.9477C143.249 48.4012 142.818 49.564 141.812 50.7268C141.524 51.0175 141.237 51.4535 140.949 51.7442C140.087 53.1977 140.231 54.7965 141.524 55.6686C143.106 56.8314 144.974 56.6861 146.124 55.2326C146.556 54.6512 146.843 53.9244 147.274 53.1977C148.568 51.1628 150.437 50.5814 152.449 51.7442C153.168 52.1803 153.887 52.7617 154.749 53.1977C155.612 53.6338 156.474 53.3431 156.762 52.7617C157.193 52.0349 157.049 51.4535 156.474 50.8721C155.756 50.1454 154.893 49.564 154.174 48.9826C153.168 47.9651 152.881 46.8024 153.599 45.6396C154.031 44.7675 154.749 44.0407 155.324 43.1686C155.181 42.7326 155.037 42.4419 154.893 42.1512C154.031 41.2791 153.168 41.4245 152.881 42.4419C152.881 42.5872 152.737 42.8779 152.737 43.1686C152.449 44.0407 152.593 45.4942 151.299 45.6396C149.718 45.9303 149.862 44.1861 149.143 43.4593C149.143 43.314 148.999 43.314 148.568 42.8779Z" fill="#277D2A"/>
<path d="M147.706 46.0756C148.712 46.0756 149.431 46.9477 149.431 47.8197C149.431 48.8372 148.568 49.7093 147.418 49.7093C146.412 49.7093 145.55 48.6918 145.693 47.6744C145.981 46.657 146.843 46.0756 147.706 46.0756Z" fill="#277D2A"/>
</g>
<defs>
<clipPath id="clip0_0_1">
<rect width="219" height="262" fill="white" transform="matrix(-1 0 0 1 225.187 195)"/>
</clipPath>
<clipPath id="clip1_0_1">
<rect width="258" height="176" fill="white" transform="translate(0 52)"/>
</clipPath>
<clipPath id="clip2_0_1">
<rect width="69" height="75" fill="white" transform="translate(103)"/>
</clipPath>
</defs>
</svg>
