<svg width="309" height="289" viewBox="0 0 309 289" fill="none" xmlns="http://www.w3.org/2000/svg">
<g clip-path="url(#clip0_1645_25)">
<path fill-rule="evenodd" clip-rule="evenodd" d="M147.086 -15.4142C146.291 -19.5577 149.025 -23.597 153.162 -24.3904C157.299 -25.1838 161.334 -22.4428 162.128 -18.2993C162.164 -18.1109 170.242 20.956 118.991 54.6085C115.52 56.8366 110.87 55.9709 108.419 52.3403C106.192 48.862 107.054 44.2056 110.677 41.7532C153.285 13.8589 147.086 -15.4142 147.086 -15.4142Z" fill="#685B18"/>
<path fill-rule="evenodd" clip-rule="evenodd" d="M38.1327 50.7849C14.456 87.936 -23.5347 61.636 -68.3221 104.594C-113.109 147.551 -101.025 222.756 -43.3362 256.213C-36.9441 260.064 -30.3204 263.089 -23.6531 265.325C22.0776 281.158 70.9172 263.395 91.4715 217.079C107.135 181.855 87.7734 155.106 116.902 121.987C135.463 100.853 174.399 61.9463 142.101 27.72C108.834 -7.49218 61.9613 13.4093 38.1327 50.7849Z" fill="#708227"/>
<path fill-rule="evenodd" clip-rule="evenodd" d="M-11.2513 269C30.6262 277.957 72.8994 259.5 91.5437 217.456C107.207 182.232 87.8456 155.483 116.974 122.363C135.535 101.229 174.471 62.323 142.173 28.0967C136.808 22.4865 131.096 18.1145 125.297 15.3214C98.7712 12.2075 68.9804 28.6611 54.0561 55.5417C19.6715 118.179 -3.99159 84.2492 -43.2518 116.383C-82.512 148.517 -84.2049 228.121 -26.7042 261.615C-21.6931 264.364 -16.5301 266.888 -11.2513 269Z" fill="#899A2A"/>
<path fill-rule="evenodd" clip-rule="evenodd" d="M61.2787 63.7242C45.9209 88.3447 29.3211 103.44 0.660454 109.523C-75.4281 125.483 -79.0904 217.181 -27.3094 247.28C13.7047 271.048 64.4014 260.934 84.3842 215.704C91.0331 200.565 89.8281 186.15 90.8508 170.137C92.2941 148.186 98.466 131.576 113.012 114.921C121.157 105.549 129.75 96.4802 136.55 86.1936C141.259 79.237 146.287 69.8761 146.578 61.2284C146.934 53.9352 143.709 48.3049 138.793 42.9993C131.678 35.3814 122.705 30.2681 111.929 29.9915C91.2392 29.859 71.7318 47.0741 61.2787 63.7242Z" fill="#C6D57A"/>
<path fill-rule="evenodd" clip-rule="evenodd" d="M50.404 136.108C70.1223 150.486 73.0889 180.184 56.9216 202.616C40.7543 225.049 11.6017 231.617 -8.11657 217.238C-27.8349 202.86 -30.8015 173.162 -14.6342 150.73C1.56925 128.486 30.5338 121.954 50.404 136.108Z" fill="#685B18"/>
<path fill-rule="evenodd" clip-rule="evenodd" d="M50.8871 136.6C70.2293 151.051 72.9356 180.408 56.9203 202.616C45.0426 218.954 26.4699 226.812 9.4395 224.415C-9.90275 209.965 -12.6091 180.608 3.40633 158.399C15.284 142.062 33.8206 134.015 50.8871 136.6Z" fill="#857521"/>
<path fill-rule="evenodd" clip-rule="evenodd" d="M54.121 165.661C53.5282 164.603 54.0275 163.14 55.0834 162.547C56.1394 161.954 57.6001 162.455 58.1929 163.513C58.8218 164.759 59.335 166.418 59.6962 168.302C60.5919 173.988 59.9249 182.708 56.6328 190.955C53.3769 199.39 47.3441 207.577 37.3561 212.422C33.8121 214.273 29.5957 215.668 24.8588 216.381C23.5426 216.633 22.3857 215.683 22.357 214.517C22.1041 213.199 23.0517 212.041 24.216 212.013C28.3889 211.408 32.2292 210.085 35.4332 208.495C44.1411 204.091 49.3782 196.838 52.4387 189.416C55.463 181.806 56.1587 174.253 55.3714 169.131C54.8944 167.661 54.6416 166.342 54.121 165.661ZM17.4107 213.123C18.575 213.095 19.58 214.269 19.6087 215.435C19.6374 216.601 18.4657 217.607 17.3013 217.635C15.7248 217.547 15.1607 217.655 14.3725 217.611C12.4199 217.595 11.6317 217.551 7.87843 217.294C6.67798 217.134 5.70911 216.148 5.83231 214.758C5.99164 213.555 6.97534 212.586 8.36382 212.71C11.929 213.003 12.7173 213.047 14.4818 213.099C15.2701 213.143 16.4344 213.115 17.4107 213.123Z" fill="#FDF8E6"/>
<path fill-rule="evenodd" clip-rule="evenodd" d="M133.381 58.4877C133.128 57.1693 134.076 56.0112 135.24 55.9832C136.557 55.7307 137.714 56.6804 137.742 57.8466C138.53 62.9678 138.116 67.9288 134.571 74.8574C131.178 81.5615 124.994 89.9727 114.122 102.407C109.992 107.3 106.505 111.484 103.699 115.146C100.284 119.706 97.8538 123.297 96.067 126.178C95.4955 127.264 93.9912 127.553 92.9065 126.98C91.8219 126.406 91.5329 124.9 92.1044 123.814C93.8551 120.744 96.4375 116.929 99.8518 112.369C102.622 108.518 106.297 104.299 110.579 99.1813C121.111 87.0073 127.144 78.8205 130.421 72.5291C133.618 66.8388 133.988 62.6673 133.381 58.4877Z" fill="white"/>
<path fill-rule="evenodd" clip-rule="evenodd" d="M58.0199 235.796C58.7795 234.674 60.0957 234.422 61.2165 235.183C62.3373 235.945 62.5901 237.263 61.8306 238.385C56.058 246.913 45.1659 252.126 32.9438 254.47C19.0293 257.139 3.45227 256.221 -8.60958 252.286C-9.84615 251.937 -10.4751 250.691 -10.1277 249.453C-9.78036 248.214 -8.53636 247.585 -7.2998 247.934C4.12571 251.601 18.9145 252.474 32.0768 249.95C43.1708 247.822 53.0069 243.202 58.0199 235.796Z" fill="white"/>
<path fill-rule="evenodd" clip-rule="evenodd" d="M218.659 19.2853C241.436 36.3965 271.7 41.7224 275.134 44.3833C276.067 45.1807 276.66 46.2386 274.584 47.6131C204.152 95.0986 150.927 52.3887 156.326 28.7018C172.241 4.95086 195.447 4.99113 218.659 19.2853Z" fill="#627323"/>
<path fill-rule="evenodd" clip-rule="evenodd" d="M218.659 19.285C241.436 36.3962 271.7 41.7222 275.134 44.383C275.358 44.5353 275.583 44.6876 275.619 44.8759C229.839 60.2955 178.083 46.5942 156.167 29.9037C156.283 29.491 156.399 29.0782 156.326 28.7015C172.241 4.9506 195.448 4.99088 218.659 19.285Z" fill="#7E8925"/>
<path fill-rule="evenodd" clip-rule="evenodd" d="M159.645 31.7754C158.713 30.9779 158.46 29.6595 159.219 28.5375C160.015 27.6038 161.331 27.3514 162.452 28.1128C162.452 28.1128 194.585 54.3646 265.176 45.3169C266.492 45.0644 267.649 46.0141 267.714 47.3686C267.967 48.687 267.019 49.8451 265.667 49.9092C193.347 59.0932 159.833 31.7393 159.645 31.7754Z" fill="#A6B82F"/>
<path fill-rule="evenodd" clip-rule="evenodd" d="M180.03 42.5108C179.589 41.2285 180.348 40.1065 181.628 39.6657C182.909 39.2249 184.029 39.9863 184.47 41.2686C184.47 41.2686 188.199 54.6129 196.71 61.3772C197.643 62.1747 197.895 63.493 197.136 64.6151C196.34 65.5488 195.024 65.8012 193.903 65.0398C184.048 57.3618 180.03 42.5108 180.03 42.5108Z" fill="#A6B82F"/>
<path fill-rule="evenodd" clip-rule="evenodd" d="M169.502 34.3765C168.706 35.3101 167.166 35.4103 166.197 34.4245C165.264 33.6271 165.163 32.0843 166.147 31.1145C166.147 31.1145 178.227 17.8626 193.682 15.0937C194.998 14.8413 196.119 15.6026 196.371 16.921C196.624 18.2394 195.865 19.3615 194.549 19.6139C180.446 22.3187 169.502 34.3765 169.502 34.3765Z" fill="#A6B82F"/>
<path fill-rule="evenodd" clip-rule="evenodd" d="M193.835 44.3546C193.039 45.2882 191.462 45.2001 190.53 44.4026C189.597 43.6052 189.684 42.0263 190.48 41.0926C190.48 41.0926 204.483 26.6906 219.75 23.9578C221.066 23.7054 222.187 24.4667 222.44 25.7851C222.693 27.1035 221.933 28.2256 220.617 28.478C206.854 30.9223 194.023 44.3185 193.835 44.3546Z" fill="#A6B82F"/>
<path fill-rule="evenodd" clip-rule="evenodd" d="M218.233 50.6102C217.792 49.3278 218.552 48.2058 219.832 47.765C221.112 47.3242 222.233 48.0856 222.674 49.3679C222.674 49.3679 224.979 57.3224 230.055 61.4259C230.988 62.2233 231.241 63.5417 230.481 64.6638C229.685 65.5974 228.369 65.8499 227.248 65.0885C220.791 59.883 218.233 50.6102 218.233 50.6102Z" fill="#A6B82F"/>
<path fill-rule="evenodd" clip-rule="evenodd" d="M234.725 34.9495C235.781 34.3565 237.242 34.8574 237.682 36.1397C238.275 37.1976 237.776 38.6603 236.496 39.1011C236.496 39.1011 228.96 42.4992 225.726 48.0011C225.155 49.0871 223.686 49.5639 222.566 48.8025C221.481 48.2295 221.004 46.7588 221.763 45.6368C225.909 38.7884 234.725 34.9495 234.725 34.9495Z" fill="#A6B82F"/>
</g>
<defs>
<clipPath id="clip0_1645_25">
<rect width="264.841" height="389.622" fill="white" transform="translate(258.647 -44.6223) rotate(79.1428)"/>
</clipPath>
</defs>
</svg>
