<svg width="243" height="120" viewBox="0 0 243 120" fill="none" xmlns="http://www.w3.org/2000/svg">
<g opacity="0.3" clip-path="url(#clip0_1645_82)">
<path d="M211.412 -48.0152C205.309 -44.5166 198.684 -41.8097 192.13 -39.2252C188.756 -37.9071 185.26 -36.6597 181.834 -35.5347C178.698 -34.4874 175.659 -33.466 172.42 -32.8051C166.134 -31.535 159.159 -30.9083 153.539 -27.5391C150.945 -26.0158 148.848 -23.7973 147.756 -20.9167C146.806 -18.2809 146.442 -15.3882 146.342 -12.6698C145.989 -6.25996 146.873 0.129009 145.985 6.47502C145.877 7.22882 144.878 6.97879 144.793 6.27676C144.077 -0.260577 144.089 -6.7859 142.38 -13.161C141.837 -15.1895 140.95 -18.8859 138.257 -18.8891C134.837 -18.9043 132.419 -15.5647 130.715 -13.0375C128.709 -9.70485 127.193 -6.08931 126.115 -2.38412C125.172 0.663876 124.545 3.73081 124.793 6.97707C125.285 14.6097 129.036 21.2658 131.846 28.2773C133.468 32.398 134.607 36.6481 134.851 41.0345C135.244 47.1406 134.06 53.152 132.192 58.9324C131.961 59.6155 130.988 59.462 131 58.7341C130.444 51.6362 129.599 44.6159 128.051 37.6801C126.917 32.2899 125.326 27.1257 123.542 22.0132C122.469 18.7808 121.325 15.6709 120.155 12.4644C120.568 12.4575 120.98 12.4505 121.392 12.4436C120.535 17.746 119.144 22.9847 116.334 27.568C113.975 31.5131 110.784 35.0598 107.761 38.4581C100.788 46.4347 93.7886 54.3146 86.2479 61.7186C81.0944 66.8265 75.8183 71.8637 71.0839 77.3769C70.7045 77.8927 69.8471 77.3977 69.9816 76.7405C71.1232 72.5005 74.288 68.8573 77.1442 65.6073C80.4764 61.8157 84.0087 58.3845 87.5152 54.8568C91.5683 50.6649 95.518 46.0867 99.4676 41.5084C102.465 38.0135 105.585 34.5893 108.19 30.7857C110.414 27.4978 112.491 24.0426 114.252 20.5685C116.083 16.9719 117.863 13.1822 118.328 9.12341C118.475 7.73829 118.57 6.16 117.918 4.88535C117.317 3.80388 116.293 3.45726 115.101 3.259C111.48 2.88328 107.642 4.01515 104.165 4.9469C99.8182 6.11159 95.6458 7.54017 91.2473 8.51167C89.9916 8.84813 88.7549 8.86893 87.5699 9.08292C86.7971 9.28998 86.0244 9.49704 85.2516 9.70409C84.8653 9.80762 84.3116 10.0595 83.8735 9.96985C83.6544 9.92502 83.3577 9.59041 83.4025 9.37135C83.4852 8.52096 84.8893 8.35179 85.443 8.09991C86.6469 7.57026 87.7732 6.75083 88.9771 6.22118C92.5183 4.75471 96.2854 3.74531 99.93 2.66521C101.958 2.12169 103.961 1.48158 105.841 0.770758C107.65 0.182408 109.241 -0.450775 111.128 -0.749345C113.041 -0.951325 114.979 -1.05671 116.867 -1.35528C117.762 -1.49162 118.631 -1.72456 119.475 -2.05409C120.292 -2.48021 120.742 -3.11846 121.167 -3.85331C123.121 -7.37919 123.682 -11.4638 125.05 -15.2467C125.128 -14.9569 125.276 -14.7896 125.354 -14.4998C117.819 -18.2784 108.841 -17.0116 100.742 -18.258C100.085 -18.3925 100.142 -19.3394 100.722 -19.4947C104.515 -20.4075 108.482 -21.0564 112.359 -21.2672C114.807 -21.4054 117.236 -21.228 119.735 -21.173C122.138 -21.0921 124.489 -21.2044 126.859 -21.6324C130.826 -22.2813 133.767 -24.8293 136.978 -27.1392C140.287 -29.475 143.783 -30.7224 147.595 -31.9509C151.671 -33.3536 155.65 -34.7304 159.752 -36.0365C167.156 -38.5382 174.387 -41.3039 181.688 -44.192C189.64 -47.3579 197.566 -50.6204 205.562 -54.0053C206.309 -54.309 206.909 -53.2275 206.162 -52.9239C192.217 -47.0131 178.175 -41.0765 163.778 -36.08C159.605 -34.6514 155.433 -33.2228 151.164 -31.7683C147.378 -30.4433 143.198 -29.427 139.716 -27.355C136.523 -25.3608 133.827 -22.6714 130.286 -21.2049C127.685 -20.0939 124.658 -19.8004 121.772 -19.7518C119.176 -19.7809 116.625 -20.0291 113.958 -19.9357C109.52 -19.8853 105.193 -19.0363 100.987 -18.1166C100.98 -18.5288 100.973 -18.9411 100.967 -19.3533C109.162 -18.1328 118.166 -19.303 125.797 -15.5503C126.042 -15.4089 126.119 -15.1191 126.101 -14.8034C124.919 -11.4846 124.273 -8.10202 122.872 -4.82803C122.384 -3.55845 121.729 -2.14053 120.629 -1.22451C119.335 -0.256728 117.545 0.0159686 115.947 0.236893C113.938 0.464754 111.973 0.473545 110.015 0.89459C108.251 1.26387 106.59 2.01952 104.877 2.58199C100.969 3.83634 96.9116 4.92337 93.0031 6.17771C91.2903 6.74018 89.4809 7.32853 87.8717 8.27737C87.2473 8.65173 86.7454 9.0968 86.0951 9.37456C85.7346 9.57468 85.2516 9.70409 84.8653 9.80762C84.215 10.0854 84.6273 10.0785 84.5945 9.56961C84.4461 9.4023 84.2719 9.13841 84.1235 8.9711C83.6854 8.88144 84.2201 8.94522 84.4133 8.89346C84.7031 8.81581 85.0894 8.71228 85.3792 8.63464C86.0554 8.45346 86.7315 8.27229 87.4076 8.09112C88.496 7.90301 89.5137 7.83738 90.6021 7.64927C94.5176 6.80718 98.4003 5.45624 102.264 4.42097C106.031 3.41157 110.062 2.22794 113.991 2.21036C116.781 2.18769 118.837 3.29318 119.42 6.24272C120.036 9.7011 118.739 13.3615 117.41 16.513C115.804 20.5667 113.709 24.3375 111.394 28.0635C106.058 36.7402 98.8331 44.1631 92.0462 51.6757C88.2121 55.9124 84.1779 59.7886 80.2213 63.9546C78.124 66.173 76.1233 68.3655 74.3934 70.7961C72.9464 72.7367 71.4545 74.8964 70.8648 77.332C70.4974 77.1199 70.13 76.9078 69.7626 76.6957C77.6619 67.5392 86.8187 59.5986 94.9888 50.6802C98.2762 47.1076 101.538 43.4384 104.703 39.7952C107.797 36.2744 111.013 32.8243 113.688 28.8981C117.122 23.9405 118.893 18.186 119.788 12.2523C119.922 11.5951 120.799 11.7744 121.025 12.2315C122.983 17.6078 124.941 22.9842 126.636 28.5348C128.382 34.2786 129.645 40.1518 130.522 46.1285C131.126 50.3148 131.562 54.6495 131.877 58.9134C131.439 58.8238 131.026 58.8307 130.685 58.7152C132.507 53.1539 133.621 47.265 133.305 41.4486C133.113 37.2554 132 33.1019 130.527 29.1485C127.613 21.7507 123.714 14.9273 123.215 6.88233C123.037 3.5136 123.735 0.324187 124.627 -2.91699C125.775 -6.74466 127.239 -10.5534 129.464 -13.8412C131.142 -16.465 133.638 -19.5148 136.929 -19.9825C139.711 -20.4175 141.247 -18.5512 142.28 -16.24C143.921 -12.435 144.358 -8.1003 144.839 -3.98471C145.236 -0.571155 145.343 2.92004 145.74 6.3336C145.302 6.24394 144.89 6.25088 144.548 6.13534C145.398 0.42065 144.618 -5.58196 144.837 -11.3345C145.036 -16.7715 145.641 -22.6276 149.895 -26.459C154.817 -30.8838 161.856 -32.0452 168.168 -33.2187C171.336 -33.7572 174.357 -34.4629 177.422 -35.3877C180.944 -36.5385 184.369 -37.6635 187.866 -38.9109C195.702 -41.7352 203.46 -44.8494 210.644 -48.9483C211.41 -49.5677 212.107 -48.5121 211.412 -48.0152Z" fill="black"/>
<path d="M171.716 -40.0703C169.354 -43.4751 166.984 -48.8445 161.916 -47.2796C160.203 -46.7171 158.936 -45.6528 157.597 -44.4659C156.593 -43.5758 155.46 -43.1686 154.075 -43.3151C152.155 -43.5254 150.196 -44.6567 148.622 -45.8916C147.049 -47.1265 145.811 -48.6582 144.07 -49.7447C142.33 -50.8312 140.146 -50.8673 138.543 -49.5062C137.134 -48.1969 136.731 -46.2253 136.057 -44.4917C134.946 -41.2953 132.476 -38.1489 128.693 -39.5164C124.84 -40.7615 122.445 -44.6751 118.13 -44.5539C116.481 -44.5262 115.109 -43.8482 114.357 -42.4044C113.747 -41.2055 113.478 -39.8911 112.964 -38.7181C111.564 -35.4441 108.357 -34.2744 105.038 -35.4557C101.281 -36.7266 97.8572 -39.8467 93.7176 -37.9092C90.5887 -36.4497 92.3709 -32.8896 92.052 -30.216C91.7211 -26.8145 88.5405 -25.5481 85.4287 -25.9566C84.1402 -26.129 82.4066 -26.8033 81.0802 -26.3444C79.2967 -25.6594 78.9399 -22.3545 79.0643 -20.7313C79.3716 -16.8797 83.3186 -12.9679 80.7143 -9.16426C78.1807 -5.48309 73.0058 -7.40937 69.62 -5.36334C67.4829 -4.06602 66.9709 -1.34063 68.075 0.848185C69.1015 2.74722 70.6299 4.20119 71.5598 6.1261C72.3154 7.78712 72.3242 9.75179 71.405 11.344C70.5823 12.9102 69.0438 13.7366 67.4017 14.1766C65.5923 14.765 63.4604 14.9221 61.8511 15.8709C59.6175 17.1941 58.6673 19.8299 59.6041 22.167C60.3667 24.2403 61.9468 25.8875 62.6835 27.8641C63.3426 29.5511 63.7188 31.7279 63.2636 33.5063C62.8721 34.75 61.7459 35.5694 60.6644 36.1697C58.862 37.1703 57.182 38.2417 55.8246 39.7442C54.4672 41.2467 53.3548 42.8906 54.3813 44.7896C55.1818 46.2316 56.3427 47.4734 57.0725 49.0379C58.765 53.0361 56.566 56.4205 54.8052 59.8946C53.6808 62.2665 53.1618 64.5796 53.3517 67.2204C53.3984 68.5538 53.5486 70.2735 54.9855 70.6132C56.1067 70.9339 57.3435 70.9131 58.4199 71.4529C60.0569 72.1531 61.4628 73.5363 62.096 75.1267C62.9293 77.0775 62.6034 79.3388 62.6381 81.4001C62.6608 84.1893 63.5717 86.4298 65.4745 88.5082C66.6096 89.6534 67.4151 89.9552 68.7087 88.9874C69.835 88.168 70.7164 87.2072 72.0428 86.7482C76.26 85.1006 79.6463 88.852 83.0497 90.7353C85.1059 91.8408 87.8831 92.546 90.1306 92.0473C91.7986 91.7039 92.6989 90.4274 93.4508 88.9836C95.2634 85.7027 97.7452 81.8283 101.868 81.759C103.807 81.6536 105.566 82.4244 107.441 82.8538C109.947 83.321 113 83.1241 115.286 81.9941C119.496 79.9342 121.184 75.0302 124.26 71.825C125.405 70.6899 126.654 69.9412 128.18 69.8428C129.803 69.7184 131.459 70.1029 133.127 69.7595C135.401 69.3574 138.079 68.5362 139.675 66.7628C140.961 65.3828 141.461 63.3853 142.11 61.5551C142.803 59.5059 143.593 57.4307 144.924 55.8316C145.876 54.7483 146.984 54.2445 148.31 53.7856C150.216 53.1714 152.07 52.364 153.55 50.9322C155.294 49.3261 155.794 47.3286 155.585 45.0035C155.278 41.1518 154.009 36.4187 156.743 33.0981C157.695 32.0147 158.996 31.4592 160.148 30.7364C162.188 29.4649 163.925 27.4467 164.103 25.018C164.254 22.4927 163.002 20.1366 162.187 17.8701C161.425 15.7968 161.216 13.4717 161.883 11.3258C162.532 9.49565 163.941 8.18633 165.472 6.94772C167.532 5.36063 169.495 3.79941 170.593 1.33098C171.505 -0.673443 171.4 -2.61223 170.953 -4.66655C170.506 -6.72088 170.252 -8.82697 170.192 -10.9848C170.171 -12.2216 170.421 -13.2203 171.18 -14.2519C172.441 -15.7285 173.727 -17.1086 174.498 -18.868C176.799 -23.4185 176.457 -29.3315 173.115 -33.3019C172.645 -33.9004 173.429 -34.8354 174.023 -34.1662C177.216 -30.363 177.937 -24.9659 176.39 -20.3068C175.723 -18.1609 174.566 -16.2979 173.164 -14.5763C172.308 -13.5189 171.472 -12.7771 171.351 -11.2954C171.218 -9.08579 171.621 -6.8124 172.067 -4.75807C172.463 -2.89693 172.613 -1.17721 172.087 0.723686C171.375 3.08859 169.76 5.17759 167.798 6.7388C166.195 8.09989 164.129 9.27473 163.094 11.2084C160.704 16.1971 165.727 20.6486 165.082 25.5836C164.757 27.845 163.503 29.7339 161.778 31.0243C160.581 31.9662 159.061 32.4769 157.89 33.5154C156.243 35.0955 155.95 37.8658 156.107 39.9977C156.142 42.059 156.685 44.0874 156.72 46.1487C156.648 50.5162 153.205 53.5092 149.2 54.7894C147.777 55.2742 146.496 55.5141 145.57 56.694C144.071 58.4415 143.359 60.8064 142.691 62.9522C142.139 64.7565 141.369 66.516 139.985 67.9219C138.338 69.5021 135.975 70.3423 133.728 70.841C131.963 71.2103 130.288 71.1414 128.613 71.0726C126.745 71.0555 125.4 71.8301 124.236 73.2808C121.309 76.6533 119.375 81.4159 115.017 83.3085C112.776 84.2195 110.161 84.506 107.803 84.2061C105.761 83.9251 103.757 83.0128 101.695 83.0475C97.0381 83.053 95.4982 88.1244 93.2216 91.2191C90.7777 94.4621 85.9134 93.695 82.7101 92.1721C79.0428 90.4631 75.301 85.7717 71.0787 88.5595C70.0231 89.2564 69.1677 90.3139 67.9637 90.8435C66.6632 91.399 65.5609 90.7626 64.6001 89.8813C62.8267 88.2859 61.5294 86.1489 61.198 83.753C60.9184 81.5503 61.4374 79.2372 61.0353 76.9638C60.685 74.8836 59.0789 73.1398 57.0556 72.5432C56.0309 72.1966 54.7235 72.3398 53.7696 71.8707C52.5966 71.3568 52.1635 70.127 52.0202 68.8195C51.6888 66.4237 51.7697 64.0209 52.6044 61.7267C54.0426 57.8213 57.6905 54.0487 55.6754 49.6193C54.9456 48.0548 53.6881 46.8389 52.9842 45.3711C52.2803 43.9032 52.4716 42.299 53.346 40.9259C54.5033 39.0629 56.2211 37.3603 58.0943 36.2372C59.2465 35.5144 60.9851 35.0485 61.6922 33.8238C62.7788 32.0833 61.8798 29.1148 61.0276 27.4796C60.0011 25.5806 58.6141 23.8817 58.0447 21.7566C57.4753 19.6316 58.2652 17.5565 59.7898 15.9056C61.0765 14.5256 63.105 13.9821 64.8436 13.5162C66.6789 13.0244 68.8816 12.7448 69.9681 11.0043C71.3893 8.96704 70.4783 6.72646 69.162 4.90507C67.9683 3.1544 66.3881 1.50725 66.0119 -0.669556C65.6874 -2.65317 66.4773 -4.7283 68.0089 -5.96692C69.5405 -7.20553 71.6207 -7.55586 73.5336 -7.75784C75.7363 -8.03747 78.5255 -8.06013 79.7724 -10.3613C80.7813 -12.3916 79.6512 -14.677 78.8438 -16.5312C77.9847 -18.5786 77.467 -20.5104 77.7928 -22.7718C78.0549 -24.4985 78.529 -26.5925 80.2867 -27.3741C81.5872 -27.9296 83.0241 -27.5899 84.3385 -27.3209C85.9685 -27.033 88.0108 -26.752 89.4459 -27.9648C90.7136 -29.0292 90.7824 -30.704 90.5874 -32.2047C90.3198 -35.1353 90.1298 -37.7761 93.2845 -39.1391C97.4759 -40.8833 100.745 -38.3428 104.579 -36.7821C106.435 -36.0371 108.381 -35.7302 110.08 -37.1172C111.277 -38.0591 111.784 -39.6443 112.246 -41.0105C112.638 -42.2542 113.126 -43.5237 114.033 -44.388C115.178 -45.5231 116.872 -45.7699 118.45 -45.6752C120.538 -45.6132 122.323 -44.7458 123.993 -43.5368C125.54 -42.3984 127.165 -40.9704 129.066 -40.4444C133.744 -39.2132 134.464 -45.4109 135.846 -48.3692C137.607 -51.8433 141.522 -52.6854 144.688 -50.5313C146.331 -49.4189 147.57 -47.8873 149.117 -46.749C150.542 -45.6814 153.14 -44.0999 154.949 -44.6882C156.276 -45.1471 157.176 -46.4236 158.303 -47.2431C159.957 -48.411 162.126 -49.1994 164.195 -48.8219C168.279 -48.2599 170.198 -43.8046 172.237 -40.8311C173.268 -40.0722 172.187 -39.4718 171.716 -40.0703Z" fill="black"/>
<path d="M93.581 -38.8043C91.4851 -40.8309 88.7199 -42.264 86.0065 -43.504C82.7325 -44.9043 79.2205 -46.0339 75.7224 -46.3389C72.8815 -46.5094 69.6352 -46.2607 67.6604 -43.9716C65.589 -41.6566 65.4134 -37.6755 66.4796 -34.8554C66.8091 -34.0119 67.3577 -33.1236 67.2043 -32.1508C67.1026 -30.9847 66.0729 -30.1912 65.1846 -29.6426C63.6979 -28.623 62.1334 -27.8933 60.4655 -27.5499C58.9907 -27.2582 57.3676 -27.1339 55.8997 -26.43C54.168 -25.5519 53.6421 -23.651 53.5025 -21.8536C53.3181 -19.8372 54.0479 -18.2728 55.0226 -16.5669C55.623 -15.4854 56.2492 -14.3074 56.1993 -12.9482C56.0597 -11.1508 54.7541 -9.4551 53.3639 -8.46143C50.3714 -6.10668 45.8297 -6.44264 43.9016 -2.82017C42.7961 -0.763989 42.3289 1.74234 43.433 3.93115C44.1628 5.49558 45.3944 6.61494 46.2915 8.03101C48.3824 11.1978 48.3671 14.6183 46.0647 17.6163C44.9005 19.0671 43.5879 20.3505 42.3013 21.7306C40.9439 23.2331 39.5676 25.0512 38.481 26.7918C37.2531 28.7772 36.27 30.9041 36.2599 33.1845C36.1531 35.4907 36.9416 37.6606 37.994 39.6562C38.8462 41.2913 39.9175 42.9713 40.4093 44.8065C40.9528 46.835 40.8202 49.0446 40.3201 51.0421C39.0889 55.7201 36.2725 59.8912 37.013 64.9727C37.5653 68.9658 41.5223 70.5973 43.9926 73.2482C45.2761 74.5608 46.1283 76.1959 46.3303 78.1088C46.4546 79.7319 46.0701 81.3879 45.8788 82.9921C45.6685 84.9119 45.9223 87.018 47.3541 88.4978C48.6375 89.8104 50.4349 89.9499 52.1357 90.1154C53.8364 90.2808 55.5113 90.3497 57.0965 90.8567C58.7077 91.4603 59.8169 92.5089 60.8105 93.8991C61.63 95.0254 62.527 96.4415 64.0795 96.4396C66.1407 96.4049 67.524 94.999 68.6364 93.3551C69.5815 91.8595 70.5715 90.1449 70.711 88.3475C70.8196 87.5937 72.0564 87.5729 71.9478 88.3267C71.8082 90.1241 70.9149 91.8128 69.9956 93.405C69.1212 94.7781 68.1054 96.3961 66.541 97.1259C65.1697 97.8039 63.3793 98.0766 62.0062 97.2022C60.7556 96.3985 59.9551 94.9565 59.0391 93.8561C56.2462 90.774 52.1703 92.1767 48.6066 90.854C44.9462 89.5571 44.2007 85.6158 44.6282 82.1884C44.8902 80.4617 45.2488 78.7092 44.6864 76.9964C43.9686 74.704 41.8537 72.9931 40.0097 71.5202C38.7073 70.5233 37.4049 69.5264 36.6044 68.0845C35.6038 66.282 35.4208 64.0535 35.6052 62.0371C35.9601 57.1797 39.2854 52.9758 39.4212 48.0736C39.5122 43.3905 35.8431 40.129 35.1613 35.6529C34.3571 31.1061 36.5233 27.2128 39.2311 23.7955C40.5367 22.0999 41.8941 20.5973 43.348 19.0689C44.7313 17.663 46.1594 16.038 46.6594 14.0406C47.5819 9.75581 43.4178 7.35165 42.0738 3.88125C40.6521 0.121072 42.7526 -4.78992 46.3127 -6.57205C47.9478 -7.4243 49.8348 -7.72287 51.47 -8.57511C53.2017 -9.45324 55.3508 -11.4785 55.0712 -13.6812C54.8761 -15.1818 53.6893 -16.5202 53.1337 -17.8208C52.3263 -19.675 52.2209 -21.6138 52.6244 -23.5854C52.9382 -25.1188 53.7867 -26.5885 55.1062 -27.4597C56.4516 -28.2343 57.9781 -28.3328 59.5495 -28.6503C61.5331 -28.9747 63.1941 -29.7304 64.8741 -30.8017C65.9296 -31.4986 66.3798 -32.1369 65.9467 -33.3667C65.4878 -34.6931 64.984 -35.8005 64.8149 -37.2045C64.6905 -38.8277 64.9008 -40.7475 65.4078 -42.3327C66.4287 -45.091 68.8486 -46.8782 71.7274 -47.339C75.0892 -47.9292 78.5425 -47.4051 81.713 -46.3911C85.0766 -45.4289 88.4731 -43.9579 91.4643 -42.0676C92.5924 -41.3346 93.624 -40.5758 94.6107 -39.5978C95.0558 -39.0959 94.1485 -38.2317 93.581 -38.8043Z" fill="black"/>
<path d="M75.941 87.7744C75.5791 92.2195 76.5955 96.3988 79.2021 99.945C80.4925 101.67 82.2538 103.993 84.6945 103.443C86.5557 103.047 88.2546 101.661 90.0381 100.976C92.3493 99.9422 95.0091 99.4365 97.5413 100C99.8286 100.423 102.014 102.011 104.313 101.706C107.63 101.335 109.714 98.2917 111.147 95.5265C112.297 93.2513 113.479 89.9324 115.957 88.7507C118.436 87.5689 121.272 88.8796 123.618 89.9074C126.917 91.4044 130.281 92.3666 133.745 90.6103C137.015 88.9058 138.995 85.4765 141.349 82.6716C142.539 81.3175 143.633 79.9892 145.552 80.1995C148.393 80.37 151.241 80.9528 153.932 79.4036C156.983 77.6543 158.428 74.1612 159.758 71.0097C161.132 67.6391 161.579 63.896 163.759 60.8272C164.826 59.4023 166.068 58.2414 167.581 57.3184C169.287 56.3437 171.238 55.5104 172.717 54.0786C175.439 51.4858 176.149 47.5685 175.701 43.9618C175.381 40.838 174.36 37.7988 174.041 34.675C173.669 31.358 174.542 28.4325 175.801 25.4035C176.661 23.2059 177.722 21.3688 177.391 18.9729C177.118 17.1825 176.581 15.5663 176.019 13.8535C175.379 11.8509 174.861 9.91907 174.221 7.91651C173.659 6.20372 172.929 4.63929 171.716 3.20427C171.245 2.60577 172.03 1.6708 172.623 2.34001C175.049 5.21005 175.839 8.93233 176.893 12.4804C177.766 15.3523 179.226 18.4811 178.695 21.5222C178.254 24.1251 176.62 26.5298 175.863 29.1138C174.83 32.5999 175.569 36.129 176.307 39.6581C176.943 42.8008 177.578 45.9435 176.879 49.1329C176.046 52.9795 173.64 55.5913 170.299 57.4182C168.304 58.4706 166.431 59.5937 165.054 61.4118C163.916 62.9592 163.293 64.886 162.671 66.8127C161.638 70.2989 160.412 73.8367 158.451 76.9504C156.561 79.9415 153.703 81.6391 150.141 81.8688C148.904 81.8896 147.641 81.8138 146.353 81.6414C145.599 81.5328 144.968 81.4949 144.318 81.7727C143.236 82.3731 142.336 83.6496 141.577 84.6811C140.413 86.1319 139.178 87.7051 137.917 89.1817C135.511 91.7934 132.215 93.4013 128.594 93.0256C125.386 92.643 122.781 90.6492 119.714 90.0216C118.058 89.6371 116.68 89.9028 115.464 91.1604C114.345 92.3921 113.619 93.9325 112.963 95.3504C111.459 98.238 110.026 101.003 106.897 102.463C104.515 103.619 102.421 103.144 100.005 102.239C97.2465 101.218 94.5728 100.899 91.7268 101.869C89.6277 102.535 87.9288 103.922 85.8555 104.684C83.9754 105.395 82.1711 104.844 80.6945 103.583C77.8637 101.132 75.9332 97.4045 75.1687 93.7788C74.7736 91.9177 74.6682 89.9789 74.8526 87.9625C74.6904 86.9707 75.953 87.0464 75.941 87.7744Z" fill="black"/>
<path d="M185.538 -36.0092C179.189 -28.407 182.411 -17.1574 185.171 -8.78667C186.581 -4.29859 188.28 0.111853 189.497 4.6517C190.901 10.28 191.919 16.0117 191.727 21.8609C191.653 24.676 191.289 27.5687 190.558 30.2492C189.897 32.8073 188.406 34.967 187.062 37.2941C185.622 39.647 184.813 42.0377 184.836 44.8269C184.762 47.642 185.416 50.469 185.535 53.2323C185.819 58.5398 183.454 63.6251 178.193 65.2418C175.708 66.0113 173.241 66.4651 171.408 68.5093C169.742 70.4051 169.133 73.1564 168.517 75.4954C167.786 78.176 166.959 80.8825 164.906 82.8818C162.95 84.8553 160.479 86.4493 157.8 87.2706C152.443 88.9132 147.235 86.478 143.771 82.4369C143.203 81.8643 144.085 80.9034 144.678 81.5726C148.09 85.4206 152.834 87.6695 157.972 85.9821C160.432 85.116 162.904 83.5219 164.544 81.5295C166.184 79.5371 166.819 76.8824 167.505 74.4209C168.146 72.1785 168.788 69.936 170.164 68.1179C171.611 66.1772 173.755 65.2922 175.951 64.6003C178.559 63.9015 180.825 63.0871 182.362 60.7084C184.066 58.1812 184.281 55.1212 184.014 52.1906C183.701 49.4791 183.292 46.7934 183.392 44.075C183.473 41.6722 184.308 39.378 185.51 37.2959C186.783 35.0914 188.178 32.9575 188.987 30.5668C189.911 27.8344 190.223 24.7485 190.297 21.9335C190.393 16.1102 189.471 10.3525 187.97 4.75016C186.78 0.306903 185.228 -3.93624 183.748 -8.30186C180.832 -17.2521 177.778 -28.6501 184.41 -36.7422C185.15 -37.4581 186.014 -36.5508 185.538 -36.0092Z" fill="black"/>
<path d="M178.515 -42.5133C176.372 -45.8732 173.007 -48.3878 169.719 -50.6127C165.793 -53.2877 161.558 -55.5694 157.137 -57.387C153.276 -59.0443 149.081 -60.4049 144.881 -60.6254C139.611 -60.9733 134.414 -59.8914 129.469 -58.2557C119.772 -55.0362 110.644 -49.6917 100.437 -47.9918C95.4775 -47.1806 90.4269 -47.4838 85.6712 -49.0047C81.4502 -50.4619 77.4603 -52.6022 73.2394 -54.0594C69.115 -55.5424 64.1213 -56.7926 59.8074 -55.119C57.4703 -54.1822 55.4885 -52.3053 54.4348 -50.056C53.5484 -47.955 53.4416 -45.6488 53.4056 -43.465C53.211 -39.1683 52.1471 -34.6386 47.9109 -32.6753C45.8894 -31.7195 43.7126 -31.3433 41.5428 -30.5548C39.1797 -29.7146 36.8754 -28.2689 35.1127 -26.3472C29.8694 -20.8012 34.1307 -12.6255 34.7246 -6.15885C34.9991 -2.816 34.6872 0.269887 32.5261 3.02302C30.7704 5.35697 28.2021 6.97688 26.1496 8.97622C23.8592 11.2464 22.5933 13.8632 22.842 17.1094C23.1544 19.821 24.3551 21.9839 25.8008 24.2883C27.2206 26.496 28.5438 28.7297 28.444 31.4481C28.3562 33.4387 27.5594 35.1015 26.5695 36.8162C25.5985 38.2152 24.486 39.8591 24.4948 41.8238C24.3849 46.8226 29.3425 50.2564 33.6791 51.3721C35.6765 51.8721 37.7189 52.1531 39.7991 51.8028C40.5977 51.6923 40.6185 52.9291 39.8199 53.0395C35.6077 53.547 30.9296 52.3158 27.5382 49.7046C24.1727 47.19 22.1835 42.8572 23.8857 38.7776C24.6566 37.0182 25.8915 35.4449 26.6623 33.6855C27.6832 30.9273 26.9586 28.2227 25.3904 25.8476C23.9189 23.4467 22.3318 21.3873 21.8003 18.6309C21.431 16.8664 21.3515 15.0242 21.8067 13.2457C23.3776 7.13081 30.6479 5.28626 32.857 -0.378523C34.2763 -3.96818 33.1823 -8.43731 32.4179 -12.063C31.7311 -15.3989 30.7027 -18.8504 31.3493 -22.233C32.0596 -26.1503 35.1418 -28.9432 38.5794 -30.796C40.813 -32.1192 43.3762 -32.599 45.8617 -33.3685C48.5145 -34.2864 50.2841 -35.7958 51.3309 -38.4574C52.9106 -42.6077 51.4233 -47.3856 53.6602 -51.4013C55.897 -55.4171 60.3264 -57.4322 64.7198 -57.2635C74.6208 -57.0177 82.7716 -49.7807 92.6088 -49.0002C103.419 -48.0662 113.442 -53.5471 123.177 -57.3979C132.429 -61.1193 142.211 -63.6368 152.012 -60.6725C156.523 -59.293 160.995 -57.2821 165.134 -54.9746C169.027 -52.8084 172.927 -50.23 176.255 -47.0841C177.512 -45.8681 178.699 -44.5297 179.719 -43.0429C179.971 -42.4892 178.889 -41.8889 178.515 -42.5133Z" fill="black"/>
<path d="M118.723 5.18726C115.258 11.1885 110.001 15.91 104.118 19.4535C100.9 21.3512 97.6034 22.9591 94.0812 24.1099C90.3659 25.3125 86.4504 26.1545 82.6574 27.0674C78.1882 28.1613 73.6484 29.3778 69.4898 31.6309C68.7689 32.0311 68.1685 30.9496 68.8895 30.5494C77.6896 25.9138 87.725 25.5024 96.8805 21.8069C105.193 18.4409 113.121 12.4858 117.621 4.55086C118.045 3.81602 119.148 4.45241 118.723 5.18726Z" fill="black"/>
<path d="M99.2384 22.1068C93.1568 26.8422 87.8757 33.0196 83.7157 39.5176C80.2888 44.8876 76.9465 50.9595 71.1528 54.0649C70.4318 54.4651 69.8314 53.3836 70.5524 52.9834C76.5393 49.8263 79.6815 43.3939 83.3016 37.9722C87.4167 31.6931 92.5823 25.8573 98.3742 21.1996C98.9985 20.8252 99.8369 21.6359 99.2384 22.1068Z" fill="black"/>
<path d="M88.6228 32.7159C88.6871 37.9785 90.5885 44.3019 87.077 48.9698C86.6268 49.608 85.5246 48.9716 85.9747 48.3334C89.3448 43.9104 87.3727 37.7096 87.3602 32.6401C87.3722 31.9122 88.6348 31.9879 88.6228 32.7159Z" fill="black"/>
<path d="M101.781 20.3902C95.1126 19.0712 88.9699 15.8513 82.0771 15.6277C81.2526 15.6415 81.3284 14.3789 82.0563 14.3909C89.0457 14.5887 95.2849 17.7827 102.076 19.1724C102.856 19.3776 102.561 20.5954 101.781 20.3902Z" fill="black"/>
<path d="M121.027 13.7841C122.511 21.2545 121.722 29.127 120.61 36.5684C119.613 43.6682 117.934 50.5369 114.792 56.9694C113.101 60.321 111.025 63.7762 107.936 66.1568C107.337 66.6278 106.376 65.7464 107.072 65.2496C112.336 60.9403 115.271 53.7351 117.202 47.4201C119.223 40.6669 120.097 33.4964 120.417 26.5777C120.664 22.4742 120.568 18.2551 119.797 14.2171C119.661 13.3219 120.916 12.9854 121.027 13.7841Z" fill="black"/>
<path d="M119.327 41.0533C115.743 44.2913 112.081 47.2395 108.645 50.6447C105.139 54.1725 102.148 58.0796 100.041 62.5784C99.7131 63.2873 98.6109 62.6509 98.9385 61.942C101.168 57.514 104.037 53.5361 107.543 50.0083C110.953 46.5065 114.808 43.5065 118.463 40.1461C119.061 39.6751 119.899 40.4858 119.327 41.0533Z" fill="black"/>
<path d="M117.453 52.2188C119.464 53.5434 120.858 55.6545 121.743 57.7985C122.725 59.9166 123.275 62.3573 123.098 64.786C123.015 65.6364 121.753 65.5606 121.861 64.8068C122.02 62.6938 121.521 60.4463 120.688 58.4955C119.854 56.5447 118.609 54.6008 116.842 53.4177C116.178 52.8709 116.718 51.7945 117.453 52.2188Z" fill="black"/>
<path d="M85.637 78.7573C88.3928 72.4283 91.2245 64.8368 88.176 58.0961C87.8723 57.3492 88.9538 56.7489 89.2574 57.4957C92.5319 64.6935 89.7779 72.5748 86.7392 79.3937C86.4116 80.1026 85.3093 79.4662 85.637 78.7573Z" fill="black"/>
<path d="M136.738 -18.3782C134.488 -9.38953 135.634 1.07021 139.657 9.51674C141.569 13.5598 144.034 17.3509 145.778 21.5423C147.471 25.5404 148.294 29.7716 147.494 34.127C147.385 34.8808 146.167 34.586 146.276 33.8322C147.81 24.1036 140.986 16.4076 137.472 7.92829C135.753 3.83351 134.923 -0.809876 134.486 -5.14453C134.094 -9.69825 134.334 -14.2141 135.449 -18.5506C135.822 -19.4786 136.943 -19.1579 136.738 -18.3782Z" fill="black"/>
<path d="M136.578 3.81973C135.412 9.51547 135 15.3198 135.922 21.0775C136.869 26.9317 139.073 32.4495 141.926 37.6896C142.326 38.4105 141.245 39.0109 140.845 38.2899C137.939 32.8567 135.659 27.0491 134.659 21.0017C133.808 15.1216 134.194 9.22062 135.334 3.42829C135.565 2.7452 136.686 3.06594 136.578 3.81973Z" fill="black"/>
<path d="M137.028 3.18131C140.999 5.63724 143.587 9.49909 146.342 13.2126C149.367 17.1641 152.818 20.3807 157.83 21.3152C158.584 21.4238 158.289 22.6416 157.535 22.533C152.645 21.6692 149.054 18.6975 146.054 14.8426C143.08 11.0843 140.608 6.88093 136.488 4.2577C135.753 3.83343 136.39 2.73116 137.028 3.18131Z" fill="black"/>
<path d="M146.723 14.2493C149.862 10.5095 154.931 10.497 159.323 9.11321C160.096 8.90615 160.406 10.0653 159.659 10.3689C155.532 11.5784 150.681 11.6358 147.587 15.1566C147.137 15.7948 146.273 14.8876 146.723 14.2493Z" fill="black"/>
<path d="M71.1594 11.2026C68.4719 10.0592 65.386 9.74727 62.5002 9.79582C59.5178 9.87024 56.3941 10.1896 53.6257 11.449C52.8788 11.7527 52.2785 10.6712 53.0253 10.3676C55.8903 9.08227 59.1814 8.61454 62.2862 8.61082C65.3652 8.51051 68.6701 8.86728 71.5767 10.0555C72.2598 10.2866 71.8683 11.5303 71.1594 11.2026Z" fill="black"/>
<path d="M63.4238 32.9457C57.1245 33.3913 51.4718 30.4543 46.2761 27.2912C45.5412 26.867 46.1776 25.7647 46.9125 26.189C51.9598 29.1847 57.3935 32.0769 63.3772 31.6124C64.2275 31.6951 64.1518 32.9577 63.4238 32.9457Z" fill="black"/>
<path d="M56.2078 32.2908C52.1648 34.2024 48.5479 36.9315 45.176 39.802C44.5775 40.273 43.6425 39.4882 44.3117 38.8948C47.7803 35.9984 51.4679 33.1468 55.5816 31.1128C56.3285 30.8091 56.9288 31.8906 56.2078 32.2908Z" fill="black"/>
<path d="M52.1524 66.61C49.0078 65.6926 45.7288 65.4324 42.5583 64.4184C41.7786 64.2132 42.1701 62.9695 42.8532 63.2006C45.927 64.2405 49.3027 64.4748 52.4473 65.3922C53.227 65.5974 52.9321 66.8152 52.1524 66.61Z" fill="black"/>
<path d="M60.8263 74.6387C58.71 77.1727 55.7554 78.8962 53.0716 80.8576C52.3765 81.3545 51.7762 80.273 52.4713 79.7762C55.0843 77.9372 57.9424 76.2396 59.962 73.7315C60.5346 73.1639 61.373 73.9745 60.8263 74.6387Z" fill="black"/>
<path d="M28.3481 15.6342C34.9839 16.4443 40.8603 12.4886 47.5271 12.2551C48.3516 12.2413 48.3724 13.478 47.5479 13.4919C40.8811 13.7253 35.1013 17.6552 28.3689 16.8709C27.6151 16.7623 27.5943 15.5255 28.3481 15.6342Z" fill="black"/>
<path d="M28.8056 42.8428C32.0777 42.6908 35.2204 42.0557 38.4149 41.6139C38.7047 41.5362 39.0273 41.9674 39.0083 42.2831C39.0153 42.6953 38.7514 42.8696 38.3391 42.8765C35.1188 43.2218 32.0019 43.9534 28.7298 44.1055C27.9053 44.1193 27.9811 42.8567 28.8056 42.8428Z" fill="black"/>
<path d="M98.5668 96.102C100.372 92.4089 101.726 87.8015 99.7697 83.9776C99.4661 83.2307 100.548 82.6304 100.851 83.3772C102.963 87.7807 101.687 92.6778 99.5983 96.8609C99.3414 97.4474 98.2391 96.811 98.5668 96.102Z" fill="black"/>
<path d="M81.7964 98.4217C81.9549 96.3087 82.4032 94.118 83.5604 92.255C83.9847 91.5202 85.087 92.1566 84.6627 92.8914C83.6469 94.5095 83.2434 96.4811 83.1297 98.3751C83.1108 98.6907 82.8728 98.9616 82.4605 98.9685C82.1708 99.0461 81.7775 98.7374 81.7964 98.4217Z" fill="black"/>
<path d="M127.744 82.9005C128.262 79.0349 128.147 75.1315 129.103 71.3556C129.308 70.5759 130.526 70.8707 130.32 71.6504C129.436 75.3038 129.524 79.1107 128.981 82.8797C128.873 83.6335 127.636 83.6543 127.744 82.9005Z" fill="black"/>
<path d="M146.702 72.1268C147.876 68.3957 150.082 65.4235 151.991 62.1167C152.84 60.647 153.688 59.1773 153.345 57.5093C153.053 56.0346 152.594 54.7081 152.496 53.1816C152.482 52.3571 153.719 52.3363 153.732 53.1608C153.831 54.6873 154.412 56.0845 154.607 57.5851C154.854 59.279 154.295 60.671 153.518 62.0182C151.564 65.5441 149.19 68.6647 147.945 72.5182C147.618 73.2272 146.496 72.9064 146.702 72.1268Z" fill="black"/>
<path d="M168.416 7.50485C168.808 12.0586 168.691 16.6451 168.767 21.1799C168.811 25.2058 169.267 29.2248 169.722 33.2438C170.394 40.0002 170.834 47.4397 166.59 53.2357C166.14 53.874 165.037 53.2376 165.488 52.5994C169.732 46.8033 169.072 39.319 168.375 32.466C167.945 28.5436 167.612 24.5953 167.472 20.5953C167.325 16.183 167.494 11.7896 167.127 7.33247C167.139 6.60456 168.402 6.68035 168.416 7.50485Z" fill="black"/>
<path d="M169.169 39.2928C166.42 40.2366 163.826 41.7599 161.702 43.8817C161.13 44.4493 160.265 43.5421 160.838 42.9745C163.032 40.7302 165.793 39.0585 168.833 38.0371C169.702 37.8042 169.942 39.0858 169.169 39.2928Z" fill="black"/>
<path d="M177.445 -21.0035C178.481 -17.1398 178.208 -13.1329 178.129 -9.17764C178.067 -7.09049 178.128 -4.93264 178.575 -2.87831C179.048 -0.727394 179.978 1.19752 180.933 3.21903C182.671 6.99815 184.022 10.8808 184.529 15.093C185.062 19.4018 184.745 23.6278 183.797 27.816C183.592 28.5956 182.374 28.3008 182.579 27.5211C183.502 23.2364 183.864 18.7912 183.111 14.4376C182.481 10.1547 180.885 6.13068 179.026 2.28084C177.243 -1.27921 176.795 -4.88595 176.874 -8.84117C176.927 -12.893 177.321 -16.8293 176.26 -20.7896C176.079 -21.4657 177.238 -21.7763 177.445 -21.0035Z" fill="black"/>
</g>
<defs>
<clipPath id="clip0_1645_82">
<rect width="165.6" height="205.7" fill="white" transform="matrix(0.258819 0.965926 0.965926 -0.258819 0.813477 -40.761)"/>
</clipPath>
</defs>
</svg>
